<svg width="160" height="30" viewBox="0 0 160 30" fill="none" xmlns="http://www.w3.org/2000/svg">
<g clip-path="url(#clip0_7514_10370)">
<path d="M159.996 29.8981H151.918V28.8996C151.918 22.4303 151.918 15.9594 151.918 9.49009C151.918 7.55739 150.729 6.49166 148.797 6.68737C146.877 6.88156 145.449 8.31579 145.305 10.221C145.253 10.906 145.227 11.594 145.227 12.279C145.221 17.8065 145.224 23.334 145.223 28.8614C145.223 29.1871 145.223 29.5113 145.223 29.8843H137.16V0.225676H145.972C146.382 1.39233 145.625 2.17519 145.178 3.06356C145.025 3.36784 144.466 3.64459 144.952 4.05896C144.993 4.09413 145.504 3.68435 145.7 3.41218C148.528 -0.532725 154.109 -0.918041 157.216 1.54064C158.831 2.81739 159.502 4.61553 159.808 6.56352C159.953 7.48706 159.987 8.43659 159.988 9.37388C160.004 15.8952 159.996 22.4165 159.996 28.9363V29.8981Z" fill="white"/>
<path d="M114.952 0.175177C114.596 1.77913 114.28 3.2363 113.948 4.69041C112.079 12.8754 110.2 21.0572 108.35 29.2452C108.231 29.7697 108.062 29.9516 107.514 29.947C104.634 29.9195 101.757 29.9256 98.8778 29.9424C98.4038 29.9455 98.1912 29.8538 98.0704 29.3171C96.2723 21.3248 94.439 13.3402 92.6133 5.35554C92.2739 3.87238 91.9298 2.39075 91.595 0.906055C91.546 0.690461 91.5414 0.465693 91.5078 0.172119C93.624 0.172119 95.6821 0.172119 97.7402 0.172119C99.6209 0.172119 99.5949 0.176706 99.9068 2.05742C100.842 7.68732 101.812 13.3127 102.735 18.9456C102.887 19.8692 102.876 20.8202 102.945 21.7591C102.966 22.045 103.006 22.3294 103.037 22.6138C103.107 22.6245 103.176 22.6367 103.246 22.6474C103.312 22.4899 103.428 22.3355 103.439 22.1734C103.815 16.0221 105.281 10.036 106.18 3.96412C106.336 2.90909 106.491 1.85406 106.699 0.809726C106.744 0.577313 107.007 0.207287 107.176 0.205758C109.717 0.167532 112.26 0.178235 114.951 0.178235L114.952 0.175177Z" fill="white"/>
<path d="M49.5337 17.4073H41.0078V24.158H49.5199V29.8842H32.8672V0.237793H49.5276V6.06647C49.2478 6.07871 48.9756 6.10164 48.7049 6.10164C46.3869 6.1047 44.0674 6.12458 41.7494 6.09094C41.0995 6.08176 40.9176 6.305 40.9298 6.92426C40.9634 8.52363 40.9405 10.123 40.9405 11.8004H49.5337V17.4073Z" fill="white"/>
<path d="M80.3167 11.7958H88.8411V17.3905H80.3167C80.3167 17.8859 80.3167 18.3079 80.3167 18.7299C80.3167 20.259 80.3473 21.788 80.3029 23.3155C80.283 23.9761 80.4619 24.2008 81.1515 24.1886C83.4191 24.1473 85.6867 24.1748 87.9542 24.1748C88.2294 24.1748 88.5047 24.1748 88.8395 24.1748V29.8949C88.5903 29.9087 88.3686 29.9301 88.1453 29.9301C83.0995 29.9316 78.0552 29.9209 73.0094 29.9469C72.3703 29.95 72.1914 29.768 72.1914 29.135C72.2082 19.7574 72.2052 10.3814 72.199 1.00387C72.199 0.497758 72.2097 0.152196 72.91 0.156783C78.0323 0.185835 83.153 0.172074 88.2753 0.175132C88.4496 0.175132 88.6224 0.201125 88.8456 0.219474V6.10626C88.3319 6.10626 87.8548 6.10626 87.3778 6.10626C85.3136 6.10626 83.2494 6.13837 81.1867 6.09097C80.4574 6.07415 80.2846 6.32644 80.3029 7.00839C80.3473 8.57871 80.3167 10.1521 80.3167 11.7988V11.7958Z" fill="white"/>
<path d="M125.576 11.8082H134.143V17.3739H125.623C125.605 17.6736 125.579 17.9167 125.578 18.1583C125.574 19.8907 125.599 21.6246 125.564 23.3555C125.55 23.9793 125.727 24.1949 126.374 24.1857C128.718 24.1521 131.062 24.1949 133.406 24.1613C134.045 24.1521 134.246 24.3478 134.226 24.9808C134.184 26.3554 134.217 27.7316 134.21 29.1077C134.21 29.3554 134.177 29.6016 134.157 29.8875H117.57V0.215046C117.848 0.199755 118.096 0.172233 118.344 0.172233C123.338 0.169175 128.331 0.184465 133.325 0.153884C134.033 0.149297 134.249 0.354188 134.227 1.05142C134.181 2.47648 134.194 3.9046 134.223 5.33119C134.235 5.91375 134.062 6.12629 133.444 6.11711C131.076 6.08347 128.706 6.12323 126.336 6.09265C125.721 6.085 125.55 6.28989 125.564 6.88316C125.599 8.48406 125.576 10.085 125.576 11.8082Z" fill="white"/>
<path d="M69.177 23.5801V29.8813H52.5977V0.224121H60.6099C60.6099 0.554392 60.6099 0.851025 60.6099 1.14919C60.6099 8.28366 60.6099 15.4197 60.6099 22.5542C60.6099 23.2371 60.959 23.5791 61.6573 23.5801C64.1266 23.5801 66.596 23.5801 69.1755 23.5801H69.177Z" fill="white"/>
<path d="M22.3829 0.124756C22.3829 2.55592 22.3921 4.89534 22.3645 7.23629C22.363 7.41978 22.1459 7.6736 21.9624 7.77146C17.9655 9.88611 15.6536 13.1873 14.9793 17.6429C14.9029 18.1429 14.8937 18.6566 14.8922 19.1658C14.8845 22.4502 14.8891 25.7361 14.8891 29.022C14.8891 29.2987 14.8891 29.5739 14.8891 29.9027H7.48089C7.45949 29.7269 7.41819 29.5342 7.41819 29.3415C7.41819 25.7758 7.31576 22.2071 7.45949 18.6475C7.65673 13.7668 9.50991 9.50538 12.8173 5.90451C15.2958 3.2027 18.3019 1.31588 21.8172 0.250137C21.9594 0.207324 22.1077 0.184388 22.3829 0.124756Z" fill="white"/>
<path d="M18.3744 0.22876C15.6038 1.60489 13.3561 3.32659 11.4494 5.48711C11.1298 5.84949 10.7751 6.19811 10.5381 6.61248C10.1176 7.34489 9.53811 7.53907 8.71549 7.52225C6.12072 7.47027 3.52289 7.50543 0.928124 7.50238C0.631491 7.50238 0.333329 7.47638 0 7.45956V0.22876H18.3744Z" fill="white"/>
<path d="M22.4298 11.8523H29.8548C29.8548 13.5633 29.867 15.2346 29.8334 16.9058C29.8303 17.0465 29.523 17.2972 29.3548 17.2988C27.2188 17.3263 25.0812 17.3278 22.9451 17.2988C22.7708 17.2957 22.4558 17.0067 22.4512 16.8462C22.4145 15.1994 22.4283 13.5511 22.4283 11.8539L22.4298 11.8523Z" fill="white"/>
</g>
<defs>
<clipPath id="clip0_7514_10370">
<rect width="160" height="30" fill="white"/>
</clipPath>
</defs>
</svg>
