<svg width="153" height="40" viewBox="0 0 153 40" fill="none" xmlns="http://www.w3.org/2000/svg">
<g clip-path="url(#clip0_7514_10347)">
<path d="M0 33.9398C0.0660331 33.6436 0.118384 33.3431 0.200479 33.0511C0.677583 31.3491 1.85726 30.3098 3.44384 29.6715C4.77461 29.1361 6.17499 28.9451 7.59678 28.9011C8.42904 28.8749 9.26248 28.8939 10.0953 28.8922C10.2018 28.8922 10.3083 28.8922 10.438 28.8922C10.4529 28.1123 10.4957 27.3591 10.2203 26.6399C9.85321 25.6797 9.06676 25.3305 8.11493 25.2758C7.76276 25.2556 7.3969 25.277 7.05246 25.3508C6.06255 25.5625 5.45338 26.1687 5.2767 27.1812C5.26004 27.2782 5.23625 27.374 5.21186 27.487H0.560984C0.717441 25.8897 1.30282 24.528 2.5158 23.4727C3.60446 22.525 4.90906 22.0568 6.31122 21.848C7.98525 21.5982 9.65273 21.6565 11.2851 22.1348C13.8735 22.8933 15.3738 24.8386 15.3934 27.5471C15.4226 31.4972 15.403 35.4473 15.403 39.3974C15.403 39.4551 15.394 39.5128 15.3881 39.5883H10.651V37.5871C10.5284 37.7239 10.466 37.79 10.4077 37.8602C9.37373 39.0987 8.05307 39.7924 6.44448 39.9423C6.35762 39.9506 6.27255 39.9804 6.18629 40H5.29395C4.80852 39.9191 4.31535 39.8709 3.83944 39.7519C2.04703 39.304 0.744211 38.2986 0.205833 36.4646C0.118384 36.1623 0.0678178 35.85 0 35.5437C0 35.0088 0 34.4746 0 33.9398ZM10.394 32.1557C9.70449 32.1557 9.01144 32.1325 8.32077 32.1629C7.76038 32.1873 7.19285 32.2307 6.64555 32.3473C5.77522 32.5329 5.07206 32.9624 4.90311 33.9309C4.85611 34.2004 4.86087 34.483 4.87455 34.7578C4.91382 35.5401 5.28681 36.1035 6.02448 36.3997C6.7211 36.6793 7.43795 36.6745 8.15003 36.4842C9.27141 36.1844 10.175 35.5895 10.3731 34.3711C10.4886 33.6614 10.394 32.919 10.394 32.1557Z" fill="white"/>
<path d="M62.6436 39.9989C62.0868 39.9204 61.5258 39.8657 60.9738 39.7598C57.7607 39.1452 55.499 36.8561 54.9177 33.6223C54.5275 31.4509 54.5192 29.2819 55.2217 27.1706C56.2569 24.0593 58.4342 22.2289 61.6769 21.7274C63.3129 21.4745 64.9423 21.6072 66.5021 22.2069C69.0096 23.1706 70.382 25.0677 70.9043 27.6406C71.1982 29.0886 71.0887 30.5538 71.1131 32.0553H59.6406C59.7548 33.4706 59.963 34.8001 61.1034 35.7514C61.812 36.3421 62.6746 36.4825 63.5651 36.4188C64.9453 36.3201 65.9691 35.6937 66.4807 34.3534C66.5075 34.2832 66.6139 34.1957 66.6835 34.1957C68.1398 34.1868 69.5961 34.1886 71.0911 34.1886C71.078 34.304 71.0762 34.398 71.0554 34.4872C70.4224 37.1559 68.7008 38.7883 66.1279 39.5634C65.4432 39.7699 64.7121 39.821 64.0024 39.9436C63.906 39.9602 63.8108 39.9799 63.715 39.9983L62.6436 39.9989ZM66.2689 28.7733C66.2076 28.339 66.1785 27.9339 66.0892 27.5424C65.8299 26.3973 65.2368 25.5162 64.0321 25.2117C62.7894 24.8976 61.6632 25.1224 60.7816 26.1064C60.1118 26.8536 59.875 27.7881 59.7388 28.7739L66.2689 28.7733Z" fill="white"/>
<path d="M143.906 39.9989C143.456 39.9394 143.006 39.8894 142.558 39.8193C139.154 39.2856 136.742 36.8959 136.174 33.4961C135.833 31.4634 135.842 29.4425 136.41 27.4461C137.328 24.2146 139.851 22.0772 143.191 21.6988C144.767 21.5203 146.315 21.6417 147.805 22.2176C150.167 23.1307 151.535 24.8928 152.111 27.3158C152.175 27.5823 152.232 27.8506 152.293 28.1183V32.0386C152.165 32.047 152.037 32.0624 151.91 32.0624C148.401 32.0636 144.891 32.0636 141.381 32.0636H140.992C141.056 32.5241 141.094 32.9363 141.173 33.3409C141.549 35.2421 142.49 36.2094 144.243 36.4046C145.718 36.5688 147.185 36.0102 147.796 34.4729C147.883 34.2546 147.982 34.1803 148.22 34.182C149.578 34.1916 150.935 34.1809 152.294 34.1773V35.0089C152.268 35.0464 152.233 35.0803 152.217 35.122C151.214 37.727 149.285 39.2172 146.586 39.7669C146.056 39.8746 145.513 39.9234 144.976 39.9989H143.906ZM147.558 28.7691C147.486 28.3093 147.45 27.8833 147.351 27.4723C147.076 26.3384 146.465 25.4895 145.266 25.201C144.024 24.9023 142.917 25.1498 142.039 26.1111C141.363 26.8524 141.097 27.7828 140.924 28.7691H147.558Z" fill="white"/>
<path d="M110.174 39.9989C109.767 39.9275 109.351 39.8841 108.953 39.78C106.834 39.2285 105.673 37.7871 105.249 35.7056C105.131 35.1279 105.074 34.5289 105.072 33.9393C105.056 30.0892 105.065 26.239 105.065 22.3889C105.065 22.3008 105.065 22.2134 105.065 22.1027H110.013C110.018 22.2253 110.029 22.3496 110.029 22.474C110.03 25.9975 110.026 29.5211 110.033 33.0446C110.035 33.4878 110.049 33.9399 110.134 34.3724C110.387 35.6473 111.246 36.2868 112.589 36.2481C114.34 36.1975 115.574 35.006 115.587 33.2588C115.616 29.6858 115.603 26.1129 115.607 22.54C115.607 22.4508 115.581 22.3514 115.613 22.2759C115.646 22.1985 115.734 22.0891 115.797 22.0885C117.354 22.0795 118.911 22.0831 120.467 22.0861C120.494 22.0861 120.52 22.1063 120.56 22.1224V39.5866H115.71V37.0893C115.459 37.4415 115.261 37.7574 115.026 38.0423C114.066 39.2023 112.803 39.7836 111.323 39.9388C111.217 39.9501 111.113 39.9787 111.008 39.9995H110.175L110.174 39.9989Z" fill="white"/>
<path d="M25.9973 39.9987C25.4893 39.9285 24.9747 39.8869 24.4732 39.7828C21.212 39.1076 19.1894 37.1218 18.4321 33.9064C17.861 31.4816 17.9002 29.0461 18.811 26.6981C19.8937 23.9057 21.9657 22.2626 24.9206 21.7611C26.5684 21.4815 28.1996 21.5868 29.7785 22.1662C32.1628 23.0407 33.5316 24.7766 34.0206 27.2365C34.0837 27.5536 34.117 27.8772 34.167 28.2204H29.4929C29.4406 28.0205 29.3948 27.8201 29.3365 27.6237C29.0122 26.5333 28.3846 25.7231 27.2079 25.5119C25.9188 25.2805 24.8385 25.6743 24.0425 26.7391C23.5202 27.4381 23.2572 28.252 23.1603 29.1021C22.9931 30.5714 22.9699 32.0444 23.3167 33.4983C23.4696 34.1396 23.7254 34.7387 24.1698 35.2384C25.7617 37.029 28.6684 36.4038 29.5066 34.0879C29.6202 33.7738 29.6898 33.4436 29.788 33.0932H34.277C34.186 33.6256 34.1366 34.1551 34.0028 34.6619C33.233 37.5876 31.3055 39.267 28.3561 39.8149C27.9105 39.8976 27.4572 39.938 27.0074 39.9981H25.9961L25.9973 39.9987Z" fill="white"/>
<path d="M44.2611 39.9988C43.7442 39.9239 43.2219 39.8757 42.7114 39.7686C39.5234 39.1023 37.5269 37.157 36.7518 34.0261C36.1688 31.6709 36.1872 29.2913 36.9999 26.9808C38.0344 24.0396 40.1278 22.2847 43.2088 21.7653C45.1767 21.4334 47.1041 21.6154 48.9078 22.5334C50.7942 23.4929 51.8615 25.0771 52.2868 27.1194C52.3612 27.4757 52.4016 27.8398 52.4611 28.2217H47.7883C47.7258 27.9915 47.6717 27.7529 47.5967 27.5209C47.2618 26.4793 46.6324 25.7184 45.5092 25.5138C44.2843 25.2907 43.2296 25.6321 42.4306 26.6155C41.7977 27.3948 41.5282 28.3276 41.4235 29.3003C41.2777 30.662 41.2771 32.0267 41.5805 33.3735C41.643 33.6513 41.7275 33.9279 41.8334 34.1927C42.3813 35.5603 43.4955 36.2956 44.9256 36.248C46.3111 36.2022 47.3653 35.3955 47.8275 34.0166C47.9084 33.7744 47.9411 33.5157 48.0244 33.2741C48.0536 33.1903 48.1684 33.0784 48.2445 33.0778C49.6425 33.0677 51.0399 33.0725 52.4379 33.0754C52.4564 33.0754 52.4742 33.0879 52.5694 33.1224C52.4718 33.665 52.4147 34.2337 52.2648 34.7762C51.4754 37.6329 49.5592 39.2641 46.6788 39.8132C46.2344 39.8983 45.7811 39.9381 45.3319 39.9994L44.2611 39.9988Z" fill="white"/>
<path d="M79.0499 39.6074C78.7137 39.6074 78.4276 39.6074 78.1415 39.6074C76.8922 39.6074 75.6435 39.6014 74.3942 39.6121C74.1533 39.6139 74.0736 39.5526 74.0742 39.2998C74.0813 33.6578 74.0801 28.0153 74.0777 22.3733C74.0777 22.2014 74.0724 22.0723 74.3169 22.0741C75.8333 22.0836 77.3502 22.0789 78.8672 22.08C78.9148 22.08 78.9624 22.0919 79.0368 22.1021V24.619C79.1278 24.4917 79.1718 24.4376 79.2081 24.3781C80.201 22.7636 81.6888 21.9712 83.5359 21.7606C84.4235 21.6595 85.2998 21.7029 86.1541 21.9605C87.9346 22.4971 88.9697 23.7541 89.3873 25.5072C89.5801 26.3169 89.6681 27.1682 89.6747 28.0016C89.7044 31.753 89.6877 35.5044 89.6877 39.2564V39.5895H84.7192C84.7192 39.4563 84.7192 39.3403 84.7192 39.2249C84.718 35.6121 84.7216 31.9987 84.7091 28.3859C84.7079 28.0153 84.6448 27.6357 84.5532 27.2752C84.3254 26.3805 83.7287 25.8576 82.8227 25.6952C82.2605 25.5947 81.6965 25.6113 81.1445 25.7654C79.8797 26.1176 79.0659 27.2033 79.06 28.6108C79.0457 32.1444 79.0522 35.6781 79.0499 39.2118C79.0499 39.3284 79.0499 39.445 79.0499 39.6074Z" fill="white"/>
<path d="M102.063 25.7363H98.7396C98.7396 25.8642 98.7396 25.9605 98.7396 26.0569C98.7396 28.6804 98.7384 31.3039 98.742 33.9267C98.742 34.1724 98.7551 34.4223 98.7997 34.6632C98.9544 35.4889 99.4797 35.9345 100.327 35.9565C100.632 35.9648 100.941 35.9476 101.245 35.9101C101.546 35.8726 101.842 35.7941 102.167 35.7287C102.174 35.7989 102.19 35.8714 102.19 35.944C102.192 37.0529 102.189 38.1618 102.193 39.2701C102.194 39.4241 102.175 39.5312 101.997 39.5723C100.231 39.9798 98.4624 40.066 96.7205 39.4902C95.0203 38.928 94.1464 37.6585 93.8847 35.9405C93.8014 35.3955 93.7752 34.8369 93.7729 34.2849C93.7621 31.5525 93.7681 28.8202 93.7681 26.0884V25.7386H91.7461V22.0913H93.7681V21.7445C93.7681 20.8534 93.7633 19.9628 93.7752 19.0717C93.7764 18.9705 93.8502 18.8129 93.9317 18.7784C95.4891 18.1204 97.0525 17.4762 98.6147 16.8307C98.6403 16.82 98.6712 16.823 98.7307 16.8164V22.0681H102.063V25.7363Z" fill="white"/>
<path d="M88.784 0C89.2789 0.196315 89.7269 0.371808 90.1731 0.551466C94.5604 2.31949 98.9459 4.09167 103.337 5.85077C103.634 5.96975 103.737 6.1149 103.729 6.43377C103.707 7.40285 103.713 8.37312 103.727 9.34279C103.73 9.59146 103.649 9.70746 103.418 9.80026C98.8442 11.6355 94.2737 13.4791 89.7025 15.3215C89.4193 15.4357 89.1362 15.5487 88.8125 15.679C88.8 15.5612 88.7846 15.4791 88.784 15.397C88.7822 14.071 88.7882 12.745 88.778 11.419C88.7763 11.2006 88.8589 11.1078 89.0547 11.0359C91.737 10.046 94.4164 9.04951 97.0964 8.05306C97.2315 8.0025 97.3623 7.93944 97.5741 7.84842C97.4022 7.76692 97.3052 7.71219 97.2023 7.67293C94.5045 6.64079 91.8066 5.60627 89.1046 4.58424C88.8607 4.49204 88.7751 4.37246 88.7774 4.1119C88.7905 2.85549 88.7834 1.59848 88.7834 0.341468C88.7834 0.246286 88.7834 0.150508 88.7834 0.00118979L88.784 0Z" fill="white"/>
<path d="M129.212 25.2175C130.224 22.9635 131.985 21.8968 134.455 21.9063V26.7202C133.895 26.769 133.33 26.7785 132.78 26.8761C132.22 26.9754 131.648 27.1003 131.128 27.3216C129.689 27.9326 129.161 29.1361 129.155 30.6138C129.144 33.5139 129.151 36.414 129.151 39.3135V39.6805H124.223V22.1044H129.141V25.1973C129.165 25.2038 129.188 25.211 129.212 25.2175Z" fill="white"/>
</g>
<defs>
<clipPath id="clip0_7514_10347">
<rect width="153" height="40" fill="white"/>
</clipPath>
</defs>
</svg>
