<svg width="43" height="40" viewBox="0 0 43 40" fill="none" xmlns="http://www.w3.org/2000/svg">
<g clip-path="url(#clip0_7514_10272)">
<path d="M21.3649 16.6187C21.3853 17.3364 20.8946 18.0024 20.2712 18.2431C19.6261 18.492 18.8634 18.3315 18.3872 17.8303C18.0819 17.5089 17.9396 17.1199 17.8973 16.6847C17.8622 16.3246 17.814 15.9657 17.7721 15.6061C17.7154 15.1187 17.6592 14.6312 17.6026 14.1438C17.5508 13.6989 17.4991 13.2539 17.4471 12.8091C17.376 12.1995 17.3052 11.59 17.2335 10.9806C17.1263 10.0664 17.0186 9.15242 16.9108 8.23843C16.8332 7.5804 16.7562 6.92237 16.6772 6.26452C16.6099 5.70415 16.5384 5.14415 16.4717 4.5836C16.3678 3.712 16.256 2.84113 16.1666 1.96787C16.0674 0.999162 16.6871 0.189844 17.6317 0.0238156C18.4867 -0.126365 19.3823 0.44985 19.5905 1.29768C19.6487 1.53484 19.6701 1.78176 19.6987 2.02518C19.7864 2.77498 19.8688 3.52533 19.9541 4.27532C20.0545 5.15926 20.1553 6.04321 20.2572 6.92698C20.3387 7.63421 20.4229 8.34089 20.5043 9.04812C20.5836 9.73692 20.6593 10.4261 20.7396 11.1147C20.8185 11.7912 20.904 12.4667 20.9818 13.1432C21.0638 13.8563 21.1389 14.5704 21.2195 15.2837C21.2608 15.6493 21.3085 16.0143 21.3512 16.3797C21.3604 16.4588 21.3604 16.5391 21.3649 16.6187Z" fill="white"/>
<path d="M16.0919 21.1528C16.093 21.9429 15.3253 22.8335 14.185 22.7318C13.708 22.6892 13.3083 22.4661 13.0039 22.0874C11.9115 20.729 10.8188 19.3709 9.72713 18.0119C8.95448 17.05 8.18552 16.0851 7.41121 15.1247C6.31683 13.7676 5.21912 12.413 4.1229 11.0575C3.953 10.8474 3.78107 10.6392 3.61357 10.4273C2.77882 9.37108 3.36573 7.82338 4.69174 7.60871C5.33927 7.50386 5.90461 7.70176 6.32162 8.21496C7.21975 9.3204 8.10057 10.4396 8.99078 11.5513C9.63168 12.3514 10.2774 13.1475 10.9192 13.9467C11.6224 14.8225 12.3232 15.7004 13.0258 16.577C13.7013 17.42 14.3778 18.2625 15.0539 19.105C15.2652 19.3683 15.4788 19.6296 15.6878 19.8948C15.9463 20.2229 16.0956 20.592 16.0919 21.1528Z" fill="white"/>
<path d="M31.478 5.63091C31.4721 5.85719 31.4179 6.07132 31.3411 6.27936C30.6933 8.03638 30.0421 9.79211 29.3957 11.5495C28.8956 12.9092 28.401 14.2712 27.9035 15.632C27.6801 16.2432 27.464 16.8572 27.2298 17.4644C26.9502 18.1891 26.3917 18.5588 25.6351 18.6017C25.2013 18.6262 24.804 18.4698 24.472 18.1716C24.0635 17.8048 23.8547 17.3502 23.8766 16.8016C23.8834 16.6326 23.9201 16.459 23.9757 16.2987C24.1993 15.6551 24.4346 15.0153 24.6677 14.3749C24.9785 13.5212 25.2913 12.668 25.6032 11.8147C25.9974 10.7363 26.3932 9.6587 26.7851 8.57961C27.194 7.45445 27.6016 6.32874 28.0045 5.20137C28.1263 4.86029 28.2846 4.54647 28.5678 4.31005C29.0736 3.88752 29.6465 3.7565 30.2725 3.9662C30.8984 4.1759 31.2766 4.62774 31.4288 5.26716C31.457 5.38564 31.4621 5.50947 31.478 5.63091Z" fill="white"/>
<path d="M1.79401 25.9648C1.9582 25.9858 2.1233 26.0009 2.2862 26.0291C3.44121 26.2283 4.5953 26.4334 5.75068 26.6304C6.8154 26.8119 7.8814 26.9851 8.94667 27.163C10.012 27.3408 11.077 27.5201 12.1423 27.6986C12.4147 27.7443 12.6887 27.781 12.9592 27.8359C13.6836 27.9832 14.2331 28.5861 14.327 29.3189C14.4486 30.2666 13.796 31.096 12.8768 31.2407C12.6863 31.2707 12.4823 31.2623 12.2906 31.232C11.3999 31.0909 10.5115 30.9343 9.62184 30.7861C8.42335 30.5863 7.22429 30.3892 6.02543 30.1907C4.76612 29.9823 3.50681 29.7737 2.2475 29.5659C2.00537 29.5259 1.76232 29.4909 1.52 29.4514C0.747534 29.3254 0.193983 28.8116 0.0379056 28.0775C-0.194829 26.9824 0.675299 25.9394 1.79401 25.9648Z" fill="white"/>
<path d="M30.725 38.1512C30.7963 38.1807 30.8519 38.2008 30.9048 38.2262C31.6187 38.5684 32.3644 38.8107 33.1516 38.9025C33.7997 38.9781 34.4485 38.9858 35.0929 38.8413C36.0266 38.632 36.648 38.0702 36.9935 37.1882C37.1582 36.7677 37.2625 36.3314 37.28 35.8807C37.3031 35.286 37.3057 34.6906 37.3162 34.0956C37.3165 34.0785 37.3082 34.0612 37.295 34.0075C37.236 34.0879 37.1916 34.1485 37.1472 34.2091C36.7728 34.7214 36.3196 35.1474 35.7661 35.4616C35.371 35.6857 34.944 35.8186 34.495 35.8748C33.7091 35.9733 32.9375 35.9065 32.1885 35.6413C31.2507 35.3092 30.5781 34.6735 30.1184 33.8032C29.7638 33.1319 29.5792 32.4099 29.4953 31.6586C29.4428 31.1882 29.413 30.7166 29.431 30.2436C29.4673 29.2887 29.6451 28.3663 30.0879 27.5089C30.5343 26.6448 31.1562 25.9457 32.0484 25.5307C33.1605 25.0135 34.2901 24.9985 35.4189 25.4905C36.1516 25.8099 36.742 26.3056 37.2085 26.9518C37.2471 27.0052 37.2872 27.0574 37.3484 27.1394C37.3746 26.9621 37.3978 26.8189 37.4164 26.6752C37.4671 26.2858 37.5154 25.8963 37.5653 25.5069C37.5887 25.3251 37.5975 25.3166 37.7844 25.3146C37.9502 25.3127 38.1161 25.312 38.2817 25.3149C38.4507 25.3179 38.4664 25.3361 38.4714 25.5097C38.4725 25.5466 38.4717 25.5834 38.4717 25.6203C38.4717 28.7888 38.4704 31.9573 38.4727 35.1259C38.473 35.7797 38.4216 36.4267 38.2469 37.0589C38.0591 37.7388 37.7509 38.3525 37.2366 38.8494C36.6528 39.4137 35.9516 39.7459 35.1593 39.8889C33.8836 40.1191 32.6401 39.989 31.4315 39.5259C31.1394 39.4141 30.8527 39.2876 30.5678 39.1588C30.4152 39.0897 30.4174 39.0789 30.4683 38.9165C30.5289 38.7232 30.5908 38.5303 30.6537 38.3377C30.6721 38.2812 30.6962 38.2264 30.725 38.1512ZM37.3165 30.0315H37.318C37.318 29.5771 37.316 29.1227 37.3193 28.6683C37.3202 28.5533 37.2935 28.4536 37.231 28.3563C36.931 27.8886 36.5848 27.4626 36.1663 27.0935C35.4615 26.4718 34.6527 26.155 33.7054 26.2027C32.8564 26.2453 32.1475 26.575 31.5951 27.2197C30.9848 27.9319 30.718 28.7847 30.6227 29.7008C30.568 30.2272 30.5731 30.7542 30.6166 31.2822C30.676 32.0012 30.8484 32.6859 31.2011 33.3193C31.5581 33.9598 32.0652 34.428 32.7656 34.6741C33.2123 34.8309 33.6716 34.8845 34.143 34.864C35.1545 34.8198 35.9566 34.3792 36.557 33.5739C37.0656 32.8918 37.2904 32.1088 37.3141 31.2661C37.3257 30.855 37.3165 30.443 37.3165 30.0315Z" fill="white"/>
<path d="M31.2546 21.3307C30.3698 21.3685 29.608 20.5835 29.5365 19.8057C29.4867 19.2632 29.6393 18.802 29.9988 18.4019C30.4131 17.941 30.8271 17.4804 31.2425 17.0206C31.5181 16.7156 31.7964 16.4131 32.0728 16.1088C32.5348 15.6001 32.9973 15.0918 33.4572 14.5812C33.872 14.1207 34.2776 13.6518 34.6977 13.1964C35.5041 12.3224 36.8701 12.4514 37.4955 13.4542C37.8724 14.0586 37.8208 14.9074 37.363 15.4567C37.1629 15.697 36.9464 15.9236 36.7349 16.1543C36.2705 16.6611 35.8028 17.1649 35.3396 17.6726C34.7399 18.3297 34.1433 18.9894 33.5453 19.6481C33.2031 20.0251 32.8635 20.4046 32.5182 20.7788C32.31 21.0045 32.054 21.1639 31.7586 21.2456C31.5952 21.2907 31.4229 21.3034 31.2546 21.3307Z" fill="white"/>
<path d="M20.8431 26.9156C20.8225 26.8721 20.8004 26.8356 20.7871 26.7962C20.7224 26.6042 20.6585 26.412 20.5975 26.2189C20.5516 26.0735 20.5577 26.0593 20.6885 25.983C21.0674 25.7621 21.4756 25.6091 21.8907 25.4744C22.6634 25.2238 23.4583 25.1189 24.2684 25.1401C24.8484 25.1552 25.4188 25.2411 25.9589 25.4668C26.8166 25.8254 27.3652 26.4715 27.6728 27.3359C27.8329 27.7863 27.8991 28.2525 27.8991 28.729C27.8991 30.9953 27.8992 33.2615 27.8991 35.5279C27.8991 35.5647 27.8976 35.6016 27.8959 35.6382C27.893 35.7033 27.8585 35.7451 27.794 35.746C27.5792 35.7492 27.3643 35.7495 27.1496 35.7473C27.0676 35.7464 27.0348 35.6922 27.0251 35.6154C26.9923 35.3598 26.9561 35.1048 26.9224 34.8492C26.887 34.5814 26.8533 34.3137 26.8183 34.046C26.8146 34.0181 26.8063 33.991 26.7931 33.9324C26.7273 34.0257 26.6797 34.0948 26.6305 34.1628C26.0549 34.9561 25.3075 35.5113 24.3531 35.7551C23.4423 35.9878 22.5261 36.009 21.632 35.6777C20.5734 35.2854 19.9529 34.5186 19.7738 33.4023C19.696 32.9177 19.7265 32.4358 19.8361 31.9578C20.0307 31.1098 20.5205 30.4899 21.2811 30.0777C21.8797 29.7534 22.5276 29.5929 23.1976 29.5215C23.5755 29.4814 23.9568 29.4611 24.3369 29.4556C25.0491 29.4454 25.7617 29.4526 26.4743 29.4526C26.5235 29.4526 26.5727 29.4543 26.6217 29.4515C26.7546 29.4438 26.7732 29.4307 26.7741 29.2999C26.7759 29.0421 26.7835 28.7832 26.7638 28.5265C26.7442 28.2702 26.7096 28.0131 26.6552 27.7619C26.4955 27.0247 26.0433 26.5504 25.3263 26.3215C24.9778 26.2102 24.6194 26.1584 24.2568 26.1505C23.6662 26.1376 23.0783 26.1756 22.5005 26.3103C21.9716 26.4333 21.4641 26.6143 20.9841 26.8701C20.957 26.8844 20.9296 26.8983 20.9014 26.9101C20.8907 26.9145 20.8774 26.9126 20.8431 26.9156ZM26.7378 30.4576H26.5242C25.9102 30.4576 25.2964 30.4611 24.6824 30.4565C24.1786 30.4529 23.6759 30.4663 23.1758 30.5299C22.7725 30.5811 22.3777 30.6697 22.0044 30.8356C21.4809 31.0683 21.1311 31.4566 20.9607 32.0061C20.8516 32.3577 20.8332 32.7174 20.8538 33.0809C20.9014 33.9232 21.4009 34.5588 22.211 34.7891C22.9097 34.9879 23.6159 34.9627 24.2982 34.7407C25.5901 34.3203 26.4175 33.4484 26.7118 32.1067C26.8259 31.5863 26.7706 31.055 26.7678 30.528C26.7678 30.5168 26.7588 30.5059 26.7378 30.4576Z" fill="white"/>
<path d="M41.0006 28.5052C41.0006 26.1906 41.0006 23.8761 41.0006 21.5615C41.0006 21.3599 41.102 21.259 41.3047 21.2587C41.538 21.2587 41.7713 21.2565 42.0045 21.2602C42.1525 21.2626 42.1728 21.2853 42.1818 21.4318C42.1853 21.4869 42.1835 21.5421 42.1835 21.5974C42.1835 26.2081 42.1835 30.8189 42.1835 35.4295C42.1835 35.6446 42.0755 35.7523 41.8597 35.7526C41.6388 35.7526 41.4176 35.755 41.1967 35.7513C41.0255 35.7483 41.0067 35.7271 41.0012 35.5595C40.9992 35.4981 41.0004 35.4367 41.0004 35.3754C41.0004 33.0854 41.0006 30.7951 41.0006 28.5052Z" fill="white"/>
</g>
<defs>
<clipPath id="clip0_7514_10272">
<rect width="43" height="40" fill="white"/>
</clipPath>
</defs>
</svg>
