<svg width="127" height="40" viewBox="0 0 127 40" fill="none" xmlns="http://www.w3.org/2000/svg">
<g clip-path="url(#clip0_7514_10380)">
<path d="M116.302 11.4743C116.302 5.13634 111.165 0 104.827 0C98.4897 0 93.3533 5.13634 93.3533 11.4743C93.3533 16.2749 96.2699 20.4607 100.484 22.0967C101.981 22.6777 102.726 22.3336 102.726 21.0982C102.726 19.4848 100.656 18.664 100.656 16.1198C100.656 13.8154 102.523 11.9481 104.827 11.9481C107.132 11.9481 108.999 13.8154 108.999 16.1198C108.999 18.1591 106.912 19.6456 106.912 21.0982C106.912 22.3336 107.654 22.6777 109.154 22.0967L109.343 22.0234C113.436 20.2689 116.302 16.2044 116.302 11.4714V11.4743ZM83.8648 23.9188C83.1399 24.5224 83.295 25.5322 84.1356 26.542C84.6348 27.14 93.6608 37.9824 94.5324 39.0288C95.4039 40.0753 96.2445 40.2614 96.9694 39.6578C100.89 36.3916 101.135 30.2229 97.5166 25.8763C93.8977 21.5297 87.7854 20.6525 83.8648 23.9188ZM125.742 23.9188C121.822 20.6525 115.709 21.5297 112.09 25.8763C108.472 30.2229 108.717 36.3916 112.635 39.6578C113.36 40.2614 114.2 40.0753 115.072 39.0288C115.943 37.9824 124.972 27.14 125.469 26.542C126.309 25.5322 126.464 24.5224 125.739 23.9188H125.742Z" fill="white"/>
<path d="M24.6242 12.8337C24.4663 12.1285 23.6286 11.759 22.6949 11.759H20.3792C19.7841 11.759 15.8747 11.807 13.5054 15.6458C12.3207 17.4003 7.83877 24.4659 7.83877 24.4659H26.8525C26.8525 24.4659 24.7822 13.5388 24.6242 12.8337ZM29.3742 37.6636L27.16 26.0313H18.055C19.0507 32.5272 19.6205 36.0361 19.7615 36.9358C19.9561 38.1685 21.2057 38.7382 21.8008 38.7382H28.2967C28.889 38.7382 29.5067 38.4533 29.3713 37.6636H29.3742ZM0.293627 36.6199C-0.465118 37.8525 0.403631 38.7382 1.12571 38.7382H8.18006C8.87676 38.7382 9.67781 37.9795 10.3604 36.9358C11.0571 35.8781 13.9482 31.0887 16.9832 26.0313H6.93053L0.293627 36.6199Z" fill="white"/>
<path d="M79.5698 11.759H58.9145C58.3221 11.759 57.8398 12.2414 57.8398 12.8337V18.2549C57.8398 18.8472 58.3221 19.3296 58.9145 19.3296H68.0335L64.1918 24.4659H75.2543C76.0976 23.332 78.3287 20.3337 79.0649 19.3296C79.9816 18.08 80.6445 17.2592 80.6445 16.0887V12.8337C80.6445 12.2385 80.1621 11.759 79.5698 11.759ZM79.5698 31.4356H69.9769L74.0188 26.0313H63.0777C62.1441 27.2865 60.116 30.0141 59.4193 30.9618C58.5026 32.2113 57.8398 33.0321 57.8398 34.2027V37.6466C57.8398 38.2418 58.3221 38.7213 58.9145 38.7213H79.5698C80.165 38.7213 80.6445 38.239 80.6445 37.6466V32.5103C80.6445 31.918 80.1621 31.4356 79.5698 31.4356Z" fill="white"/>
<path d="M55.2658 24.4659V12.8337C55.2658 12.2385 54.7835 11.759 54.1911 11.759H47.8701C47.2778 11.759 46.7955 12.2414 46.7955 12.8337V23.4307L41.1232 13.505C40.6663 12.7237 39.6537 11.759 38.548 11.759H32.227C31.6347 11.759 31.1523 12.2414 31.1523 12.8337V24.4659H38.1277L39.0219 26.0313H31.1523V37.6636C31.1523 38.2587 31.6347 38.7382 32.227 38.7382H38.548C39.1431 38.7382 39.6227 38.2559 39.6227 37.6636V27.0863L45.3936 37.1841C46.0762 38.2982 47.1142 38.741 47.8729 38.741H54.1939C54.7891 38.741 55.2686 38.2587 55.2686 37.6664V26.0342H48.2819L47.3878 24.4687H55.2686L55.2658 24.4659Z" fill="white"/>
</g>
<defs>
<clipPath id="clip0_7514_10380">
<rect width="127" height="40" fill="white"/>
</clipPath>
</defs>
</svg>
