<svg width="160" height="30" viewBox="0 0 160 30" fill="none" xmlns="http://www.w3.org/2000/svg">
<g clip-path="url(#clip0_7514_10331)">
<path d="M34.299 14.1303C34.4338 14.3225 34.5045 14.4896 34.5149 14.6539L33.4898 14.0457C25.6531 9.3959 17.9047 4.79837 10.1562 0.194565L10.2169 0.0134492L13.6172 0.0140469C17.047 0.0149435 20.4776 0.0158402 23.9125 0C24.4316 0 24.7349 0.161091 25.0247 0.590569C28.0982 5.11278 31.1917 9.62812 34.299 14.1303Z" fill="white"/>
<path d="M34.516 14.7333C34.5174 14.7067 34.5173 14.6804 34.5156 14.6538L34.5826 14.6936L34.516 14.7333Z" fill="white"/>
<path d="M34.5167 14.7334C34.5074 14.9035 34.4339 15.0744 34.3003 15.2708L32.2002 18.3259C31.5046 19.3393 30.8096 20.3534 30.1147 21.3675L30.0131 21.5154L30.0118 21.5175C28.3174 23.9898 26.6228 26.4626 24.9182 28.9313C24.7632 29.1528 24.4127 29.3608 24.1566 29.3608C19.5896 29.3877 15.0227 29.3808 10.4557 29.3742H10.4271C10.3846 29.3742 10.3419 29.3608 10.2566 29.3339C10.2071 29.3183 10.1431 29.2983 10.0565 29.2735L10.043 29.2669C12.0854 28.0535 14.1211 26.8449 16.1531 25.6386L19.8363 23.4524L19.9291 23.3977C24.7891 20.5127 29.6375 17.6346 34.5167 14.7334Z" fill="white"/>
<path d="M0 15.1096H0.0113944C3.23147 19.7236 6.35059 24.1899 9.51018 28.7097C13.0824 26.5895 16.5804 24.5097 20.1459 22.3895C19.5602 21.5724 18.9809 20.7616 18.4049 19.9555L18.4001 19.9486C17.8527 19.1823 17.3082 18.4205 16.7642 17.6611C16.4034 17.1578 16.0429 16.6554 15.6818 16.1542L15.0976 15.3445C14.9965 15.2038 14.7404 15.1165 14.5584 15.1165C9.76994 15.1096 4.98815 15.1096 0.0113944 15.1096L0.00672459 15.103L0 15.1096Z" fill="white"/>
<path d="M0.0546875 14.2106V14.2172L0.0584981 14.2118C0.116442 14.2303 0.163141 14.2474 0.202181 14.2614C0.274881 14.2877 0.321243 14.3045 0.364729 14.3045C5.06925 14.3113 9.78054 14.3179 14.4851 14.3045C14.694 14.3045 14.9838 14.2106 15.0984 14.0564C16.7214 11.8268 18.3194 9.5847 19.9647 7.27622L20.1534 7.01142L9.50416 0.684326C6.32418 5.23135 3.20479 9.69827 0.0584981 14.2118L0.0546875 14.2106Z" fill="white"/>
<path d="M160.001 21.2351C159.513 21.2205 159.023 21.2254 158.537 21.1884C155.99 20.9937 154.142 19.0193 154.137 16.4768C154.13 12.4158 154.135 8.35417 154.135 4.29319C154.135 4.01182 154.135 3.73107 154.135 3.42969H156.496V7.19233C156.667 7.19233 156.806 7.19355 156.945 7.19233C157.964 7.18445 158.982 7.17596 160.001 7.16747V9.53239H156.519C156.509 9.5997 156.499 9.6379 156.499 9.67671C156.499 11.9992 156.488 14.3216 156.508 16.6441C156.516 17.6677 157.306 18.6143 158.328 18.7992C158.873 18.8975 159.444 18.852 160.002 18.8714V21.2363L160.001 21.2351Z" fill="white"/>
<path d="M84.7417 8.72592V7.21056H87.0613C87.0613 7.3476 87.0613 7.46645 87.0613 7.5853C87.0613 11.8591 87.0638 16.1323 87.0607 20.4062C87.0583 24.1585 84.5175 27.1534 80.7888 27.8083C77.4238 28.399 73.9578 26.39 72.8384 23.1986C72.8054 23.1046 72.7815 23.0076 72.7441 22.8808C72.8531 22.8729 72.9395 22.862 73.0258 22.862C73.6786 22.8608 74.3314 22.8693 74.9842 22.8566C75.1936 22.8523 75.3038 22.9184 75.4098 23.1046C76.1348 24.3804 77.2156 25.2057 78.6743 25.4804C81.3167 25.9783 83.8697 24.3537 84.588 21.7578C84.7925 21.0174 84.7888 20.2685 84.7619 19.4644C82.885 21.0416 80.7698 21.6778 78.3749 21.2521C76.5396 20.9258 75.065 19.9871 73.934 18.5245C71.7184 15.6599 71.9676 11.5935 74.4839 9.03639C77.1556 6.32098 81.6719 6.00748 84.7429 8.72531L84.7417 8.72592ZM74.6939 14.1355C74.6853 16.8667 76.9382 19.1109 79.7019 19.1249C82.4557 19.1388 84.7013 16.9419 84.7104 14.2252C84.719 11.4734 82.4765 9.21588 79.7331 9.21406C76.9713 9.21224 74.7019 11.4292 74.6939 14.1355Z" fill="white"/>
<path d="M134.57 8.86658V7.28027H136.9V21.1842H134.566V19.5833C132.605 21.2169 130.427 21.8421 127.972 21.343C126.26 20.995 124.871 20.0975 123.791 18.7374C121.599 15.9759 121.728 12.0149 124.028 9.41536C126.415 6.71815 131.058 5.81463 134.57 8.86658ZM134.563 14.1907C134.555 11.4468 132.31 9.26862 129.501 9.27893C126.746 9.28924 124.55 11.5062 124.553 14.2737C124.557 16.9734 126.776 19.1855 129.484 19.1879C132.273 19.1909 134.57 16.9303 134.563 14.1907Z" fill="white"/>
<path d="M71.2446 14.215C71.2378 18.2148 67.9629 21.4601 63.928 21.4649C59.8845 21.4698 56.5979 18.2093 56.6016 14.1956C56.6046 10.1571 59.852 6.92254 63.8869 6.93952C67.9745 6.9565 71.2513 10.1965 71.2446 14.215ZM63.9157 9.21408C61.1539 9.21772 58.8796 11.4425 58.879 14.1398C58.879 16.868 61.1288 19.1219 63.8563 19.125C66.6536 19.1286 68.9096 16.9219 68.9029 14.1901C68.8961 11.4613 66.6408 9.20984 63.9157 9.21408Z" fill="white"/>
<path d="M120.853 7.2876C120.853 8.03709 120.86 8.77204 120.844 9.50577C120.841 9.60521 120.731 9.71315 120.65 9.79926C117.909 12.7385 115.166 15.6758 112.423 18.6138C112.361 18.6799 112.303 18.7484 112.201 18.8612H120.896V21.1855H109.194C109.194 20.439 109.185 19.7034 109.203 18.9685C109.205 18.86 109.319 18.7417 109.405 18.6502C112.132 15.7255 114.862 12.8033 117.591 9.88051C117.664 9.80229 117.732 9.71922 117.836 9.59794H109.213V7.2882H120.852L120.853 7.2876Z" fill="white"/>
<path d="M89.4414 7.27846H91.7727V8.35844C91.8762 8.2978 91.9362 8.26991 91.9883 8.2311C95.9944 5.26889 101.66 7.67504 102.257 12.5953C102.29 12.8754 102.292 13.1604 102.292 13.443C102.295 15.9189 102.294 18.3948 102.294 20.8706V21.1896H99.9485V20.8252C99.9485 18.3596 99.9503 15.8934 99.9485 13.4278C99.9466 11.3255 98.5302 9.66399 96.4463 9.3129C94.1928 8.9333 91.9117 10.6942 91.8113 12.9542C91.7458 14.4272 91.7868 15.9043 91.7831 17.3797C91.7801 18.5518 91.7752 19.7246 91.7887 20.8967C91.7917 21.1532 91.7109 21.2236 91.4598 21.2163C90.8891 21.1993 90.3171 21.2114 89.7464 21.2102C89.6472 21.2102 89.548 21.2017 89.4433 21.1969V7.27846H89.4414Z" fill="white"/>
<path d="M152.222 21.1503H150.586C150.105 21.1503 149.865 20.9142 149.865 20.442C149.865 18.0777 149.871 15.7128 149.862 13.3485C149.855 11.2583 148.473 9.63795 146.401 9.26684C144.212 8.87451 142.016 10.4427 141.697 12.6323C141.657 12.9113 141.638 13.1951 141.638 13.477C141.633 15.9226 141.635 18.3676 141.635 20.8131C141.635 20.9326 141.635 21.0527 141.635 21.1909H139.309V7.28516H141.629V8.37969C141.758 8.29116 141.84 8.2384 141.917 8.1808C145.718 5.3902 151.263 7.56592 152.093 12.18C152.175 12.6348 152.214 13.1029 152.216 13.565C152.229 15.9596 152.222 18.3548 152.222 20.7495V21.1503Z" fill="white"/>
<path d="M55.334 16.2875C54.6537 18.9865 51.7754 21.6716 47.9255 21.4527C43.5385 21.2035 41.2231 17.5712 41.0375 14.9425C40.8832 12.7589 41.4081 10.8178 42.9409 9.19694C44.2863 7.77374 45.9635 7.00666 47.9115 6.88659C51.8558 6.64283 54.7021 9.46193 55.3383 12.0543C54.8741 12.0543 54.4149 12.0118 53.9666 12.064C53.2569 12.1458 52.8294 11.9281 52.4026 11.2975C51.1417 9.43767 48.7168 8.74639 46.6298 9.52135C44.549 10.2939 43.2134 12.3981 43.3965 14.6132C43.5759 16.7762 45.1729 18.5796 47.3131 19.0362C49.4571 19.4934 51.6965 18.4887 52.74 16.5822C52.8661 16.3511 52.9997 16.2747 53.2575 16.2814C53.939 16.3002 54.6218 16.2875 55.334 16.2875Z" fill="white"/>
<path d="M106.789 21.1956H104.496V7.27832H106.789V21.1956Z" fill="white"/>
<path d="M104.098 3.71722C104.098 2.85918 104.769 2.1964 105.63 2.20367C106.473 2.21034 107.142 2.83917 107.148 3.63172C107.155 4.54433 106.511 5.22106 105.63 5.22591C104.761 5.23077 104.098 4.57829 104.098 3.71722Z" fill="white"/>
</g>
<defs>
<clipPath id="clip0_7514_10331">
<rect width="160" height="30" fill="white"/>
</clipPath>
</defs>
</svg>
