<svg width="131" height="40" viewBox="0 0 131 40" fill="none" xmlns="http://www.w3.org/2000/svg">
<path d="M131 31.2802C129.308 39.4124 120.446 40.8341 113.418 39.2863C108.33 38.1662 105.387 34.5464 105.494 29.3096H111.684C111.83 33.7478 116.67 34.3709 120.228 33.9901C123.855 33.6019 126.041 30.4222 122.004 28.2785C117.293 25.7763 106.997 25.7516 106.233 18.8408C105.688 13.8883 108.466 10.2042 113.259 9.07672C120.672 7.33357 129.874 9.45502 130.008 18.4699H123.818C123.458 14.2691 118.521 13.3567 115.098 14.3531C111.386 15.4312 112.374 18.235 115.403 19.5752C121.072 22.0848 129 21.7411 131 29.0623V31.2802Z" fill="white"/>
<path d="M72.5604 0H65.6263V39.902H72.5604V0Z" fill="white"/>
<path d="M104.504 25.6156H81.9704C81.6156 34.1681 94.8114 37.2811 97.9423 29.0648H104.256C101.197 43.0718 81.1889 43.6578 76.2693 30.4247C71.6648 18.0422 80.9259 5.8006 94.3078 9.03469C99.8749 10.3798 104.504 16.351 104.504 22.0452V25.6156ZM82.4641 20.1958C85.3915 20.2502 88.3338 20.129 91.2662 20.1859C93.0822 20.2205 95.0372 20.6433 96.9623 20.4554C97.2923 20.4232 97.6098 20.4529 97.7711 20.082C95.9551 12.2589 83.8658 12.1526 82.4641 20.1958Z" fill="white"/>
<path d="M46.015 8.69348C57.4494 7.45967 66.3607 17.9952 62.9693 29.0055C58.9156 42.1668 40.6092 43.8704 34.0522 31.7772C28.8026 22.0922 35.0371 9.87783 46.015 8.69348ZM41.1996 30.9489C49.5106 39.2146 62.5501 27.6629 55.4671 18.6034C47.253 8.09265 31.8715 21.6719 41.1996 30.9489Z" fill="white"/>
<path d="M30.961 20.443H24.5231C20.2461 10.8767 5.78505 14.2691 6.43752 25.0098C7.03045 34.7739 20.9407 37.1228 24.5231 28.0782H30.961C30.2267 33.2286 25.4435 37.8324 20.5612 39.2863C6.79228 43.3883 -4.93235 29.0129 2.10838 16.4968C8.98786 4.26762 27.8252 6.88852 30.961 20.443Z" fill="white"/>
</svg>
