<svg width="160" height="31" viewBox="0 0 160 31" fill="none" xmlns="http://www.w3.org/2000/svg">
<g clip-path="url(#clip0_7514_10221)">
<path d="M67.1906 0.0151039C69.4362 -0.0758829 71.5492 0.341301 73.5597 1.16986C76.3996 2.33914 78.6753 4.23535 80.3595 6.81492C81.3148 8.27845 81.9469 9.87169 82.3747 11.5743C82.9284 13.7773 82.9449 15.9939 82.5828 18.1912C82.1163 21.0176 80.9064 23.5255 78.986 25.6995C77.7489 27.0992 76.3028 28.2055 74.6805 29.0709C73.3632 29.7736 71.9413 30.2266 70.4613 30.5257C68.6532 30.8926 66.8421 30.9255 65.0321 30.7145C63.3043 30.5131 61.6472 30.0437 60.0597 29.2751C57.6186 28.0933 55.6391 26.4023 54.1378 24.1673C53.0915 22.6079 52.3036 20.9101 51.9832 19.043C51.7799 17.8563 51.6173 16.656 51.5505 15.4558C51.505 14.6456 51.6018 13.8151 51.7315 13.0098C52.1303 10.528 53.0247 8.2407 54.5231 6.20124C56.1638 3.96916 58.2594 2.28687 60.7983 1.2202C62.8435 0.36066 65.0011 -0.0962097 67.1916 0.0170398L67.1906 0.0151039ZM66.4307 25.9735C69.322 25.988 71.2734 25.414 72.9905 24.1673C75.5333 22.3204 76.8768 19.7699 77.1875 16.6705C77.3782 14.7705 77.2011 12.9004 76.4383 11.1281C75.2574 8.38299 73.3351 6.36095 70.4681 5.40656C69.4004 5.05132 68.2369 4.86548 67.1112 4.83547C66.152 4.8103 65.1705 5.06584 64.2219 5.29137C62.5996 5.67758 61.2193 6.55648 60.0791 7.73834C58.4607 9.41676 57.4956 11.4669 57.2111 13.7764C56.9052 16.2592 57.243 18.679 58.5188 20.8695C60.445 24.177 63.372 25.8583 66.4317 25.9744L66.4307 25.9735Z" fill="white"/>
<path d="M118.06 30.2857C116.526 30.2857 115.129 30.2857 113.73 30.2857C113.52 30.2857 113.304 30.2508 113.102 30.2915C112.166 30.4802 111.644 30.0059 111.143 29.2741C109.269 26.5378 107.34 23.8382 105.427 21.1289C104.429 19.7167 104.861 19.9906 103.123 19.9741C101.688 19.9606 100.252 19.9703 98.8173 19.9654C98.1726 19.9635 98.1232 20.0041 98.1232 20.6381C98.1232 23.6388 98.1232 26.6384 98.1252 29.6391C98.1252 30.2915 98.1232 30.2876 97.4999 30.2866C96.1293 30.2847 94.7587 30.2818 93.3881 30.3021C92.9844 30.3079 92.8247 30.1327 92.8247 29.7601C92.8257 29.0186 92.8344 28.2762 92.8344 27.5348C92.8354 18.9055 92.8354 10.2753 92.8363 1.64606C92.8363 1.62961 92.8363 1.61412 92.8363 1.59766C92.8034 0.398377 92.6398 0.479685 93.9737 0.479685C98.1997 0.479685 102.425 0.439999 106.651 0.489364C109.626 0.52421 112.395 1.28115 114.65 3.34964C115.522 4.14917 116.123 5.1568 116.571 6.26606C117.211 7.85059 117.316 9.49223 117.165 11.1581C116.92 13.8645 115.71 16.0501 113.416 17.5339C112.551 18.0934 111.553 18.4525 110.601 18.8716C110.192 19.0527 110.317 19.2801 110.482 19.5163C111.007 20.2684 111.545 21.0118 112.08 21.7581C113.269 23.421 114.457 25.0849 115.648 26.7459C116.334 27.7003 117.029 28.6479 117.709 29.6052C117.834 29.7814 117.91 29.9914 118.06 30.2857ZM98.1242 10.225C98.1242 11.7243 98.1223 13.2227 98.1261 14.7221C98.1261 15.0231 98.131 15.2873 98.582 15.2825C100.886 15.2593 103.191 15.2486 105.496 15.2641C106.671 15.2719 107.81 15.115 108.893 14.6601C110.03 14.1829 110.914 13.3998 111.433 12.2722C111.912 11.2307 111.973 10.1301 111.709 9.01503C111.484 8.06644 111.051 7.24466 110.269 6.62904C109.023 5.64755 107.561 5.32232 106.026 5.30296C103.576 5.27198 101.126 5.30296 98.6769 5.28747C98.2675 5.28457 98.1068 5.38233 98.1145 5.82565C98.1407 7.29209 98.1242 8.75852 98.1252 10.226L98.1242 10.225Z" fill="white"/>
<path d="M127.355 15.3533C127.355 10.5784 127.361 5.80449 127.344 1.02962C127.342 0.583402 127.507 0.469184 127.906 0.470152C131.712 0.476928 135.519 0.446922 139.325 0.490479C140.97 0.50887 142.572 0.854426 144.153 1.35388C146.181 1.99563 147.995 2.99745 149.581 4.38742C150.883 5.52863 151.929 6.88762 152.728 8.44602C153.41 9.77888 153.94 11.1621 154.118 12.6343C154.28 13.9875 154.32 15.3668 154.281 16.7306C154.223 18.7895 153.599 20.7273 152.624 22.5257C151.413 24.7588 149.701 26.5388 147.536 27.8998C145.763 29.0148 143.828 29.6837 141.799 30.0593C140.73 30.2567 139.618 30.2703 138.525 30.278C134.993 30.3051 131.46 30.2867 127.928 30.2993C127.469 30.3012 127.346 30.0912 127.347 29.6769C127.354 24.903 127.351 20.1281 127.351 15.3542H127.356L127.355 15.3533ZM132.648 15.3233H132.653C132.653 16.387 132.653 17.4508 132.653 18.5155C132.653 20.6431 132.653 22.7716 132.651 24.8991C132.651 25.2031 132.645 25.5031 133.08 25.4954C135.43 25.4567 137.788 25.5215 140.129 25.3541C142.68 25.1721 144.838 24.0377 146.515 22.0708C147.806 20.5579 148.506 18.7837 148.737 16.8245C148.94 15.09 148.767 13.3912 148.189 11.7322C147.692 10.3064 146.91 9.05873 145.822 8.03464C144.087 6.40075 141.978 5.49378 139.615 5.36118C137.429 5.23825 135.232 5.31181 133.04 5.29342C132.713 5.29052 132.642 5.45216 132.643 5.74835C132.65 8.94064 132.648 12.131 132.648 15.3233Z" fill="white"/>
<path d="M0.00991472 15.3308C0.00991472 10.5414 0.0137865 5.75108 0.00217115 0.961687C0.00120321 0.566766 0.136716 0.469971 0.509374 0.469971C7.52407 0.477715 14.5397 0.475779 21.5544 0.473843C22.2175 0.473843 22.2407 0.495138 22.2407 1.13688C22.2388 2.3623 22.2243 3.58869 22.2523 4.81314C22.261 5.19548 22.1149 5.30389 21.779 5.29324C21.6019 5.28743 21.4247 5.29324 21.2466 5.29324C16.1823 5.29324 11.119 5.29324 6.05473 5.29324C5.51849 5.29324 5.25005 5.55749 5.2494 6.08599C5.2494 8.35969 5.25715 10.6334 5.24166 12.9071C5.23972 13.2536 5.36749 13.3775 5.68401 13.3775C6.13507 13.3775 6.5871 13.3814 7.03816 13.3814C11.2952 13.3814 15.5532 13.3891 19.8102 13.3717C20.2729 13.3697 20.3871 13.5217 20.3784 13.9563C20.3532 15.1817 20.3513 16.4081 20.3784 17.6326C20.389 18.0798 20.2555 18.2104 19.8044 18.2085C15.257 18.192 10.7086 18.1979 6.16121 18.1979C6.03247 18.1979 5.90276 18.2046 5.77403 18.1988C5.39556 18.1843 5.24166 18.3256 5.24359 18.7399C5.26005 22.3523 5.25424 25.9646 5.25715 29.577C5.25715 30.2555 5.23391 30.2817 4.57668 30.2807C3.22252 30.2788 1.8674 30.2623 0.513246 30.2991C0.0921901 30.3107 0.00217115 30.1268 0.000235265 29.7948C-0.00170063 29.1821 0.00894677 28.5694 0.00894677 27.9567C0.00894677 23.7481 0.00894677 19.5385 0.00894677 15.3289H0.00604294L0.00991472 15.3308Z" fill="white"/>
<path d="M42.0422 11.5047C42.0422 14.5044 42.0567 17.5031 42.0373 20.5027C42.0209 23.1055 41.4556 25.5525 39.7588 27.6152C38.7328 28.8638 37.4009 29.6682 35.8647 30.1686C34.1989 30.7107 32.5011 30.8898 30.7666 30.7204C27.4814 30.4 24.7866 28.9742 22.7326 26.3704C22.4974 26.0723 22.4955 25.8332 22.7936 25.536C23.6957 24.6388 24.5659 23.7086 25.4458 22.789C25.891 22.3234 25.8978 22.3302 26.3102 22.8161C27.2878 23.9689 28.3796 24.9998 29.8344 25.5012C31.8768 26.2049 34.3809 26.0036 35.707 23.8702C36.3458 22.8432 36.5868 21.7078 36.5859 20.5076C36.581 14.0417 36.5849 7.57582 36.5675 1.10898C36.5665 0.62114 36.7059 0.459493 37.1937 0.466268C38.6611 0.489499 40.1285 0.476916 41.5959 0.468204C41.9134 0.466268 42.0567 0.555319 42.0557 0.910555C42.0441 4.44162 42.0489 7.97268 42.0489 11.5037L42.0422 11.5047Z" fill="white"/>
<path d="M159.24 2.17067C158.872 2.73208 158.504 3.29252 158.138 3.85392C157.875 4.25853 157.723 4.2682 157.445 3.87232C157.08 3.35156 156.727 2.82209 156.368 2.2965C156.32 2.30134 156.271 2.30715 156.224 2.31199C156.193 2.4988 156.138 2.68465 156.136 2.87146C156.128 3.50062 156.159 4.13076 156.128 4.75799C156.12 4.9177 155.94 5.0687 155.839 5.22453C155.732 5.07354 155.535 4.9235 155.531 4.77057C155.507 3.61 155.513 2.44847 155.536 1.2879C155.538 1.14368 155.662 0.924923 155.78 0.882334C155.898 0.840712 156.141 0.933635 156.221 1.04495C156.661 1.65766 157.103 2.27521 157.473 2.9305C157.719 3.36414 157.892 3.18023 158.062 2.93631C158.43 2.40878 158.766 1.85802 159.125 1.32468C159.221 1.18143 159.336 1.02752 159.48 0.944282C159.738 0.794251 159.983 0.845552 159.988 1.19208C160.005 2.43395 160.005 3.67582 159.987 4.91673C159.985 5.02417 159.802 5.12871 159.703 5.23421C159.619 5.11806 159.464 5.00384 159.461 4.88479C159.439 4.17625 159.457 3.46578 159.449 2.75627C159.447 2.56269 159.405 2.37006 159.381 2.17744C159.334 2.17551 159.287 2.1726 159.24 2.17067Z" fill="white"/>
<path d="M153.235 3.30892C153.235 3.80741 153.256 4.30784 153.222 4.80343C153.212 4.95152 153.047 5.088 152.952 5.23029C152.838 5.08607 152.63 4.94378 152.625 4.79569C152.597 3.86355 152.614 2.93045 152.617 1.99736C152.619 1.43498 152.544 1.35851 151.982 1.36626C151.95 1.36626 151.913 1.38077 151.886 1.37013C151.686 1.28882 151.488 1.20267 151.289 1.11846C151.481 1.02941 151.67 0.871635 151.865 0.862924C152.636 0.830014 153.408 0.832918 154.178 0.852277C154.304 0.85518 154.426 1.01199 154.549 1.09717C154.429 1.19009 154.315 1.35561 154.188 1.36626C153.239 1.44369 153.238 1.43401 153.238 2.39131C153.238 2.69718 153.238 3.00208 153.238 3.30795L153.235 3.30892Z" fill="white"/>
</g>
<defs>
<clipPath id="clip0_7514_10221">
<rect width="160" height="31" fill="white"/>
</clipPath>
</defs>
</svg>
