<svg width="137" height="40" viewBox="0 0 137 40" fill="none" xmlns="http://www.w3.org/2000/svg">
<g clip-path="url(#clip0_7514_10281)">
<path d="M0.00108842 22.6625C0.517001 22.2113 1.03509 21.7635 1.54774 21.309C2.0827 20.8345 2.61113 20.3534 3.17765 19.844C3.38663 20.4824 3.58527 21.0908 3.7986 21.7439C4.18499 21.3956 4.53601 21.0788 4.89355 20.7567C5.17219 21.4816 5.41654 22.1885 5.71259 22.8726C7.59448 27.2203 10.4608 30.7223 14.6317 33.0629C15.534 33.5696 16.5179 33.9304 17.4627 34.3625C17.6477 34.4474 17.817 34.4327 18.0074 34.3647C21.0692 33.2605 23.6765 31.4831 25.8468 29.0679C27.9578 26.7185 29.4577 24.0149 30.4601 21.0288C30.4878 20.9455 30.5172 20.8628 30.5564 20.7474C30.7496 20.9194 30.9243 21.0734 31.0968 21.229C31.2715 21.3858 31.4451 21.5441 31.6677 21.746C31.8789 21.1022 32.0786 20.4922 32.2886 19.8516C32.3763 19.9273 32.4514 19.9882 32.5232 20.0535C33.4081 20.8579 34.2886 21.6671 35.1806 22.4639C35.3493 22.6146 35.3928 22.7289 35.3183 22.9618C34.6864 24.9433 33.7939 26.8061 32.7899 28.6205C32.7376 28.7152 32.6745 28.8039 32.601 28.9198C32.2239 28.5797 31.856 28.2483 31.468 27.8978C31.3825 28.0317 31.3025 28.1574 31.222 28.2826C28.1744 33.0259 24.0226 36.3674 18.6719 38.2182C17.9906 38.4539 17.4224 38.4566 16.74 38.221C13.0927 36.9622 9.915 34.9878 7.25163 32.1949C6.01028 30.8932 4.92349 29.4717 3.97601 27.8929C3.58309 28.2347 3.19725 28.5705 2.78147 28.9318C2.40868 28.2047 2.00869 27.5141 1.6925 26.7876C1.11999 25.4723 0.597001 24.1346 0.0527886 22.8067C0.0397275 22.7751 0.0174148 22.7468 0 22.7169C0 22.699 0 22.6805 0 22.6625H0.00108842ZM4.64213 21.7379C3.99778 22.3235 3.37466 22.9036 2.73303 23.4625C2.56433 23.6094 2.54419 23.7243 2.62746 23.9213C5.39532 30.4736 9.9716 35.1483 16.7498 37.5647C17.4295 37.8068 18.0063 37.8351 18.7062 37.5837C25.4991 35.1402 30.1434 30.5133 32.8312 23.8614C32.8993 23.6927 32.8628 23.6078 32.7387 23.4973C32.1482 22.9749 31.5659 22.4437 30.9804 21.9164C30.9151 21.8576 30.8438 21.8043 30.7648 21.7401C30.7278 21.8402 30.6995 21.9158 30.6718 21.9915C29.6313 24.8676 28.1145 27.4597 26.0275 29.7046C23.7608 32.1421 21.0692 33.9386 17.9057 35.0074C17.7887 35.0471 17.633 35.0542 17.5204 35.0112C16.845 34.7538 16.1598 34.5133 15.5095 34.2009C10.9604 32.0175 7.75665 28.5188 5.60484 24.0094C5.25546 23.2769 4.96974 22.5145 4.64267 21.7368L4.64213 21.7379ZM33.1295 26.6102C33.7607 25.4336 34.2935 24.2113 34.6995 22.9373C34.7202 22.872 34.6543 22.7517 34.5934 22.6924C34.3474 22.4519 34.0884 22.2244 33.8326 21.9942C33.4108 21.6138 32.988 21.2345 32.5444 20.8356C32.4084 21.2258 32.2946 21.5866 32.1542 21.9365C32.0916 22.0932 32.1297 22.1771 32.2462 22.2799C32.6609 22.6451 33.0718 23.0157 33.4712 23.3972C33.5392 23.4625 33.5871 23.5985 33.5735 23.6916C33.4337 24.6657 33.2797 25.6377 33.1295 26.6102ZM2.19372 26.6173C2.228 26.6097 2.26229 26.602 2.29603 26.5944C2.28515 26.5063 2.27753 26.4176 2.26338 26.3299C2.12896 25.4837 1.99617 24.6369 1.85576 23.7917C1.82638 23.6138 1.87209 23.4924 2.01304 23.3711C2.41739 23.0233 2.80977 22.6609 3.19779 22.2952C3.25711 22.2391 3.31806 22.1194 3.29792 22.0541C3.18038 21.6699 3.03834 21.2933 2.89303 20.8807C2.80052 20.9575 2.72487 21.0168 2.65358 21.0805C2.12243 21.5583 1.59182 22.0367 1.06121 22.515C0.811239 22.7403 0.743212 23.0168 0.857134 23.3444C0.898494 23.4636 0.933868 23.5855 0.982303 23.7014C1.38448 24.6739 1.78992 25.6454 2.19372 26.6173ZM2.8016 25.7645L2.76841 25.7743C2.8816 26.478 2.99534 27.1811 3.11344 27.9169C3.32568 27.7204 3.50255 27.5566 3.67887 27.3933C3.37956 26.8382 3.09058 26.3016 2.8016 25.7645ZM32.3229 27.9223C32.4405 27.1822 32.5482 26.5025 32.6565 25.8222C32.342 26.3071 32.0666 26.8012 31.8016 27.3003C31.7793 27.3427 31.8054 27.4407 31.8435 27.4799C31.9806 27.6214 32.1313 27.7482 32.3229 27.9223Z" fill="white"/>
<path d="M120.389 39.0743C120.68 39.0569 120.938 39.0395 121.197 39.0269C122.202 38.9785 122.945 38.5404 123.326 37.5815C123.56 36.9943 123.78 36.4011 123.993 35.8063C124.025 35.7171 124.013 35.5913 123.976 35.5021C122.529 32.0529 121.078 28.6058 119.621 25.161C119.59 25.087 119.492 24.9906 119.425 24.9901C118.502 24.9787 117.579 24.9825 116.628 24.9825C116.623 25.0989 116.614 25.1953 116.614 25.291C116.614 27.8086 116.613 30.3266 116.614 32.8442C116.614 33.0161 116.621 33.1881 116.629 33.3601C116.676 34.3386 117.186 34.8496 118.168 34.8909C118.475 34.904 118.783 34.8931 119.114 34.8931V35.8498C118.259 35.8743 117.397 35.9146 116.611 35.4765C115.918 35.0901 115.626 34.4436 115.554 33.6833C115.53 33.4227 115.527 33.1587 115.527 32.8964C115.526 30.3876 115.526 27.8793 115.526 25.3705V24.9841H113.387V23.9996H115.514V20.4111H116.607V23.9915H116.959C118.002 23.9915 119.044 23.9985 120.087 23.986C120.313 23.9833 120.415 24.054 120.5 24.2647C121.834 27.5452 123.177 30.8219 124.518 34.0991C124.551 34.1797 124.59 34.258 124.648 34.3881C124.963 33.5544 125.259 32.774 125.553 31.9919C126.518 29.4216 127.485 26.8518 128.444 24.2793C128.514 24.0916 128.601 24.0078 128.811 24.023C129.096 24.0432 129.384 24.0279 129.708 24.0279C129.472 24.6434 129.251 25.2236 129.027 25.8021C127.598 29.4913 126.175 33.1827 124.735 36.8675C124.492 37.4885 124.187 38.0871 123.89 38.6852C123.485 39.4993 122.789 39.8759 121.904 39.9461C121.815 39.9532 121.728 39.9815 121.64 40H120.389V39.0743Z" fill="white"/>
<path d="M4.69219 0.260554H30.681C30.6859 0.361234 30.6941 0.457015 30.6941 0.552796C30.6946 4.86404 30.7142 9.17529 30.6892 13.486C30.6603 18.5254 29.1627 23.1022 26.1581 27.1506C24.0378 30.0077 21.2792 32.0725 17.9693 33.396C17.7778 33.4727 17.6161 33.47 17.4267 33.3927C13.4301 31.7568 10.3074 29.0951 8.05923 25.4151C6.38741 22.6777 5.3496 19.7058 4.91804 16.5336C4.77219 15.4609 4.70743 14.3703 4.70145 13.2868C4.6775 9.06645 4.69165 4.84608 4.69165 0.625176C4.69165 0.509803 4.69219 0.39443 4.69219 0.260554ZM27.6057 23.8511C28.1782 22.7811 28.6027 21.6786 28.9989 20.5624C29.0761 20.3442 29.0517 20.2152 28.8726 20.0552C25.6868 17.203 22.5081 14.3426 19.3282 11.4844C18.7905 11.0011 18.2518 10.5184 17.707 10.0292C17.6374 10.0858 17.5797 10.1287 17.5269 10.1761C13.8545 13.4757 10.1827 16.7768 6.50714 20.0737C6.38143 20.1863 6.33626 20.2799 6.40537 20.4437C6.85653 21.5164 7.29951 22.5928 7.74686 23.6671C7.7659 23.7128 7.804 23.7504 7.84209 23.8037C11.1335 20.8508 14.4091 17.9121 17.6999 14.9592C21.006 17.9268 24.3002 20.8835 27.6057 23.8511ZM14.8004 2.96365C14.113 2.82542 13.4611 2.691 12.8086 2.5642C12.3405 2.47332 11.8758 2.45209 11.4235 2.64801C11.2309 2.73127 11.1433 2.84719 11.1449 3.07903C11.1563 4.89724 11.1509 6.71545 11.152 8.53366C11.152 8.61802 11.1601 8.70237 11.1661 8.80903C11.602 8.5723 12.045 8.54346 12.4858 8.61693C13.0105 8.70454 13.5258 8.84386 14.0483 8.94454C14.2905 8.99134 14.5402 8.99896 14.8009 9.02563L14.8004 2.96365ZM10.8701 8.76767C10.8821 8.70182 10.8935 8.66699 10.8935 8.63271C10.8946 6.74103 10.8978 4.84935 10.887 2.95767C10.8864 2.86025 10.7825 2.69971 10.6987 2.67849C10.3792 2.59794 10.0391 2.48638 9.72398 2.52556C8.89623 2.62896 8.07719 2.80529 7.25598 2.95222V9.02073C7.67665 8.95053 8.06957 8.89992 8.45542 8.81774C9.25596 8.64795 10.0506 8.36006 10.8701 8.76767ZM6.32537 3.04365V9.94644H6.64102C7.84645 9.94644 9.05188 9.94263 10.2573 9.95242C10.3754 9.95351 10.5125 10.0139 10.6061 10.0896C10.8559 10.2915 11.1792 10.2931 11.4252 10.0928C11.5182 10.0172 11.6537 9.95351 11.7707 9.95242C12.9854 9.94263 14.1996 9.94644 15.4142 9.94644C15.5106 9.94644 15.6069 9.94644 15.7059 9.94644V3.0529H15.2221V9.45828H14.9027C13.842 9.45828 12.7819 9.45393 11.7212 9.46318C11.5591 9.46481 11.3985 9.54372 11.2347 9.56113C11.0883 9.57637 10.9365 9.56658 10.7895 9.54807C10.6704 9.53338 10.555 9.46372 10.438 9.46263C9.32344 9.45556 8.20835 9.45882 7.09326 9.45882C6.99639 9.45882 6.90006 9.45882 6.78415 9.45882V3.04365H6.32537ZM23.652 8.64958C23.6199 8.95543 23.5595 9.25093 23.5665 9.54481C23.5736 9.83705 23.6487 10.1271 23.7031 10.4765C23.3429 10.3666 22.994 10.2604 22.6447 10.1543C22.6338 10.1853 22.6229 10.2164 22.612 10.2474C22.969 10.4983 23.4022 10.5712 23.8321 10.6735C23.8016 10.8656 23.7918 11.0686 24.0291 11.0768C24.3072 11.086 24.2746 10.8536 24.2577 10.6996C24.6278 10.5832 24.9733 10.4825 25.3118 10.36C25.3777 10.3361 25.4131 10.2272 25.4626 10.1576C25.4419 10.1478 25.4212 10.1375 25.4005 10.1277C25.0544 10.2349 24.7078 10.3421 24.305 10.4667C24.5532 9.81147 24.5864 9.21774 24.3981 8.59026C24.5722 8.59026 24.7241 8.59679 24.8754 8.58808C24.9907 8.58101 25.1121 8.57285 25.2182 8.53257C25.3995 8.46291 25.4648 8.29149 25.3907 8.13421C25.3488 8.04496 25.179 7.95244 25.0811 7.96605C24.9048 7.99054 24.8465 8.14237 24.9064 8.32142C24.914 8.34428 24.9026 8.37366 24.8993 8.40577H24.4846C24.4846 8.29094 24.4846 8.19299 24.4846 8.09448C24.4835 6.62838 24.4895 5.16227 24.4786 3.69616C24.4737 3.05399 24.3486 2.43522 24.0035 1.83931C23.7195 2.35141 23.5616 2.86842 23.5546 3.41589C23.535 4.97234 23.5361 6.52879 23.529 8.08523C23.529 8.19135 23.529 8.29747 23.529 8.40523H23.1143C23.1187 8.32577 23.1426 8.25448 23.1203 8.20496C23.0789 8.11462 23.0185 7.98074 22.9494 7.96931C22.8759 7.95734 22.7535 8.04931 22.7051 8.12822C22.5919 8.31162 22.7181 8.5489 22.9625 8.59407C23.1905 8.63597 23.4262 8.63271 23.652 8.64958ZM17.7342 27.8336C17.59 28.1384 17.4719 28.3871 17.3516 28.6407C17.054 28.5296 16.7813 28.4284 16.47 28.312C16.5892 28.6341 16.691 28.909 16.796 29.193C16.5157 29.3215 16.2561 29.4401 15.9579 29.5767C16.2632 29.7275 16.5255 29.857 16.7982 29.9914C16.6882 30.2858 16.5859 30.5596 16.4684 30.873C16.7895 30.7538 17.0638 30.6515 17.3511 30.5449C17.4768 30.8181 17.5944 31.0744 17.7353 31.3802C17.8768 31.0689 17.9938 30.8104 18.1157 30.5427C18.4112 30.6532 18.6844 30.7555 18.9979 30.8725C18.8912 30.5623 18.7998 30.2951 18.7067 30.0235C18.9908 29.8826 19.2499 29.7541 19.5448 29.6083C19.2281 29.4641 18.968 29.346 18.7051 29.2262C18.8047 28.9291 18.8945 28.6603 18.999 28.3479C18.6773 28.466 18.4025 28.5666 18.1146 28.6717C17.9911 28.3985 17.8762 28.1465 17.7342 27.8336ZM16.974 21.3901C17.2314 21.1893 17.4425 21.0244 17.6635 20.8519C17.8991 21.025 18.1266 21.1915 18.4052 21.3956C18.4052 21.1485 18.415 20.9684 18.4025 20.7893C18.3873 20.5695 18.4738 20.4622 18.6964 20.4318C18.876 20.4073 19.0507 20.3458 19.2722 20.2897C19.0224 20.0731 18.8123 19.8914 18.599 19.7063C18.7176 19.4397 18.8297 19.1888 18.962 18.8922C18.6888 18.9412 18.47 18.9951 18.2485 19.0119C18.1691 19.0179 18.0499 18.9542 18.0069 18.8857C17.8937 18.7061 17.8126 18.5063 17.7005 18.2767C17.5955 18.4895 17.4926 18.6604 17.4257 18.8443C17.362 19.0195 17.2591 19.0516 17.0942 19.0146C16.8918 18.9689 16.6861 18.9379 16.4357 18.8922C16.5745 19.2046 16.6861 19.4565 16.7971 19.7069C16.5723 19.9044 16.3661 20.0862 16.1359 20.2886C16.4461 20.3697 16.71 20.4388 16.974 20.508V21.3901ZM13.4034 22.3915C13.2864 22.613 13.1781 22.7904 13.0964 22.9792C13.0235 23.1485 12.9163 23.1751 12.7525 23.1343C12.5686 23.0886 12.3803 23.0625 12.1397 23.0179C12.2785 23.3281 12.3884 23.573 12.5005 23.8244C12.2807 24.0078 12.0695 24.1841 11.8366 24.3789C12.1392 24.4551 12.3993 24.5204 12.6834 24.5917V25.4706C12.9462 25.2753 13.1683 25.1104 13.4028 24.9357C13.6222 25.1066 13.8371 25.2736 14.1022 25.4799V24.5885C14.396 24.5166 14.6632 24.4519 14.9718 24.3768C14.7285 24.1765 14.5158 24.0013 14.3046 23.8271C14.4222 23.5577 14.531 23.3096 14.6589 23.0173C14.4232 23.0581 14.2431 23.0739 14.0722 23.1229C13.8654 23.1822 13.7332 23.1501 13.6575 22.9281C13.5993 22.7588 13.5047 22.6021 13.4034 22.3915ZM20.4836 23.3678C21.0942 23.1833 21.4338 23.432 21.6155 23.9463C21.6188 23.9555 21.646 23.9566 21.6689 23.9637C21.7951 23.7602 21.8773 23.4804 22.0607 23.3721C22.2425 23.2649 22.526 23.3297 22.8553 23.315C22.3579 22.8726 22.4117 22.4486 22.772 22.0258C22.7791 22.0171 22.7682 21.9931 22.7595 21.9371C22.2066 22.0905 21.8245 21.8973 21.6781 21.2437C21.5508 21.4652 21.4561 21.5964 21.3968 21.7417C21.3228 21.9224 21.2047 21.9784 21.0191 21.9621C20.8553 21.9474 20.6888 21.9588 20.4858 21.9588C20.6349 22.2173 20.8509 22.4269 20.8504 22.6358C20.8504 22.8551 20.6414 23.0734 20.4836 23.3678ZM19.9171 26.1123C19.7473 25.5729 19.8969 25.1691 20.3459 24.8317C19.7511 24.8638 19.4218 24.5798 19.2493 24.0328C19.1127 24.6157 18.7301 24.8268 18.175 24.8546C18.6724 25.1664 18.7905 25.5729 18.5914 26.1144C19.0392 25.7879 19.4572 25.752 19.9171 26.1123ZM19.5992 5.94648C19.5334 6.51355 19.7146 6.81559 20.2175 6.97722C20.2273 6.4809 19.9954 6.0945 19.5992 5.94648ZM26.2898 2.60774C26.2321 3.1563 26.4188 3.51548 26.8149 3.64337C26.9232 3.171 26.7551 2.8276 26.2898 2.60774ZM28.441 7.04307C27.942 7.18946 27.69 7.49313 27.702 7.91761C28.1673 7.85394 28.4563 7.52088 28.441 7.04307ZM28.2571 4.94241C27.93 5.29832 27.7477 5.65206 27.9224 6.11192C28.3088 5.83492 28.4367 5.41478 28.2571 4.94241ZM21.8055 2.60556C21.3587 2.85644 21.2085 3.17807 21.2994 3.6597C21.6955 3.47031 21.917 3.02243 21.8055 2.60556ZM21.4436 9.41692C21.2384 9.01856 20.8564 8.86509 20.3824 8.9908C20.6207 9.40712 20.9734 9.54862 21.4436 9.41692ZM27.769 5.2069C28.09 4.81942 28.1058 4.4401 27.8163 4.04609C27.5148 4.43575 27.5007 4.78894 27.769 5.2069ZM27.733 8.96958C27.2612 8.84223 26.8596 9.00386 26.6762 9.37991C27.1698 9.50454 27.4419 9.40168 27.733 8.96958ZM25.8588 9.94045C26.3398 10.1451 26.7545 10.07 27.0294 9.74453C26.6375 9.53338 26.2452 9.59596 25.8588 9.94045ZM20.9674 3.24936C20.5658 3.53725 20.4945 3.87303 20.7203 4.38949C21.0049 4.05371 21.1633 3.70324 20.9674 3.24936ZM19.83 4.96853C19.6586 5.53233 19.7658 5.87355 20.1685 6.08961C20.2741 5.60635 20.2033 5.36145 19.83 4.96853ZM28.2136 8.05476C27.7907 8.00904 27.406 8.27244 27.29 8.68822C27.8005 8.71488 28.0323 8.55598 28.2136 8.05476ZM19.8931 8.04387C20.021 8.52659 20.3083 8.74046 20.797 8.73067C20.6463 8.28877 20.323 8.03625 19.8931 8.04387ZM28.4911 6.00471C28.0639 6.23273 27.8538 6.63817 27.9344 7.04252C28.3872 6.81395 28.5336 6.54674 28.4911 6.00471ZM27.1436 3.25862C26.9047 3.5748 27.0337 4.12827 27.4049 4.37915C27.5681 3.93779 27.5001 3.64446 27.1436 3.25862ZM21.0746 9.781C21.4213 10.1102 21.8327 10.169 22.2398 9.96113C21.9279 9.64059 21.4866 9.56712 21.0746 9.781ZM25.942 8.96359C25.4827 9.17801 25.2612 9.53937 25.3282 9.93827C25.7282 9.8131 25.9709 9.43597 25.942 8.96359ZM20.3764 7.90074C20.359 7.44088 20.0994 7.13667 19.6531 7.05449C19.658 7.49694 19.9241 7.80877 20.3764 7.90074ZM22.163 8.95815C22.1266 9.3995 22.3938 9.82018 22.7807 9.93229C22.8411 9.50562 22.6087 9.13937 22.163 8.95815ZM20.322 4.0363C20.0205 4.50541 20.0281 4.80908 20.3388 5.19166C20.5951 4.84064 20.593 4.47439 20.322 4.0363ZM21.8278 3.55739C22.298 3.5046 22.5369 3.21508 22.7361 2.83522C22.2131 2.80964 21.9758 3.1046 21.8278 3.55739ZM21.3941 8.97611C21.258 8.5723 21.6678 8.16142 21.2346 7.84632C20.9679 8.26319 21.0104 8.72468 21.3941 8.97611ZM26.2452 3.51494C26.0906 3.1378 25.9099 2.79168 25.4082 2.83631C25.4114 3.21127 25.9023 3.54433 26.2452 3.51494ZM21.0458 5.72063C20.55 5.86321 20.2654 6.2594 20.4079 6.59355C20.5342 6.48198 20.6458 6.34539 20.7894 6.26539C21.0185 6.13804 21.0458 5.94648 21.0458 5.72063ZM26.8819 7.81313C26.6109 8.11789 26.6011 8.31489 26.8117 8.89937C27.0974 8.61693 27.1262 8.23652 26.8819 7.81313ZM27.1638 6.37477C27.0256 6.86184 27.4691 7.06266 27.5915 7.46048C27.7624 7.03381 27.5943 6.63708 27.1638 6.37477ZM20.9902 7.15572C20.6278 7.48986 20.5723 8.01503 20.8934 8.25067C20.8553 7.87081 21.3108 7.55789 20.9902 7.15572ZM22.224 3.89698C21.7184 3.74188 21.3326 3.85453 21.1829 4.20935C21.5361 4.10976 21.9753 4.34922 22.224 3.89698ZM27.2454 8.27788C27.5273 7.84741 27.4636 7.42456 27.1181 7.12361C26.9009 7.52796 27.1905 7.85285 27.2454 8.27788ZM26.4819 8.42917C26.0476 8.6806 26.2441 9.12032 26.0988 9.46807C26.471 9.33529 26.6479 8.8406 26.4819 8.42917ZM20.7421 4.90431C20.9092 4.85751 21.0751 4.78731 21.2471 4.7688C21.4887 4.74214 21.5998 4.60609 21.6721 4.39602C21.196 4.31656 20.7519 4.56853 20.7421 4.90431ZM21.6319 8.46781C21.4681 8.85692 21.6248 9.34671 22.0085 9.51814C21.8158 9.16495 22.107 8.69529 21.6319 8.46781ZM27.7091 6.57287C27.782 6.14893 27.4952 5.77288 27.0892 5.71737C26.9945 6.22512 27.5545 6.25178 27.7091 6.57287ZM20.5364 7.45177C20.5554 7.0779 21.1551 6.94293 20.9336 6.46783C20.5157 6.7062 20.3568 7.0779 20.5364 7.45177ZM27.3265 4.91302C27.3363 4.56146 26.7915 4.27466 26.4291 4.42105C26.5679 4.88309 27.0473 4.69806 27.3265 4.91302ZM21.2662 5.03111C20.7426 5.08662 20.4373 5.35601 20.4868 5.74349C20.7138 5.4556 21.221 5.51329 21.2662 5.03111ZM26.9494 4.20119C26.791 3.84256 26.145 3.6646 25.9072 3.88936C26.1499 4.31711 26.5869 4.04065 26.9494 4.20119ZM26.8438 5.00663C26.914 5.49152 27.406 5.43546 27.6612 5.75165C27.5992 5.29016 27.2873 5.02241 26.8438 5.00663Z" fill="white"/>
<path d="M57.741 16.7604H53.0738C53.0085 16.5955 53.0445 16.5302 53.2235 16.5046C53.9914 16.3952 54.1438 16.2238 54.1993 15.4407C54.2167 15.1969 54.2265 14.952 54.227 14.7082C54.2308 10.7686 54.2325 6.82858 54.2341 2.88903C54.2341 2.87216 54.2281 2.85529 54.2205 2.81556C53.9283 3.50181 53.6458 4.17065 53.3596 4.83785C51.7035 8.69903 50.0464 12.5602 48.3887 16.4208C48.3316 16.5542 48.312 16.7049 48.0894 16.7038C47.8663 16.7027 47.85 16.5476 47.7928 16.4159C45.955 12.1803 44.1183 7.94421 42.2827 3.70752C42.1934 3.50181 42.1205 3.28902 42.0476 3.09855C42.0476 7.18993 42.0405 11.2954 42.0536 15.4004C42.0563 16.2614 42.3784 16.4491 43.001 16.4943C43.1676 16.5063 43.2617 16.5645 43.1621 16.7751C42.9031 16.7751 42.6331 16.7751 42.3627 16.7751C41.5376 16.7751 40.7126 16.7729 39.8876 16.7767C39.7227 16.7778 39.6155 16.7495 39.6862 16.5362C39.7945 16.5193 39.9094 16.4997 40.0242 16.4829C40.5314 16.4089 40.7518 16.1846 40.8024 15.6676C40.8296 15.3885 40.8481 15.1076 40.8487 14.8274C40.8514 10.3621 40.8508 5.89689 40.8503 1.43217C40.8503 0.804694 40.6544 0.597894 40.0226 0.528235C39.8778 0.512453 39.6345 0.567962 39.739 0.240891C40.0509 0.240891 40.367 0.240891 40.6832 0.240891C41.5083 0.240891 42.3333 0.251231 43.1583 0.23436C43.4032 0.229462 43.5213 0.302387 43.6187 0.530956C45.3036 4.48847 46.9977 8.44162 48.6908 12.3953C48.7261 12.478 48.7653 12.5586 48.823 12.6832C48.9498 12.3909 49.0635 12.1346 49.1724 11.8767C50.7724 8.09006 52.3734 4.30398 53.9669 0.514085C54.0534 0.308373 54.1552 0.231639 54.3832 0.234904C55.4074 0.247965 56.4322 0.240891 57.4564 0.240891C57.5462 0.240891 57.6354 0.240891 57.7285 0.240891C57.7965 0.399256 57.7911 0.498847 57.6044 0.512453C57.5685 0.515174 57.5326 0.523337 57.4967 0.52769C56.7397 0.617485 56.5976 0.754627 56.5889 1.52251C56.5742 2.79923 56.5824 4.0765 56.5824 5.35376C56.5824 8.47863 56.5813 11.6029 56.584 14.7278C56.584 15.026 56.602 15.3253 56.6281 15.6225C56.6771 16.183 56.8969 16.398 57.4547 16.4834C57.5924 16.5046 57.8428 16.4458 57.741 16.7604Z" fill="white"/>
<path d="M132.05 16.5297C132.144 16.5172 132.225 16.5074 132.305 16.4954C132.909 16.4083 133.158 16.1917 133.164 15.58C133.183 13.3346 133.171 11.0892 133.171 8.82307H124.744V9.10334C124.744 10.9961 124.743 12.8889 124.746 14.7822C124.746 15.0532 124.767 15.3253 124.79 15.5953C124.837 16.1199 125.033 16.3343 125.546 16.4355C125.66 16.4584 125.777 16.4709 125.912 16.4916V16.724H121.235C121.168 16.5406 121.221 16.4774 121.409 16.466C122.07 16.4246 122.308 16.1825 122.353 15.5212C122.375 15.1963 122.389 14.8698 122.39 14.5444C122.392 10.4867 122.392 6.42963 122.39 2.37198C122.39 2.05525 122.374 1.73852 122.351 1.42233C122.308 0.835673 122.076 0.602206 121.494 0.532003C121.343 0.514044 121.133 0.539078 121.236 0.253911H125.9C125.972 0.422072 125.929 0.505881 125.752 0.510779C125.698 0.512412 125.644 0.524384 125.59 0.530915C125.085 0.590234 124.851 0.818803 124.794 1.32819C124.768 1.5709 124.747 1.8158 124.747 2.05961C124.743 3.89796 124.745 5.73685 124.745 7.5752C124.745 7.62853 124.749 7.68241 124.753 7.76023H133.166C133.173 7.70309 133.189 7.63506 133.189 7.56649C133.188 5.61005 133.184 3.65415 133.179 1.69771C133.179 1.56274 133.171 1.42506 133.145 1.29336C133.043 0.767103 132.85 0.595676 132.31 0.53418C132.121 0.512411 132.035 0.418444 132.054 0.252278C132.132 0.248469 132.212 0.241394 132.292 0.241394C133.688 0.24085 135.085 0.238673 136.481 0.246836C136.569 0.246836 136.658 0.331189 136.746 0.376358C136.666 0.42697 136.591 0.510235 136.505 0.523296C135.849 0.622342 135.694 0.768191 135.601 1.42941C135.576 1.60791 135.565 1.78968 135.565 1.97036C135.563 6.33548 135.563 10.7012 135.565 15.0663C135.565 15.2823 135.586 15.5 135.615 15.715C135.679 16.1972 135.903 16.4018 136.387 16.4801C136.514 16.5008 136.752 16.4192 136.735 16.6565C136.718 16.878 136.502 16.7697 136.38 16.7702C135.011 16.7784 133.642 16.7746 132.273 16.7767C132.115 16.7767 131.969 16.7816 132.05 16.5297Z" fill="white"/>
<path d="M67.9745 16.9875C65.2551 16.9445 63.0918 16.1477 61.3482 14.3867C58.4029 11.4115 58.1199 6.77423 60.6521 3.41426C62.1754 1.39306 64.2135 0.288307 66.7299 0.048854C68.9889 -0.16611 71.0716 0.322048 72.929 1.63795C74.9682 3.08338 76.0958 5.07247 76.3254 7.55898C76.535 9.83052 76.0207 11.9143 74.5932 13.7216C73.2398 15.4354 71.4422 16.434 69.3095 16.8362C68.787 16.9347 68.2499 16.9575 67.9745 16.9875ZM73.6991 8.73665C73.6876 7.6885 73.5957 6.70892 73.3279 5.75328C72.9698 4.47547 72.3843 3.32555 71.3693 2.43794C70.0926 1.32122 68.5878 0.951157 66.9242 1.13184C65.0771 1.33265 63.6448 2.20339 62.6668 3.78705C61.9914 4.88091 61.6938 6.09396 61.6083 7.36361C61.494 9.06481 61.6546 10.7334 62.3903 12.2925C63.4271 14.4912 65.1168 15.8185 67.611 15.8762C70.0599 15.9322 71.8379 14.8084 72.9116 12.6044C73.5146 11.3668 73.6899 10.0368 73.6991 8.73665Z" fill="white"/>
<path d="M90.4116 12.0314C90.4203 11.9318 90.4274 11.8883 90.4274 11.8447C90.4263 8.37589 90.4274 4.90709 90.4197 1.43829C90.4181 0.773799 90.2451 0.60727 89.5811 0.519108C89.4467 0.501149 89.1871 0.578971 89.2921 0.254077H92.7261C92.7925 0.412443 92.7658 0.508224 92.5743 0.517475C91.5604 0.566454 91.5958 0.969171 91.5958 1.71692C91.5947 6.60776 91.5958 11.4981 91.5909 16.3889C91.5909 16.5163 91.5648 16.7182 91.4875 16.7552C91.3128 16.839 91.1626 16.7329 91.0325 16.5729C87.4984 12.2213 83.9583 7.87359 80.4204 3.5248C80.3007 3.37731 80.1891 3.2233 80.0454 3.03501C80.0335 3.13732 80.0193 3.20153 80.0193 3.26575C80.0193 7.26897 80.0199 11.2722 80.0237 15.2749C80.0237 15.4278 80.0454 15.5813 80.0705 15.7326C80.1488 16.2115 80.3545 16.408 80.8307 16.4727C80.8667 16.4776 80.9086 16.4711 80.9374 16.488C81.0245 16.538 81.1072 16.5968 81.191 16.6523C81.0985 16.6931 81.006 16.7682 80.9135 16.7688C79.898 16.7775 78.883 16.7726 77.8675 16.7753C77.7053 16.7753 77.5682 16.7704 77.6422 16.5304C77.7102 16.5212 77.7799 16.5119 77.8501 16.5021C78.5238 16.4074 78.7355 16.1783 78.7725 15.4937C78.7845 15.2766 78.784 15.0589 78.784 14.8417C78.7845 10.4766 78.7845 6.11089 78.784 1.74577C78.784 1.58305 78.784 1.41924 78.7736 1.25706C78.7431 0.803731 78.5309 0.587135 78.0814 0.537611C77.9382 0.521829 77.7951 0.504959 77.6493 0.488088C77.5785 0.299791 77.6422 0.237206 77.8267 0.238295C78.7421 0.242648 79.658 0.235574 80.5733 0.247002C80.6713 0.24809 80.7959 0.321559 80.8607 0.40047C82.6794 2.60998 84.4927 4.82492 86.3066 7.03877C87.6328 8.65726 88.9585 10.2758 90.2853 11.8937C90.3131 11.9275 90.3441 11.9574 90.4116 12.0303V12.0314Z" fill="white"/>
<path d="M96.0902 16.599C96.0319 16.6572 95.9748 16.7661 95.916 16.7671C94.9206 16.7775 93.9247 16.7748 92.9294 16.7748C92.9098 16.7508 92.8907 16.7274 92.8711 16.7035C92.9277 16.6333 92.9762 16.513 93.0426 16.5016C93.3642 16.4477 93.5617 16.2452 93.6973 15.9808C93.9568 15.4746 94.2192 14.968 94.4412 14.4445C96.4145 9.79581 98.3786 5.14334 100.349 0.493597C100.387 0.402169 100.449 0.28462 100.529 0.2536C100.705 0.185573 100.792 0.297681 100.863 0.465298C101.58 2.16324 102.306 3.85737 103.029 5.55259C104.428 8.83528 105.827 12.1185 107.227 15.4012C107.308 15.5922 107.401 15.7789 107.493 15.965C107.637 16.2572 107.848 16.458 108.188 16.5092C108.262 16.5201 108.324 16.618 108.391 16.6757L108.341 16.7546H103.976C103.97 16.6915 103.963 16.6197 103.956 16.5451C104.13 16.5195 104.283 16.5048 104.431 16.4727C104.738 16.4063 104.863 16.2197 104.785 15.9187C104.727 15.6923 104.647 15.4697 104.556 15.2542C104.108 14.1881 103.649 13.1264 103.205 12.0592C103.14 11.9041 103.07 11.8415 102.894 11.842C100.954 11.8491 99.0142 11.848 97.0741 11.8437C96.9228 11.8437 96.8325 11.8725 96.7688 12.0298C96.2997 13.1944 95.8202 14.3547 95.344 15.5165C95.3304 15.5497 95.3163 15.5835 95.3049 15.6178C95.1111 16.1941 95.2787 16.4531 95.8855 16.5179C95.9302 16.5228 95.9753 16.5261 96.02 16.5299L96.0885 16.5984L96.0902 16.599ZM102.658 10.8048C101.751 8.5599 100.855 6.34006 99.9323 4.05329C99.0218 6.3417 98.1375 8.56263 97.2455 10.8048H102.658Z" fill="white"/>
<path d="M109.164 12.0406C109.376 11.9595 109.425 12.0803 109.441 12.23C109.571 13.3684 110.151 14.2626 110.96 15.0316C112.022 16.04 113.931 16.3088 115.222 15.6204C116.169 15.1154 116.642 14.2756 116.797 13.2493C117.008 11.8425 116.492 10.7584 115.251 10.058C114.488 9.62696 113.696 9.24818 112.913 8.85254C111.981 8.38125 111.081 7.86697 110.329 7.12358C108.677 5.49203 108.805 2.3922 111.098 0.969086C112.194 0.288276 113.386 0.0156265 114.674 0.0934488C115.673 0.153857 116.614 0.423786 117.528 0.80419C117.611 0.838475 117.709 0.958202 117.713 1.04255C117.766 2.15492 117.804 3.26838 117.845 4.3813C117.847 4.42538 117.84 4.47 117.837 4.52225C117.686 4.58429 117.601 4.55544 117.563 4.38728C117.49 4.07055 117.424 3.75055 117.32 3.44362C116.797 1.90731 115.258 0.919563 113.636 1.06596C112.35 1.18187 111.549 1.82023 111.279 2.98213C111.043 3.99763 111.279 4.89068 112.152 5.50781C112.755 5.93393 113.414 6.2844 114.064 6.63923C114.992 7.14589 115.951 7.60031 116.871 8.12221C119.757 9.76083 119.621 13.6068 117.598 15.4511C116.27 16.662 114.709 17.1583 112.923 16.9695C111.632 16.8329 110.445 16.3937 109.327 15.7548C109.243 15.7069 109.15 15.5856 109.149 15.4969C109.137 14.3741 109.142 13.2509 109.143 12.1276C109.143 12.1015 109.156 12.0754 109.164 12.0406Z" fill="white"/>
<path d="M40.646 19.5153H41.8596C41.8596 19.6465 41.8596 19.7618 41.8596 19.8778C41.864 23.1381 41.8634 26.3985 41.8749 29.6583C41.8781 30.6238 42.036 31.5669 42.4115 32.4638C43.0939 34.0953 44.3597 34.9296 46.0854 35.1048C47.0106 35.199 47.9336 35.1467 48.8304 34.8801C50.4364 34.4033 51.3692 33.2801 51.7191 31.691C51.8965 30.885 51.9858 30.0447 51.9939 29.2186C52.025 26.0943 52.0065 22.97 52.0065 19.8457C52.0065 19.7395 52.0065 19.6334 52.0065 19.5137H53.1814C53.1863 19.6149 53.1934 19.7031 53.1934 19.7912C53.1934 22.952 53.1988 26.1128 53.1912 29.273C53.1879 30.547 53.0448 31.802 52.536 32.9873C51.7801 34.7494 50.4005 35.7296 48.5502 36.0692C47.1249 36.3304 45.698 36.3162 44.3091 35.8504C42.492 35.2409 41.4362 33.9157 40.9851 32.1089C40.7897 31.3258 40.6635 30.5046 40.6547 29.6992C40.6183 26.3669 40.6384 23.0336 40.6379 19.7009C40.6379 19.6476 40.6422 19.5947 40.646 19.5153Z" fill="white"/>
<path d="M91.5676 30.0963H82.1702C82.217 30.5388 82.2349 30.96 82.3095 31.3714C82.5288 32.5828 83.0164 33.6544 84.0477 34.3978C86.3894 36.0865 89.6939 34.8 90.3562 31.9499C90.3747 31.871 90.3932 31.7921 90.415 31.7012H91.4414C91.3543 33.6582 89.8191 35.4661 87.855 35.9156C86.7862 36.1599 85.7156 36.1725 84.6604 35.8465C83.0784 35.3578 82.0439 34.2661 81.5166 32.7434C80.7454 30.5181 80.8924 28.3075 82.0183 26.2335C83.0142 24.399 84.6469 23.6218 86.7203 23.7378C87.5573 23.7846 88.3394 24.0093 89.0724 24.4131C90.3938 25.1407 91.0686 26.332 91.3723 27.7432C91.523 28.4441 91.5252 29.1772 91.5916 29.8961C91.597 29.9559 91.578 30.018 91.5676 30.0974V30.0963ZM90.4689 29.1793C90.3867 28.0468 90.0852 27.0172 89.3696 26.1497C88.2985 24.8512 86.9064 24.4387 85.3027 24.8469C84.0482 25.1658 83.264 26.0675 82.7302 27.2049C82.4379 27.827 82.2638 28.4817 82.2061 29.1793H90.4689Z" fill="white"/>
<path d="M108.455 27.6339H107.429C107.41 27.4037 107.406 27.1702 107.369 26.9422C107.196 25.8717 106.579 25.1778 105.542 24.8731C104.413 24.5411 103.287 24.5825 102.187 25.0037C101.59 25.2323 101.114 25.6148 100.917 26.2554C100.656 27.1071 100.974 27.9147 101.741 28.3854C102.361 28.7664 103.062 28.9139 103.757 29.0777C104.812 29.3258 105.894 29.463 106.903 29.8869C107.835 30.2782 108.535 30.885 108.794 31.9038C109.198 33.4912 108.565 34.8708 107.053 35.5054C105.399 36.1998 103.686 36.2939 101.998 35.6376C100.361 35.0003 99.5738 33.7122 99.4481 31.9908C99.4421 31.9119 99.4476 31.8319 99.4476 31.7345H100.455C100.523 32.0741 100.558 32.4099 100.659 32.725C101.097 34.0899 102.084 34.8316 103.464 35.0444C104.545 35.2109 105.617 35.119 106.62 34.633C107.578 34.1688 108 33.2001 107.717 32.178C107.546 31.5593 107.116 31.1468 106.546 30.9449C105.775 30.6717 104.971 30.4888 104.181 30.2689C103.321 30.0295 102.429 29.8689 101.607 29.5375C99.7583 28.792 99.5205 27.0086 99.9831 25.7242C100.252 24.9781 100.811 24.491 101.524 24.207C103.096 23.58 104.707 23.5147 106.3 24.09C108.01 24.7076 108.506 26.1574 108.49 27.5479C108.49 27.5724 108.471 27.5958 108.455 27.6339Z" fill="white"/>
<path d="M55.793 35.8024V24.0175H56.8564V26.0931C57.1024 25.7552 57.2962 25.4281 57.5481 25.1533C58.488 24.1285 59.6907 23.71 61.0556 23.7214C61.7935 23.7274 62.5152 23.8412 63.1862 24.178C64.2817 24.7282 64.8351 25.6708 65.0485 26.8267C65.1546 27.4019 65.2068 27.9946 65.2117 28.5796C65.2297 30.9154 65.2193 33.2517 65.2188 35.5874C65.2188 35.6663 65.2096 35.7452 65.2036 35.8389H64.138V35.5101C64.138 33.1651 64.1489 30.8201 64.1298 28.4751C64.1255 27.9184 64.0819 27.3481 63.9497 26.8098C63.6667 25.6539 62.9103 24.9508 61.7179 24.7674C60.4618 24.5742 59.2951 24.7767 58.3144 25.643C57.5193 26.3451 57.1188 27.267 56.9615 28.2939C56.8891 28.7657 56.8651 29.2484 56.8624 29.7268C56.8515 31.637 56.8581 33.5477 56.8581 35.4584C56.8581 35.5651 56.8581 35.6718 56.8581 35.8024H55.793Z" fill="white"/>
<path d="M70.1289 23.9924C70.5284 23.9924 70.8887 23.9805 71.2468 24.0028C71.3142 24.0071 71.3969 24.1378 71.4323 24.2265C72.1768 26.0877 72.9158 27.951 73.6543 29.815C74.2236 31.2506 74.7912 32.6862 75.3604 34.1219C75.3969 34.2133 75.4377 34.3031 75.5003 34.4489C75.5536 34.3178 75.5912 34.2318 75.6238 34.1442C76.8396 30.8588 78.0576 27.5745 79.2641 24.2858C79.3522 24.0447 79.4692 23.9658 79.7147 23.9859C79.9824 24.0077 80.254 23.9908 80.5566 23.9908C80.5212 24.0986 80.5005 24.1726 80.4733 24.2439C79.0453 28.0185 77.6146 31.7926 76.1926 35.57C76.1185 35.7665 76.0233 35.8312 75.8203 35.816C75.5063 35.7921 75.1199 35.902 74.8957 35.7545C74.6834 35.6152 74.6394 35.219 74.5245 34.9338C73.1014 31.3986 71.6794 27.8634 70.2574 24.3277C70.2204 24.2357 70.1866 24.1427 70.1289 23.9924Z" fill="white"/>
<path d="M98.9898 23.9233V24.9138C98.4984 24.9737 98.0152 24.9851 97.5569 25.0967C95.9923 25.4781 94.8168 26.7973 94.6057 28.3891C94.5371 28.9078 94.5006 29.434 94.4974 29.957C94.4849 31.7954 94.4925 33.6343 94.4925 35.4731V35.791H93.4258V24.0104H94.4772V26.2254C94.954 25.4362 95.6059 24.8626 96.4163 24.4637C97.219 24.0686 98.0696 23.8983 98.9898 23.9233Z" fill="white"/>
<path d="M111.004 24.0105H112.055V35.7943H111.004V24.0105Z" fill="white"/>
<path d="M67.8203 24.0105H68.8413V35.7954H67.8203V24.0105Z" fill="white"/>
<path d="M112.048 21.9881H111V20.4055H112.048V21.9881Z" fill="white"/>
<path d="M68.8466 20.4133V21.9801H67.8164V20.4133H68.8466Z" fill="white"/>
<path d="M23.6131 34.6461C23.3796 34.7936 23.1684 34.9275 22.9317 35.0777C23.0324 34.5977 22.6525 34.3441 22.4637 34.0007C22.5274 34.3267 22.5785 34.6554 22.6591 34.977C22.7031 35.1544 22.6612 35.254 22.4724 35.3106C22.1812 35.0733 21.8803 34.8279 21.575 34.5792C21.6278 34.9378 21.9663 35.4031 22.289 35.4679C22.0757 35.5909 21.9173 35.6823 21.7361 35.7874C21.7491 35.3808 21.2349 34.4502 20.9023 34.2995C21.1097 34.1781 21.286 34.0649 21.4732 33.9751C21.5091 33.9583 21.5957 34.0252 21.6474 34.0671C21.8912 34.2657 22.1312 34.4693 22.4261 34.6423C22.3723 34.3648 22.3352 34.0829 22.2601 33.8113C22.1997 33.5942 22.2335 33.4576 22.4539 33.3727C22.5747 33.3259 22.6835 33.2486 22.8163 33.1746C22.7978 33.5229 23.2795 34.4127 23.6141 34.6456L23.6131 34.6461Z" fill="white"/>
<path d="M28.4722 30.1529C28.4276 29.7606 27.5188 29.0759 27.1562 29.0716C27.4218 28.7407 27.675 28.3989 27.9612 28.0871C28.0298 28.0125 28.2409 27.9804 28.3269 28.0305C28.4499 28.1023 28.5309 28.2612 28.6033 28.3968C28.6354 28.4572 28.6022 28.5519 28.5984 28.6368H29.5704C29.5246 28.9524 29.3751 29.0857 29.0818 29.0803C28.8407 29.0759 28.5996 29.0792 28.3514 29.0792C28.4352 29.3459 28.6104 29.4476 29.0142 29.4558C28.8346 29.6871 28.6741 29.8928 28.4722 30.1529ZM28.2203 29.0645C28.2731 28.8659 28.3307 28.7309 28.334 28.5943C28.3356 28.5382 28.1876 28.418 28.162 28.4316C28.0287 28.5007 27.9127 28.6036 27.7614 28.7162C27.9165 28.8338 28.0293 28.9197 28.2203 29.0645Z" fill="white"/>
<path d="M12.209 34.9044C12.0457 34.8 11.8324 34.6639 11.6016 34.5164C11.982 34.3657 12.5518 33.4868 12.5006 33.0884C12.886 33.3295 13.2495 33.533 13.5793 33.7817C13.6625 33.8443 13.6936 34.0767 13.6457 34.1861C13.5918 34.3096 13.4285 34.3934 13.2985 34.4712C13.2484 34.5017 13.1597 34.4685 13.0427 34.4615C13.0873 34.7853 13.1308 35.0976 13.1744 35.4144C12.7858 35.3578 12.696 35.2658 12.6645 34.93C12.6432 34.7036 12.6128 34.4778 12.5866 34.2519C12.5502 34.2459 12.5143 34.24 12.4778 34.2334C12.3934 34.4435 12.3097 34.6536 12.209 34.9044ZM12.6149 34.0391C12.8087 34.081 12.9551 34.1366 13.0998 34.1322C13.1526 34.1306 13.2625 33.9515 13.2419 33.9178C13.1651 33.7926 13.0449 33.6947 12.9268 33.5717C12.8609 33.6577 12.8321 33.6903 12.8087 33.7268C12.7602 33.8013 12.7145 33.8775 12.6149 34.0391Z" fill="white"/>
<path d="M9.51565 32.4524C9.51946 31.9947 9.91346 31.5844 10.3504 31.5828C10.8566 31.5811 11.422 32.1188 11.4149 32.595C11.4084 33.038 10.9883 33.4543 10.5583 33.444C10.0413 33.4309 9.51185 32.9275 9.51565 32.4524ZM10.9964 32.4535C11.0095 32.1945 10.8201 31.9762 10.5676 31.9594C10.2639 31.9392 9.89171 32.2799 9.87048 32.5977C9.85307 32.8573 10.0658 33.0935 10.3243 33.1017C10.653 33.1126 10.9785 32.798 10.9964 32.4535Z" fill="white"/>
<path d="M29.1061 26.6995C29.1061 26.1765 29.5812 25.6165 30.0247 25.6187C30.5004 25.6208 30.896 25.9942 30.8987 26.4442C30.902 26.9841 30.428 27.543 29.9665 27.543C29.5115 27.543 29.1067 27.1452 29.1061 26.6995ZM29.8827 26.0415C29.6236 26.035 29.3918 26.2342 29.3771 26.4758C29.3602 26.7626 29.727 27.1011 30.0742 27.1185C30.3507 27.1327 30.5755 26.9329 30.5815 26.6679C30.588 26.3566 30.2468 26.0508 29.8827 26.0415Z" fill="white"/>
<path d="M6.58167 27.8417C6.31119 28.0436 6.09514 28.1889 5.9014 28.3597C5.84263 28.4114 5.84589 28.5328 5.81106 28.6563C5.70059 28.5045 5.58957 28.3532 5.46875 28.1878C5.86984 28.1872 6.70303 27.5543 6.73078 27.2512C7.08289 27.5804 7.08017 27.5793 6.92452 27.9924C6.82058 28.2689 6.72588 28.5486 6.61922 28.8501C7.02411 28.6667 7.33322 28.3706 7.36642 28.0615C7.51989 28.277 7.632 28.4348 7.72179 28.56C7.57377 28.615 7.42574 28.6406 7.31146 28.7173C6.98166 28.9388 6.66548 29.1804 6.34385 29.4144C6.1512 29.2816 6.11745 29.1206 6.20616 28.9023C6.33732 28.5796 6.44072 28.245 6.58167 27.8417Z" fill="white"/>
<path d="M23.5938 32.5698C23.8719 32.333 24.1185 32.1224 24.3666 31.9135C24.6371 31.6849 24.9047 31.6675 25.091 31.8634C25.2945 32.0783 25.2873 32.4032 25.062 32.6476C24.9788 32.7379 24.8711 32.8065 24.7029 32.9431C24.722 32.7924 24.7034 32.689 24.7447 32.6519C24.9173 32.4974 24.9358 32.3292 24.7671 32.1905C24.5526 32.0136 24.4101 32.1915 24.243 32.3624C24.4982 32.6835 24.7492 32.9992 25.0077 33.3246C25.098 33.2887 25.1719 33.2593 25.246 33.2299C25.259 33.2517 25.2726 33.2734 25.2857 33.2947C25.0696 33.4628 24.8531 33.631 24.6131 33.8176C24.6409 33.4536 23.9365 32.5997 23.5938 32.5698Z" fill="white"/>
<path d="M4.17106 25.9807C4.12862 25.9001 4.04644 25.7428 3.94141 25.5437C4.46766 25.6879 4.93187 25.5192 5.40316 25.4528C5.57513 25.4288 5.71173 25.4337 5.83907 25.5796C5.94955 25.7064 5.96805 25.8016 5.85486 25.93C5.59744 26.2217 5.34167 26.5151 5.0935 26.8149C4.99555 26.933 4.9199 27.0691 4.80834 27.2351C4.68861 27.0223 4.56453 26.8013 4.40508 26.5178C4.73324 26.6577 4.88616 26.4585 4.92099 26.2919C4.94983 26.1575 4.82738 25.9001 4.70766 25.8495C4.58086 25.7962 4.37787 25.9224 4.17106 25.9807ZM5.15391 26.1036C5.2818 25.9649 5.3852 25.8522 5.4886 25.7396C5.47717 25.7238 5.4652 25.708 5.45377 25.6928C5.30139 25.7303 5.14901 25.7673 4.97106 25.8109C5.03799 25.9181 5.08534 25.9937 5.15391 26.1036Z" fill="white"/>
<path d="M15.6871 36.6478C15.4884 36.5558 15.2713 36.4551 15.0123 36.3354C15.2795 36.2293 15.3176 36.0007 15.2327 35.8396C15.1728 35.7259 14.9159 35.6186 14.7951 35.6573C14.6389 35.7074 14.4713 35.8766 14.5932 36.1765C14.3679 36.0676 14.2003 35.9871 14.0664 35.9223C14.2803 35.7389 14.4838 35.5762 14.6727 35.3988C14.8376 35.2442 15.0063 35.0875 15.1363 34.9052C15.2827 34.7006 15.452 34.7354 15.6365 34.7969C15.8433 34.866 15.7829 35.0418 15.7714 35.1871C15.7497 35.4663 15.7078 35.7438 15.6893 36.023C15.6762 36.22 15.6871 36.4187 15.6871 36.6478ZM15.3562 35.0657C15.3366 35.0608 15.317 35.0554 15.2969 35.0505C15.1946 35.167 15.0923 35.2834 14.9704 35.4222C15.0944 35.4788 15.1837 35.5201 15.3089 35.5773C15.3274 35.3759 15.3415 35.2208 15.3562 35.0657Z" fill="white"/>
<path d="M26.4793 32.1602C26.4542 32.0764 26.4248 31.9234 26.3639 31.7847C26.2333 31.4875 26.1092 31.1833 25.9394 30.9085C25.799 30.6816 25.897 30.5112 26.0363 30.3888C26.1038 30.3289 26.298 30.3795 26.4205 30.422C26.6327 30.496 26.8297 30.613 27.0398 30.6941C27.2896 30.7904 27.5459 30.8682 27.8088 30.9575C27.6678 31.1077 27.4942 31.2927 27.3647 31.4304C27.1808 31.2878 27.0322 31.1724 26.8716 31.0478C26.7247 31.1969 26.605 31.3177 26.4575 31.4674C26.5799 31.6105 26.6953 31.7444 26.8145 31.8832C26.7204 31.961 26.5805 32.0764 26.4793 32.1602ZM26.2224 30.7376C26.2077 30.7501 26.193 30.7626 26.1789 30.7752C26.26 30.9177 26.3405 31.0603 26.4357 31.2279C26.5348 31.1229 26.6055 31.0484 26.6904 30.9586C26.513 30.8748 26.3677 30.8061 26.2224 30.7376Z" fill="white"/>
<path d="M8.62165 31.4543C8.00396 31.4473 7.58547 31.0788 7.55281 30.6163C7.52397 30.2065 7.80478 29.8369 8.21512 29.7455C8.67988 29.6421 9.19035 30.0062 9.44721 30.6391C9.33837 30.7066 9.22626 30.7768 9.09946 30.8557C9.07878 30.8002 9.04668 30.7583 9.05212 30.7229C9.09892 30.4247 8.99497 30.2059 8.73158 30.0878C8.48831 29.979 8.29294 30.0655 8.12968 30.2543C7.9441 30.4688 7.90002 30.749 8.06274 30.9504C8.16505 31.0772 8.32886 31.1523 8.45729 31.2601C8.52151 31.3139 8.56723 31.389 8.62165 31.4543Z" fill="white"/>
<path d="M20.0093 34.7451C19.8961 35.0248 20.332 36.061 20.676 36.1911C20.4142 36.3141 20.1911 36.4191 19.9358 36.5394C20.0648 36.1976 19.6436 35.2158 19.2969 35.0727C19.5598 34.9519 19.7846 34.8485 20.0093 34.7451Z" fill="white"/>
<path d="M18.0782 36.3169C18.0831 36.5237 17.9095 36.7076 17.7086 36.7076C17.5193 36.7076 17.3593 36.5384 17.3555 36.3337C17.3516 36.1356 17.5106 35.9495 17.6918 35.9392C17.8844 35.9283 18.0733 36.1128 18.0782 36.3169Z" fill="white"/>
<path d="M31.6629 24.0486C31.6689 24.2451 31.5181 24.4045 31.3097 24.41C31.1045 24.4154 30.9581 24.3316 30.9391 24.109C30.9195 23.8788 31.0849 23.6932 31.2977 23.6943C31.4958 23.6954 31.6569 23.8516 31.6629 24.0486Z" fill="white"/>
<path d="M4.21077 23.6949C4.40832 23.7057 4.5705 23.875 4.56669 24.0671C4.56288 24.2581 4.38982 24.4154 4.18683 24.4116C3.99091 24.4078 3.82656 24.2331 3.83635 24.0388C3.84669 23.8309 4.00669 23.684 4.21077 23.6949Z" fill="white"/>
<path d="M11.5193 7.88214C11.4115 7.57357 11.6042 7.49684 11.8001 7.51208C12.3291 7.55344 12.8564 7.62201 13.3816 7.69765C13.676 7.7401 13.9628 7.83643 14.2578 7.87235C14.4542 7.89629 14.482 7.97847 14.421 8.19397C14.0929 8.13357 13.756 8.09057 13.43 8.00677C12.8031 7.84513 12.1773 7.71669 11.5193 7.88214Z" fill="white"/>
<path d="M14.4347 7.4861C13.4377 7.43985 12.5229 6.89291 11.5253 7.19223C11.4225 6.94951 11.5215 6.82652 11.7337 6.83196C12.1642 6.84285 12.5974 6.86244 13.0235 6.92121C13.4518 6.98053 13.872 7.09863 14.2981 7.17808C14.4951 7.21509 14.4543 7.33264 14.4347 7.4861Z" fill="white"/>
<path d="M14.4173 6.06295C13.441 6.02213 12.5256 5.47466 11.5292 5.77343C11.4595 5.46813 11.4976 5.38051 11.8339 5.39629C12.3449 5.42024 12.8538 5.50568 13.3615 5.58078C13.656 5.62432 13.9433 5.72119 14.2377 5.75438C14.4679 5.7805 14.4853 5.87628 14.4173 6.06295Z" fill="white"/>
<path d="M14.4212 4.64263C13.4351 4.59909 12.5203 4.05597 11.5238 4.35583C11.403 4.03365 11.6131 3.96291 11.815 3.97923C12.344 4.02168 12.8708 4.09406 13.3959 4.1708C13.6816 4.21216 13.9614 4.29106 14.2455 4.34439C14.4577 4.38412 14.4582 4.37815 14.4212 4.64263Z" fill="white"/>
<path d="M11.5185 3.67065C11.444 3.43283 11.506 3.33596 11.7188 3.29624C12.2712 3.19284 12.7931 3.34413 13.3215 3.45569C13.6388 3.52263 13.9566 3.58739 14.275 3.6478C14.4578 3.68263 14.4595 3.67936 14.4197 3.9531C13.4494 3.9199 12.5319 3.33705 11.5185 3.67065Z" fill="white"/>
<path d="M11.5179 5.08232C11.4319 4.8445 11.5141 4.75579 11.7339 4.71334C12.2694 4.6094 12.7734 4.76287 13.2844 4.86572C13.6115 4.93157 13.9364 5.00831 14.2651 5.06218C14.4545 5.0932 14.4833 5.18572 14.4164 5.39143C14.1247 5.33864 13.8194 5.31198 13.5326 5.22654C12.8686 5.0279 12.2053 4.88042 11.5179 5.08232Z" fill="white"/>
<path d="M14.4343 6.51074V6.73767C13.4563 6.73005 12.5508 6.16407 11.5576 6.42094C11.4787 6.19673 11.5538 6.07646 11.7845 6.09278C12.2324 6.12435 12.6825 6.14775 13.1249 6.21741C13.5586 6.28598 13.9848 6.40734 14.4343 6.51074Z" fill="white"/>
<path d="M7.59694 6.02927C7.55558 5.87308 7.53926 5.76478 7.72592 5.72941C8.35394 5.61023 8.97815 5.46819 9.60835 5.3637C9.83366 5.32615 10.0731 5.36805 10.306 5.37948C10.5264 5.39036 10.5787 5.51499 10.5139 5.72669C9.51584 5.49377 8.58904 5.96832 7.59694 6.02927Z" fill="white"/>
<path d="M10.5052 4.34158C10.0111 4.14729 9.53111 4.26539 9.05274 4.35083C8.57438 4.43627 8.09928 4.53967 7.61276 4.63709C7.56215 4.47056 7.51698 4.34811 7.7265 4.30784C8.3371 4.18974 8.94445 4.05097 9.55778 3.95138C9.80158 3.91219 10.059 3.95138 10.3099 3.96172C10.5362 3.97097 10.576 4.10321 10.5052 4.34158Z" fill="white"/>
<path d="M10.5033 3.63836C9.50577 3.34122 8.58117 3.86965 7.59506 3.91482C7.56785 3.77767 7.5107 3.66339 7.71369 3.62475C8.35097 3.50448 8.98443 3.3619 9.62333 3.25251C9.83122 3.21714 10.0527 3.25523 10.2671 3.26612C10.4952 3.277 10.5975 3.38149 10.5033 3.63836Z" fill="white"/>
<path d="M10.5127 7.14918C9.50374 6.92333 8.57151 7.37775 7.58594 7.44305V7.21231C7.59519 7.20414 7.60662 7.1851 7.62132 7.18183C8.28253 7.04687 8.94266 6.90156 9.60769 6.78673C9.82374 6.74918 10.0545 6.78945 10.2782 6.79871C10.4948 6.80796 10.5916 6.90918 10.5127 7.14918Z" fill="white"/>
<path d="M7.53516 5.25319C7.58958 5.18571 7.63421 5.07197 7.70005 5.05782C8.35093 4.91687 9.00344 4.78191 9.66031 4.66925C9.85949 4.63497 10.0723 4.66925 10.278 4.68504C10.4815 4.70027 10.5947 4.79497 10.5365 4.96748C10.0532 4.99469 9.59119 4.99687 9.13623 5.05401C8.74494 5.10299 8.36182 5.21891 7.97379 5.29673C7.85298 5.32122 7.72727 5.31904 7.60373 5.32938L7.53516 5.25319Z" fill="white"/>
<path d="M7.54297 8.09784C7.59358 8.02709 7.63276 7.90736 7.69643 7.89267C8.28527 7.75771 8.87574 7.62383 9.47165 7.52587C9.74376 7.48125 10.0316 7.49757 10.3086 7.52424C10.5454 7.5471 10.5492 7.58247 10.5105 7.88124C9.51138 7.60968 8.58404 8.10709 7.61263 8.1675C7.58977 8.1441 7.56583 8.12125 7.54297 8.09784Z" fill="white"/>
<path d="M10.5031 6.46629C9.50345 6.17351 8.57829 6.70629 7.59327 6.74602C7.58456 6.69323 7.57422 6.66003 7.57422 6.62629C7.57422 6.5833 7.58238 6.5403 7.58565 6.50602C8.19299 6.37432 8.7791 6.22793 9.37338 6.1267C9.67161 6.07609 9.98399 6.09895 10.2893 6.1082C10.5031 6.11473 10.6006 6.22629 10.5031 6.46629Z" fill="white"/>
<path d="M24.0625 8.1798V2.51293C24.0821 2.50803 24.1012 2.50367 24.1208 2.49878C24.1833 2.82585 24.296 3.15237 24.3004 3.48053C24.3194 5.03589 24.3091 6.59179 24.3091 8.1798H24.0625Z" fill="white"/>
</g>
<defs>
<clipPath id="clip0_7514_10281">
<rect width="137" height="40" fill="white"/>
</clipPath>
</defs>
</svg>
