<svg width="136" height="40" viewBox="0 0 136 40" fill="none" xmlns="http://www.w3.org/2000/svg">
<g clip-path="url(#clip0_7514_10264)">
<path d="M43.6366 15.2508C40.6259 6.14617 32.0447 -0.00821955 22.3708 8.23973e-06C12.6969 0.00823603 4.1204 6.14617 1.10496 15.2508C-0.359022 19.6945 -0.368491 24.4879 1.07792 28.9373C2.52433 33.3867 5.35158 37.2612 9.15044 40C12.9945 37.2126 17.6237 35.7114 22.3749 35.7114C27.1261 35.7114 31.7553 37.2126 35.5994 40C39.3966 37.26 42.2221 33.385 43.667 28.9357C45.1119 24.4865 45.1012 19.6936 43.6366 15.2508ZM30.4492 30.1396C28.299 32.2646 25.3941 33.4545 22.3684 33.4495C16.0679 33.4495 10.9625 28.3835 10.9637 22.1433C10.9649 15.9032 16.0738 10.8466 22.3755 10.8454C28.6772 10.8442 33.7873 15.8996 33.7967 22.1375C33.7966 23.6258 33.5009 25.0993 32.9267 26.4729C32.3526 27.8464 31.5113 29.0927 30.4516 30.1396H30.4492Z" fill="white"/>
<path d="M53.1914 19.0779C53.248 18.7036 53.2877 18.3254 53.3638 17.9543C54.0638 14.5445 56.6492 12.1188 60.1109 11.6162C63.6227 11.1065 67.0552 12.9465 68.5372 16.1339C70.6991 20.7831 67.8365 26.3393 62.8089 27.2501C58.5652 28.0197 54.6129 25.5933 53.5004 21.5239C53.3781 21.0756 53.3378 20.6051 53.2571 20.1451C53.2408 20.0502 53.2135 19.9567 53.1914 19.8625C53.1914 19.6007 53.1914 19.339 53.1914 19.0779ZM65.4411 19.4476C65.4352 17.1514 63.5154 15.2649 61.1948 15.2747C58.9405 15.2839 57.0174 17.2234 57.0298 19.4738C57.0428 21.7568 58.9601 23.6675 61.2371 23.6656C63.5421 23.6643 65.447 21.7529 65.4411 19.4476Z" fill="white"/>
<path d="M104.953 11.8473H108.77C108.77 11.986 108.77 12.113 108.77 12.2399C108.77 14.5832 108.761 16.9264 108.773 19.2704C108.785 21.7091 107.904 23.7455 106.107 25.3814C106.075 25.4108 106.042 25.4403 106.014 25.4724C106.001 25.4874 105.995 25.5096 105.978 25.5456C107.951 27.2934 108.919 29.4927 108.751 32.1455C108.623 34.1746 107.79 35.9035 106.328 37.309C103.246 40.2733 98.3415 40.2706 95.2148 37.3653C92.0511 34.4253 91.649 28.7428 95.5342 25.5136C93.8096 24.0001 92.8454 22.0965 92.7361 19.7938C92.6509 17.995 93.1349 16.3428 94.1869 14.8796C95.4145 13.1711 97.0703 12.1051 99.1241 11.7014C101.153 11.3029 103.083 11.6216 104.953 12.6849V11.8473ZM100.727 27.4132C98.5067 27.3949 96.5713 29.2977 96.5459 31.5219C96.5192 33.8442 98.4163 35.7922 100.723 35.8112C102.98 35.8295 104.932 33.9181 104.951 31.673C104.97 29.3226 103.096 27.4328 100.727 27.4132ZM100.727 23.6676C103.022 23.6709 104.942 21.7778 104.951 19.504C104.961 17.1862 103.059 15.2853 100.723 15.2775C98.4775 15.2696 96.5466 17.2019 96.5459 19.4582C96.5459 21.7432 98.4534 23.6644 100.727 23.6676Z" fill="white"/>
<path d="M121.543 11.8439H125.394V12.9492C125.562 12.8353 125.669 12.7718 125.766 12.6959C127.987 10.954 131.587 11.3277 133.366 12.7843C134.535 13.7416 135.162 15.0012 135.407 16.4631C135.509 17.0716 135.549 17.6972 135.553 18.3155C135.568 21.0835 135.559 23.8521 135.56 26.6206C135.56 26.7273 135.56 26.834 135.56 26.9648H131.682C131.682 26.832 131.682 26.6966 131.682 26.5611C131.678 23.8691 131.679 21.177 131.663 18.485C131.661 18.1186 131.603 17.7449 131.512 17.389C131.184 16.092 130.287 15.3631 128.911 15.2911C128.472 15.2682 128.018 15.2904 127.589 15.3807C126.356 15.6405 125.608 16.5403 125.475 17.8706C125.433 18.292 125.41 18.718 125.41 19.1413C125.404 21.6155 125.407 24.0896 125.407 26.5637C125.407 26.692 125.407 26.8196 125.407 26.9681H121.543V11.8439Z" fill="white"/>
<path d="M76.3689 11.8374V12.8844C76.4444 12.8706 76.4815 12.8746 76.5036 12.8582C77.7403 11.9421 79.1703 11.6548 80.6601 11.573C81.0921 11.5495 81.5267 11.5456 81.9593 11.556C82.0367 11.558 82.1773 11.6738 82.1779 11.7386C82.1916 12.902 82.1877 14.0661 82.1877 15.2505C81.6555 15.2806 81.1474 15.2819 80.6471 15.3435C80.005 15.4233 79.3544 15.4972 78.7338 15.6693C77.1678 16.1038 76.4158 17.0723 76.3963 18.7088C76.365 21.3236 76.38 23.9391 76.3754 26.5539C76.3754 26.6828 76.3754 26.8117 76.3754 26.9629H72.5273V11.8374H76.3689Z" fill="white"/>
<path d="M88.977 26.9682H85.1445V11.8467H88.977V26.9682Z" fill="white"/>
<path d="M113.16 11.8459H116.99V26.9655H113.16V11.8459Z" fill="white"/>
</g>
<defs>
<clipPath id="clip0_7514_10264">
<rect width="136" height="40" fill="white"/>
</clipPath>
</defs>
</svg>
