<svg width="119" height="40" viewBox="0 0 119 40" fill="none" xmlns="http://www.w3.org/2000/svg">
<g clip-path="url(#clip0_7514_10229)">
<path d="M98.1769 36.9636C98.383 36.9824 98.5252 37.0071 98.6674 37.0071C101.884 37.0042 105.102 37.0361 108.318 36.9853C111.987 36.9273 115.175 34.216 115.831 30.6165C116.304 28.0199 115.259 25.9501 113.437 24.1895C112.086 22.8833 110.378 22.1982 108.698 21.4521C106.584 20.5145 104.427 19.6379 102.407 18.5217C100.016 17.2024 98.2697 15.2357 97.7777 12.4388C96.7153 6.38778 99.8213 1.06249 106.459 0.150996C110.516 -0.406352 114.317 0.627064 117.919 2.46312C118.885 2.95515 119.165 3.81295 118.709 4.61994C118.266 5.40226 117.462 5.56627 116.507 5.06843C113.617 3.56185 110.546 2.75776 107.291 3.04224C101.823 3.51976 99.7633 7.8305 100.804 12.2704C101.197 13.9454 102.373 15.1384 103.83 15.9048C105.897 16.9905 108.045 17.9266 110.193 18.8497C112.871 20.0007 115.352 21.3868 117.075 23.8426C120.799 29.1491 118.567 36.4483 112.426 39.0376C110.913 39.6748 109.333 39.984 107.7 39.9898C104.241 40.0043 100.782 39.9941 97.3234 39.9941C95.7428 39.9941 95.2972 39.5616 95.245 37.9926C95.1027 33.7457 93.734 29.8472 91.7543 26.1548C90.8109 24.3942 89.6294 22.7599 88.6163 21.0341C88.3667 20.6089 88.252 20.0501 88.2389 19.5493C88.1968 17.7641 88.2767 15.9759 88.2113 14.1921C88.1547 12.642 87.6467 12.3662 86.3753 13.2588C85.564 13.8292 84.8687 14.6072 84.2446 15.3881C83.7758 15.9759 83.2896 16.2328 82.5421 16.2662C80.4927 16.3562 78.4476 16.5187 76.4025 16.6813C75.9773 16.7147 75.5622 16.8714 74.9917 17.0064C75.3532 17.6451 75.6376 18.2169 75.9845 18.7481C77.3735 20.8701 78.8235 22.9544 80.1719 25.1025C81.3867 27.0372 82.3099 29.0983 82.484 31.4336C82.603 33.0258 82.3665 34.5614 81.9296 36.0796C81.8512 36.354 81.7627 36.6254 81.6436 37.0114C81.9659 37.0114 82.2184 37.0114 82.471 37.0114C85.1067 37.0114 87.744 37.01 90.3798 37.0114C91.4176 37.0114 92.091 37.5761 92.1171 38.4498C92.1447 39.3526 91.4538 39.9883 90.3885 39.9898C86.7367 39.9985 83.0835 40.0043 79.4317 39.9869C77.9672 39.9796 77.3271 38.8185 78.0485 37.547C80.0035 34.1057 80.1051 30.6571 77.9904 27.2564C76.6769 25.1446 75.2254 23.1198 73.9206 21.0037C73.2181 19.8643 72.565 18.6596 72.1208 17.4027C71.6956 16.1965 72.2123 15.2691 73.3313 14.6058C74.684 13.806 76.2095 13.6536 77.7204 13.507C78.9454 13.388 80.1835 13.4054 81.4114 13.2995C81.7467 13.2704 82.1545 13.0948 82.3708 12.8466C83.5363 11.5084 84.831 10.3778 86.6104 9.96265C89.0474 9.39369 90.5627 10.2384 90.94 12.6957C91.2463 14.6856 91.1868 16.7336 91.2361 18.7568C91.2492 19.3098 91.345 19.7583 91.6672 20.2257C94.6644 24.5872 96.9185 29.2753 97.8692 34.5266C97.9417 34.9301 98.0085 35.3365 98.0607 35.7429C98.1115 36.1435 98.1391 36.5484 98.1769 36.9606V36.9636Z" fill="white"/>
<path d="M15.2996 33.7661C15.0645 36.0332 16.2474 37.3511 18.3795 37.1551C19.2765 37.0724 20.1648 36.7763 21.0298 36.4933C21.9863 36.1812 22.7701 36.412 23.0938 37.2103C23.4044 37.9766 23.0386 38.727 22.1532 39.1175C20.7381 39.7416 19.246 40.0798 17.7119 39.9651C14.3141 39.7111 12.3997 37.7314 12.2371 34.3103C12.166 32.8168 12.1863 31.3102 12.2923 29.8182C12.5158 26.6802 15.1429 24.5756 18.2823 24.7164C21.683 24.8688 23.9022 27.3885 23.8892 30.8095C23.8804 33.11 23.2563 33.8865 20.9268 33.7791C19.3099 33.7036 17.6872 33.7646 16.0674 33.7646H15.2996V33.7661ZM20.8644 30.9604C20.7947 29.7224 20.6917 28.5467 19.5421 27.8834C18.5363 27.3028 17.4347 27.3014 16.452 27.9255C15.3736 28.6106 15.2735 29.7601 15.2256 30.9604H20.8644Z" fill="white"/>
<path d="M26.1943 32.811C26.1943 30.9735 26.2016 29.136 26.1914 27.2985C26.1871 26.4828 26.534 25.8485 27.2684 25.5669C29.2394 24.8137 31.299 24.49 33.3818 24.8775C36.0495 25.3725 37.7767 27.5641 37.8116 30.3799C37.8435 32.991 37.8246 35.6021 37.8159 38.2132C37.813 39.2742 37.1961 39.9811 36.3079 39.9854C35.4065 39.9898 34.8042 39.3032 34.8013 38.2291C34.794 35.618 34.8013 33.007 34.7984 30.3958C34.7969 28.493 33.7795 27.4698 31.8854 27.5075C31.2134 27.5206 30.5428 27.6454 29.8708 27.7063C29.3541 27.7528 29.1538 27.9676 29.1596 28.5366C29.1915 31.824 29.1799 35.113 29.1698 38.4005C29.1669 39.2031 28.7808 39.6966 28.0681 39.9099C27.399 40.1088 26.8533 39.8664 26.4846 39.3366C26.2959 39.0638 26.2176 38.6661 26.2117 38.3221C26.1856 36.4846 26.2001 34.6471 26.2001 32.8096H26.1943V32.811Z" fill="white"/>
<path d="M63.6251 24.6076C64.6672 24.8776 65.7326 25.0808 66.7456 25.435C67.6528 25.7528 67.9808 26.5816 67.6586 27.3421C67.3248 28.1259 66.5918 28.3262 65.6484 28.0867C64.6106 27.8226 63.538 27.6121 62.4727 27.557C61.5553 27.5091 60.9762 28.0882 60.8819 28.8299C60.7861 29.5962 61.1997 30.1579 62.1098 30.4627C63.0242 30.769 63.9458 31.052 64.8573 31.364C67.0156 32.1014 67.9808 33.4526 67.9271 35.6327C67.8792 37.5341 66.5744 39.1887 64.6019 39.7156C62.5684 40.2584 60.5742 39.9826 58.6597 39.1669C57.7816 38.7924 57.4899 37.9767 57.86 37.2031C58.2272 36.4368 59.0255 36.1668 59.892 36.5718C61.0183 37.0972 62.1925 37.2728 63.4175 37.1523C64.3 37.0667 64.8022 36.6516 64.9169 35.9433C65.033 35.2321 64.7093 34.6327 63.9067 34.2959C62.8849 33.8678 61.8326 33.5151 60.7962 33.1203C58.5654 32.2726 57.5654 30.6354 57.8977 28.3944C58.1779 26.5177 59.9225 24.9792 61.9951 24.7978C62.522 24.7513 63.0503 24.7441 63.5786 24.7194C63.5932 24.6817 63.6077 24.6439 63.6222 24.6062L63.6251 24.6076Z" fill="white"/>
<path d="M45.8231 24.6033C46.8652 24.8733 47.9291 25.0765 48.9407 25.4335C49.8784 25.763 50.2078 26.6164 49.8537 27.4118C49.5271 28.1477 48.7463 28.3102 47.7999 28.0577C46.7868 27.7877 45.7316 27.6048 44.6866 27.5497C43.7954 27.5018 43.1771 28.1027 43.0842 28.824C42.987 29.5773 43.4021 30.1507 44.3136 30.4642C45.2483 30.7849 46.2004 31.0578 47.1308 31.3902C49.2151 32.1348 50.2528 33.5702 50.1788 35.5558C50.1062 37.5137 48.8043 39.1742 46.8246 39.7141C44.7897 40.2685 42.7968 39.9783 40.881 39.1756C39.997 38.8055 39.6995 37.9927 40.0595 37.2206C40.4223 36.4426 41.2162 36.1683 42.0842 36.5703C43.2352 37.103 44.4341 37.2844 45.6837 37.1523C46.379 37.0783 46.9479 36.7895 47.125 36.0434C47.2948 35.3264 46.9915 34.7038 46.1975 34.3554C45.1612 33.9011 44.0872 33.5325 43.0276 33.1333C40.8708 32.322 39.8055 30.6978 40.0827 28.6339C40.3643 26.5395 42.0087 25.001 44.1931 24.8036C44.72 24.7557 45.2498 24.747 45.7781 24.7209C45.7926 24.6831 45.8086 24.6439 45.8231 24.6062V24.6033Z" fill="white"/>
<path d="M5.91899 24.6033C6.96111 24.8718 8.02646 25.0779 9.03956 25.4292C9.9467 25.7427 10.2892 26.5685 9.98734 27.3378C9.68689 28.0998 8.90312 28.3422 7.97276 28.0795C7.099 27.8327 6.19476 27.6876 5.29923 27.5207C5.09168 27.4815 4.86525 27.5178 4.65044 27.5468C3.83329 27.6542 3.28175 28.1375 3.17869 28.8211C3.07709 29.5019 3.47914 30.1216 4.27452 30.4148C5.04378 30.6978 5.829 30.933 6.60842 31.187C6.81452 31.2537 7.02643 31.3089 7.23108 31.38C9.29936 32.1043 10.3575 33.5847 10.2675 35.6254C10.1818 37.5645 8.80297 39.2438 6.85371 39.7359C4.88557 40.2323 2.96679 39.9696 1.10606 39.2409C0.137955 38.8621 -0.216194 38.0798 0.129246 37.3004C0.525486 36.4063 1.29329 36.1581 2.30929 36.6226C3.37028 37.1073 4.48062 37.2583 5.63015 37.1698C6.56487 37.0972 7.12803 36.6661 7.23108 35.9796C7.34719 35.1973 7.01046 34.6254 6.11348 34.2538C5.15554 33.8576 4.17437 33.5209 3.20047 33.1638C0.950754 32.338 -0.0768563 30.7603 0.209075 28.5686C0.47904 26.4974 2.13076 24.9923 4.36016 24.7978C4.86235 24.7542 5.36745 24.7455 5.87254 24.7223C5.88706 24.6831 5.90157 24.6454 5.91609 24.6062L5.91899 24.6033Z" fill="white"/>
<path d="M55.4576 32.4277C55.4576 34.3843 55.462 36.3393 55.4561 38.2959C55.4532 39.3191 54.8495 39.9998 53.98 39.9868C53.1106 39.9723 52.4923 39.293 52.4909 38.2872C52.4822 34.3277 52.4822 30.3667 52.4909 26.4072C52.4938 25.3782 53.086 24.7424 53.9888 24.7395C54.8944 24.7366 55.4532 25.3651 55.4561 26.4159C55.462 28.4203 55.4576 30.4248 55.4576 32.4277Z" fill="white"/>
<path d="M54.0113 22.0632C53.0244 22.0719 52.3306 21.3825 52.332 20.397C52.332 19.4361 53.0693 18.7017 54.02 18.7148C54.9141 18.7264 55.6718 19.4753 55.6935 20.3694C55.7167 21.2997 54.9664 22.0545 54.0113 22.0632Z" fill="white"/>
<path d="M82.3789 18.8148C83.2788 18.8279 83.9841 19.5463 83.974 20.436C83.9638 21.2938 83.1844 22.0428 82.3208 22.0268C81.4601 22.0108 80.7039 21.2271 80.7271 20.3751C80.7518 19.4723 81.463 18.8003 82.3803 18.8134L82.3789 18.8148Z" fill="white"/>
</g>
<defs>
<clipPath id="clip0_7514_10229">
<rect width="119" height="40" fill="white"/>
</clipPath>
</defs>
</svg>
