<svg width="106" height="40" viewBox="0 0 106 40" fill="none" xmlns="http://www.w3.org/2000/svg">
<path d="M13.7655 40L13.317 39.7964C12.5016 39.5713 11.6993 38.7641 11.6897 37.824L11.6237 31.7235L4.47418 38.8503C3.90216 39.4204 3.36133 39.782 2.62503 40H2.14535C1.04689 39.6587 0 38.9198 0 37.5773L0.00359757 2.20315C0.00359757 1.32054 0.766282 0.594803 1.3263 0.290618C2.03982 -0.096201 3.13348 -0.147697 3.73907 0.452291L11.6297 8.27249L11.6501 2.6259C11.6537 1.65466 12.0063 0.833122 12.8062 0.370855C13.4897 -0.0255437 14.7045 -0.242306 15.3952 0.446303L35.0211 20.0028L16.297 38.6755C15.6794 39.291 15.117 39.703 14.3651 40H13.7655ZM23.2931 19.9932L11.7449 8.49764V31.5032L23.2931 19.9932Z" fill="white"/>
<path d="M105.999 31.5451V31.6421C105.753 31.9115 105.538 32.2924 105.313 32.7019C104.631 32.7019 104.237 32.0708 103.869 31.4229C103.221 32.3439 102.356 32.7786 101.326 32.7942C100.239 32.8109 99.2282 32.4193 98.5902 31.4912C97.6177 30.0768 97.6225 28.1056 98.6538 26.7248C99.8494 25.1236 101.996 24.9775 103.728 25.7644L104.013 25.4314L105.207 25.4721V30.3367C105.207 30.8924 105.52 31.3738 106 31.5439L105.999 31.5451ZM103.731 29.4433L103.761 27.0673C103.02 26.7308 102.263 26.5919 101.453 26.6494C100.195 26.738 99.3637 27.7727 99.3649 29.0146C99.3649 29.7798 99.5304 30.5391 100.148 31.0397C100.766 31.5403 101.682 31.6481 102.434 31.2972C103.046 31.011 103.722 30.3056 103.732 29.4445L103.731 29.4433Z" fill="white"/>
<path d="M52.2823 30.1235L47.9856 30.114L47.0358 32.6924L45.5009 32.6528L49.3407 22.5632L50.9584 22.5441L54.7898 32.6361L53.2057 32.6888L52.2823 30.1224V30.1235ZM51.7966 28.8134L50.1405 24.3584L48.4761 28.8146H51.7966V28.8134Z" fill="white"/>
<path d="M51.2774 12.1143C52.6181 12.6928 53.1649 13.949 52.9263 15.3083C52.7128 16.5202 51.7259 17.3825 50.366 17.604C48.9341 17.8364 47.4867 17.5286 46.2012 16.6867L46.9123 15.3646C48.024 16.3765 51.0063 16.8747 51.3889 15.2077C51.564 14.446 51.2414 13.7335 50.4787 13.4089L48.1439 12.4149C47.3272 12.0676 46.7636 11.3575 46.6113 10.6365C46.4242 9.75031 46.6101 8.81979 47.2433 8.15753C48.6571 6.67971 51.9465 6.96354 52.7907 8.912L51.6107 9.61857C50.9752 8.62698 49.7064 8.28567 48.6643 8.8617C48.2338 9.10002 48.0048 9.61259 48.0683 10.0593C48.1271 10.4748 48.4593 10.8964 48.8994 11.0868L51.2786 12.1143H51.2774Z" fill="white"/>
<path d="M88.8768 31.5702L88.198 32.7427C87.4281 32.5486 87.12 32.0684 86.7902 31.3618C86.2362 32.3558 85.1989 32.8037 84.0764 32.793C82.4215 32.7774 81.184 31.6325 80.8794 30.0349C80.5748 28.4374 81.1348 26.6757 82.6242 25.7967C83.8737 25.0602 85.3248 25.1847 86.6283 25.7811L86.8945 25.435L88.1429 25.4698L88.1465 30.3379C88.1465 30.8397 88.3156 31.2277 88.8768 31.5714V31.5702ZM86.693 27.0889C86.1054 26.7907 85.4771 26.6566 84.8043 26.6278C83.4648 26.5715 82.3963 27.429 82.2932 28.7859C82.2417 29.4637 82.3496 30.2217 82.7933 30.7583C83.3785 31.466 84.2875 31.6481 85.1713 31.375C87.0372 30.7978 86.6715 28.6206 86.693 27.0889Z" fill="white"/>
<path d="M57.41 16.3119C58.5085 16.5562 59.5626 16.3741 60.5783 15.9274L60.9225 17.0819C59.77 17.6484 58.4809 17.7981 57.2194 17.5573C55.4098 17.2136 54.2693 15.6628 54.3233 13.8532C54.3665 12.3814 55.062 11.0138 56.4171 10.4437C58.2135 9.68803 60.1957 10.4329 60.8853 12.2556C61.1311 12.9071 61.2127 13.5838 61.221 14.3035L55.8427 14.3119C55.8091 15.2412 56.4567 16.0987 57.41 16.3107V16.3119ZM59.6681 13.2736C59.6969 12.5359 59.3227 11.9287 58.8035 11.603C58.2555 11.2593 57.5563 11.2413 56.9687 11.5335C56.2996 11.8664 55.8966 12.5023 55.8115 13.2676L59.6681 13.2724V13.2736Z" fill="white"/>
<path d="M92.954 15.949C93.0787 16.3526 93.1747 16.7178 93.2502 17.1094C92.0031 17.6555 90.7607 17.8076 89.4812 17.5286C88.0349 17.2124 87.0096 16.1214 86.759 14.6568C86.5851 13.6412 86.7338 12.5646 87.3178 11.6928C88.4427 10.009 90.847 9.60061 92.364 10.9563C93.309 11.8006 93.6316 13.0532 93.5488 14.3035L88.2064 14.3143C88.1692 15.2652 88.8588 16.1358 89.8481 16.3334C90.9334 16.5502 91.9383 16.337 92.9552 15.949H92.954ZM92.0642 13.2688C92.0414 12.4856 91.6745 11.9143 91.1756 11.6066C90.576 11.2365 89.8673 11.2581 89.2581 11.5862C88.6213 11.9287 88.2472 12.573 88.1992 13.2724L92.0654 13.27L92.0642 13.2688Z" fill="white"/>
<path d="M62.1924 32.6504L60.7809 32.696L60.6802 31.8744C59.6333 32.8995 58.006 33.1858 56.7517 32.3498C56.1533 31.9511 55.6664 31.1642 55.664 30.4253L55.6448 25.4482H57.0035L57.0299 29.8277C57.0335 30.4002 57.3189 31.0229 57.8753 31.3175C58.6752 31.7403 60.3816 31.4349 60.6203 30.4098C61.0028 28.7631 60.5363 27.0673 60.8001 25.4386H62.1876L62.1924 32.6504Z" fill="white"/>
<path d="M82.3256 16.2687C83.3641 16.5011 84.2899 16.1729 85.2408 15.767L85.6413 16.9693C84.0069 17.9262 81.4706 18.0268 80.0915 16.6196C78.7832 15.2843 78.6585 13.1742 79.7114 11.6257C80.3865 10.6341 81.5389 10.1467 82.6913 10.1551C83.8618 10.1635 85.013 10.706 85.6641 11.7622L84.6772 12.5994C84.092 11.6173 83.0715 11.294 82.0858 11.5658C81.1 11.8377 80.5376 12.7802 80.5172 13.852C80.4956 14.9873 81.1144 15.9981 82.3256 16.2675V16.2687Z" fill="white"/>
<path d="M99.7534 14.258C100.279 14.8592 100.297 15.6304 100.012 16.2999C99.2354 18.1286 96.1367 17.9262 94.5897 16.9573L95.1042 15.8616C96.0671 16.4987 98.577 16.9502 98.7485 15.7059C98.8061 15.2903 98.5422 14.9203 98.1237 14.7706L96.175 14.076C95.4411 13.8137 94.9387 13.1119 94.8931 12.4293C94.8451 11.7012 95.1581 10.9263 95.8489 10.5587C97.1848 9.84611 98.8744 10.0329 99.8973 11.2473L98.9835 12.0018C98.234 11.1515 96.5756 11.0545 96.3333 11.9095C95.9448 13.2796 98.7569 13.1155 99.7558 14.258H99.7534Z" fill="white"/>
<path d="M67.8742 32.6277C66.4891 33.0516 65.0764 32.8025 63.8077 32.1044L64.3413 30.9894C65.2419 31.5954 67.753 32.1439 67.9929 30.8397C68.0624 30.4625 67.753 30.0505 67.3549 29.9116L65.4914 29.2601C64.6495 28.9655 64.1591 28.2901 64.1207 27.5092C64.0787 26.6518 64.538 25.8626 65.381 25.5404C66.6822 25.0422 68.1907 25.2566 69.0901 26.4099L68.1895 27.1691C67.5456 26.4937 66.7529 26.2446 65.9447 26.5991C65.712 26.7021 65.4758 27.1535 65.5165 27.3751C65.5633 27.6314 65.8619 27.9667 66.1269 28.0637L68.036 28.7691C68.9354 29.102 69.4511 29.8445 69.4031 30.7403C69.3576 31.5822 68.8371 32.3307 67.8754 32.6253L67.8742 32.6277Z" fill="white"/>
<path d="M73.3209 10.3263C73.8257 10.2892 74.285 10.2916 74.7863 10.3395L71.7979 17.5022L70.54 17.5262L67.5192 10.3299L69.0554 10.3036L71.1767 15.5861L73.3209 10.3263Z" fill="white"/>
<path d="M74.7719 31.5199L74.5728 32.7379C73.141 32.9989 71.4477 32.0804 71.4333 30.5235L71.3986 26.7428L70.0591 26.7045L70.0495 25.4554L71.395 25.4242L71.4298 23.5896H72.7692L72.7908 25.4171L74.8714 25.447L74.875 26.714L72.7788 26.7344L72.8088 29.9295C72.8148 30.5164 73.1542 31.2086 73.749 31.3223L74.7719 31.5199Z" fill="white"/>
<path d="M93.4817 31.4481L93.3641 32.7642C92.3316 32.8277 91.3303 32.5798 90.7727 31.66C90.4909 31.1954 90.3482 30.4984 90.347 29.92L90.335 21.9249C90.871 21.895 91.2871 21.8962 91.7752 21.9393L91.8028 30.0361C91.8064 30.9355 92.4671 31.4888 93.4805 31.4493L93.4817 31.4481Z" fill="white"/>
<path d="M66.8848 11.5347C65.965 11.6113 64.8438 11.7179 64.3449 12.591L64.2826 17.5166L62.9179 17.5118V10.3132L64.2586 10.2904L64.3413 11.2341C64.9769 10.5072 65.7204 10.1695 66.699 10.3168L66.8848 11.5335V11.5347Z" fill="white"/>
<path d="M80.299 26.6889C79.4152 26.7296 78.198 26.8589 77.7771 27.7607C77.6344 29.3535 77.7411 30.9247 77.7051 32.654L76.338 32.666L76.3428 25.4518L77.6799 25.4374L77.7603 26.3919C78.3911 25.6626 79.1429 25.2949 80.1251 25.4709L80.3002 26.6901L80.299 26.6889Z" fill="white"/>
<path d="M96.2302 32.6792L94.7756 32.6732L94.7744 25.459L96.2314 25.4494L96.2302 32.6792Z" fill="white"/>
<path d="M77.313 17.513L75.9363 17.5202V10.3036L77.3082 10.3024L77.313 17.513Z" fill="white"/>
<path d="M76.458 7.09886C76.9628 6.96474 77.4257 7.31323 77.5672 7.73717C77.7351 8.24016 77.4269 8.80781 76.9484 8.90482C76.4124 9.01379 75.8943 8.80781 75.742 8.24854C75.6209 7.80424 75.9099 7.24497 76.458 7.09886Z" fill="white"/>
<path d="M95.2613 22.2614C95.7517 22.1129 96.247 22.4147 96.4185 22.8363C96.6056 23.2961 96.3082 23.8662 95.9124 24.0171C95.3716 24.2219 94.8319 23.9404 94.6785 23.5345C94.4674 22.9752 94.6892 22.4339 95.2601 22.2614H95.2613Z" fill="white"/>
</svg>
