<svg width="94" height="40" viewBox="0 0 94 40" fill="none" xmlns="http://www.w3.org/2000/svg">
<path d="M23.33 17.7265L21.7866 26.7637C21.4695 28.3906 20.3948 28.8298 19.4399 28.8298H12.301L15.3102 12.2803C12.3045 10.9099 9.23544 10.0139 6.79357 10.0139C4.46797 10.0139 2.5793 10.6429 1.32489 12.1432C0.440454 13.2114 0 14.529 0 16.0961C0 20.801 3.71039 27.3294 10.0635 32.6562C15.726 37.3646 21.9558 39.9998 26.4907 39.9998C28.7529 39.9998 30.5781 39.3076 31.7726 37.9303C32.7169 36.8621 33.0904 35.4777 33.0904 33.9141C33.0904 29.3393 29.3519 22.9303 23.33 17.7265Z" fill="white" fill-opacity="0.5"/>
<path d="M10.5091 0.221436C9.37453 0.221436 8.43372 0.980395 8.18354 2.17154L7.17578 7.62481H16.1575L12.3027 28.83H19.4451C20.3965 28.83 21.4712 28.3908 21.7918 26.764L25.0582 7.62832H31.5206C32.6587 7.62832 33.5995 6.87639 33.8497 5.68524L34.8575 0.224949H10.5091V0.221436Z" fill="white"/>
<path d="M53.3284 12.3086V6.73584H47.5144V12.3121H45.9922V0.221436H47.5144V5.26711H53.3284V0.221436H54.8506V12.3086H53.3284Z" fill="white"/>
<path d="M64.1545 8.47538H58.0339C58.0339 9.25894 58.3405 10.1128 58.8726 10.6398C59.2672 11.0334 59.7957 11.2547 60.4617 11.2547C61.1453 11.2547 61.7091 11.0685 62.0685 10.6925C62.3081 10.4536 62.4631 10.2147 62.5829 9.75437H64.003C63.8832 10.6082 63.3722 11.4093 62.6675 11.8872C62.0509 12.2948 61.2827 12.5337 60.4617 12.5337C59.2461 12.5337 58.2559 12.0207 57.5899 11.2372C56.8711 10.4009 56.5117 9.25894 56.5117 8.03266C56.5117 6.9926 56.6985 6.07201 57.1777 5.27089C57.7943 4.23083 58.9395 3.46484 60.4441 3.46484C61.554 3.46484 62.4455 3.89 63.0763 4.57166C63.7775 5.33765 64.1862 6.44798 64.1721 7.6075L64.1545 8.47538ZM62.1531 5.47468C61.7937 4.99682 61.2122 4.69113 60.4441 4.69113C58.8726 4.69113 58.1009 5.97011 58.0656 7.23153H62.6816C62.6816 6.5815 62.4949 5.93498 62.1531 5.47468Z" fill="white"/>
<path d="M72.7664 12.4278C71.9982 12.4278 71.519 11.848 71.519 11.1136H71.4838C70.987 11.9815 69.9123 12.5297 68.6966 12.5297C66.7128 12.5297 65.7227 11.2015 65.7227 9.86979C65.7227 8.76297 66.4415 7.31181 68.7988 7.17478L71.4309 7.02017V6.38771C71.4309 5.96255 71.3781 5.43198 70.987 5.07358C70.698 4.79951 70.2681 4.63085 69.5669 4.63085C68.7812 4.63085 68.2843 4.85222 67.9954 5.14385C67.7206 5.41792 67.569 5.75875 67.569 6.18391H66.149C66.1666 5.40035 66.4556 4.83816 66.8995 4.37787C67.4809 3.76297 68.5063 3.45728 69.5669 3.45728C71.2442 3.45728 72.1991 4.17407 72.6114 5.11223C72.784 5.50577 72.8686 5.94849 72.8686 6.44041V10.6182C72.8686 11.0785 73.0553 11.198 73.3478 11.198C73.5028 11.198 73.7248 11.1453 73.7248 11.1453V12.2205C73.4147 12.3786 73.1258 12.4278 72.7664 12.4278ZM71.4309 8.14807L69.1053 8.28511C68.235 8.33781 67.2061 8.7454 67.2061 9.83816C67.2061 10.6042 67.6853 11.3209 68.9151 11.3209C69.581 11.3209 70.2329 11.0996 70.6945 10.6217C71.209 10.0947 71.4309 9.37787 71.4309 8.66107V8.14807Z" fill="white"/>
<path d="M77.3502 12.4104C76.0852 12.4104 75.5391 11.662 75.5391 10.2952V0H76.9908V10.2143C76.9908 10.7941 77.1776 11.0998 77.7766 11.0998C78.2558 11.0998 78.3756 11.0822 78.3756 11.0822V12.3085C78.3756 12.3085 78.0514 12.4104 77.3502 12.4104Z" fill="white"/>
<path d="M83.2826 12.4279C81.4186 12.4279 80.9077 11.2508 80.9077 10.0913V4.92611H79.2305V3.68226H80.9077V1.48268L82.3595 1.14185V3.68226H84.9247V4.92611H82.3595V9.9226C82.3595 10.7589 82.7189 11.0997 83.5223 11.0997C84.1389 11.0997 85.0092 10.9451 85.0092 10.9451V12.1889C84.6146 12.2943 84.086 12.4279 83.2826 12.4279Z" fill="white"/>
<path d="M92.5509 12.3085V6.83767C92.5509 5.54111 92.0223 4.77513 90.6516 4.77513C89.813 4.77513 89.147 5.31975 88.77 6.10331C88.4811 6.73578 88.4635 7.6388 88.4635 8.30289V12.3085H87.0117V0H88.4635V4.82432C88.9779 3.93886 90.0209 3.461 90.9934 3.461C92.9596 3.461 94.0026 4.63809 94.0026 6.63388V12.312H92.5509V12.3085Z" fill="white"/>
</svg>
