<svg width="123" height="40" viewBox="0 0 123 40" fill="none" xmlns="http://www.w3.org/2000/svg">
<g clip-path="url(#clip0_7514_10358)">
<path d="M18.4499 0.648896L17.922 0.342479L17.3336 0L0 10.0258V30.0335L15.7783 39.1078L16.2933 39.4013L17.3336 40L34.662 30.0335V10.0258L18.4499 0.648896ZM18.164 3.85348L27.4855 20.0322L18.164 36.1555V3.85348ZM1.545 10.9206L15.3341 2.93807L1.545 26.6886V10.9206ZM1.81666 29.2996L16.6229 3.80713V37.81L1.81666 29.2996ZM19.4708 36.9847L28.3765 21.5836L32.8248 29.3086L19.4708 36.9847ZM19.4644 3.02047L33.1119 10.9167V26.7092L19.4644 3.02047Z" fill="white"/>
<path d="M46.8585 24.2079C46.0051 24.2079 45.3438 23.9786 44.8745 23.5199C44.4051 23.0612 44.1705 22.4052 44.1705 21.5519V13.7759H45.7065V21.4879C45.7065 21.9466 45.8185 22.2986 46.0425 22.5439C46.2771 22.7892 46.6078 22.9119 47.0345 22.9119C47.5145 22.9119 47.9145 22.7786 48.2345 22.5119L48.7145 23.6159C48.4798 23.8186 48.1971 23.9679 47.8665 24.0639C47.5465 24.1599 47.2105 24.2079 46.8585 24.2079ZM42.7305 16.8959V15.6319H48.1385V16.8959H42.7305Z" fill="white"/>
<path d="M50.5728 24.112V15.632H52.1088V24.112H50.5728ZM51.3408 14C51.0421 14 50.7914 13.904 50.5888 13.712C50.3968 13.52 50.3008 13.2853 50.3008 13.008C50.3008 12.72 50.3968 12.48 50.5888 12.288C50.7914 12.096 51.0421 12 51.3408 12C51.6394 12 51.8848 12.096 52.0768 12.288C52.2794 12.4693 52.3808 12.6987 52.3808 12.976C52.3808 13.264 52.2848 13.5093 52.0928 13.712C51.9008 13.904 51.6501 14 51.3408 14Z" fill="white"/>
<path d="M58.7538 27.312C57.9752 27.312 57.2178 27.2 56.4818 26.976C55.7565 26.7627 55.1645 26.4533 54.7058 26.048L55.4418 24.864C55.8365 25.2053 56.3218 25.472 56.8978 25.664C57.4738 25.8667 58.0765 25.968 58.7058 25.968C59.7085 25.968 60.4445 25.7333 60.9138 25.264C61.3832 24.7947 61.6178 24.08 61.6178 23.12V21.328L61.7778 19.648L61.6978 17.952V15.632H63.1538V22.96C63.1538 24.4533 62.7805 25.552 62.0338 26.256C61.2872 26.96 60.1938 27.312 58.7538 27.312ZM58.5618 23.76C57.7405 23.76 57.0045 23.5893 56.3538 23.248C55.7138 22.896 55.2018 22.4107 54.8178 21.792C54.4445 21.1733 54.2578 20.4587 54.2578 19.648C54.2578 18.8267 54.4445 18.112 54.8178 17.504C55.2018 16.8853 55.7138 16.4053 56.3538 16.064C57.0045 15.7227 57.7405 15.552 58.5618 15.552C59.2872 15.552 59.9485 15.7013 60.5458 16C61.1432 16.288 61.6178 16.736 61.9698 17.344C62.3325 17.952 62.5138 18.72 62.5138 19.648C62.5138 20.5653 62.3325 21.328 61.9698 21.936C61.6178 22.544 61.1432 23.0027 60.5458 23.312C59.9485 23.6107 59.2872 23.76 58.5618 23.76ZM58.7378 22.416C59.3032 22.416 59.8045 22.2987 60.2418 22.064C60.6792 21.8293 61.0205 21.504 61.2658 21.088C61.5218 20.672 61.6498 20.192 61.6498 19.648C61.6498 19.104 61.5218 18.624 61.2658 18.208C61.0205 17.792 60.6792 17.472 60.2418 17.248C59.8045 17.0133 59.3032 16.896 58.7378 16.896C58.1725 16.896 57.6658 17.0133 57.2178 17.248C56.7805 17.472 56.4338 17.792 56.1778 18.208C55.9325 18.624 55.8098 19.104 55.8098 19.648C55.8098 20.192 55.9325 20.672 56.1778 21.088C56.4338 21.504 56.7805 21.8293 57.2178 22.064C57.6658 22.2987 58.1725 22.416 58.7378 22.416Z" fill="white"/>
<path d="M69.8647 24.208C68.958 24.208 68.158 24.0213 67.4647 23.648C66.782 23.2747 66.2487 22.7627 65.8647 22.112C65.4914 21.4613 65.3047 20.7147 65.3047 19.872C65.3047 19.0293 65.486 18.2827 65.8487 17.632C66.222 16.9813 66.7287 16.4747 67.3687 16.112C68.0194 15.7387 68.75 15.552 69.5607 15.552C70.382 15.552 71.1074 15.7333 71.7367 16.096C72.366 16.4587 72.8567 16.9707 73.2087 17.632C73.5714 18.2827 73.7527 19.0453 73.7527 19.92C73.7527 19.984 73.7474 20.0587 73.7367 20.144C73.7367 20.2293 73.7314 20.3093 73.7207 20.384H66.5047V19.28H72.9207L72.2967 19.664C72.3074 19.12 72.1954 18.6347 71.9607 18.208C71.726 17.7813 71.4007 17.4507 70.9847 17.216C70.5794 16.9707 70.1047 16.848 69.5607 16.848C69.0274 16.848 68.5527 16.9707 68.1367 17.216C67.7207 17.4507 67.3954 17.7867 67.1607 18.224C66.926 18.6507 66.8087 19.1413 66.8087 19.696V19.952C66.8087 20.5173 66.9367 21.024 67.1927 21.472C67.4594 21.9093 67.8274 22.2507 68.2967 22.496C68.766 22.7413 69.3047 22.864 69.9127 22.864C70.414 22.864 70.8674 22.7787 71.2727 22.608C71.6887 22.4373 72.0514 22.1813 72.3607 21.84L73.2087 22.832C72.8247 23.28 72.3447 23.6213 71.7687 23.856C71.2034 24.0907 70.5687 24.208 69.8647 24.208Z" fill="white"/>
<path d="M75.8828 24.112V15.632H77.3548V17.936L77.2108 17.36C77.4454 16.7733 77.8401 16.3253 78.3948 16.016C78.9494 15.7067 79.6321 15.552 80.4428 15.552V17.04C80.3788 17.0293 80.3148 17.024 80.2508 17.024C80.1974 17.024 80.1441 17.024 80.0908 17.024C79.2694 17.024 78.6188 17.2693 78.1388 17.76C77.6588 18.2507 77.4188 18.96 77.4188 19.888V24.112H75.8828Z" fill="white"/>
<path d="M84.8634 24.208C84.1594 24.208 83.4874 24.112 82.8474 23.92C82.2181 23.728 81.7221 23.4933 81.3594 23.216L81.9994 22C82.3621 22.2453 82.8101 22.4533 83.3434 22.624C83.8768 22.7947 84.4208 22.88 84.9754 22.88C85.6901 22.88 86.2021 22.7787 86.5114 22.576C86.8314 22.3733 86.9914 22.0907 86.9914 21.728C86.9914 21.4613 86.8954 21.2533 86.7034 21.104C86.5114 20.9547 86.2554 20.8427 85.9354 20.768C85.6261 20.6933 85.2794 20.6293 84.8954 20.576C84.5114 20.512 84.1274 20.4373 83.7434 20.352C83.3594 20.256 83.0074 20.128 82.6874 19.968C82.3674 19.7973 82.1114 19.568 81.9194 19.28C81.7274 18.9813 81.6314 18.5867 81.6314 18.096C81.6314 17.584 81.7754 17.136 82.0634 16.752C82.3514 16.368 82.7568 16.0747 83.2794 15.872C83.8128 15.6587 84.4421 15.552 85.1674 15.552C85.7221 15.552 86.2821 15.6213 86.8474 15.76C87.4234 15.888 87.8928 16.0747 88.2554 16.32L87.5994 17.536C87.2154 17.28 86.8154 17.104 86.3994 17.008C85.9834 16.912 85.5674 16.864 85.1514 16.864C84.4794 16.864 83.9781 16.976 83.6474 17.2C83.3168 17.4133 83.1514 17.6907 83.1514 18.032C83.1514 18.32 83.2474 18.544 83.4394 18.704C83.6421 18.8533 83.8981 18.9707 84.2074 19.056C84.5274 19.1413 84.8794 19.216 85.2634 19.28C85.6474 19.3333 86.0314 19.408 86.4154 19.504C86.7994 19.5893 87.1461 19.712 87.4554 19.872C87.7754 20.032 88.0314 20.256 88.2234 20.544C88.4261 20.832 88.5274 21.216 88.5274 21.696C88.5274 22.208 88.3781 22.6507 88.0794 23.024C87.7808 23.3973 87.3594 23.6907 86.8154 23.904C86.2714 24.1067 85.6208 24.208 84.8634 24.208Z" fill="white"/>
<path d="M94.9413 24.208C94.2373 24.208 93.5919 24.048 93.0053 23.728C92.4293 23.3973 91.9653 22.912 91.6133 22.272C91.2719 21.632 91.1013 20.832 91.1013 19.872C91.1013 18.912 91.2666 18.112 91.5973 17.472C91.9386 16.832 92.3973 16.352 92.9733 16.032C93.5599 15.712 94.2159 15.552 94.9413 15.552C95.7733 15.552 96.5093 15.7333 97.1493 16.096C97.7893 16.4587 98.2959 16.9653 98.6693 17.616C99.0426 18.256 99.2293 19.008 99.2293 19.872C99.2293 20.736 99.0426 21.4933 98.6693 22.144C98.2959 22.7947 97.7893 23.3013 97.1493 23.664C96.5093 24.0267 95.7733 24.208 94.9413 24.208ZM90.4453 27.216V15.632H91.9173V17.92L91.8213 19.888L91.9813 21.856V27.216H90.4453ZM94.8133 22.864C95.3573 22.864 95.8426 22.7413 96.2693 22.496C96.7066 22.2507 97.0479 21.904 97.2933 21.456C97.5493 20.9973 97.6773 20.4693 97.6773 19.872C97.6773 19.264 97.5493 18.7413 97.2933 18.304C97.0479 17.856 96.7066 17.5093 96.2693 17.264C95.8426 17.0187 95.3573 16.896 94.8133 16.896C94.2799 16.896 93.7946 17.0187 93.3573 17.264C92.9306 17.5093 92.5893 17.856 92.3333 18.304C92.0879 18.7413 91.9653 19.264 91.9653 19.872C91.9653 20.4693 92.0879 20.9973 92.3333 21.456C92.5893 21.904 92.9306 22.2507 93.3573 22.496C93.7946 22.7413 94.2799 22.864 94.8133 22.864Z" fill="white"/>
<path d="M101.354 24.112V15.632H102.89V24.112H101.354ZM102.122 14C101.823 14 101.572 13.904 101.37 13.712C101.178 13.52 101.082 13.2853 101.082 13.008C101.082 12.72 101.178 12.48 101.37 12.288C101.572 12.096 101.823 12 102.122 12C102.42 12 102.666 12.096 102.858 12.288C103.06 12.4693 103.162 12.6987 103.162 12.976C103.162 13.264 103.066 13.5093 102.874 13.712C102.682 13.904 102.431 14 102.122 14Z" fill="white"/>
<path d="M107.068 22.064L107.1 20.096L111.98 15.632H113.836L110.092 19.312L109.26 20.016L107.068 22.064ZM105.82 24.112V12.24H107.356V24.112H105.82ZM112.3 24.112L108.972 19.984L109.964 18.752L114.188 24.112H112.3Z" fill="white"/>
<path d="M119.115 24.208C118.208 24.208 117.408 24.0213 116.715 23.648C116.032 23.2747 115.499 22.7627 115.115 22.112C114.742 21.4613 114.555 20.7147 114.555 19.872C114.555 19.0293 114.736 18.2827 115.099 17.632C115.472 16.9813 115.979 16.4747 116.619 16.112C117.27 15.7387 118 15.552 118.811 15.552C119.632 15.552 120.358 15.7333 120.987 16.096C121.616 16.4587 122.107 16.9707 122.459 17.632C122.822 18.2827 123.003 19.0453 123.003 19.92C123.003 19.984 122.998 20.0587 122.987 20.144C122.987 20.2293 122.982 20.3093 122.971 20.384H115.755V19.28H122.171L121.547 19.664C121.558 19.12 121.446 18.6347 121.211 18.208C120.976 17.7813 120.651 17.4507 120.235 17.216C119.83 16.9707 119.355 16.848 118.811 16.848C118.278 16.848 117.803 16.9707 117.387 17.216C116.971 17.4507 116.646 17.7867 116.411 18.224C116.176 18.6507 116.059 19.1413 116.059 19.696V19.952C116.059 20.5173 116.187 21.024 116.443 21.472C116.71 21.9093 117.078 22.2507 117.547 22.496C118.016 22.7413 118.555 22.864 119.163 22.864C119.664 22.864 120.118 22.7787 120.523 22.608C120.939 22.4373 121.302 22.1813 121.611 21.84L122.459 22.832C122.075 23.28 121.595 23.6213 121.019 23.856C120.454 24.0907 119.819 24.208 119.115 24.208Z" fill="white"/>
</g>
<defs>
<clipPath id="clip0_7514_10358">
<rect width="123" height="40" fill="white"/>
</clipPath>
</defs>
</svg>
