<svg width="125" height="40" viewBox="0 0 125 40" fill="none" xmlns="http://www.w3.org/2000/svg">
<g clip-path="url(#clip0_7514_10385)">
<path d="M18.0947 40L0 1.19531H36.1885L18.0947 40ZM111.538 0C113.833 0 115.859 0.445422 117.615 1.33594C119.371 2.21391 120.764 3.42409 121.792 4.9668C122.82 6.49696 123.391 8.24668 123.504 10.2158H121.189C120.989 7.82023 120.011 5.88235 118.255 4.40234C116.512 2.92244 114.254 2.1827 111.482 2.18262C109.614 2.18262 107.951 2.52696 106.496 3.2168C105.041 3.90661 103.9 4.8476 103.072 6.03906C102.244 7.2306 101.83 8.5979 101.83 10.1406C101.83 11.1314 102.018 12.0284 102.395 12.8311C102.783 13.6212 103.33 14.3299 104.032 14.957C104.735 15.5715 105.569 16.1112 106.534 16.5752C107.5 17.0392 108.566 17.4467 109.732 17.7979L113.946 19.0391C115.389 19.478 116.719 19.9865 117.936 20.5635C119.165 21.1404 120.231 21.8302 121.134 22.6328C122.049 23.4229 122.758 24.351 123.26 25.417C123.774 26.483 124.03 27.7124 124.03 29.1045C124.03 31.1363 123.504 32.9551 122.45 34.5605C121.409 36.166 119.923 37.4332 117.991 38.3613C116.072 39.2768 113.809 39.7343 111.2 39.7344C108.717 39.7344 106.553 39.314 104.709 38.4736C102.878 37.6333 101.429 36.4671 100.363 34.9746C99.2972 33.4695 98.6946 31.7388 98.5566 29.7822H100.965C101.09 31.3751 101.599 32.7545 102.489 33.9209C103.392 35.0747 104.59 35.9657 106.082 36.5928C107.575 37.2199 109.281 37.5332 111.2 37.5332C113.27 37.5332 115.095 37.1818 116.675 36.4795C118.255 35.7646 119.49 34.7735 120.381 33.5068C121.271 32.2401 121.717 30.7665 121.717 29.0859C121.717 27.7314 121.396 26.5712 120.757 25.6055C120.117 24.6398 119.17 23.8059 117.916 23.1035C116.674 22.4012 115.132 21.7735 113.288 21.2217L108.792 19.8672C105.782 18.9516 103.48 17.7034 101.887 16.123C100.307 14.5427 99.5166 12.5737 99.5166 10.2158C99.5166 8.23421 100.043 6.47837 101.097 4.94824C102.15 3.40552 103.581 2.19536 105.387 1.31738C107.205 0.4395 109.256 4.14371e-05 111.538 0ZM55.8984 19.3506H79.1143V1.19531H81.4658V39.7256H79.1143V21.5332H55.8984V39.7256H53.5469V1.19531H55.8984V19.3506ZM18.0947 35.2871L33.0625 3.1875H3.12598L18.0947 35.2871Z" fill="white"/>
</g>
<defs>
<clipPath id="clip0_7514_10385">
<rect width="125" height="40" fill="white"/>
</clipPath>
</defs>
</svg>
