<svg width="59" height="40" viewBox="0 0 59 40" fill="none" xmlns="http://www.w3.org/2000/svg">
<path d="M12.9541 14.0547C12.9541 14.0547 15.7881 14.0548 15.7881 17.2197L3.0918 37.0186H12.9541C12.9541 37.0186 15.7881 37.0479 15.7881 40H3.01758C2.9891 39.9999 0 39.9772 0 37.0186L11.9238 17.2197H3.0918C3.0918 17.2197 0.000173232 17.1744 0 14.0547H12.9541ZM37.083 37.0195C37.0833 37.0645 37.089 39.9997 34.04 40H24.1592C24.1592 40 21.2523 40 21.252 37.0195H37.083ZM58.0605 37.1445C58.0453 37.7144 57.8164 39.9976 55.1172 39.998H45.0332C45.0332 39.998 42.1621 39.9911 42.1621 37.0166V17.2168C42.1627 17.1733 42.2132 14.0527 45.1436 14.0527H55.0801V0H58.0605V37.1445ZM46.8105 17.2168C45.0628 17.2168 45.0461 18.4919 45.0459 18.5166L45.0342 34.959C45.0343 37.0168 46.8438 37.0166 46.8438 37.0166L53.2783 36.9971C55.0423 36.9969 55.0806 35.0007 55.0811 34.9756V17.2168H46.8105ZM37.1133 28.4814H21.252V25.5H37.1133V28.4814ZM34.04 14.0547C36.9387 14.055 37.1133 17.2197 37.1133 17.2197H21.252C21.252 14.3779 24.1592 14.0547 24.1592 14.0547H34.04Z" fill="white"/>
</svg>
