<svg width="160" height="35" viewBox="0 0 160 35" fill="none" xmlns="http://www.w3.org/2000/svg">
<path d="M77.0765 14.4869H73.8128C73.6178 14.4869 73.4598 14.6449 73.4598 14.8399V29.0455C73.4598 29.2405 73.6178 29.3984 73.8128 29.3984H77.0765C77.2715 29.3984 77.4295 29.2405 77.4295 29.0455V14.8399C77.4295 14.6449 77.2715 14.4869 77.0765 14.4869Z" fill="white"/>
<path d="M63.2388 7.02659C63.1849 6.89268 63.0555 6.80558 62.9112 6.80558H59.2568C59.1125 6.80558 58.9831 6.89268 58.9292 7.02659L50.1428 28.9142C50.1259 28.9558 50.1175 29.0006 50.1175 29.0455C50.1175 29.2405 50.2754 29.3984 50.4704 29.3984H54.2867C54.4343 29.3984 54.5662 29.3068 54.6176 29.1683L56.3512 24.4966C56.4025 24.3582 56.5345 24.2665 56.682 24.2665H65.4866C65.6342 24.2665 65.7661 24.3582 65.8175 24.4966L67.5511 29.1683C67.6024 29.3068 67.7344 29.3984 67.8819 29.3984H71.6976C71.7431 29.3984 71.7873 29.39 71.8295 29.3731C72.0102 29.3003 72.098 29.0949 72.0252 28.9142L63.2395 7.02659H63.2388ZM63.8693 20.523H58.2999C58.2583 20.523 58.2167 20.5159 58.1771 20.5009C57.9944 20.4333 57.9008 20.2299 57.9684 20.0472L60.7531 12.5388C60.8669 12.232 61.3011 12.232 61.4149 12.5388L64.2002 20.0466C64.2145 20.0862 64.2223 20.1278 64.2223 20.1694C64.2223 20.3644 64.0644 20.5224 63.8693 20.5224V20.523Z" fill="white"/>
<path d="M86.0742 14.9705C85.2343 15.5952 84.6213 16.4877 84.2339 17.6493H84.1689V14.8392C84.1689 14.6442 84.011 14.4863 83.816 14.4863H80.6165C80.4215 14.4863 80.2636 14.6442 80.2636 14.8392V29.0448C80.2636 29.2398 80.4215 29.3978 80.6165 29.3978H83.8485C84.0435 29.3978 84.2014 29.2398 84.2014 29.0448V23.2973C84.2014 21.5117 84.5771 20.2312 85.3312 19.4563C86.0839 18.6815 87.2676 18.2947 88.8816 18.2947H88.9804C89.1754 18.2947 89.3334 18.1368 89.3334 17.9418V14.0338H89.1721C87.9456 14.0338 86.9127 14.3459 86.0742 14.9699V14.9705Z" fill="white"/>
<path d="M75.445 6.82443C74.1137 6.82443 73.034 7.90347 73.034 9.23537C73.034 10.5673 74.1131 11.6463 75.445 11.6463C76.7769 11.6463 77.8559 10.5673 77.8559 9.23602C77.8559 7.90412 76.7769 6.82508 75.445 6.82508V6.82443Z" fill="white"/>
<path d="M158.096 16.0847C156.826 14.6969 155.051 14.0033 152.77 14.0033C151.221 14.0033 149.865 14.3374 148.704 15.0037C147.542 15.6713 146.638 16.6073 145.993 17.8118C145.347 19.0169 145.024 20.4047 145.024 21.9752C145.024 23.5456 145.358 24.9289 146.025 26.123C146.691 27.3177 147.627 28.2427 148.833 28.8986C150.037 29.5544 151.447 29.8834 153.061 29.8834C154.459 29.8834 155.675 29.6305 156.708 29.1248C157.638 28.6711 158.504 28.0958 159.283 27.4139C159.417 27.295 159.44 27.0941 159.337 26.9479L157.75 24.6702C157.629 24.496 157.382 24.4661 157.226 24.6091C155.95 25.7804 154.561 26.3654 153.061 26.3654C151.899 26.3654 150.936 26.0482 150.172 25.4132C149.503 24.858 149.086 24.1092 148.92 23.166C148.917 23.1465 148.915 23.1264 148.915 23.1062C148.915 22.9099 149.074 22.7507 149.269 22.75H159.647C159.842 22.75 160 22.592 160 22.397V21.9752C160 19.4368 159.365 17.4731 158.096 16.0847ZM155.602 20.2H149.39C149.164 20.2 148.993 19.9894 149.045 19.7696C149.234 18.9727 149.6 18.363 150.141 17.9411C150.776 17.4465 151.588 17.1988 152.578 17.1988C153.568 17.1988 154.37 17.4621 154.982 17.9892C155.505 18.4391 155.828 19.0403 155.952 19.7943C155.987 20.0069 155.818 20.2 155.602 20.2Z" fill="white"/>
<path d="M142.441 6.80558H139.177C138.982 6.80558 138.824 6.96361 138.824 7.15854V29.0455C138.824 29.2404 138.982 29.3984 139.177 29.3984H142.441C142.636 29.3984 142.794 29.2404 142.794 29.0455V7.15854C142.794 6.96361 142.636 6.80558 142.441 6.80558Z" fill="white"/>
<path d="M100.618 14.4869H98.2582C98.0632 14.4869 97.9052 14.329 97.9052 14.1339V8.86876C97.9052 8.67375 97.7473 8.51579 97.5523 8.51579H94.2885C94.0935 8.51579 93.9355 8.67375 93.9355 8.86876V14.1339C93.9355 14.329 93.7776 14.4869 93.5826 14.4869H91.5447C91.3497 14.4869 91.1918 14.6449 91.1918 14.8399V17.4582C91.1918 17.6532 91.3497 17.8111 91.5447 17.8111H93.5819C93.7769 17.8111 93.9349 17.9691 93.9349 18.1641V25.0088C93.9349 26.4727 94.3223 27.5745 95.0971 28.3168C95.8719 29.0591 96.9796 29.4303 98.4213 29.4303H99.8117C100.007 29.4303 100.165 29.2723 100.165 29.0773V26.1041C100.165 25.9091 100.007 25.7512 99.8117 25.7512H99.4867C98.9056 25.7512 98.4967 25.6218 98.2601 25.3638C98.0229 25.1057 97.9052 24.6754 97.9052 24.0728V18.1641C97.9052 17.9691 98.0632 17.8111 98.2582 17.8111H100.618C100.813 17.8111 100.971 17.6532 100.971 17.4582V14.8392C100.971 14.6442 100.813 14.4863 100.618 14.4863V14.4869Z" fill="white"/>
<path d="M133.391 14.9387C132.294 14.3147 131.089 14.0026 129.777 14.0026C128.614 14.0026 127.619 14.2282 126.791 14.6806C125.962 15.1324 125.3 15.7675 124.806 16.5845H124.741V7.1579C124.741 6.96289 124.583 6.80493 124.388 6.80493H121.124C120.929 6.80493 120.771 6.96289 120.771 7.1579V29.0455C120.771 29.2405 120.929 29.3984 121.124 29.3984H124.388C124.583 29.3984 124.741 29.2405 124.741 29.0455V27.3008H124.806C125.3 28.1192 125.962 28.753 126.791 29.2047C127.619 29.6572 128.614 29.8827 129.777 29.8827C131.089 29.8827 132.294 29.5707 133.391 28.9467C134.489 28.3233 135.354 27.4139 135.989 26.2198C136.624 25.0257 136.942 23.6002 136.942 21.9433C136.942 20.2864 136.624 18.8609 135.989 17.6662C135.354 16.4721 134.489 15.5633 133.391 14.9393V14.9387ZM131.697 24.977C130.954 25.7518 129.981 26.1386 128.775 26.1386C127.57 26.1386 126.597 25.7512 125.854 24.977C125.112 24.2022 124.741 23.1914 124.741 21.9427C124.741 20.694 125.113 19.6832 125.854 18.909C126.597 18.1342 127.57 17.7474 128.775 17.7474C129.981 17.7474 130.954 18.1348 131.697 18.909C132.439 19.6838 132.81 20.6953 132.81 21.9427C132.81 23.1901 132.439 24.2022 131.697 24.977Z" fill="white"/>
<path d="M117.903 14.4869H114.671C114.476 14.4869 114.318 14.6449 114.318 14.8399V16.5852H114.253C113.758 15.7675 113.096 15.1324 112.269 14.6806C111.44 14.2288 110.445 14.0026 109.283 14.0026C107.97 14.0026 106.765 14.3147 105.668 14.9387C104.571 15.5633 103.704 16.4721 103.07 17.6662C102.435 18.8603 102.117 20.2864 102.117 21.9427C102.117 23.5989 102.435 25.0251 103.07 26.2192C103.704 27.4133 104.571 28.3227 105.668 28.9467C106.765 29.5707 107.97 29.8827 109.283 29.8827C110.445 29.8827 111.439 29.6565 112.268 29.2054C113.096 28.7536 113.758 28.1192 114.253 27.3015H114.318V29.0461C114.318 29.2411 114.476 29.3991 114.671 29.3991H117.903C118.098 29.3991 118.256 29.2411 118.256 29.0461V14.8405C118.256 14.6455 118.098 14.4876 117.903 14.4876V14.4869ZM113.205 24.977C112.462 25.7518 111.489 26.1386 110.284 26.1386C109.078 26.1386 108.105 25.7512 107.362 24.977C106.62 24.2022 106.249 23.1914 106.249 21.9427C106.249 20.694 106.62 19.6832 107.362 18.909C108.105 18.1342 109.078 17.7474 110.284 17.7474C111.489 17.7474 112.462 18.1348 113.205 18.909C113.947 19.6838 114.318 20.6953 114.318 21.9427C114.318 23.1901 113.947 24.2022 113.205 24.977Z" fill="white"/>
<path d="M38.5158 8.7888C39.3843 8.44494 39.3934 7.219 38.5301 6.86148L23.0102 0.439253C21.5944 -0.146418 20.0038 -0.146418 18.5881 0.439253L3.06811 6.86148C2.20488 7.21835 2.21398 8.44494 3.08241 8.7888L18.6674 14.9692C20.037 15.512 21.5619 15.512 22.9309 14.9692L38.5158 8.7888Z" fill="white"/>
<path d="M40.2046 10.6368L22.8386 17.3776C22.4421 17.5349 22.182 17.9177 22.182 18.3441V33.7835C22.182 34.5174 22.9224 35.0205 23.6049 34.7501L40.971 28.0093C41.3675 27.852 41.6275 27.4692 41.6275 27.0428V11.6034C41.6275 10.8689 40.8871 10.3664 40.2046 10.6368Z" fill="white"/>
<path d="M18.0401 17.2378L1.54186 10.7012C1.22659 10.5764 0.855431 10.618 0.596071 10.774C0.499218 10.8273 0.410815 10.8936 0.332812 10.9716C0.142355 11.1516 0 11.3908 0 11.6678V26.1587C0 26.9251 0.880782 27.4276 1.56981 27.0948L12.4492 21.8816L18.1266 19.1404C18.9443 18.7459 18.8786 17.5706 18.0401 17.2378Z" fill="white"/>
</svg>
