<svg width="147" height="40" viewBox="0 0 147 40" fill="none" xmlns="http://www.w3.org/2000/svg">
<path d="M13.0068 12.9556C8.70002 8.66653 4.3942 4.37746 0 0H26.6043V13.0989H13.244C17.762 17.5954 22.1766 21.9915 26.5922 26.3866C26.5643 26.4434 26.5355 26.5001 26.5076 26.5569C26.3513 26.5569 26.194 26.5569 26.0377 26.5569C21.945 26.5569 17.8522 26.5625 13.7594 26.5439C13.2896 26.542 13.1621 26.6667 13.164 27.1412C13.1835 31.2181 13.1752 35.295 13.1761 39.3729C13.1761 39.5404 13.1761 39.7069 13.1761 40C12.9761 39.8242 12.8495 39.7274 12.7407 39.6157C8.59582 35.3685 4.45096 31.1213 0.318191 26.862C0.158165 26.6974 0.04838 26.409 0.0474496 26.1782C0.0316331 22.0082 0.0446584 17.8383 0.0260508 13.6673C0.02419 13.1966 0.147931 13.0719 0.619636 13.0738C4.57284 13.0924 8.52604 13.084 12.4792 13.084C12.6393 13.084 12.8002 13.084 12.9602 13.084C12.9761 13.0412 12.9928 12.9993 13.0086 12.9565L13.0068 12.9556Z" fill="white"/>
<path d="M100.027 28.3702H95.77C95.77 28.1897 95.77 28.0381 95.77 27.8864C95.77 23.6392 95.7775 19.392 95.7607 15.1457C95.7589 14.6963 95.8844 14.5698 96.3301 14.581C97.5359 14.6117 98.7435 14.5912 100.004 14.5912V16.3617C100.037 16.3906 100.069 16.4203 100.102 16.4492C101.079 14.9029 102.527 14.2767 104.255 14.3102C106.007 14.3437 107.462 14.9717 108.375 16.8344C108.632 16.5087 108.845 16.2529 109.044 15.9859C109.709 15.0936 110.611 14.6387 111.693 14.4368C112.72 14.2442 113.727 14.2526 114.729 14.5279C116.272 14.9522 117.162 16.0203 117.529 17.5275C117.685 18.1685 117.767 18.8431 117.774 19.5027C117.801 22.292 117.779 25.0822 117.796 27.8724C117.799 28.2697 117.701 28.4167 117.281 28.4083C116.044 28.3832 114.807 28.399 113.498 28.399C113.498 28.1637 113.498 27.9841 113.498 27.8036C113.498 25.5409 113.527 23.2773 113.481 21.0146C113.468 20.3661 113.237 19.7213 113.102 19.0747C112.857 17.8959 110.467 17.5964 109.659 18.7035C109.101 19.4692 108.932 20.3354 108.928 21.2481C108.919 23.4494 108.916 25.6498 108.932 27.851C108.935 28.2604 108.84 28.4232 108.393 28.4093C107.324 28.3758 106.254 28.3981 105.185 28.3981C105.017 28.3981 104.85 28.3981 104.626 28.3981C104.626 28.1795 104.626 28.0139 104.626 27.8473C104.626 25.5223 104.648 23.1973 104.611 20.8722C104.603 20.3131 104.465 19.7353 104.277 19.205C103.956 18.3044 103.053 17.8327 102.115 18.0615C101.208 18.283 100.481 18.7891 100.268 19.7567C100.123 20.4163 100.047 21.103 100.038 21.7794C100.008 23.7629 100.027 25.7474 100.027 27.731V28.3693L100.027 28.3702Z" fill="white"/>
<path d="M87.8013 16.3887C87.8013 15.9161 87.7855 15.4434 87.8115 14.9727C87.8189 14.8443 87.9501 14.6145 88.0274 14.6126C89.4648 14.5912 90.9022 14.5968 92.3732 14.5968V28.3981C91.935 28.3981 91.52 28.3981 91.1051 28.3981C90.1282 28.3981 89.1522 28.3897 88.1753 28.4028C87.8971 28.4065 87.7817 28.3237 87.7957 28.0334C87.8143 27.6324 87.8003 27.2295 87.8003 26.7243C87.6626 26.8769 87.5752 26.9504 87.5175 27.0425C86.7881 28.2027 85.6949 28.7386 84.3756 28.9303C81.6096 29.3331 77.9392 27.9171 77.26 23.6299C76.9679 21.7868 77.0712 19.9884 77.6238 18.2132C78.2286 16.2696 80.601 14.5224 82.8246 14.3195C84.0369 14.2088 85.186 14.4572 86.2606 14.9401C86.7471 15.1587 87.1016 15.6788 87.5054 16.0724C87.5966 16.1608 87.645 16.2929 87.7138 16.4055C87.7427 16.3999 87.7724 16.3943 87.8013 16.3878V16.3887ZM84.7896 25.3009C85.44 25.3092 86.0735 25.2469 86.5536 24.804C87.4282 23.9955 88.0729 23.0465 88.0981 21.7933C88.1213 20.5978 87.8171 19.4971 86.9035 18.6914C85.8819 17.7908 83.9793 17.7722 82.7623 18.5667C82.5837 18.683 82.3995 18.8179 82.2739 18.9854C81.6375 19.8311 81.337 20.7829 81.3825 21.8501C81.4542 23.5192 82.8944 25.4516 84.7896 25.3009Z" fill="white"/>
<path d="M63.9611 8.53534C63.9611 9.78857 63.9704 11.0092 63.9416 12.2299C63.9397 12.3174 63.6634 12.4709 63.5127 12.4727C61.8231 12.4904 60.1326 12.4839 58.443 12.4839C57.7489 12.4839 57.0558 12.4839 56.331 12.4839V17.6661H63.9593C63.9593 18.5937 63.9639 19.472 63.9574 20.3512C63.9546 20.7662 64.0867 21.357 63.8727 21.5496C63.6234 21.7728 63.0605 21.6677 62.6335 21.6696C60.7113 21.6779 58.7882 21.6742 56.866 21.6752C56.6995 21.6752 56.5329 21.6752 56.3013 21.6752V28.3711H51.7182V8.53534H63.9611Z" fill="white"/>
<path d="M134.681 22.9154H124.596C124.492 23.8002 125.025 24.8589 125.775 25.2171C126.844 25.727 127.972 25.7791 129.081 25.4079C129.468 25.2785 129.773 24.912 130.121 24.6626C130.26 24.5631 130.418 24.417 130.569 24.4151C131.825 24.3956 133.081 24.403 134.336 24.4058C134.41 24.4058 134.483 24.43 134.605 24.4524C134.307 25.7149 133.703 26.7597 132.642 27.4621C130.925 28.5991 129.012 29.0922 126.95 28.9843C125.488 28.908 124.072 28.6521 122.902 27.692C119.199 24.6515 119.348 20.2721 121.082 17.4559C122.2 15.6398 123.779 14.7001 125.828 14.4172C127.74 14.153 129.596 14.2693 131.356 15.1681C133.165 16.091 134.227 17.5666 134.517 19.5446C134.674 20.6238 134.63 21.7328 134.681 22.9144V22.9154ZM130.351 20.0702C130.261 19.6441 130.197 19.2813 130.108 18.9259C129.856 17.9248 129.213 17.4335 128.175 17.3945C127.231 17.3591 126.326 17.4921 125.461 17.8662C125.303 17.9341 125.124 18.0653 125.059 18.2132C124.869 18.6495 124.72 19.1054 124.577 19.5613C124.46 19.9372 124.565 20.1168 125.018 20.1093C126.61 20.0851 128.204 20.1 129.797 20.0982C129.949 20.0982 130.099 20.0833 130.351 20.0702Z" fill="white"/>
<path d="M66.7048 28.3609V14.5931C67.1877 14.5931 67.6482 14.5931 68.1088 14.5931C69.0382 14.5931 69.9686 14.6014 70.8981 14.5884C71.2014 14.5838 71.3084 14.6908 71.299 14.9941C71.2814 15.6109 71.2935 16.2296 71.2935 16.9023C71.6405 16.385 71.914 15.8928 72.2666 15.4676C73.1086 14.4526 74.6987 14.059 75.8598 14.5112C76.0998 14.6052 76.2012 14.7196 76.1984 14.9792C76.1882 16.064 76.1845 17.1488 76.1984 18.2337C76.2022 18.5453 76.0803 18.6449 75.7854 18.6254C75.523 18.6077 75.2578 18.6337 74.9955 18.6216C72.9356 18.5267 71.7131 19.8479 71.4247 21.6649C71.3372 22.2129 71.3083 22.7749 71.3018 23.3303C71.2851 24.8487 71.286 26.368 71.3018 27.8864C71.3056 28.2558 71.2125 28.413 70.8115 28.4056C69.5723 28.3842 68.3321 28.3981 67.0928 28.3953C66.9728 28.3953 66.8527 28.3739 66.7057 28.3609H66.7048Z" fill="white"/>
<path d="M141.385 17.4121C142.1 16.0817 142.759 14.8815 144.198 14.4461C144.977 14.2107 145.728 14.2823 146.485 14.6517V18.6254C145.977 18.6254 145.473 18.6226 144.968 18.6254C144.05 18.6309 143.356 19.0347 142.674 19.6599C141.575 20.6685 141.357 21.918 141.355 23.2829C141.353 24.8329 141.347 26.382 141.362 27.932C141.365 28.2855 141.278 28.4149 140.895 28.4056C139.748 28.3776 138.601 28.3879 137.455 28.4009C137.161 28.4046 137.046 28.333 137.047 28.0139C137.057 23.6746 137.055 19.3352 137.047 14.9969C137.047 14.6954 137.144 14.5875 137.447 14.5903C138.61 14.6014 139.773 14.6033 140.935 14.5903C141.258 14.5866 141.373 14.6982 141.363 15.021C141.344 15.6249 141.354 16.2296 141.356 16.8344C141.356 16.9795 141.37 17.1246 141.384 17.4131L141.385 17.4121Z" fill="white"/>
</svg>
