<svg width="160" height="27" viewBox="0 0 160 27" fill="none" xmlns="http://www.w3.org/2000/svg">
<path d="M0 0.0153682C3.48186 0.0141065 6.96309 0.0115829 10.4449 0.0128447C11.5061 0.0128447 11.5534 0.0626846 11.554 1.15475C11.5566 3.56347 11.5547 5.97219 11.5547 8.38092C11.5547 8.64652 11.5547 8.91149 11.5547 9.1771C11.6089 9.19539 11.6626 9.21432 11.7168 9.23261C11.8354 9.00991 11.9591 8.7891 12.0726 8.56324C13.3748 5.96904 14.6902 3.38115 15.9652 0.773062C16.2428 0.205265 16.5961 -0.00797454 17.2244 0.000226982C19.4956 0.0298786 21.7675 0.00969027 24.0393 0.0128447C25.0317 0.0141065 25.0607 0.0456507 25.0613 1.06516C25.0632 3.49849 25.0613 5.93182 25.0645 8.36451C25.0645 8.61939 25.0935 8.87364 25.2859 9.16826C25.7162 8.38218 26.1591 7.6024 26.5735 6.80812C27.6315 4.77982 28.6864 2.75026 29.7185 0.708712C29.9551 0.239333 30.2447 0.00211964 30.798 0.00464318C34.5511 0.0210462 38.3042 0.0115829 42.0574 0.01663C42.2662 0.01663 42.475 0.0671009 42.8258 0.111894C38.2443 9.05092 33.7177 17.8821 29.1917 26.7132H16.2996C16.3538 26.5511 16.3879 26.3782 16.4661 26.2274C17.5948 24.042 18.731 21.8611 19.8622 19.6769C20.4868 18.4713 21.105 17.2625 21.7265 16.0556C21.0729 16.5976 20.5543 17.219 19.9972 17.8045C15.8365 22.1853 10.6923 24.7758 4.81492 26.0035C3.46609 26.2855 2.09896 26.4785 0.740029 26.7126H0C0 23.0743 0 19.4359 0 15.7976C0.364021 15.7402 0.728673 15.6853 1.09269 15.6254C3.91969 15.1623 6.59339 14.3125 8.89423 12.5366C9.21094 12.2918 9.48979 11.9984 9.7863 11.7278C9.76044 11.6584 9.73457 11.5896 9.7087 11.5202H0V0.0153682Z" fill="white"/>
<path d="M61.5865 11.1877C60.8244 13.6507 60.0622 16.1131 59.3008 18.576C58.844 20.0555 58.3677 21.5292 57.9431 23.0175C57.7715 23.6193 57.4579 23.8559 56.8315 23.8143C56.1432 23.7689 55.4467 23.7644 54.7596 23.8155C54.1004 23.8648 53.7975 23.6168 53.6152 22.9821C52.5982 19.4397 51.5402 15.9086 50.4974 12.3738C49.7466 9.8288 48.9927 7.28444 48.2495 4.73692C48.0117 3.92118 48.0647 3.85999 48.9303 3.85179C49.8192 3.84358 50.7081 3.87008 51.5964 3.84358C52.161 3.82655 52.4266 4.05241 52.5749 4.60191C53.6644 8.6339 54.7824 12.6583 55.8921 16.6853C55.9306 16.826 55.9735 16.9654 56.0738 17.3105C56.4693 15.9787 56.8151 14.8279 57.1532 13.6753C58.0327 10.6811 58.9235 7.69073 59.7739 4.68834C59.9531 4.05493 60.2622 3.78807 60.9196 3.84295C61.7978 3.91614 62.8855 3.64738 63.4999 4.07323C64.0797 4.4751 64.1927 5.57663 64.4583 6.38795C65.5976 9.86539 66.7168 13.3498 67.9792 16.8449C68.3281 15.5642 68.6795 14.2847 69.0252 13.0034C69.7741 10.2282 70.5337 7.45541 71.2554 4.6732C71.4138 4.06313 71.7122 3.81393 72.338 3.84232C73.102 3.87702 73.8686 3.84169 74.6332 3.85305C75.4357 3.86503 75.4988 3.95336 75.2773 4.72178C73.6534 10.3651 72.0314 16.0096 70.3987 21.6503C69.7747 23.8073 69.7627 23.8143 67.5313 23.8004C65.8046 23.7897 66.0967 24.0364 65.544 22.4017C64.363 18.9091 63.1946 15.4128 62.0192 11.9183C61.9341 11.6659 61.8363 11.418 61.7442 11.1675C61.6912 11.1745 61.6382 11.1808 61.5852 11.1877H61.5865Z" fill="white"/>
<path d="M148.813 14.8582C148.009 17.4638 147.201 20.0674 146.405 22.6749C146.061 23.7998 146.073 23.8036 144.894 23.8042C144.276 23.8042 143.657 23.7764 143.042 23.8118C142.499 23.8433 142.25 23.6118 142.1 23.1064C140.959 19.2404 139.797 15.38 138.642 11.5183C138.438 10.8357 138.238 10.1512 138.028 9.46983C137.9 9.05534 138.052 8.85282 138.476 8.85093C139.514 8.84651 140.554 8.80487 141.585 8.88058C141.839 8.89951 142.199 9.2711 142.28 9.54743C142.997 12.0009 143.663 14.469 144.345 16.9326C144.422 17.2095 144.504 17.4852 144.73 17.7641C145.178 16.2449 145.624 14.7251 146.073 13.2066C146.443 11.9574 146.833 10.7139 147.183 9.4591C147.311 8.9954 147.566 8.82443 148.032 8.83768C148.772 8.8585 149.515 8.87301 150.254 8.83263C150.845 8.80046 151.138 9.0118 151.308 9.59159C152.031 12.0691 152.796 14.5339 153.548 17.0032C153.597 17.1647 153.657 17.3225 153.785 17.6915C153.92 17.3124 154.007 17.1099 154.065 16.8998C154.721 14.5056 155.388 12.1145 156.014 9.71272C156.176 9.09129 156.452 8.78784 157.132 8.832C157.869 8.87995 158.613 8.85534 159.354 8.8402C159.915 8.82885 160.113 9.02127 159.938 9.59727C158.566 14.1125 157.203 18.6309 155.855 23.1537C155.71 23.6408 155.462 23.8307 154.959 23.8105C154.219 23.7808 153.476 23.7733 152.737 23.8124C152.158 23.8433 151.907 23.5777 151.738 23.0635C150.914 20.54 150.063 18.024 149.22 15.5061C149.144 15.2803 149.053 15.0595 148.968 14.8361C148.916 14.8431 148.865 14.8507 148.813 14.8576L148.813 14.8582Z" fill="white"/>
<path d="M94.6878 22.1494C94.6279 22.2806 94.5944 22.3222 94.5913 22.3664C94.5156 23.3245 93.9827 23.8038 92.9926 23.8042C91.5239 23.8042 90.7895 23.0648 90.7895 21.586C90.7895 15.667 90.7895 9.74868 90.7895 3.82971C90.7895 3.03353 91.2011 2.63481 92.0242 2.63355C92.5668 2.63355 93.1125 2.66698 93.6519 2.62534C94.3503 2.57109 94.6115 2.8247 94.5969 3.54328C94.5585 5.50723 94.5837 7.47244 94.5837 9.43702C94.5837 9.70389 94.5837 9.97075 94.5837 10.3461C94.785 10.2231 94.9067 10.1651 95.0095 10.0837C98.8113 7.07688 104.322 8.58974 105.921 13.17C106.918 16.0266 106.731 18.8625 104.888 21.386C102.564 24.5676 97.9501 25.018 95.0127 22.4213C94.9225 22.3412 94.8279 22.2667 94.6865 22.1487L94.6878 22.1494ZM94.5446 16.2651C94.5477 19.1565 96.8397 21.0851 99.5513 20.4636C101.556 20.0044 102.623 18.0966 102.453 15.908C102.319 14.1901 101.633 12.7466 99.8118 12.1927C97.0524 11.353 94.5414 13.3088 94.5439 16.2651H94.5446Z" fill="white"/>
<path d="M83.5419 17.3143C81.913 17.3143 80.284 17.3111 78.6551 17.3162C77.811 17.3187 77.7365 17.4291 77.9535 18.2114C78.3844 19.7621 79.4708 20.6119 80.995 20.8706C82.5716 21.1381 83.9596 20.6813 84.8983 19.3375C85.2504 18.8334 85.6238 18.6883 86.1841 18.7104C86.9481 18.7401 87.7146 18.7382 88.4786 18.7129C89.1341 18.6909 89.254 18.9666 89.0332 19.5249C88.1354 21.7967 86.4705 23.2477 84.1268 23.8383C81.0392 24.6155 78.1914 24.1834 75.8672 21.8055C73.6547 19.5426 73.1531 15.6071 74.6773 12.6678C76.1751 9.78022 79.4166 8.12478 82.6499 8.59542C86.9676 9.22441 89.4502 12.0779 89.3871 16.3402C89.3738 17.2531 89.3227 17.3111 88.4281 17.3136C86.7992 17.318 85.1702 17.3149 83.5413 17.3149L83.5419 17.3143ZM77.9901 14.6444H85.2258C85.1255 12.9845 83.6959 11.7625 81.8707 11.7057C79.9244 11.6451 78.2141 12.9227 77.9908 14.6444H77.9901Z" fill="white"/>
<path d="M130.299 24.1026C125.567 24.1089 122.361 20.9911 122.357 16.3799C122.354 11.7625 125.584 8.53927 130.218 8.53801C134.871 8.53675 138.14 11.7524 138.143 16.3351C138.146 20.916 134.935 24.0969 130.299 24.1032V24.1026ZM134.106 16.3591C134.239 12.4363 130.56 11.2868 128.202 12.6299C126.891 13.3769 126.412 14.6248 126.337 16.0323C126.223 18.1887 127.264 19.993 129.204 20.4712C131.957 21.1501 134.104 19.3325 134.106 16.3591Z" fill="white"/>
<path d="M109.025 17.913C109.025 16.2418 109.007 14.5699 109.034 12.8993C109.044 12.3214 108.835 12.1227 108.259 12.129C106.49 12.1473 106.663 12.3176 106.653 10.4893C106.653 10.4647 106.653 10.4401 106.653 10.4155C106.665 8.73169 106.483 8.82569 108.187 8.85093C108.759 8.85913 108.989 8.70267 109.07 8.08566C109.473 4.99495 111.881 2.85372 115.059 2.66572C115.566 2.63544 115.801 2.81839 115.775 3.33257C115.759 3.65116 115.749 3.97355 115.779 4.29025C115.877 5.32491 115.846 6.17092 114.463 6.38416C113.65 6.50971 113.207 7.28759 112.992 8.09071C112.864 8.56514 113.002 8.85724 113.563 8.84209C114.081 8.82821 114.6 8.84904 115.118 8.84462C115.552 8.8402 115.749 9.04839 115.746 9.47487C115.741 10.1386 115.739 10.8023 115.748 11.4653C115.755 11.924 115.555 12.1479 115.083 12.136C114.639 12.1246 114.192 12.1669 113.751 12.1303C113.09 12.076 112.899 12.3675 112.903 12.9933C112.924 16.2373 112.913 19.482 112.911 22.726C112.91 23.7903 112.896 23.801 111.842 23.8036C111.175 23.8054 110.507 23.7777 109.842 23.8105C109.237 23.8408 109.006 23.6099 109.015 22.9998C109.041 21.3046 109.024 19.6082 109.023 17.9123L109.025 17.913Z" fill="white"/>
<path d="M120.949 13.2097C120.949 16.4014 120.951 19.593 120.948 22.7847C120.948 23.784 120.928 23.7991 119.901 23.8029C119.21 23.8048 118.519 23.7783 117.83 23.8099C117.241 23.8364 117.021 23.5727 117.057 23.0206C117.067 22.8743 117.057 22.726 117.057 22.579C117.057 16.3433 117.057 10.107 117.057 3.87134C117.057 3.0453 117.482 2.63207 118.332 2.63165C118.949 2.63165 119.567 2.66004 120.181 2.62534C120.84 2.58812 120.957 2.93448 120.955 3.4884C120.941 6.72926 120.948 9.96949 120.948 13.2103L120.949 13.2097Z" fill="white"/>
</svg>
