<svg width="148" height="40" viewBox="0 0 148 40" fill="none" xmlns="http://www.w3.org/2000/svg">
<path d="M35.5444 0.0152871V31.2316L39.5552 31.2469V16.3884H49.2449V12.4555H39.5552V3.9482H52.1688V0.0152871H35.5444ZM59.4093 6.35063C60.8633 6.35063 62.0267 5.17235 62.0267 3.73418C62.0267 2.29601 60.848 1.11773 59.4093 1.11773C57.9706 1.11773 56.7919 2.29601 56.7919 3.73418C56.7919 5.17235 57.9706 6.35063 59.4093 6.35063ZM57.373 10.283V31.2316H61.3838V10.283H57.373Z" fill="white"/>
<path fill-rule="evenodd" clip-rule="evenodd" d="M76.2784 9.67088C70.9359 9.67088 67.2162 14.1847 67.2162 19.5405C67.2162 24.8963 70.9359 29.4101 76.2784 29.4101C78.7276 29.4101 80.7327 28.4611 82.2025 26.9312V29.7012C82.2025 33.1749 79.4775 36.0671 75.9113 36.0671C74.6256 36.0671 73.3551 35.5773 72.3446 34.8735L70.3242 38.3625C71.9317 39.4032 73.8451 40 75.896 40C81.5902 40 86.1981 35.3939 86.1981 29.7017V10.283H82.2025V12.1498C80.7333 10.6193 78.7276 9.67088 76.2784 9.67088ZM71.2418 19.5405C71.2418 16.2197 73.7827 13.6032 76.7218 13.6032C79.661 13.6032 82.202 16.2197 82.202 19.5405C82.202 22.8613 79.661 25.4778 76.7218 25.4778C73.7827 25.4778 71.2418 22.8613 71.2418 19.5405Z" fill="white"/>
<path d="M100.694 13.6038C98.3211 13.6038 96.3924 15.6235 96.3924 17.9953V31.2316H92.3816V10.283H96.3924V12.1956C97.5711 10.6804 99.301 9.67088 101.567 9.67088C104.383 9.67088 106.541 11.0632 107.797 13.2057C109.189 11.1402 111.455 9.67088 114.195 9.67088C118.773 9.67088 121.62 13.3586 121.635 17.9189V31.2316H117.624V17.98C117.624 15.6082 115.695 13.5885 113.323 13.5885C110.95 13.5885 109.021 15.6082 109.021 17.98V31.2316H105.01V17.98C104.995 15.6082 103.067 13.6038 100.694 13.6038Z" fill="white"/>
<path fill-rule="evenodd" clip-rule="evenodd" d="M143.035 12.6548C141.244 10.8033 138.794 9.67088 135.962 9.67088C129.992 9.67088 125.737 14.7356 125.737 20.7647C125.737 26.7937 129.977 31.8584 135.962 31.8584C138.794 31.8584 141.244 30.7107 143.035 28.8745V31.2311H147.045V10.283H143.035V12.6548ZM129.763 20.7647C129.763 16.7706 132.824 13.6032 136.406 13.6032C139.988 13.6032 143.05 16.7553 143.05 20.7647C143.05 24.774 139.988 27.9261 136.406 27.9261C132.824 27.9108 129.763 24.7587 129.763 20.7647Z" fill="white"/>
<path fill-rule="evenodd" clip-rule="evenodd" d="M7.26164 14.5441C4.56367 14.5441 2.37654 16.7344 2.37654 19.4362C2.37654 22.138 4.56367 24.3283 7.26164 24.3283H12.2788V14.5441H7.26164ZM19.6724 12.1642C22.3704 12.1642 24.5575 9.97388 24.5575 7.27205C24.5575 4.57021 22.3704 2.37994 19.6724 2.37994H14.6553V12.1642H19.6724ZM23.6546 13.3541C25.6299 12.0545 26.9341 9.81579 26.9341 7.27205C26.9341 3.25581 23.6829 0 19.6724 0H7.26164C3.25114 0 0 3.25581 0 7.27205C0 9.81579 1.3042 12.0545 3.27949 13.3541C1.3042 14.6538 0 16.8925 0 19.4362C0 21.98 1.3042 24.2186 3.27949 25.5183C1.3042 26.8179 0 29.0566 0 31.6004C0 35.6249 3.29232 38.8724 7.29447 38.8724C11.3331 38.8724 14.6553 35.5953 14.6553 31.5343V24.8168C15.9452 25.9919 17.6593 26.7083 19.5404 26.7083H19.6724C23.6829 26.7083 26.9341 23.4524 26.9341 19.4362C26.9341 16.8925 25.6299 14.6538 23.6546 13.3541ZM19.6724 14.5441L19.5404 14.5441C16.8424 14.5441 14.6553 16.7344 14.6553 19.4362C14.6553 22.138 16.8424 24.3283 19.5404 24.3283H19.6724C22.3704 24.3283 24.5575 22.138 24.5575 19.4362C24.5575 16.7344 22.3704 14.5441 19.6724 14.5441ZM2.37654 31.6004C2.37654 28.8985 4.56367 26.7083 7.26164 26.7083H12.2788V31.5343C12.2788 34.2643 10.0372 36.4925 7.29447 36.4925C4.58815 36.4925 2.37654 34.2939 2.37654 31.6004ZM12.2788 12.1642H7.26164C4.56367 12.1642 2.37654 9.97388 2.37654 7.27205C2.37654 4.57021 4.56367 2.37994 7.26164 2.37994H12.2788V12.1642Z" fill="white"/>
</svg>
