<svg width="129" height="47" viewBox="0 0 129 47" fill="none" xmlns="http://www.w3.org/2000/svg">
<path d="M14.4416 38.8381L19.9498 36.3014C30.0085 40.3729 40.5506 31.8263 38.3472 20.9642C38.0005 19.2529 37.3479 16.5845 35.1011 18.1107L19.4935 29.7286L19.3677 29.559L48.8333 0L46.1829 3.80462C43.6523 7.62216 42.1924 10.6564 42.4617 15.4268C42.5909 17.7156 43.3582 19.9321 43.569 22.2123C44.208 29.1364 40.6968 35.9494 34.9006 39.5603C28.5945 43.4898 20.4495 43.216 14.4425 38.8381H14.4416Z" fill="white"/>
<path d="M77.8774 19.1608H73.5461C72.636 14.1098 65.8337 12.9211 62.3768 16.0655C58.2835 19.7892 58.5928 29.6347 63.9778 32.0647C68.0023 33.8809 73.1527 31.9778 74.2531 27.4811C74.316 27.2246 74.4893 26.4516 74.4758 26.2416C74.4706 26.1624 74.4052 26.0358 74.3525 26.0358H66.9222V22.6418L67.0497 22.5127H78.3014C78.4645 26.6883 78.0278 31.6128 74.3372 34.1822C70.9926 36.5106 65.1216 36.6836 61.5152 34.901C53.9251 31.148 53.3574 18.4868 59.6644 13.3213C65.5898 8.46916 76.7956 10.6357 77.8774 19.1617V19.1608Z" fill="white"/>
<path d="M35.8404 8.50789L35.6458 8.78162L30.441 11.1694C27.528 10.1279 24.5819 9.87911 21.5754 10.6986C12.4132 13.1948 8.23496 24.6973 14.5683 32.2231C14.7493 32.4383 15.4282 32.9547 15.367 33.1923L0.00584872 47C-0.0536348 46.9337 0.358501 46.4517 0.43158 46.3579C3.46099 42.4792 9.11362 38.6565 8.66579 33.1252C8.54683 31.655 7.71916 30.1486 7.33251 28.7172C5.30413 21.2035 8.12959 13.2077 14.3303 8.69468C20.7358 4.03273 29.3312 4.07318 35.8412 8.50875L35.8404 8.50789Z" fill="white"/>
<path d="M116.346 11.4276V27.3236L124.456 18.0436H128.915L121.794 26.0625L129 35.6576H124.541L118.64 27.4088H116.347V35.5285L116.22 35.6576H112.526V11.3416H116.135C116.163 11.3416 116.264 11.4552 116.347 11.4276H116.346Z" fill="white"/>
<path d="M100.279 17.639C105.417 17.3214 109.311 20.5648 109.642 25.8155C110.064 32.5252 105.746 37.0477 99.0059 35.89C89.6143 34.2769 89.6695 18.2949 100.28 17.639H100.279ZM100.449 20.8187C94.9007 21.3696 94.7554 31.4415 99.701 32.6948C107.34 34.6298 107.812 20.0879 100.449 20.8187Z" fill="white"/>
<path d="M91.6342 21.3085H85.4776L85.3502 21.4376V35.6576H81.6563L81.5288 35.5293V20.922L84.7978 18.0436H91.5067L91.6342 18.1727V21.3085Z" fill="white"/>
</svg>
