<svg width="160" height="34" viewBox="0 0 160 34" fill="none" xmlns="http://www.w3.org/2000/svg">
<path d="M119.557 0C120.133 0.183755 120.316 0.584388 120.314 1.17351C120.299 5.48741 120.306 9.80132 120.306 14.1152C120.306 14.2808 120.306 14.4465 120.306 14.7091C120.472 14.5821 120.565 14.5222 120.645 14.4488C122.791 12.4804 124.943 10.5174 127.076 8.53475C127.46 8.17828 127.857 8.02213 128.38 8.02686C130.613 8.04658 132.847 8.03553 135.079 8.03553C135.184 8.03553 135.29 8.03317 135.395 8.03711C135.853 8.05525 136.174 8.25478 136.288 8.61677C136.412 9.00715 136.297 9.33365 135.993 9.6081C135.108 10.4086 134.225 11.213 133.342 12.0166C131.829 13.3936 130.318 14.7714 128.784 16.1689C129.212 16.948 129.632 17.7162 130.055 18.4828C132.367 22.6721 134.682 26.8606 136.989 31.0538C137.093 31.2423 137.181 31.4678 137.185 31.6776C137.192 32.1335 136.825 32.4907 136.343 32.4931C133.965 32.5033 131.587 32.5002 129.21 32.4947C128.832 32.4939 128.584 32.277 128.412 31.9458C127.221 29.6547 126.023 27.3677 124.827 25.079C124.124 23.7328 123.421 22.3858 122.69 20.9851C122.076 21.5451 121.515 22.1082 120.899 22.6027C120.436 22.9741 120.284 23.3897 120.292 23.9788C120.325 26.4434 120.306 28.9087 120.306 31.374C120.306 32.2257 120.029 32.4994 119.17 32.5002C117.305 32.5002 115.439 32.501 113.574 32.5002C112.801 32.5002 112.507 32.2037 112.507 31.4253C112.507 21.3156 112.509 11.2059 112.5 1.09622C112.5 0.528394 112.717 0.172714 113.251 0.0015773H119.557V0Z" fill="white"/>
<path d="M54.8408 10.534C56.6508 8.39595 58.9812 7.46455 61.7336 7.51503C64.4923 7.5655 66.7935 8.55604 68.4678 10.8092C68.7202 10.5679 68.9513 10.3423 69.1871 10.1215C71.0483 8.37544 73.2928 7.5931 75.8117 7.5166C77.2534 7.47323 78.6714 7.62465 80.0342 8.12623C82.9742 9.20825 84.6375 11.3699 85.2369 14.3778C85.4049 15.2193 85.4648 16.0947 85.4687 16.9551C85.49 21.7541 85.479 26.553 85.479 31.3519C85.479 32.2313 85.2101 32.4986 84.3244 32.4986C82.4987 32.4986 80.6722 32.4986 78.8465 32.4986C77.74 32.4986 77.527 32.2896 77.527 31.1997C77.527 26.9252 77.5341 22.6508 77.5223 18.3763C77.5192 17.2548 77.2274 16.2154 76.3677 15.4236C75.143 14.295 73.0586 14.2745 71.6319 15.355C71.0349 15.8069 70.572 16.3723 70.236 17.0348C70.1469 17.2115 70.1169 17.4346 70.1169 17.6373C70.1106 22.2265 70.1122 26.8156 70.1122 31.4048C70.1122 32.2108 69.8275 32.4986 69.0286 32.4994C67.0972 32.5002 65.1666 32.501 63.2352 32.4994C62.4607 32.4994 62.1713 32.206 62.1713 31.4253C62.1713 27.2036 62.1768 22.9812 62.1634 18.7596C62.1618 18.2264 62.1169 17.6783 61.9899 17.1633C61.4733 15.0742 59.374 14.0277 57.288 14.7927C56.1397 15.2138 55.3708 16.0482 54.8313 17.1121C54.7596 17.2533 54.7635 17.4417 54.7635 17.6081C54.7604 22.1318 54.7612 26.6555 54.7612 31.1784C54.7612 31.2967 54.7643 31.4142 54.7596 31.5325C54.7343 32.176 54.4142 32.4978 53.7722 32.4986C51.7753 32.5025 49.7785 32.5025 47.7816 32.4986C47.1176 32.497 46.8013 32.1713 46.8005 31.4986C46.7998 24.0246 46.7998 16.5514 46.8005 9.07734C46.8005 8.35651 47.105 8.04105 47.8274 8.03948C49.7982 8.03396 51.7682 8.03396 53.7391 8.03948C54.4268 8.04184 54.7485 8.36992 54.7588 9.05604C54.7659 9.52687 54.7604 9.99769 54.7604 10.4685C54.7872 10.4906 54.8148 10.5127 54.8416 10.5348L54.8408 10.534Z" fill="white"/>
<path d="M102.407 30.4576C101.863 30.8464 101.407 31.1934 100.93 31.5096C97.6029 33.7147 92.8079 33.4237 89.8781 30.8448C87.2227 28.508 86.5862 24.2178 88.4924 21.4299C89.3844 20.1255 90.6817 19.3432 92.0926 18.7201C94.0855 17.84 96.218 17.4173 98.3056 16.8503C99.4956 16.5269 100.694 16.2296 101.887 15.9181C102.011 15.8857 102.132 15.8384 102.272 15.7919C102.184 15.0048 101.821 14.4149 101.175 14.0032C99.834 13.1468 97.2425 13.2611 96.024 14.2808C95.6439 14.5987 95.3497 15.0427 95.0887 15.4725C94.7945 15.9567 94.5145 16.1555 93.9664 16.0285C92.2282 15.6247 90.4916 15.2114 88.7574 14.7887C88.1225 14.6342 87.893 14.1412 88.1375 13.5119C89.0452 11.1728 90.7022 9.51346 92.9774 8.54421C96.9128 6.86833 100.937 6.83442 104.916 8.35573C108.158 9.59548 110.019 12.4551 110.025 15.9189C110.035 21.1239 110.028 26.3298 110.027 31.5349C110.027 32.1839 109.717 32.4955 109.06 32.497C107.168 32.501 105.277 32.501 103.385 32.497C102.746 32.4955 102.418 32.1634 102.407 31.5246C102.4 31.191 102.406 30.8566 102.406 30.4568L102.407 30.4576ZM102.283 21.1634C102.138 21.1831 102.035 21.1847 101.938 21.2123C100.713 21.5553 99.4767 21.8645 98.2693 22.2604C97.5169 22.5072 96.7495 22.799 96.0934 23.2296C95.0792 23.8952 95.0295 25.3424 95.9302 26.1642C96.7772 26.9371 97.8142 26.9615 98.8615 26.7431C100.07 26.4907 101.05 25.7501 102.083 25.1334C102.168 25.0829 102.218 24.9181 102.223 24.803C102.253 24.0971 102.27 23.3897 102.282 22.6831C102.291 22.1878 102.283 21.6918 102.283 21.1626V21.1634Z" fill="white"/>
<path d="M143.338 22.1823C143.492 23.7115 144.109 24.9268 145.301 25.8156C147.744 27.6382 151.52 27.2423 153.553 24.9678C153.692 24.8117 153.828 24.6516 153.965 24.4923C154.289 24.1161 154.718 24.0191 155.125 24.288C156.462 25.1689 157.793 26.0585 159.113 26.9639C159.557 27.2675 159.578 27.7801 159.223 28.2841C157.978 30.0514 156.353 31.359 154.31 32.0625C150.128 33.5026 145.967 33.501 141.949 31.5175C138.546 29.8377 136.544 27.0199 135.793 23.3337C135.176 20.3069 135.347 17.3156 136.639 14.4772C138.367 10.6846 141.371 8.43617 145.434 7.62071C148.427 7.01976 151.331 7.35256 154.028 8.83365C157.098 10.5198 158.829 13.2051 159.607 16.5592C159.975 18.1436 160.009 19.7541 159.998 21.3676C159.995 21.8684 159.632 22.1807 159.086 22.1815C157.076 22.1839 155.066 22.1823 153.057 22.1823C149.983 22.1823 146.909 22.1823 143.836 22.1823C143.683 22.1823 143.529 22.1823 143.338 22.1823ZM151.991 17.3668C152.062 15.9685 151.335 14.5987 150.113 13.9741C148.46 13.1294 146.789 13.1294 145.214 14.1657C144.089 14.9054 143.609 16.0348 143.493 17.3668H151.992H151.991Z" fill="white"/>
<path d="M35.1751 20.2612C35.1751 23.9323 35.1751 27.6043 35.1751 31.2754C35.1751 32.1413 34.9203 32.3913 34.0402 32.3898C32.1877 32.3866 30.3351 32.3835 28.4834 32.3779C27.6963 32.3756 27.4258 32.1043 27.425 31.3133C27.4156 23.9441 27.4069 16.575 27.399 9.20589C27.3982 8.34468 27.6403 8.09784 28.4905 8.09705C30.3691 8.09468 32.2476 8.09468 34.1262 8.09547C34.9101 8.09547 35.179 8.37229 35.179 9.16803C35.179 12.866 35.179 16.5632 35.179 20.2612H35.1751Z" fill="white"/>
<path d="M10.9833 8.00793C11.1442 8.0584 11.3145 8.08916 11.4636 8.1633C13.2033 9.02529 14.9415 9.89122 16.6766 10.7635C17.1553 11.004 17.3035 11.4527 17.052 11.963C16.3327 13.4196 15.5969 14.8684 14.8682 16.3203C14.1742 17.702 13.481 19.0837 12.7854 20.4646C11.8429 22.3369 10.8973 24.2068 9.95649 26.0798C9.02667 27.9292 8.10238 29.7809 7.17098 31.6303C7.07161 31.8283 6.96278 32.0262 6.82713 32.2005C6.54795 32.5585 6.26956 32.6051 5.85946 32.3984C4.11339 31.5207 2.36733 30.6429 0.621261 29.7667C-0.0183325 29.4457 -0.15398 29.1129 0.167788 28.467C1.26637 26.262 2.3831 24.0648 3.49036 21.8645C4.20251 20.4489 4.91151 19.0309 5.62129 17.6137C6.24353 16.3723 6.86262 15.1294 7.48723 13.8897C8.38313 12.1113 9.28456 10.3352 10.182 8.55683C10.3477 8.22875 10.5653 7.989 10.9849 8.00872L10.9833 8.00793Z" fill="white"/>
<path d="M21.0236 32.6248C20.3209 32.4805 19.4621 32.3014 18.6024 32.1272C17.4597 31.8953 16.3161 31.665 15.1726 31.4355C14.6947 31.3401 14.4605 31.1043 14.5125 30.6208C14.5866 29.9331 14.7144 29.2502 14.8469 28.5703C15.2247 26.6319 15.6174 24.6965 16.0007 22.7588C16.5393 20.0372 17.0756 17.3156 17.6103 14.5939C17.9936 12.6428 18.3753 10.6909 18.7531 8.73901C18.9139 7.90935 19.2215 7.71219 20.0457 7.88096C21.8832 8.25714 23.7223 8.62308 25.5623 8.98349C26.2389 9.11598 26.4952 9.39674 26.3738 10.0702C26.1009 11.5766 25.7862 13.075 25.4897 14.5766C24.7775 18.1831 24.067 21.7903 23.354 25.3968C22.9329 27.527 22.5078 29.6571 22.0819 31.7865C21.9573 32.4095 21.7113 32.635 21.0236 32.6232V32.6248Z" fill="white"/>
</svg>
