<svg width="109" height="40" viewBox="0 0 109 40" fill="none" xmlns="http://www.w3.org/2000/svg">
<path d="M31.333 0C36.0846 0 40 3.91542 40 8.66699V31.333C40 36.0846 36.0846 40 31.333 40H8.66699C3.91542 40 0 36.0846 0 31.333V8.66699C0 3.91542 3.91542 0 8.66699 0H31.333ZM5.83594 5.00391L10.252 15.0039L5.83594 35.0039H10.252L18.6699 13.5859L14.5869 35.0039H19.0029L27.085 12.1689L23.4189 35.0039H27.834L35.8359 10.0039L27.7539 5.00391H23.3379L27.0049 11.4209L19.0029 5.00391H14.5869L18.5859 12.8379L10.252 5.00391H5.83594ZM100.566 13.7051C104.814 13.7051 108.225 17.1167 108.226 21.2979C108.226 25.5141 104.779 28.9258 100.566 28.9258C96.3539 28.9256 92.873 25.5139 92.873 21.2979C92.8732 17.0819 96.319 13.7053 100.566 13.7051ZM76.9521 28.9219L73.6074 28.1523V14.5732L76.9521 13.9053V28.9219ZM54.6748 13.7021C55.8118 13.7022 57.2147 14.1393 58.3867 15.2412C59.5239 14.139 60.7631 13.7373 62.3691 13.7373C64.7449 13.7375 68.1562 15.3119 68.1562 19.6924V28.8242L64.8115 28.1562V28.1523H64.7764V19.5557C64.7764 18.0827 63.7055 17.047 62.0996 17.0469C60.4936 17.0469 59.4229 18.0826 59.4229 19.5557V28.8213L56.0781 28.1523V19.5557C56.0781 18.0827 55.0387 17.047 53.4014 17.0469C51.7639 17.0469 50.6924 18.0826 50.6924 19.5557V28.8213L47.3477 28.1523V14.6709L50.6924 14.0029V15.542C51.6301 14.4048 53.0373 13.7021 54.6748 13.7021ZM90.3643 17.1484L88.4258 17.5156C86.7534 17.8165 85.6827 18.6878 85.6826 20.5596V28.7539L82.3369 28.0859V20.0244C82.3369 16.0112 84.7449 14.8079 88.4258 13.9717L90.3643 13.6699V17.1484ZM100.566 16.8828C98.1279 16.883 96.1203 18.8244 96.1201 21.2979C96.1201 23.7715 98.1243 25.7449 100.566 25.7451C103.044 25.7451 105.017 23.7716 104.982 21.2979C104.982 18.8557 103.005 16.8828 100.566 16.8828ZM73.7754 8.11719C74.6115 7.31623 75.9829 7.31632 76.7842 8.11719C77.6204 8.92192 77.6204 10.2935 76.7842 11.0947C75.9829 11.931 74.6116 11.931 73.7754 11.0947C72.9394 10.2585 72.9392 8.91838 73.7754 8.11719Z" fill="white"/>
</svg>
