<svg width="147" height="40" viewBox="0 0 147 40" fill="none" xmlns="http://www.w3.org/2000/svg">
<path d="M60.0168 9.94594L50.8484 9.9381C49.4689 10.0191 48.1738 10.6663 47.4555 11.8738C46.7612 13.0409 46.793 14.4933 46.4906 15.7936C46.1078 17.4394 45.2357 18.8722 44.0068 20.0112C45.2623 21.1639 46.1207 22.6052 46.5029 24.281C46.7787 25.4879 46.7657 26.8829 47.3666 27.9768C48.3314 29.7323 50.145 30.2449 52.0513 29.9909C52.8462 27.0631 55.2729 24.7251 58.2603 24.1706C65.3777 22.8508 70.4453 30.9803 66.1102 36.8221C62.1217 42.1963 53.7092 40.4153 52.0507 34.0256C51.1144 33.9831 50.2365 34.0249 49.3093 33.8473C46.4841 33.3065 44.036 31.0502 43.2443 28.2733C42.7882 26.6732 42.9562 24.808 41.8616 23.4686C40.207 21.4434 37.8783 22.071 35.5683 22.0285C34.7475 25.1222 32.0936 27.5196 28.9162 27.9245C24.9386 28.432 21.1694 25.913 20.1948 22.0063L15.7027 22.0083C15.5814 22.0494 15.3653 22.8945 15.2842 23.0872C12.1541 30.4611 1.31358 29.1027 0.114478 21.3611C-1.37206 11.7628 12.0484 8.18328 15.4692 17.4008C15.5269 17.5569 15.5619 17.9657 15.7027 18.0134L20.1955 18.016C20.7639 15.5657 22.6521 13.4562 24.9854 12.5622C29.4976 10.8322 34.3309 13.4007 35.5819 18.0134C37.5655 17.9141 39.6555 18.4817 41.3107 17.1076C42.8927 15.7949 42.7006 14.0368 43.1282 12.2187C43.9347 8.78738 46.7125 6.38405 50.1988 6.02617L60.0155 6.01702C61.3852 0.734927 67.4625 -1.69714 72.0824 1.30376C76.9346 4.45617 76.8113 11.7706 71.8884 14.7898C67.2866 17.6124 61.3437 15.1373 60.0161 9.94594H60.0168ZM67.406 3.95852C61.8057 4.41045 63.0301 13.1637 68.6408 11.9156C73.3807 10.8616 72.3231 3.56145 67.406 3.95852ZM7.28051 16.0183C5.7187 16.2181 4.323 17.6699 4.01738 19.1929C3.28157 22.8606 7.53357 25.5121 10.4405 23.1721C13.6595 20.5807 11.4592 15.484 7.28051 16.0183ZM27.1915 16.0183C25.0665 16.2899 23.5657 18.5777 23.907 20.6558C24.4773 24.1262 28.9642 25.2632 31.0607 22.4511C33.2707 19.4861 30.8439 15.5513 27.1915 16.0183ZM59.233 28.0166C57.4531 28.2204 55.903 29.823 55.746 31.6183C55.4332 35.1985 59.5827 37.4451 62.33 35.1071C65.3887 32.5033 63.215 27.5608 59.233 28.0166Z" fill="white"/>
<path d="M118.579 7.3493C121.153 7.13248 124.213 7.75225 125.608 10.1549C126.776 12.1664 126.5 14.8453 124.69 16.3611C124.492 16.527 123.519 17.0749 123.518 17.2075C123.503 17.3042 123.57 17.3192 123.633 17.3571C123.924 17.5347 124.297 17.6523 124.618 17.8658C127.511 19.7839 127.873 24.1406 125.303 26.4976C122.768 28.8219 117.32 28.8865 114.511 27.0481C111.109 24.8205 111.19 19.7865 114.681 17.7097C114.809 17.6333 115.529 17.3198 115.543 17.2715C115.57 17.1768 115.53 17.1416 115.477 17.0789C115.367 16.9502 114.763 16.6707 114.549 16.512C113.116 15.4501 112.561 13.7612 112.837 12.009C113.283 9.17661 115.897 7.57461 118.579 7.34865L118.579 7.3493ZM119.543 10.2228C117.607 10.2242 116.368 11.7615 116.794 13.6685C117.377 16.2788 121.518 16.4284 122.191 13.8487C122.701 11.8947 121.598 10.2215 119.544 10.2228H119.543ZM118.902 18.9538C117.527 19.1191 116.41 20.2678 116.265 21.6498C115.766 26.3898 123.017 26.4819 122.806 21.9685C122.703 19.7702 120.962 18.7063 118.901 18.9545L118.902 18.9538Z" fill="white"/>
<path d="M107.177 27.9983H103.091V18.4464C103.091 17.4603 102.195 16.0973 101.319 15.6643C99.0024 14.5188 96.0864 16.2031 96.0864 18.8383V27.999H92.0654V12.09H95.7619L96.126 13.9846C96.4394 14.0767 96.6911 13.5431 96.9039 13.3354C100.36 9.9688 106.991 12.2493 107.111 17.3394L107.177 27.999V27.9983Z" fill="white"/>
<path d="M146.999 27.9983H142.978V18.7723C142.978 14.4763 136.597 13.9042 135.975 18.6423L135.909 27.9983H131.888V12.1867L131.985 12.0887H135.585L135.91 13.98C136.018 13.982 136.132 13.9976 136.234 13.9474C136.292 13.9193 136.927 13.1565 137.111 13.0037C138.617 11.7497 140.953 11.5473 142.799 12.0423C145.486 12.7633 146.811 15.0511 147 17.7293V27.9977L146.999 27.9983Z" fill="white"/>
</svg>
