<svg width="146" height="40" viewBox="0 0 146 40" fill="none" xmlns="http://www.w3.org/2000/svg">
<path d="M18.5377 0C18.7912 0.0411948 19.0448 0.0830998 19.2987 0.122874C21.5385 0.473385 23.4437 1.46774 25.0091 3.10062C25.1998 3.29984 25.3632 3.33109 25.6253 3.28564C30.8837 2.37332 35.9105 5.64226 37.2124 10.8687C37.6442 12.6031 37.598 14.3347 37.0785 16.0461C37.0029 16.2957 37.0575 16.4488 37.2174 16.6413C39.0221 18.8118 39.8066 21.3169 39.5402 24.1171C39.1326 28.4027 36.0912 31.884 31.8965 32.9281C31.6532 32.9885 31.5332 33.0897 31.4377 33.3319C29.9713 37.0526 27.2614 39.3019 23.3003 39.8822C19.9464 40.3734 17.0426 39.3179 14.6494 36.9112C14.4672 36.728 14.3212 36.6534 14.0417 36.7024C8.48293 37.6762 3.38223 34.0038 2.33212 28.6634C2.01819 27.0671 2.10271 25.4903 2.56651 23.9349C2.63043 23.7207 2.6212 23.5751 2.46743 23.3947C1.15168 21.8513 0.370043 20.0707 0.126425 18.0557C0.107248 17.8952 0.0433255 17.7404 0 17.5831C0 17.1104 0 16.6377 0 16.165C0.0522037 15.9125 0.117192 15.6622 0.155191 15.4076C0.763169 11.33 3.71321 8.07098 7.7226 7.07343C7.99818 7.00489 8.12461 6.88095 8.22724 6.62242C9.66692 2.98591 12.3208 0.820344 16.1761 0.12465C16.4413 0.0767075 16.7087 0.0411948 16.9751 0C17.4961 0 18.0167 0 18.5377 0ZM21.6716 13.943C21.8325 14.0378 21.9621 14.1156 22.0932 14.1912C25.1444 15.9502 28.1968 17.7074 31.2445 19.472C31.4448 19.5881 31.6355 19.7408 31.7892 19.9131C32.0119 20.162 32.0471 20.4816 32.0463 20.8105C32.0424 23.7751 32.0439 26.7397 32.0442 29.7043C32.0442 29.8399 32.0442 29.9756 32.0442 30.1421C32.1507 30.1091 32.2062 30.096 32.2587 30.075C35.2453 28.8907 37.3654 25.768 36.8981 22.1873C36.5785 19.7398 35.3142 17.8693 33.1771 16.6207C30.5747 15.1007 27.9549 13.611 25.3469 12.101C25.1569 11.9909 25.018 11.999 24.8334 12.1077C23.9164 12.6468 22.9913 13.172 22.0697 13.7029C21.9483 13.7729 21.8293 13.8475 21.6716 13.943ZM7.59653 9.85408C7.48822 9.88781 7.42074 9.90308 7.35753 9.92901C4.0552 11.2732 2.16805 14.7321 2.8119 18.1893C3.23912 20.482 4.4881 22.2182 6.50451 23.3905C9.08984 24.893 11.6865 26.3757 14.2719 27.8782C14.491 28.0053 14.6455 27.9887 14.8497 27.8686C15.7865 27.3168 16.7315 26.7787 17.6729 26.235C17.7642 26.1821 17.853 26.1246 17.9705 26.0525C17.8395 25.9722 17.7326 25.903 17.6221 25.8394C14.5499 24.0691 11.4802 22.2953 8.40267 20.5338C7.8405 20.2121 7.58765 19.7689 7.59049 19.1204C7.60399 16.1792 7.59653 13.2384 7.59653 10.2973V9.85408ZM4.90964 25.4935C4.8791 25.6441 4.85069 25.7457 4.83861 25.8494C4.75374 26.5689 4.77362 27.2851 4.88975 28.0018C5.45795 31.5023 8.56532 34.187 12.1169 34.2446C13.535 34.2677 14.8575 33.9299 16.0848 33.2236C18.6868 31.7267 21.2853 30.2242 23.8901 28.7326C24.0926 28.6165 24.1668 28.4908 24.1643 28.2589C24.1522 27.1488 24.1593 26.0386 24.1575 24.9285C24.1575 24.8419 24.1409 24.7552 24.1284 24.6377C23.9789 24.7194 23.8653 24.7783 23.7545 24.8419C20.7132 26.5941 17.6679 28.3395 14.6348 30.1052C14.0385 30.4522 13.5048 30.4625 12.9082 30.1116C11.0338 29.0096 9.14418 27.9336 7.26022 26.8476C6.4935 26.4059 5.72643 25.9641 4.90964 25.4935ZM34.7315 14.4938C34.7599 14.3891 34.7812 14.3351 34.789 14.2793C34.9268 13.3084 34.8714 12.3467 34.6263 11.3985C33.3873 6.60004 28.0057 4.29811 23.6533 6.73215C20.9926 8.21978 18.3658 9.76813 15.7204 11.2828C15.5422 11.3847 15.4789 11.5022 15.4807 11.7039C15.4892 12.8375 15.4843 13.9711 15.486 15.105C15.486 15.1785 15.5056 15.252 15.5208 15.3603C15.6799 15.2712 15.8028 15.2041 15.9239 15.1341C18.9645 13.3819 22.0083 11.635 25.0429 9.87183C25.6139 9.54014 26.1345 9.52878 26.707 9.86366C28.6346 10.9912 30.574 12.0988 32.5087 13.2139C33.2346 13.6323 33.9601 14.0499 34.7315 14.4938ZM13.6472 21.4213C13.6472 21.2238 13.6472 21.0946 13.6472 20.9649C13.6483 17.4449 13.6536 13.9249 13.6472 10.4049C13.6458 9.7621 13.8983 9.31215 14.4647 8.99147C16.1416 8.04292 17.8054 7.07201 19.4745 6.10997C20.4777 5.53182 21.4806 4.95367 22.5122 4.35919C22.4167 4.27573 22.3436 4.20187 22.2608 4.1415C20.4131 2.78562 18.3562 2.31117 16.1182 2.79521C12.6582 3.54346 10.2408 6.54464 10.222 10.0817C10.206 13.1056 10.2213 16.1295 10.212 19.1534C10.2113 19.3885 10.2898 19.5125 10.4887 19.6247C11.4465 20.1638 12.3961 20.7174 13.3492 21.2654C13.4284 21.3108 13.5108 21.3503 13.6472 21.4213ZM25.9911 19.0014C25.9911 22.4987 25.9911 25.9964 25.9911 29.4937C25.9911 29.6119 25.9957 29.7306 25.9879 29.8481C25.9644 30.1919 25.8377 30.4948 25.577 30.7231C25.4364 30.8464 25.2719 30.9458 25.1086 31.0399C22.5588 32.5112 20.0072 33.98 17.4566 35.4502C17.359 35.5063 17.2667 35.5717 17.1491 35.647C17.2425 35.7297 17.3068 35.7968 17.381 35.8512C19.2522 37.223 21.3293 37.6886 23.5936 37.1808C27.0508 36.4052 29.4092 33.3244 29.417 29.9735C29.4241 26.925 29.4177 23.8766 29.4251 20.8282C29.4255 20.6134 29.3626 20.4869 29.1719 20.3793C28.2039 19.8335 27.244 19.2735 26.2805 18.7195C26.2024 18.6747 26.1186 18.6396 25.9911 18.5771V19.0014ZM24.1462 17.5078C24.105 17.4762 24.0794 17.4513 24.0499 17.4343C22.71 16.6608 21.3677 15.8909 20.0313 15.1107C19.858 15.0095 19.7344 15.0453 19.5789 15.1355C18.3026 15.8774 17.0241 16.6164 15.7403 17.3458C15.5535 17.452 15.4775 17.5692 15.4786 17.7876C15.4878 19.2632 15.4882 20.7387 15.4782 22.2143C15.4768 22.4369 15.5627 22.5474 15.7467 22.6518C17.0202 23.3752 18.2908 24.1043 19.554 24.8458C19.7575 24.9651 19.9013 24.9598 20.1002 24.8426C21.128 24.2367 22.1649 23.6469 23.1983 23.051C23.5141 22.8688 23.8298 22.6866 24.1462 22.5037V17.5078Z" fill="white"/>
<path d="M145.46 30.0615H141.69V8.52519C142.959 8.51951 144.21 8.51347 145.46 8.50779V30.0615Z" fill="white"/>
<path d="M65.8736 19.5902C65.869 21.3201 65.4805 23.3226 64.4808 25.1714C62.9822 27.9425 60.6863 29.672 57.5626 30.1787C52.6768 30.9717 48.2398 28.51 46.5224 23.6383C45.8718 21.7935 45.695 19.8903 45.8597 17.9481C45.9886 16.4268 46.3491 14.9658 47.0334 13.5985C48.384 10.901 50.4867 9.08025 53.4556 8.4151C56.7128 7.68531 59.7136 8.27979 62.2893 10.4937C63.8793 11.8602 64.853 13.623 65.4091 15.6263C65.7366 16.8057 65.8744 18.0117 65.8736 19.5902ZM62.0226 19.2266C62.0305 17.805 61.8213 16.4207 61.2154 15.1249C60.1778 12.9053 58.4827 11.6017 55.9702 11.531C54.1601 11.4802 52.6462 12.1471 51.4615 13.5257C50.8042 14.291 50.3659 15.1764 50.0786 16.1366C49.6283 17.6424 49.5474 19.1794 49.7416 20.7313C49.8833 21.8652 50.2033 22.9469 50.7729 23.9477C52.2492 26.5401 54.9506 27.3832 57.4085 26.7265C59.1152 26.2705 60.295 25.1633 61.0801 23.6163C61.7794 22.2384 62.0287 20.7583 62.0226 19.2266Z" fill="white"/>
<path d="M126.824 8.46943C126.904 8.46517 126.986 8.457 127.068 8.457C128.323 8.45629 129.577 8.45594 130.832 8.457C131.143 8.457 131.145 8.45913 131.258 8.75744C133.908 15.7332 136.556 22.7093 139.204 29.6858C139.237 29.7714 139.258 29.8616 139.291 29.9738H135.439C134.827 28.3615 134.208 26.7322 133.588 25.0993H124.258C123.648 26.7326 123.042 28.3555 122.434 29.9813H118.695C118.682 29.9699 118.672 29.9642 118.667 29.9553C118.662 29.9454 118.657 29.9319 118.659 29.9213C118.669 29.8754 118.677 29.8286 118.694 29.7849C121.381 22.71 124.069 15.6352 126.758 8.56106C126.771 8.52945 126.799 8.50424 126.824 8.46943ZM125.539 21.6873H132.308C131.171 18.7017 130.048 15.7527 128.924 12.8034C128.902 12.807 128.88 12.8102 128.858 12.8137C127.756 15.7609 126.653 18.7081 125.539 21.6873Z" fill="white"/>
<path d="M72.1693 28.4535V35.3654H68.584V14.2715H72.1665V15.8856C72.2901 15.7744 72.3597 15.719 72.4215 15.6554C73.4048 14.6444 74.6194 14.1113 76.0083 13.9842C77.5467 13.8432 79.0031 14.117 80.3153 14.975C81.5667 15.7936 82.407 16.9435 82.9521 18.316C83.5373 19.7898 83.7319 21.3243 83.624 22.9025C83.5263 24.3355 83.189 25.7006 82.473 26.9556C81.5177 28.6304 80.131 29.7572 78.2211 30.1617C76.607 30.5037 75.0441 30.3542 73.5835 29.5281C73.076 29.2412 72.637 28.8655 72.2468 28.4311C72.2208 28.4386 72.1953 28.4457 72.1693 28.4535ZM72.0887 22.1351C72.0699 22.7935 72.0941 23.4288 72.2358 24.0567C72.7439 26.3075 74.6187 27.538 76.8858 27.082C78.2655 26.8047 79.1156 25.9126 79.6061 24.6387C79.881 23.9253 79.9896 23.1777 80.0109 22.4185C80.0383 21.4309 79.9317 20.4624 79.5652 19.5327C78.6437 17.1935 76.4429 16.7854 74.8133 17.2709C73.4673 17.6718 72.6992 18.6378 72.3107 19.9422C72.0958 20.6638 72.0628 21.4071 72.0887 22.1351Z" fill="white"/>
<path d="M100.268 22.9149H89.213C89.2368 23.1053 89.2506 23.2647 89.2769 23.4221C89.393 24.1156 89.6079 24.7758 89.9829 25.3746C90.8185 26.7084 92.0472 27.3004 93.6013 27.2596C94.0647 27.2475 94.5193 27.169 94.9554 27.0053C95.9014 26.6498 96.5819 26.0173 96.9626 25.0748C97.0016 24.9779 97.0439 24.8824 97.0986 24.7538C98.1213 25.1402 99.132 25.5223 100.157 25.9094C100.125 26.0024 100.109 26.0703 100.081 26.1328C99.0518 28.4024 97.2996 29.7533 94.8531 30.1997C93.5391 30.4394 92.233 30.3616 90.9588 29.9582C88.9559 29.3243 87.4714 28.0536 86.6127 26.1477C85.4025 23.4604 85.3904 20.7188 86.6575 18.0565C87.9182 15.4068 90.1093 14.0726 93.0437 13.9604C94.0477 13.9221 95.0285 14.0567 95.9664 14.4253C97.8376 15.1607 99.0294 16.5433 99.7145 18.396C100.087 19.4035 100.239 20.4525 100.266 21.5214C100.277 21.9678 100.268 22.4146 100.268 22.9149ZM96.6234 20.1993C96.5695 18.951 96.1174 17.9726 95.0065 17.3721C94.4848 17.0901 93.9156 16.9904 93.33 16.9829C91.8168 16.9641 90.6541 17.5834 89.9058 18.9105C89.7276 19.2266 89.6129 19.5785 89.4758 19.917C89.4424 19.9994 89.436 20.0924 89.4129 20.1993H96.6234Z" fill="white"/>
<path d="M106.585 14.2658V15.8916C106.732 15.7488 106.814 15.6696 106.895 15.5894C107.964 14.5371 109.25 13.9973 110.749 13.9569C111.489 13.937 112.216 14.0151 112.914 14.2672C114.547 14.8568 115.518 16.045 115.98 17.6843C116.174 18.3725 116.224 19.0774 116.222 19.7891C116.219 21.6795 116.221 23.5698 116.221 25.4601C116.221 26.8306 116.221 28.201 116.221 29.5718V29.9727H112.639C112.635 29.8414 112.625 29.7057 112.625 29.57C112.625 26.6754 112.625 23.7807 112.624 20.8861C112.624 20.3421 112.592 19.8015 112.451 19.2706C112.05 17.7599 110.912 17.1857 109.534 17.3277C107.854 17.5007 106.697 18.7543 106.597 20.4418C106.585 20.6539 106.583 20.8669 106.583 21.0793C106.582 23.9029 106.582 26.7269 106.582 29.5505C106.582 29.689 106.582 29.8271 106.582 29.9788H103.032C102.965 29.7192 102.942 14.7918 103.01 14.2658H106.585Z" fill="white"/>
</svg>
