<svg width="160" height="36" viewBox="0 0 160 36" fill="none" xmlns="http://www.w3.org/2000/svg">
<path d="M13.6623 26.066C10.5064 29.2325 7.35056 32.3981 4.1939 35.5646L4.0999 35.5156C4.0999 35.3709 4.0999 35.227 4.0999 35.0824C4.0999 31.9764 4.09173 28.8704 4.10889 25.7644C4.11135 25.3475 3.99283 25.2258 3.58088 25.2339C2.39815 25.2584 1.2146 25.2429 0 25.2429V10.5622C0.404596 10.5622 0.795296 10.5622 1.18681 10.5622C1.99028 10.5622 2.79457 10.5434 3.59804 10.5704C3.98629 10.5835 4.11053 10.4699 4.10889 10.0694C4.09336 7.07208 4.0999 4.07562 4.10072 1.07834C4.10072 0.838035 4.10072 0.59773 4.10072 0.229098C7.34321 3.47894 10.4999 6.64214 13.7489 9.89934C13.7726 9.59528 13.7971 9.42772 13.7971 9.26098C13.7996 6.4141 13.7988 3.5664 13.7988 0.719517C13.7988 -0.0577966 13.8225 -0.076596 14.6578 0.0737991V9.72688C14.6995 9.75222 14.7412 9.77756 14.7829 9.80289C17.9371 6.64787 21.0905 3.49284 24.3264 0.256889V0.788993C24.3264 3.85411 24.3264 6.91923 24.3264 9.98435C24.3264 10.5622 24.3281 10.563 24.9182 10.563C25.9669 10.563 27.0164 10.572 28.065 10.5573C28.3716 10.5532 28.4909 10.6235 28.4901 10.9619C28.4794 15.5939 28.4803 20.2251 28.4884 24.8571C28.4884 25.1677 28.3887 25.2535 28.0896 25.2495C27.0548 25.2347 26.0192 25.2437 24.9836 25.2437C24.5455 25.2437 24.3261 25.4571 24.3256 25.8837C24.3256 28.9489 24.3256 32.014 24.3256 35.0791V35.509C24.2913 35.527 24.2561 35.5442 24.2218 35.5621C21.0741 32.4079 17.9256 29.2545 14.688 26.0104V35.9014C14.5344 35.9226 14.4445 35.9439 14.3529 35.9471C13.9835 35.9591 13.7982 35.7738 13.7971 35.3913C13.7971 32.4758 13.7971 29.5611 13.7971 26.6455V26.1289C13.7513 26.1085 13.7064 26.0881 13.6606 26.0676L13.6623 26.066ZM5.0129 33.2784C5.04968 33.2907 5.08728 33.303 5.12406 33.3152C5.22133 33.2253 5.32268 33.1395 5.41586 33.0455C8.09273 30.3678 10.7663 27.6868 13.4506 25.0165C13.6941 24.7746 13.7906 24.5269 13.7898 24.1902C13.7816 20.3632 13.7849 16.5355 13.7832 12.7086C13.7832 12.5525 13.7587 12.3964 13.7375 12.143C13.5699 12.2967 13.4718 12.3809 13.3803 12.4724C10.6838 15.1689 7.98974 17.8678 5.28835 20.5594C5.08891 20.758 5.00718 20.9599 5.00799 21.2403C5.01535 25.1219 5.0129 29.0036 5.0129 32.8853C5.0129 33.0161 5.0129 33.1477 5.0129 33.2784ZM23.4249 33.4133C23.4428 33.1705 23.4592 33.0528 23.4592 32.9351C23.4608 29.0265 23.4641 25.1187 23.4486 21.21C23.4486 21.009 23.3333 20.7597 23.1895 20.6142C20.475 17.8785 17.7483 15.1542 15.0232 12.4299C14.9447 12.3514 14.8499 12.2885 14.697 12.1659C14.6856 12.389 14.6733 12.5206 14.6733 12.6514C14.6725 16.5192 14.6766 20.3861 14.666 24.2539C14.6652 24.5702 14.7731 24.786 14.9888 25.001C17.6796 27.6836 20.363 30.3727 23.0497 33.0602C23.1429 33.1534 23.241 33.2408 23.4257 33.4141L23.4249 33.4133ZM15.3542 11.4621C15.5389 11.6591 15.6419 11.7752 15.7514 11.8847C18.5027 14.6384 21.2523 17.3938 24.0117 20.1409C24.2422 20.3706 24.3411 20.6027 24.3346 20.9289C24.3158 21.9359 24.3354 22.9437 24.324 23.9507C24.3207 24.2613 24.4188 24.3888 24.7465 24.3814C25.5353 24.3634 26.3257 24.3569 27.1144 24.3839C27.5092 24.3978 27.6269 24.2645 27.6253 23.8738C27.6139 19.899 27.613 15.925 27.6261 11.9501C27.6278 11.5341 27.4962 11.4188 27.0883 11.4205C23.3587 11.4344 19.629 11.4278 15.8994 11.4294C15.758 11.4294 15.6166 11.4466 15.3542 11.463V11.4621ZM13.0206 11.5488C13.0043 11.5087 12.9871 11.4679 12.9708 11.4278C12.4852 11.4278 11.9997 11.4278 11.5142 11.4278C8.13768 11.4278 4.76115 11.4278 1.38462 11.4278C0.848425 11.4278 0.848425 11.4303 0.847607 11.9722C0.847607 12.5165 0.847607 13.0617 0.847607 13.6061C0.847607 17.0366 0.853329 20.4679 0.839434 23.8984C0.837799 24.2776 0.95223 24.3937 1.32577 24.3814C2.10063 24.3569 2.87794 24.3561 3.65362 24.3814C4.02307 24.3937 4.11543 24.2588 4.10808 23.9098C4.08764 22.9437 4.11707 21.9759 4.09255 21.0106C4.08356 20.6403 4.19308 20.3788 4.45709 20.1172C7.20998 17.3823 9.9506 14.636 12.6945 11.8921C12.8065 11.7801 12.9119 11.6632 13.0206 11.548V11.5488ZM15.4506 10.5214C15.5757 10.5361 15.6779 10.5598 15.78 10.5598C18.2019 10.5614 20.6238 10.5565 23.0448 10.5671C23.3685 10.5688 23.4665 10.456 23.4649 10.1405C23.4551 7.71861 23.46 5.29676 23.4576 2.87573C23.4576 2.76783 23.4298 2.65994 23.4151 2.55614C20.7513 5.21993 18.121 7.85103 15.4498 10.5222L15.4506 10.5214ZM5.03333 2.61253C5.02761 2.7049 5.01372 2.8226 5.01372 2.9403C5.01208 5.32455 5.02189 7.70799 5.00391 10.0922C5.00064 10.4821 5.13469 10.5704 5.49596 10.5688C7.86632 10.5557 10.2367 10.563 12.607 10.5606C12.7337 10.5606 12.8604 10.5418 12.9716 10.5328C10.3168 7.88454 7.68323 5.25671 5.03333 2.61253Z" fill="white"/>
<path d="M84.1444 29.6289H81.6973V10.0718H84.1444C84.1444 10.8328 84.1387 11.5504 84.1494 12.2681C84.151 12.4029 84.2196 12.5362 84.2572 12.6702C84.379 12.5852 84.5523 12.528 84.6161 12.4111C85.8176 10.1854 87.7956 9.48494 90.1521 9.69909C93.5392 10.0064 95.9644 12.4847 96.3379 15.8865C96.5112 17.4641 96.4376 19.0162 95.8548 20.5096C94.5683 23.8084 91.0667 25.5413 87.6608 24.5735C86.366 24.2057 85.3934 23.4251 84.7305 22.2554C84.6635 22.1369 84.6071 22.0086 84.518 21.9097C84.464 21.85 84.3447 21.7977 84.276 21.8173C84.2172 21.8337 84.1682 21.953 84.1518 22.0339C84.1306 22.1386 84.1453 22.2505 84.1453 22.3593C84.1453 24.6193 84.1453 26.8793 84.1453 29.1401V29.6297L84.1444 29.6289ZM84.0889 17.2311C84.1118 17.2327 84.1338 17.2344 84.1567 17.2352C84.1567 17.5213 84.142 17.8082 84.1592 18.0926C84.3169 20.7221 85.8724 22.3437 88.4847 22.6077C90.8869 22.8505 92.9695 21.5942 93.6226 19.4094C93.849 18.6525 93.9512 17.8278 93.9398 17.0366C93.894 13.7279 91.8457 11.7335 88.6939 11.8528C86.3996 11.9395 84.7231 13.3061 84.2842 15.4885C84.169 16.059 84.1518 16.6491 84.0889 17.2303V17.2311Z" fill="white"/>
<path d="M40.6565 29.642V10.1282H43.1111C43.1111 10.8794 43.1054 11.6117 43.1168 12.3433C43.1185 12.4626 43.1928 12.5803 43.2329 12.6988C43.3473 12.6203 43.501 12.568 43.5696 12.4601C45.1692 9.93367 47.748 9.02803 50.6872 10.0301C53.4892 10.9856 54.891 13.0854 55.298 15.9225C55.4991 17.3259 55.4092 18.7236 54.9801 20.0837C53.8635 23.6213 50.2745 25.5739 46.6887 24.6078C45.3858 24.2564 44.4066 23.4905 43.7266 22.3315C43.6579 22.2138 43.6113 22.0773 43.5206 21.9816C43.4478 21.9048 43.3228 21.8762 43.2214 21.8263C43.1847 21.9203 43.1348 22.0111 43.116 22.1083C43.098 22.1999 43.1119 22.298 43.1119 22.3936C43.1119 24.6544 43.1119 26.9152 43.1119 29.1753V29.642H40.6565ZM43.0473 17.2761C43.058 17.2777 43.0678 17.2785 43.0784 17.2801C43.098 17.6341 43.1037 17.9888 43.1397 18.3411C43.2991 19.9211 43.9366 21.2158 45.3703 22.0258C46.3037 22.5538 47.3181 22.6944 48.37 22.6363C50.5491 22.5162 52.2394 21.1487 52.7004 19.0179C52.8762 18.2054 52.9146 17.3398 52.8672 16.5077C52.7127 13.8072 50.9423 12.067 48.2491 11.8798C45.7283 11.7049 43.7356 13.1328 43.2533 15.4942C43.134 16.0778 43.1144 16.6818 43.049 17.2769L43.0473 17.2761Z" fill="white"/>
<path d="M59.0432 17.9136C59.1061 19.259 59.5205 20.4058 60.4605 21.3261C61.5974 22.4402 63.0156 22.6919 64.5375 22.611C66.2499 22.5195 67.4277 21.6898 68.0718 20.0952C68.111 19.9979 68.2508 19.8777 68.3464 19.8753C69.1335 19.8573 69.9207 19.8655 70.7724 19.8655C70.0948 21.9359 68.9987 23.6033 66.9185 24.3356C64.7157 25.1121 62.4826 25.032 60.3518 24.043C57.9119 22.911 56.7472 20.8635 56.4775 18.2593C56.3532 17.0603 56.4211 15.8637 56.7447 14.694C57.5891 11.6461 60.0616 9.7653 63.3605 9.66312C64.571 9.62553 65.7611 9.7514 66.8686 10.2778C69.3616 11.463 70.3947 13.5513 70.4806 16.2061C70.4969 16.7227 70.4797 17.2409 70.4748 17.7583C70.4748 17.7967 70.4503 17.8343 70.4225 17.9136H59.0432ZM67.7596 15.8465C67.7244 15.4909 67.713 15.1795 67.6598 14.8746C67.4359 13.5824 66.8302 12.555 65.5249 12.1226C64.2155 11.6877 62.8905 11.7196 61.6081 12.2509C60.1679 12.8468 59.0571 14.4668 59.1135 15.8465H67.7596Z" fill="white"/>
<path d="M116.919 17.8997H105.495C105.508 18.1253 105.502 18.31 105.531 18.4898C105.99 21.3171 108.11 22.875 111.035 22.6143C112.711 22.4647 113.864 21.6784 114.503 20.1238C114.546 20.0208 114.669 19.8794 114.758 19.8777C115.556 19.8589 116.354 19.8663 117.22 19.8663C116.478 22.0871 115.265 23.8035 112.975 24.4738C111.112 25.019 109.224 24.9732 107.394 24.298C104.816 23.3466 103.404 21.4217 102.982 18.7481C102.772 17.4183 102.821 16.0852 103.167 14.7774C103.98 11.6959 106.444 9.78736 109.755 9.66558C110.965 9.62062 112.156 9.74077 113.266 10.2557C115.664 11.369 116.755 13.3478 116.913 15.9078C116.953 16.5551 116.918 17.2074 116.918 17.9005L116.919 17.8997ZM114.129 15.84C114.393 14.2543 113.386 12.5296 111.872 12.1038C111.203 11.9158 110.474 11.8439 109.778 11.87C107.413 11.9599 105.704 13.5808 105.533 15.84H114.129H114.129Z" fill="white"/>
<path d="M160 10.0718C159.952 10.3898 159.95 10.6513 159.872 10.8875C158.198 15.9519 156.516 21.0131 154.833 26.0742C154.747 26.3316 154.643 26.5842 154.538 26.8351C153.822 28.55 152.528 29.4859 150.681 29.579C149.49 29.6395 148.294 29.5905 147.074 29.5905V27.507C148.231 27.507 149.374 27.4441 150.508 27.5234C151.866 27.6182 151.863 27.6713 152.332 26.4036C152.507 25.9311 152.687 25.4612 152.846 24.9838C152.977 24.5931 152.848 24.4166 152.433 24.4051C152.025 24.3937 151.614 24.3765 151.208 24.41C150.873 24.437 150.737 24.3128 150.635 24.0005C149.686 21.1038 148.722 18.2128 147.762 15.3209C147.226 13.7066 146.689 12.0931 146.153 10.4789C146.115 10.3652 146.085 10.2484 146.035 10.0743C146.842 10.0743 147.611 10.062 148.379 10.0898C148.475 10.0931 148.604 10.2917 148.649 10.4233C149.498 12.8795 150.336 15.3389 151.176 17.7984C151.647 19.1764 152.115 20.5545 152.586 21.9318C152.67 22.1786 152.746 22.4475 153.079 22.4459C153.412 22.4443 153.485 22.1762 153.569 21.9277C154.872 18.1171 156.179 14.3074 157.469 10.4927C157.58 10.1666 157.722 10.0473 158.069 10.0645C158.678 10.0947 159.289 10.0726 160 10.0726V10.0718Z" fill="white"/>
<path d="M131.389 24.4002C130.434 24.4002 129.607 24.4125 128.781 24.3871C128.657 24.3831 128.512 24.2261 128.423 24.1051C127.186 22.4287 125.957 20.7458 124.726 19.0645C124.632 18.9361 124.533 18.8111 124.409 18.6484C124.289 18.7964 124.195 18.9092 124.104 19.0244C122.775 20.7163 121.442 22.4067 120.121 24.1051C119.954 24.3193 119.785 24.4149 119.509 24.4084C118.721 24.3896 117.933 24.4018 117.158 24.4018C117.048 24.0438 117.144 23.797 117.352 23.542C119.072 21.4307 120.781 19.3088 122.493 17.1902C122.586 17.075 122.673 16.9557 122.773 16.8257C122.688 16.7047 122.613 16.5936 122.533 16.4865C121.135 14.6237 119.731 12.7658 118.346 10.8933C118.195 10.6889 118.155 10.4028 118.034 10.0734C119.012 10.0734 119.853 10.062 120.692 10.0865C120.816 10.0898 120.962 10.2435 121.049 10.3628C122.185 11.9109 123.312 13.4655 124.441 15.0185C124.528 15.1378 124.62 15.2539 124.742 15.4141C124.852 15.2792 124.946 15.1697 125.033 15.0577C126.243 13.5145 127.459 11.9754 128.656 10.4216C128.862 10.1535 129.074 10.0538 129.407 10.0653C130.154 10.0898 130.902 10.0734 131.665 10.0734C131.766 10.3988 131.72 10.6513 131.507 10.9121C129.867 12.9138 128.243 14.9286 126.602 16.9303C126.415 17.1584 126.396 17.3039 126.583 17.5507C128.101 19.5614 129.608 21.5803 131.101 23.6098C131.244 23.8044 131.276 24.0814 131.388 24.401L131.389 24.4002Z" fill="white"/>
<path d="M139.521 12.1716H136.848V10.0833H139.505V6.2449H141.986V10.0726C142.854 10.0726 143.669 10.0833 144.484 10.0661C144.746 10.0604 144.871 10.1396 144.946 10.3947C145.114 10.9668 145.313 11.53 145.518 12.1536H141.982C141.982 12.3612 141.982 12.5206 141.982 12.68C141.979 15.0357 141.983 17.3913 141.967 19.747C141.963 20.3992 141.897 21.0507 141.863 21.7029C141.833 22.2505 141.944 22.3552 142.486 22.3339C143.546 22.293 144.607 22.2579 145.668 22.2219C145.802 22.217 145.936 22.2219 146.097 22.2219V24.3978C144.731 24.3773 143.364 24.5383 142.046 24.0798C140.52 23.5493 139.813 22.3805 139.603 20.8528C139.547 20.4499 139.528 20.0388 139.527 19.6317C139.52 17.3169 139.523 15.0022 139.523 12.6874V12.1724L139.521 12.1716Z" fill="white"/>
<path d="M98.4165 4.58811H100.839V24.3732H98.4165V4.58811Z" fill="white"/>
<path d="M75.1837 24.3888H72.7528V10.1061H75.1837C75.1837 10.7004 75.1837 11.2938 75.1837 11.8872C75.1837 12.0368 75.169 12.1896 75.1951 12.3351C75.209 12.4119 75.2875 12.5165 75.3553 12.5321C75.4248 12.5484 75.5311 12.4879 75.5915 12.4299C75.6455 12.3784 75.6659 12.2877 75.6921 12.2109C76.122 10.9407 77.0424 10.25 78.3371 10.0947C79.004 10.0146 79.689 10.0808 80.3936 10.0808V12.4871C79.9775 12.4871 79.5852 12.4773 79.1945 12.4896C78.7605 12.5027 78.3215 12.5027 77.8932 12.5672C76.3157 12.8026 75.4493 13.6993 75.2564 15.2792C75.2106 15.6569 75.1869 16.0386 75.1861 16.4186C75.1804 18.8961 75.1829 21.3735 75.1829 23.8518C75.1829 24.0144 75.1829 24.1763 75.1829 24.3888H75.1837Z" fill="white"/>
<path d="M135.558 24.3741H133.149V10.107H135.558V24.3749V24.3741Z" fill="white"/>
<path d="M135.722 5.42754V8.46732H132.889V5.42754H135.722Z" fill="white"/>
</svg>
