<svg width="148" height="40" viewBox="0 0 148 40" fill="none" xmlns="http://www.w3.org/2000/svg">
<path d="M80.6301 40H73.8184V9.58713H79.6332C79.7056 10.0909 79.7792 10.5964 79.8504 11.102C80.0687 12.6548 80.2847 14.2082 80.5078 15.7604C80.5179 15.831 80.5885 15.8927 80.6307 15.9585C80.69 15.8838 80.7831 15.8179 80.8045 15.7337C81.1119 14.5036 81.5177 13.314 82.1959 12.2305C83.3162 10.4398 84.9497 9.40734 87.0068 9.04837C88.5667 8.77602 90.1195 8.85375 91.6273 9.37886C93.5141 10.0363 94.7934 11.3666 95.6947 13.1021C96.5485 14.7457 96.9698 16.5127 97.168 18.3391C97.3976 20.4573 97.397 22.5762 97.111 24.6897C96.8126 26.8946 96.2115 28.9963 94.8919 30.8297C93.5533 32.6899 91.7163 33.6689 89.439 33.8689C88.0499 33.9911 86.6983 33.8825 85.3935 33.3639C83.7036 32.6923 82.4908 31.5157 81.7586 29.8626C81.4483 29.1618 81.2181 28.4261 80.9576 27.704C80.8793 27.4868 80.8894 27.4832 80.6301 27.4933V40ZM80.6247 21.3183C80.5962 21.3225 80.5678 21.3266 80.5399 21.3308C80.668 22.2255 80.725 23.1387 80.9392 24.0121C81.4673 26.1642 83.0563 27.7152 85.3597 27.7882C87.5741 27.8588 89.2188 27.0495 90.0157 24.8185C90.8102 22.5928 90.7966 20.3232 90.0982 18.0756C89.7137 16.8379 88.9619 15.8672 87.7004 15.3901C86.8745 15.078 86.013 15.0068 85.1348 15.0715C83.3708 15.2008 82.0725 16.0274 81.2976 17.6265C80.7327 18.7924 80.62 20.0462 80.6241 21.3183H80.6247Z" fill="white"/>
<path d="M131.154 23.1351H115.046C114.923 25.1852 116.522 27.3218 118.548 27.8191C119.817 28.1306 121.097 28.1104 122.364 27.8084C123.474 27.5438 124.176 26.7676 124.694 25.8076C124.889 25.4463 125.03 25.0552 125.209 24.6476C127.144 25.187 129.088 25.7287 131.099 26.2888C130.854 26.9207 130.651 27.536 130.381 28.1205C129.68 29.6371 128.741 30.9739 127.356 31.9595C126.05 32.8887 124.589 33.4262 123.019 33.6755C121.567 33.9057 120.102 33.962 118.645 33.7888C114.2 33.2607 110.952 31.0801 109.209 26.8626C108.24 24.5153 108.048 22.0689 108.254 19.5691C108.39 17.9113 108.764 16.3128 109.53 14.8294C111.049 11.8876 113.455 10.066 116.674 9.32783C119.177 8.75406 121.694 8.69295 124.182 9.38183C127.19 10.2143 129.267 12.1083 130.392 15.03C131.006 16.6255 131.285 18.2774 131.266 19.9821C131.257 20.8306 131.235 21.6796 131.213 22.5276C131.208 22.7222 131.176 22.9156 131.154 23.134V23.1351ZM124.924 18.6322C124.927 18.5794 124.937 18.5402 124.929 18.5046C124.875 18.2441 124.828 17.9813 124.758 17.725C124.374 16.308 123.556 15.272 122.12 14.8134C121.202 14.5203 120.258 14.4829 119.305 14.601C117.849 14.7813 116.638 15.3676 115.863 16.6741C115.506 17.2776 115.246 17.9172 115.145 18.6322H124.924Z" fill="white"/>
<path d="M71.1299 33.196H65.34C65.2195 32.4229 65.0985 31.6563 64.981 30.8891C64.8172 29.8163 64.6594 28.7429 64.4909 27.6713C64.4766 27.5805 64.4019 27.4993 64.355 27.4132C64.2874 27.4915 64.1817 27.5604 64.158 27.6506C63.8281 28.9079 63.2787 30.0602 62.4806 31.0837C61.3787 32.4965 59.9143 33.3088 58.1497 33.574C56.4711 33.8262 54.8157 33.7437 53.229 33.0863C51.0574 32.1867 49.7906 30.5758 49.4874 28.2314C49.2951 26.7433 49.3432 25.2718 49.8576 23.8489C50.7079 21.4969 52.4019 20.115 54.8299 19.5845C55.9958 19.33 57.1754 19.2469 58.3627 19.2428C60.2211 19.2362 62.0795 19.241 63.9379 19.241H64.3307C64.3455 17.7659 64.3218 16.3235 63.0407 15.3225C62.6835 15.043 62.2041 14.868 61.7537 14.7701C60.8192 14.5665 59.8722 14.5565 58.9507 14.8941C57.8863 15.2839 57.1891 16.0303 56.8289 17.093C56.6901 17.5024 56.5874 17.9231 56.4587 18.3741C54.3606 18.0827 52.253 17.7902 50.0831 17.4888C50.1852 16.9637 50.2558 16.4581 50.3845 15.9674C50.8378 14.239 51.5872 12.6696 52.9407 11.4479C54.1766 10.3318 55.6541 9.69927 57.2668 9.37293C59.7678 8.8668 62.2771 8.86027 64.768 9.41802C68.1287 10.1704 70.1242 12.3041 70.8172 15.6387C71.0183 16.6077 71.1097 17.6152 71.1157 18.6061C71.1453 23.3755 71.1293 28.1448 71.1293 32.9142V33.1972L71.1299 33.196ZM64.3342 23.7457C64.2701 23.7386 64.2233 23.7279 64.1758 23.7279C62.1697 23.7279 60.1636 23.719 58.1574 23.7368C57.8507 23.7398 57.5208 23.811 57.2425 23.9391C56.3483 24.3497 55.981 25.1027 56.0659 26.236C56.1258 27.0347 56.7108 27.7775 57.5576 27.9941C58.1159 28.1371 58.7045 28.2136 59.2806 28.2237C60.7118 28.2481 62.051 27.9282 63.1404 26.9261C64.0666 26.074 64.4304 25.0006 64.3342 23.7451V23.7457Z" fill="white"/>
<path d="M34.6725 27.4334H47.9803V33.1948H26.3039C26.3039 33.0904 26.3039 32.986 26.3039 32.8815C26.3039 31.1638 26.3081 29.446 26.2986 27.7283C26.2974 27.5082 26.3698 27.3681 26.527 27.2233C30.7238 23.3529 34.9158 19.4771 39.1102 15.6037C39.1743 15.5444 39.2562 15.5046 39.3298 15.456C39.3126 15.4233 39.2954 15.3907 39.2787 15.3575H26.7287V9.58594H47.7779V9.92593C47.7779 11.6241 47.7732 13.3223 47.7833 15.0199C47.7844 15.259 47.7115 15.4168 47.5358 15.577C43.3106 19.4308 39.0906 23.2912 34.8672 27.1474C34.7894 27.218 34.6809 27.2548 34.5871 27.3076C34.6156 27.3491 34.6441 27.3913 34.6731 27.4328L34.6725 27.4334Z" fill="white"/>
<path d="M139.113 9.57467C139.169 9.95085 139.227 10.3264 139.279 10.7026C139.511 12.3433 139.739 13.9845 139.975 15.6245C139.99 15.7331 140.066 15.8333 140.114 15.9378C140.175 15.8292 140.264 15.7277 140.292 15.6114C140.588 14.3879 140.977 13.2012 141.666 12.135C142.698 10.5359 144.189 9.70699 146.075 9.58357C146.624 9.54737 147.177 9.57823 147.746 9.57823V16.3306C147.611 16.3306 147.486 16.3276 147.361 16.3306C146.118 16.3668 144.872 16.3715 143.632 16.4528C142.974 16.4961 142.328 16.6931 141.768 17.0729C140.837 17.7036 140.42 18.6494 140.241 19.7103C140.154 20.223 140.121 20.7499 140.12 21.2708C140.11 25.1211 140.114 28.9714 140.114 32.8216C140.114 32.9385 140.114 33.0554 140.114 33.1942H133.302V9.57467H139.113Z" fill="white"/>
<path d="M106.167 9.5806V33.1907H99.3557V9.5806H106.167Z" fill="white"/>
<path d="M23.603 33.183H0V27.488H23.603V33.183Z" fill="white"/>
<path d="M102.786 7.75664C100.675 7.86641 98.8715 5.99557 98.9124 3.76338C98.9492 1.762 100.609 -0.0281456 102.932 0.000335299C105.004 0.0258495 106.678 1.75488 106.704 3.78474C106.733 5.94751 105.063 7.85039 102.786 7.75664Z" fill="white"/>
</svg>
