<svg width="160" height="30" viewBox="0 0 160 30" fill="none" xmlns="http://www.w3.org/2000/svg">
<path d="M159.998 29.8981H151.92V28.8996C151.92 22.4303 151.92 15.9594 151.92 9.49009C151.92 7.55739 150.731 6.49166 148.799 6.68737C146.879 6.88156 145.451 8.31579 145.307 10.221C145.255 10.906 145.229 11.594 145.229 12.279C145.223 17.8065 145.226 23.334 145.225 28.8614C145.225 29.1871 145.225 29.5113 145.225 29.8843H137.162V0.225675H145.974C146.384 1.39233 145.627 2.17519 145.18 3.06356C145.027 3.36784 144.468 3.64459 144.954 4.05896C144.995 4.09413 145.506 3.68435 145.702 3.41218C148.53 -0.532726 154.111 -0.918042 157.218 1.54064C158.833 2.81739 159.504 4.61553 159.81 6.56352C159.955 7.48706 159.989 8.43659 159.99 9.37388C160.006 15.8952 159.998 22.4165 159.998 28.9363V29.8981Z" fill="white"/>
<path d="M114.954 0.175217C114.598 1.77917 114.282 3.23634 113.95 4.69045C112.081 12.8754 110.202 21.0572 108.352 29.2452C108.233 29.7697 108.064 29.9516 107.516 29.947C104.636 29.9195 101.759 29.9256 98.8796 29.9424C98.4056 29.9455 98.193 29.8538 98.0722 29.3171C96.2741 21.3248 94.4408 13.3402 92.6151 5.35558C92.2757 3.87242 91.9316 2.39079 91.5968 0.906095C91.5478 0.690501 91.5432 0.465733 91.5096 0.172159C93.6258 0.172159 95.6839 0.172159 97.742 0.172159C99.6227 0.172159 99.5967 0.176746 99.9086 2.05746C100.844 7.68736 101.814 13.3127 102.737 18.9456C102.889 19.8692 102.878 20.8202 102.947 21.7591C102.968 22.045 103.008 22.3294 103.039 22.6138C103.109 22.6245 103.178 22.6367 103.248 22.6474C103.314 22.4899 103.43 22.3355 103.441 22.1734C103.817 16.0221 105.283 10.036 106.182 3.96416C106.338 2.90913 106.493 1.8541 106.701 0.809766C106.746 0.577353 107.009 0.207327 107.178 0.205798C109.719 0.167572 112.262 0.178275 114.953 0.178275L114.954 0.175217Z" fill="white"/>
<path d="M49.5346 17.4074H41.0087V24.1581H49.5208V29.8843H32.8681V0.237907H49.5285V6.06658C49.2487 6.07882 48.9765 6.10175 48.7058 6.10175C46.3878 6.10481 44.0683 6.12469 41.7503 6.09105C41.1004 6.08187 40.9185 6.30511 40.9307 6.92437C40.9643 8.52374 40.9414 10.1231 40.9414 11.8005H49.5346V17.4074Z" fill="white"/>
<path d="M80.3171 11.7959H88.8415V17.3906H80.3171C80.3171 17.886 80.3171 18.308 80.3171 18.73C80.3171 20.2591 80.3477 21.7881 80.3033 23.3156C80.2834 23.9762 80.4623 24.2009 81.1519 24.1887C83.4195 24.1474 85.6871 24.1749 87.9546 24.1749C88.2298 24.1749 88.5051 24.1749 88.8399 24.1749V29.895C88.5907 29.9088 88.369 29.9302 88.1457 29.9302C83.0999 29.9317 78.0556 29.921 73.0098 29.947C72.3707 29.9501 72.1918 29.7681 72.1918 29.1351C72.2086 19.7575 72.2056 10.3815 72.1994 1.00395C72.1994 0.497843 72.2101 0.152281 72.9104 0.156868C78.0327 0.18592 83.1534 0.172159 88.2757 0.175217C88.45 0.175217 88.6228 0.20121 88.846 0.219559V6.10634C88.3323 6.10634 87.8552 6.10634 87.3782 6.10634C85.314 6.10634 83.2498 6.13845 81.1871 6.09105C80.4578 6.07423 80.285 6.32652 80.3033 7.00847C80.3477 8.57879 80.3171 10.1522 80.3171 11.7989V11.7959Z" fill="white"/>
<path d="M125.578 11.8081H134.145V17.3738H125.625C125.607 17.6735 125.581 17.9166 125.58 18.1582C125.576 19.8906 125.601 21.6245 125.566 23.3554C125.552 23.9792 125.729 24.1948 126.376 24.1856C128.72 24.152 131.064 24.1948 133.408 24.1612C134.047 24.152 134.248 24.3477 134.228 24.9807C134.186 26.3553 134.219 27.7315 134.212 29.1076C134.212 29.3553 134.179 29.6015 134.159 29.8874H117.572V0.214972C117.85 0.199681 118.098 0.172159 118.346 0.172159C123.34 0.169101 128.333 0.184391 133.327 0.15381C134.035 0.149223 134.251 0.354114 134.229 1.05135C134.183 2.47641 134.196 3.90453 134.225 5.33112C134.237 5.91368 134.064 6.12622 133.446 6.11704C131.078 6.0834 128.708 6.12316 126.338 6.09258C125.723 6.08493 125.552 6.28982 125.566 6.88309C125.601 8.48399 125.578 10.0849 125.578 11.8081Z" fill="white"/>
<path d="M69.1765 23.5801V29.8813H52.5972V0.224146H60.6094C60.6094 0.554417 60.6094 0.85105 60.6094 1.14921C60.6094 8.28368 60.6094 15.4197 60.6094 22.5542C60.6094 23.2371 60.9585 23.5791 61.6568 23.5801C64.1261 23.5801 66.5955 23.5801 69.175 23.5801H69.1765Z" fill="white"/>
<path d="M22.382 0.124759C22.382 2.55592 22.3912 4.89534 22.3636 7.23629C22.3621 7.41978 22.145 7.6736 21.9615 7.77146C17.9646 9.88611 15.6527 13.1873 14.9784 17.6429C14.902 18.1429 14.8928 18.6566 14.8913 19.1658C14.8836 22.4502 14.8882 25.7361 14.8882 29.022C14.8882 29.2987 14.8882 29.5739 14.8882 29.9027H7.48003C7.45863 29.7269 7.41734 29.5342 7.41734 29.3415C7.41734 25.7758 7.3149 22.2071 7.45863 18.6475C7.65587 13.7668 9.50906 9.50538 12.8164 5.90451C15.2949 3.2027 18.301 1.31588 21.8163 0.25014C21.9585 0.207327 22.1068 0.184391 22.382 0.124759Z" fill="white"/>
<path d="M18.3744 0.228733C15.6038 1.60486 13.3561 3.32656 11.4494 5.48708C11.1298 5.84946 10.7751 6.19808 10.5381 6.61245C10.1176 7.34486 9.53811 7.53904 8.71549 7.52222C6.12072 7.47024 3.52289 7.5054 0.928124 7.50235C0.631491 7.50235 0.333329 7.47635 0 7.45953V0.228733H18.3744Z" fill="white"/>
<path d="M22.4309 11.8524H29.8559C29.8559 13.5634 29.8681 15.2347 29.8345 16.9059C29.8314 17.0466 29.5241 17.2973 29.3559 17.2989C27.2199 17.3264 25.0823 17.3279 22.9462 17.2989C22.7719 17.2958 22.4569 17.0068 22.4523 16.8463C22.4156 15.1995 22.4294 13.5512 22.4294 11.854L22.4309 11.8524Z" fill="white"/>
</svg>
