<svg width="153" height="40" viewBox="0 0 153 40" fill="none" xmlns="http://www.w3.org/2000/svg">
<path d="M0 33.9398C0.0660331 33.6436 0.118384 33.3431 0.200479 33.0511C0.677583 31.3491 1.85726 30.3098 3.44384 29.6715C4.77461 29.1361 6.17499 28.9451 7.59678 28.9011C8.42904 28.8749 9.26248 28.8939 10.0953 28.8922C10.2018 28.8922 10.3083 28.8922 10.438 28.8922C10.4529 28.1123 10.4957 27.3591 10.2203 26.6399C9.85321 25.6797 9.06676 25.3305 8.11493 25.2758C7.76276 25.2556 7.3969 25.277 7.05246 25.3508C6.06255 25.5625 5.45338 26.1687 5.2767 27.1812C5.26004 27.2782 5.23625 27.374 5.21186 27.487H0.560984C0.717441 25.8897 1.30282 24.528 2.5158 23.4727C3.60446 22.525 4.90906 22.0568 6.31122 21.848C7.98525 21.5982 9.65273 21.6565 11.2851 22.1348C13.8735 22.8933 15.3738 24.8386 15.3934 27.5471C15.4226 31.4972 15.403 35.4473 15.403 39.3974C15.403 39.4551 15.394 39.5128 15.3881 39.5883H10.651V37.5871C10.5284 37.7239 10.466 37.79 10.4077 37.8602C9.37373 39.0987 8.05307 39.7924 6.44448 39.9423C6.35762 39.9506 6.27255 39.9804 6.18629 40H5.29395C4.80852 39.9191 4.31535 39.8709 3.83944 39.7519C2.04703 39.304 0.744211 38.2986 0.205833 36.4646C0.118384 36.1623 0.0678178 35.85 0 35.5437C0 35.0088 0 34.4746 0 33.9398ZM10.394 32.1557C9.70449 32.1557 9.01144 32.1325 8.32077 32.1629C7.76038 32.1873 7.19285 32.2307 6.64555 32.3473C5.77522 32.5329 5.07206 32.9624 4.90311 33.9309C4.85611 34.2004 4.86087 34.483 4.87455 34.7578C4.91382 35.5401 5.28681 36.1035 6.02448 36.3997C6.7211 36.6793 7.43795 36.6745 8.15003 36.4842C9.27141 36.1844 10.175 35.5895 10.3731 34.3711C10.4886 33.6614 10.394 32.9184 10.394 32.1551V32.1557Z" fill="white"/>
<path d="M62.6422 39.9988C62.0854 39.9203 61.5244 39.8656 60.9724 39.7597C57.7593 39.1451 55.4976 36.856 54.9163 33.6222C54.5261 31.4508 54.5178 29.2818 55.2203 27.1705C56.2555 24.0592 58.4328 22.2288 61.6755 21.7273C63.3115 21.4744 64.9409 21.6071 66.5007 22.2068C69.0082 23.1705 70.3806 25.0676 70.9029 27.6405C71.1968 29.0885 71.0873 30.5537 71.1117 32.0552H59.6392C59.7534 33.4705 59.9616 34.8 61.102 35.7513C61.8106 36.342 62.6732 36.4824 63.5637 36.4187C64.9439 36.32 65.9677 35.6936 66.4793 34.3533C66.5061 34.2831 66.6125 34.1956 66.6821 34.1956C68.1384 34.1867 69.5947 34.1885 71.0897 34.1885C71.0766 34.3039 71.0748 34.3979 71.054 34.4871C70.421 37.1558 68.6994 38.7882 66.1265 39.5633C65.4418 39.7698 64.7107 39.8209 64.001 39.9435C63.9046 39.9601 63.8094 39.9798 63.7136 39.9982H62.6428L62.6422 39.9988ZM66.2675 28.7732C66.2062 28.3389 66.1771 27.9338 66.0878 27.5423C65.8285 26.3972 65.2354 25.5161 64.0307 25.2116C62.788 24.8975 61.6618 25.1223 60.7802 26.1063C60.1104 26.8535 59.8736 27.788 59.7374 28.7738H66.2669L66.2675 28.7732Z" fill="white"/>
<path d="M143.905 39.9988C143.455 39.9393 143.005 39.8893 142.557 39.8192C139.153 39.2855 136.741 36.8958 136.173 33.496C135.832 31.4633 135.841 29.4424 136.409 27.446C137.327 24.2145 139.85 22.0771 143.19 21.6987C144.766 21.5202 146.314 21.6416 147.804 22.2175C150.166 23.1306 151.534 24.8927 152.11 27.3157C152.174 27.5822 152.231 27.8505 152.292 28.1182V32.0385C152.164 32.0469 152.036 32.0623 151.909 32.0623C148.4 32.0635 144.89 32.0635 141.38 32.0635H140.991C141.055 32.524 141.093 32.9362 141.172 33.3408C141.548 35.242 142.489 36.2093 144.242 36.4045C145.717 36.5687 147.184 36.0101 147.795 34.4728C147.882 34.2545 147.981 34.1802 148.219 34.1819C149.577 34.1915 150.934 34.1808 152.293 34.1772V35.0088C152.267 35.0463 152.232 35.0802 152.216 35.1219C151.213 37.7269 149.284 39.2171 146.585 39.7668C146.055 39.8745 145.512 39.9233 144.975 39.9988H143.905ZM147.557 28.769C147.485 28.3092 147.449 27.8832 147.35 27.4722C147.075 26.3383 146.464 25.4894 145.265 25.2009C144.023 24.9022 142.916 25.1497 142.038 26.111C141.362 26.8523 141.096 27.7827 140.923 28.769H147.557Z" fill="white"/>
<path d="M110.174 39.9988C109.767 39.9274 109.351 39.884 108.953 39.7799C106.834 39.2284 105.673 37.787 105.249 35.7055C105.131 35.1278 105.075 34.5288 105.073 33.9392C105.057 30.0891 105.065 26.2389 105.065 22.3888C105.065 22.3007 105.065 22.2133 105.065 22.1026H110.014C110.019 22.2252 110.03 22.3495 110.03 22.4739C110.031 25.9974 110.027 29.521 110.034 33.0445C110.036 33.4877 110.049 33.9398 110.134 34.3723C110.387 35.6472 111.247 36.2867 112.59 36.248C114.341 36.1974 115.575 35.0059 115.588 33.2587C115.617 29.6857 115.603 26.1128 115.607 22.5399C115.607 22.4507 115.582 22.3513 115.614 22.2758C115.647 22.1984 115.735 22.089 115.798 22.0884C117.355 22.0794 118.911 22.083 120.467 22.086C120.494 22.086 120.521 22.1062 120.561 22.1223V39.5865H115.711V37.0892C115.46 37.4414 115.262 37.7573 115.027 38.0422C114.067 39.2022 112.804 39.7835 111.324 39.9387C111.218 39.95 111.113 39.9786 111.008 39.9994H110.175L110.174 39.9988Z" fill="white"/>
<path d="M25.9968 39.9988C25.4888 39.9286 24.9742 39.887 24.4727 39.7829C21.2115 39.1077 19.1889 37.1219 18.4316 33.9065C17.8605 31.4817 17.8997 29.0462 18.8105 26.6982C19.8932 23.9058 21.9652 22.2627 24.9201 21.7612C26.5679 21.4816 28.1991 21.5869 29.778 22.1663C32.1623 23.0408 33.5311 24.7767 34.0201 27.2366C34.0832 27.5537 34.1165 27.8773 34.1665 28.2205H29.4924C29.4401 28.0206 29.3943 27.8202 29.336 27.6238C29.0117 26.5334 28.3841 25.7232 27.2074 25.512C25.9183 25.2806 24.838 25.6744 24.042 26.7392C23.5197 27.4382 23.2567 28.2521 23.1598 29.1022C22.9926 30.5715 22.9694 32.0445 23.3162 33.4984C23.4691 34.1397 23.7249 34.7388 24.1693 35.2385C25.7612 37.0291 28.6679 36.4039 29.5061 34.088C29.6197 33.7739 29.6893 33.4437 29.7875 33.0933H34.2765C34.1855 33.6257 34.1361 34.1552 34.0023 34.662C33.2325 37.5877 31.305 39.2671 28.3556 39.815C27.91 39.8977 27.4567 39.9381 27.0069 39.9982H25.9956L25.9968 39.9988Z" fill="white"/>
<path d="M44.26 39.9988C43.7431 39.9239 43.2208 39.8757 42.7103 39.7686C39.5223 39.1023 37.5258 37.157 36.7507 34.0261C36.1677 31.6709 36.1861 29.2913 36.9988 26.9808C38.0333 24.0396 40.1267 22.2847 43.2077 21.7653C45.1756 21.4334 47.103 21.6154 48.9067 22.5334C50.7931 23.4929 51.8604 25.0771 52.2857 27.1194C52.3601 27.4757 52.4005 27.8398 52.46 28.2217H47.7872C47.7247 27.9915 47.6706 27.7529 47.5956 27.5209C47.2607 26.4793 46.6313 25.7184 45.5081 25.5138C44.2832 25.2907 43.2285 25.6321 42.4295 26.6155C41.7966 27.3948 41.5271 28.3276 41.4224 29.3003C41.2766 30.662 41.276 32.0267 41.5794 33.3735C41.6419 33.6513 41.7264 33.9279 41.8323 34.1927C42.3802 35.5603 43.4944 36.2956 44.9245 36.248C46.31 36.2022 47.3642 35.3955 47.8264 34.0166C47.9073 33.7744 47.94 33.5157 48.0233 33.2741C48.0525 33.1903 48.1673 33.0784 48.2434 33.0778C49.6414 33.0677 51.0388 33.0725 52.4368 33.0754C52.4553 33.0754 52.4731 33.0879 52.5683 33.1224C52.4707 33.665 52.4136 34.2337 52.2637 34.7762C51.4743 37.6329 49.5581 39.2641 46.6777 39.8132C46.2333 39.8983 45.78 39.9381 45.3308 39.9994H44.26V39.9988Z" fill="white"/>
<path d="M79.0512 39.6074C78.715 39.6074 78.4289 39.6074 78.1428 39.6074C76.8935 39.6074 75.6448 39.6014 74.3955 39.6121C74.1546 39.6139 74.0749 39.5526 74.0755 39.2998C74.0826 33.6578 74.0814 28.0153 74.079 22.3733C74.079 22.2014 74.0737 22.0723 74.3182 22.0741C75.8346 22.0836 77.3515 22.0789 78.8685 22.08C78.9161 22.08 78.9637 22.0919 79.0381 22.1021V24.619C79.1291 24.4917 79.1731 24.4376 79.2094 24.3781C80.2023 22.7636 81.6901 21.9712 83.5372 21.7606C84.4248 21.6595 85.3011 21.7029 86.1554 21.9605C87.9359 22.4971 88.971 23.7541 89.3886 25.5072C89.5814 26.3169 89.6694 27.1682 89.676 28.0016C89.7057 31.753 89.689 35.5044 89.689 39.2564V39.5895H84.7205C84.7205 39.4563 84.7205 39.3403 84.7205 39.2249C84.7193 35.6121 84.7229 31.9987 84.7104 28.3859C84.7092 28.0153 84.6461 27.6357 84.5545 27.2752C84.3267 26.3805 83.73 25.8576 82.824 25.6952C82.2618 25.5947 81.6978 25.6113 81.1458 25.7654C79.881 26.1176 79.0672 27.2033 79.0613 28.6108C79.047 32.1444 79.0535 35.6781 79.0512 39.2118C79.0512 39.3284 79.0512 39.445 79.0512 39.6074Z" fill="white"/>
<path d="M102.065 25.7363H98.7415C98.7415 25.8642 98.7415 25.9605 98.7415 26.0569C98.7415 28.6804 98.7403 31.3039 98.7439 33.9267C98.7439 34.1724 98.757 34.4223 98.8016 34.6632C98.9563 35.4889 99.4816 35.9345 100.329 35.9565C100.634 35.9648 100.943 35.9476 101.247 35.9101C101.548 35.8726 101.844 35.7941 102.169 35.7287C102.176 35.7989 102.192 35.8714 102.192 35.944C102.194 37.0529 102.191 38.1618 102.195 39.2701C102.196 39.4241 102.177 39.5312 101.999 39.5723C100.233 39.9798 98.4643 40.066 96.7224 39.4902C95.0222 38.928 94.1483 37.6585 93.8866 35.9405C93.8033 35.3955 93.7771 34.8369 93.7748 34.2849C93.764 31.5525 93.77 28.8202 93.77 26.0884V25.7386H91.748V22.0913H93.77V21.7445C93.77 20.8534 93.7652 19.9628 93.7771 19.0717C93.7783 18.9705 93.8521 18.8129 93.9336 18.7784C95.491 18.1204 97.0544 17.4762 98.6166 16.8307C98.6422 16.82 98.6731 16.823 98.7326 16.8164V22.0681H102.065V25.7363Z" fill="white"/>
<path d="M88.7854 0C89.2803 0.196315 89.7283 0.371808 90.1745 0.551466C94.5618 2.31949 98.9473 4.09167 103.338 5.85077C103.635 5.96975 103.738 6.1149 103.73 6.43377C103.708 7.40285 103.714 8.37312 103.728 9.34279C103.731 9.59146 103.65 9.70746 103.419 9.80026C98.8456 11.6355 94.2751 13.4791 89.7039 15.3215C89.4207 15.4357 89.1376 15.5487 88.8139 15.679C88.8014 15.5612 88.786 15.4791 88.7854 15.397C88.7836 14.071 88.7896 12.745 88.7794 11.419C88.7777 11.2006 88.8603 11.1078 89.0561 11.0359C91.7384 10.046 94.4178 9.04951 97.0978 8.05306C97.2329 8.0025 97.3637 7.93944 97.5755 7.84842C97.4036 7.76692 97.3066 7.71219 97.2037 7.67293C94.5059 6.64079 91.808 5.60627 89.106 4.58424C88.8621 4.49204 88.7765 4.37246 88.7788 4.1119C88.7919 2.85549 88.7848 1.59848 88.7848 0.341468C88.7848 0.246286 88.7848 0.150508 88.7848 0.00118979L88.7854 0Z" fill="white"/>
<path d="M129.211 25.2175C130.223 22.9635 131.984 21.8968 134.454 21.9063V26.7202C133.894 26.769 133.329 26.7785 132.779 26.8761C132.219 26.9754 131.647 27.1003 131.127 27.3216C129.688 27.9326 129.16 29.1361 129.154 30.6138C129.143 33.5139 129.15 36.414 129.15 39.3135V39.6805H124.222V22.1044H129.14V25.1973C129.164 25.2038 129.187 25.2104 129.211 25.2169V25.2175Z" fill="white"/>
</svg>
