<svg width="43" height="40" viewBox="0 0 43 40" fill="none" xmlns="http://www.w3.org/2000/svg">
<path d="M21.3664 16.6187C21.3868 17.3364 20.8961 18.0024 20.2727 18.2431C19.6276 18.492 18.8649 18.3315 18.3887 17.8303C18.0834 17.5089 17.9411 17.1199 17.8988 16.6847C17.8637 16.3246 17.8155 15.9657 17.7736 15.6061C17.7169 15.1187 17.6607 14.6312 17.6041 14.1438C17.5523 13.6989 17.5005 13.2539 17.4486 12.8091C17.3775 12.1995 17.3067 11.59 17.235 10.9806C17.1278 10.0664 17.02 9.15242 16.9122 8.23843C16.8346 7.5804 16.7577 6.92237 16.6787 6.26452C16.6114 5.70415 16.5399 5.14415 16.4732 4.5836C16.3693 3.712 16.2575 2.84113 16.1681 1.96787C16.0689 0.999162 16.6886 0.189844 17.6332 0.0238157C18.4882 -0.126365 19.3838 0.44985 19.592 1.29768C19.6502 1.53484 19.6716 1.78176 19.7002 2.02518C19.7879 2.77498 19.8703 3.52533 19.9556 4.27532C20.056 5.15926 20.1568 6.04321 20.2587 6.92698C20.3402 7.63421 20.4244 8.34089 20.5058 9.04812C20.5851 9.73692 20.6608 10.4261 20.7411 11.1147C20.82 11.7912 20.9055 12.4667 20.9833 13.1432C21.0653 13.8563 21.1404 14.5704 21.221 15.2837C21.2623 15.6493 21.31 16.0143 21.3527 16.3797C21.3619 16.4588 21.3619 16.5391 21.3664 16.6187Z" fill="white"/>
<path d="M16.0909 21.1529C16.092 21.943 15.3243 22.8336 14.184 22.7319C13.707 22.6893 13.3073 22.4662 13.0029 22.0875C11.9105 20.7291 10.8178 19.371 9.72615 18.012C8.9535 17.0501 8.18454 16.0852 7.41023 15.1248C6.31585 13.7677 5.21814 12.4131 4.12192 11.0576C3.95202 10.8475 3.78009 10.6393 3.61259 10.4274C2.77784 9.37115 3.36475 7.82345 4.69076 7.60878C5.33829 7.50393 5.90363 7.70183 6.32064 8.21503C7.21877 9.32047 8.09959 10.4397 8.9898 11.5514C9.6307 12.3515 10.2764 13.1476 10.9182 13.9468C11.6214 14.8226 12.3222 15.7005 13.0248 16.5771C13.7003 17.4201 14.3768 18.2626 15.0529 19.1051C15.2642 19.3684 15.4778 19.6297 15.6868 19.8949C15.9453 20.223 16.0946 20.5921 16.0909 21.1529Z" fill="white"/>
<path d="M31.4779 5.631C31.472 5.85728 31.4178 6.07141 31.341 6.27945C30.6932 8.03647 30.042 9.7922 29.3956 11.5496C28.8955 12.9093 28.4009 14.2713 27.9034 15.6321C27.68 16.2433 27.4639 16.8573 27.2297 17.4645C26.9501 18.1892 26.3916 18.5589 25.635 18.6018C25.2012 18.6263 24.8039 18.4699 24.4719 18.1717C24.0634 17.8049 23.8546 17.3503 23.8765 16.8017C23.8833 16.6327 23.92 16.4591 23.9756 16.2988C24.1992 15.6552 24.4345 15.0154 24.6676 14.375C24.9784 13.5213 25.2912 12.6681 25.6031 11.8148C25.9973 10.7364 26.3931 9.65879 26.785 8.5797C27.1939 7.45454 27.6015 6.32883 28.0044 5.20146C28.1262 4.86038 28.2845 4.54656 28.5677 4.31014C29.0735 3.88761 29.6464 3.75659 30.2724 3.96629C30.8983 4.17599 31.2765 4.62783 31.4287 5.26725C31.4569 5.38573 31.462 5.50956 31.4779 5.631Z" fill="white"/>
<path d="M1.79402 25.9649C1.95821 25.9859 2.12331 26.001 2.28621 26.0292C3.44122 26.2284 4.59531 26.4335 5.75069 26.6305C6.81541 26.812 7.88141 26.9852 8.94668 27.1631C10.012 27.3409 11.077 27.5202 12.1423 27.6987C12.4147 27.7444 12.6887 27.7811 12.9592 27.836C13.6836 27.9833 14.2331 28.5862 14.327 29.319C14.4486 30.2667 13.796 31.0961 12.8768 31.2408C12.6863 31.2708 12.4823 31.2624 12.2906 31.2321C11.3999 31.091 10.5115 30.9344 9.62185 30.7862C8.42336 30.5864 7.2243 30.3893 6.02544 30.1908C4.76613 29.9824 3.50682 29.7738 2.24751 29.566C2.00538 29.526 1.76233 29.491 1.52001 29.4515C0.747546 29.3255 0.193996 28.8117 0.0379181 28.0776C-0.194816 26.9825 0.675311 25.9395 1.79402 25.9649Z" fill="white"/>
<path d="M30.7257 38.1511C30.797 38.1806 30.8526 38.2007 30.9055 38.2261C31.6194 38.5683 32.3651 38.8106 33.1523 38.9024C33.8004 38.978 34.4492 38.9857 35.0936 38.8412C36.0273 38.6319 36.6487 38.0701 36.9942 37.1881C37.1589 36.7676 37.2632 36.3313 37.2807 35.8806C37.3038 35.2859 37.3064 34.6905 37.3169 34.0955C37.3172 34.0784 37.3089 34.0611 37.2957 34.0074C37.2367 34.0878 37.1923 34.1484 37.1479 34.209C36.7735 34.7213 36.3203 35.1473 35.7668 35.4615C35.3717 35.6856 34.9447 35.8185 34.4957 35.8747C33.7098 35.9732 32.9382 35.9064 32.1892 35.6412C31.2514 35.3091 30.5788 34.6734 30.1191 33.8031C29.7645 33.1318 29.5799 32.4098 29.496 31.6585C29.4435 31.1881 29.4137 30.7165 29.4317 30.2435C29.468 29.2886 29.6458 28.3662 30.0886 27.5088C30.535 26.6447 31.1569 25.9456 32.0491 25.5306C33.1612 25.0134 34.2908 24.9984 35.4196 25.4904C36.1523 25.8098 36.7427 26.3055 37.2092 26.9517C37.2478 27.0051 37.2879 27.0573 37.3491 27.1393C37.3753 26.962 37.3985 26.8188 37.4171 26.6751C37.4678 26.2857 37.5161 25.8962 37.566 25.5068C37.5894 25.325 37.5982 25.3165 37.7851 25.3145C37.9509 25.3126 38.1168 25.3119 38.2824 25.3148C38.4514 25.3178 38.4671 25.336 38.4721 25.5096C38.4732 25.5465 38.4724 25.5833 38.4724 25.6202C38.4724 28.7887 38.4711 31.9572 38.4734 35.1258C38.4737 35.7796 38.4223 36.4266 38.2476 37.0588C38.0598 37.7387 37.7516 38.3524 37.2373 38.8493C36.6535 39.4136 35.9523 39.7458 35.16 39.8888C33.8843 40.119 32.6408 39.9889 31.4322 39.5258C31.1401 39.414 30.8534 39.2875 30.5685 39.1587C30.4159 39.0896 30.4181 39.0788 30.469 38.9164C30.5296 38.7231 30.5915 38.5302 30.6544 38.3376C30.6728 38.2811 30.6969 38.2263 30.7257 38.1511ZM37.3172 30.0314H37.3187C37.3187 29.577 37.3167 29.1226 37.32 28.6682C37.3209 28.5532 37.2942 28.4535 37.2317 28.3562C36.9317 27.8885 36.5855 27.4625 36.167 27.0934C35.4622 26.4717 34.6534 26.1549 33.7061 26.2026C32.8571 26.2452 32.1482 26.5749 31.5958 27.2196C30.9855 27.9318 30.7187 28.7846 30.6234 29.7007C30.5687 30.2271 30.5738 30.7541 30.6173 31.2821C30.6767 32.0011 30.8491 32.6858 31.2018 33.3192C31.5588 33.9597 32.0659 34.4279 32.7663 34.674C33.213 34.8308 33.6723 34.8844 34.1437 34.8639C35.1552 34.8197 35.9573 34.3791 36.5577 33.5738C37.0663 32.8917 37.2911 32.1087 37.3148 31.266C37.3264 30.8549 37.3172 30.4429 37.3172 30.0314Z" fill="white"/>
<path d="M31.2545 21.3307C30.3697 21.3685 29.6079 20.5835 29.5364 19.8057C29.4866 19.2632 29.6392 18.802 29.9987 18.4019C30.413 17.941 30.827 17.4804 31.2424 17.0206C31.518 16.7156 31.7963 16.4131 32.0727 16.1088C32.5347 15.6001 32.9972 15.0918 33.4571 14.5812C33.8719 14.1207 34.2775 13.6518 34.6976 13.1964C35.504 12.3224 36.87 12.4514 37.4954 13.4542C37.8723 14.0586 37.8207 14.9074 37.3629 15.4567C37.1628 15.697 36.9463 15.9236 36.7348 16.1543C36.2704 16.6611 35.8027 17.1649 35.3395 17.6726C34.7398 18.3297 34.1432 18.9894 33.5452 19.6481C33.203 20.0251 32.8634 20.4046 32.5181 20.7788C32.3099 21.0045 32.0539 21.1639 31.7585 21.2456C31.5951 21.2907 31.4228 21.3034 31.2545 21.3307Z" fill="white"/>
<path d="M20.843 26.9156C20.8224 26.8721 20.8003 26.8356 20.787 26.7962C20.7223 26.6042 20.6584 26.412 20.5974 26.2189C20.5515 26.0735 20.5576 26.0593 20.6884 25.983C21.0673 25.7621 21.4755 25.6091 21.8906 25.4744C22.6633 25.2238 23.4582 25.1189 24.2683 25.1401C24.8483 25.1552 25.4187 25.2411 25.9588 25.4668C26.8165 25.8254 27.3651 26.4715 27.6727 27.3359C27.8328 27.7863 27.899 28.2525 27.899 28.729C27.899 30.9953 27.8991 33.2615 27.899 35.5279C27.899 35.5647 27.8975 35.6016 27.8958 35.6382C27.8929 35.7033 27.8584 35.7451 27.7939 35.746C27.5791 35.7492 27.3642 35.7495 27.1495 35.7473C27.0675 35.7464 27.0347 35.6922 27.025 35.6154C26.9922 35.3598 26.956 35.1048 26.9223 34.8492C26.8869 34.5814 26.8532 34.3137 26.8182 34.046C26.8145 34.0181 26.8062 33.991 26.793 33.9324C26.7272 34.0257 26.6796 34.0948 26.6304 34.1628C26.0548 34.9561 25.3074 35.5113 24.353 35.7551C23.4422 35.9878 22.526 36.009 21.6319 35.6777C20.5733 35.2854 19.9528 34.5186 19.7737 33.4023C19.6959 32.9177 19.7264 32.4358 19.836 31.9578C20.0306 31.1098 20.5204 30.4899 21.281 30.0777C21.8796 29.7534 22.5275 29.5929 23.1975 29.5215C23.5754 29.4814 23.9567 29.4611 24.3368 29.4556C25.049 29.4454 25.7616 29.4526 26.4742 29.4526C26.5234 29.4526 26.5726 29.4543 26.6216 29.4515C26.7545 29.4438 26.7731 29.4307 26.774 29.2999C26.7758 29.0421 26.7834 28.7832 26.7637 28.5265C26.7441 28.2702 26.7095 28.0131 26.6551 27.7619C26.4954 27.0247 26.0432 26.5504 25.3262 26.3215C24.9777 26.2102 24.6193 26.1584 24.2567 26.1505C23.6661 26.1376 23.0782 26.1756 22.5004 26.3103C21.9715 26.4333 21.464 26.6143 20.984 26.8701C20.9569 26.8844 20.9295 26.8983 20.9013 26.9101C20.8906 26.9145 20.8773 26.9126 20.843 26.9156ZM26.7377 30.4576H26.5241C25.9101 30.4576 25.2963 30.4611 24.6823 30.4565C24.1785 30.4529 23.6758 30.4663 23.1757 30.5299C22.7724 30.5811 22.3776 30.6697 22.0043 30.8356C21.4808 31.0683 21.131 31.4566 20.9606 32.0061C20.8515 32.3577 20.8331 32.7174 20.8537 33.0809C20.9013 33.9232 21.4008 34.5588 22.2109 34.7891C22.9096 34.9879 23.6158 34.9627 24.2981 34.7407C25.59 34.3203 26.4174 33.4484 26.7117 32.1067C26.8258 31.5863 26.7705 31.055 26.7677 30.528C26.7677 30.5168 26.7587 30.5059 26.7377 30.4576Z" fill="white"/>
<path d="M40.9993 28.5053C40.9993 26.1907 40.9993 23.8762 40.9993 21.5616C40.9993 21.36 41.1007 21.2591 41.3034 21.2588C41.5367 21.2588 41.77 21.2566 42.0032 21.2603C42.1512 21.2627 42.1715 21.2854 42.1805 21.4319C42.184 21.487 42.1822 21.5422 42.1822 21.5975C42.1822 26.2082 42.1822 30.819 42.1822 35.4296C42.1822 35.6447 42.0742 35.7524 41.8584 35.7527C41.6375 35.7527 41.4163 35.7551 41.1954 35.7514C41.0242 35.7484 41.0054 35.7272 40.9999 35.5596C40.9979 35.4982 40.9991 35.4368 40.9991 35.3755C40.9991 33.0855 40.9993 30.7952 40.9993 28.5053Z" fill="white"/>
</svg>
