<svg width="127" height="40" viewBox="0 0 127 40" fill="none" xmlns="http://www.w3.org/2000/svg">
<path d="M116.303 11.4743C116.303 5.13634 111.166 0 104.828 0C98.4905 0 93.3541 5.13634 93.3541 11.4743C93.3541 16.2749 96.2707 20.4607 100.485 22.0967C101.982 22.6777 102.727 22.3336 102.727 21.0982C102.727 19.4848 100.657 18.664 100.657 16.1198C100.657 13.8154 102.524 11.9481 104.828 11.9481C107.133 11.9481 109 13.8154 109 16.1198C109 18.1591 106.913 19.6456 106.913 21.0982C106.913 22.3336 107.655 22.6777 109.155 22.0967L109.344 22.0234C113.437 20.2689 116.303 16.2044 116.303 11.4714V11.4743ZM83.8656 23.9188C83.1407 24.5224 83.2958 25.5322 84.1364 26.542C84.6356 27.14 93.6616 37.9824 94.5332 39.0288C95.4047 40.0753 96.2453 40.2614 96.9702 39.6578C100.891 36.3916 101.136 30.2229 97.5174 25.8763C93.8985 21.5297 87.7862 20.6525 83.8656 23.9188ZM125.743 23.9188C121.823 20.6525 115.71 21.5297 112.091 25.8763C108.473 30.2229 108.718 36.3916 112.636 39.6578C113.361 40.2614 114.201 40.0753 115.073 39.0288C115.944 37.9824 124.973 27.14 125.47 26.542C126.31 25.5322 126.465 24.5224 125.74 23.9188H125.743Z" fill="white"/>
<path d="M24.6242 12.8338C24.4663 12.1286 23.6286 11.7591 22.6949 11.7591H20.3792C19.7841 11.7591 15.8747 11.8071 13.5054 15.6459C12.3207 17.4004 7.83877 24.466 7.83877 24.466H26.8525C26.8525 24.466 24.7822 13.5389 24.6242 12.8338ZM29.3742 37.6637L27.16 26.0314H18.055C19.0507 32.5273 19.6205 36.0362 19.7615 36.9359C19.9561 38.1686 21.2057 38.7383 21.8008 38.7383H28.2967C28.889 38.7383 29.5067 38.4534 29.3713 37.6637H29.3742ZM0.293627 36.62C-0.465118 37.8526 0.403631 38.7383 1.12571 38.7383H8.18006C8.87676 38.7383 9.67781 37.9796 10.3604 36.9359C11.0571 35.8782 13.9482 31.0888 16.9832 26.0314H6.93053L0.293627 36.62Z" fill="white"/>
<path d="M79.5698 11.7591H58.9145C58.3221 11.7591 57.8398 12.2415 57.8398 12.8338V18.255C57.8398 18.8473 58.3221 19.3297 58.9145 19.3297H68.0335L64.1918 24.466H75.2543C76.0976 23.3321 78.3287 20.3338 79.0649 19.3297C79.9816 18.0801 80.6445 17.2593 80.6445 16.0888V12.8338C80.6445 12.2386 80.1621 11.7591 79.5698 11.7591ZM79.5698 31.4357H69.9769L74.0188 26.0314H63.0777C62.1441 27.2866 60.116 30.0142 59.4193 30.9619C58.5026 32.2114 57.8398 33.0322 57.8398 34.2028V37.6467C57.8398 38.2419 58.3221 38.7214 58.9145 38.7214H79.5698C80.165 38.7214 80.6445 38.2391 80.6445 37.6467V32.5104C80.6445 31.9181 80.1621 31.4357 79.5698 31.4357Z" fill="white"/>
<path d="M55.2646 24.466V12.8338C55.2646 12.2386 54.7823 11.7591 54.1899 11.7591H47.8689C47.2766 11.7591 46.7943 12.2415 46.7943 12.8338V23.4308L41.122 13.5051C40.6651 12.7238 39.6525 11.7591 38.5468 11.7591H32.2258C31.6335 11.7591 31.1511 12.2415 31.1511 12.8338V24.466H38.1265L39.0207 26.0314H31.1511V37.6637C31.1511 38.2588 31.6335 38.7383 32.2258 38.7383H38.5468C39.1419 38.7383 39.6215 38.256 39.6215 37.6637V27.0864L45.3924 37.1842C46.075 38.2983 47.113 38.7411 47.8717 38.7411H54.1927C54.7879 38.7411 55.2674 38.2588 55.2674 37.6665V26.0343H48.2807L47.3866 24.4688H55.2674L55.2646 24.466Z" fill="white"/>
</svg>
