<svg width="160" height="36" viewBox="0 0 160 36" fill="none" xmlns="http://www.w3.org/2000/svg">
<path d="M0.306157 21.442C0.420514 21.9375 0.954182 22.0519 1.23055 22.0805L1.96434 22.1091C3.54628 21.2704 7.46302 19.1834 7.52019 19.1548C8.42552 18.097 7.62502 17.1155 7.18665 16.4389L6.64346 15.6765L0.963711 18.8213C0.268038 19.212 -0.113153 19.517 0.0297937 20.2889" fill="white"/>
<path d="M1.24007 22.071C0.963711 22.0424 0.420514 21.928 0.315687 21.442L1.03042 24.5963C1.23054 25.3492 1.70703 25.454 2.50753 25.5112L9.91217 25.921C10.7127 25.9972 11.9801 25.9877 12.247 27.3504C12.3423 26.8358 12.6091 25.4159 12.6091 25.4159C12.6567 25.1014 12.6567 24.7583 12.5805 24.3867C12.3232 23.2431 11.3035 22.4617 10.179 22.4331" fill="white"/>
<path d="M36.0714 23.4242C36.1857 22.9286 35.7474 22.5951 35.5091 22.4521L34.8611 22.1091C33.0695 22.1853 28.6382 22.3568 28.5715 22.3664C27.2945 22.9286 27.5899 24.158 27.6947 24.9585L27.8472 25.8829L34.3274 25.5112C35.1184 25.454 35.6044 25.3492 35.8046 24.5963" fill="white"/>
<path d="M7.18665 4.9936C6.45286 4.69818 5.96684 4.58382 5.46176 5.17467L4.71844 6.10858C4.40396 6.4993 4.65173 6.99485 4.80421 7.2331L5.24258 7.82394C6.8817 8.53868 10.9604 10.3017 11.0176 10.3207C12.409 10.3684 12.6758 9.12952 12.9331 8.36714L13.1904 7.47134" fill="white"/>
<path d="M21.853 1.23887C21.6243 0.476489 21.4146 0.0381191 20.6332 0H19.4324C18.9273 0 18.6986 0.495548 18.6128 0.762382L18.4223 1.47711C18.8892 3.202 20.0518 7.4904 20.0709 7.55711C20.9095 8.67209 22.034 8.10983 22.7964 7.83347L23.6541 7.48087" fill="white"/>
<path d="M34.1369 8.6435L33.3935 7.70959C33.079 7.31886 32.5454 7.44275 32.2785 7.53805L31.6019 7.83347C30.5441 9.282 27.9139 12.8557 27.8758 12.9128C27.5232 14.2661 28.6668 14.7997 29.3624 15.219L30.182 15.6669L33.9367 10.3684C34.3846 9.71084 34.6038 9.27247 34.1369 8.6435Z" fill="white"/>
<path d="M10.6174 34.0975L11.1034 33.5448C11.4274 31.7818 12.247 27.4172 12.2565 27.36C11.9897 25.9877 10.7222 26.0067 9.9217 25.9305L8.98778 25.8733L7.90139 32.2773C7.7775 33.0588 7.7775 33.5543 8.46364 33.9165L9.5405 34.4406C9.99793 34.6502 10.4172 34.3072 10.6174 34.0975Z" fill="white"/>
<path d="M18.6128 0.771911C18.6986 0.505078 18.9273 0.00952977 19.4324 0.00952977H16.2018C15.4204 0.0381191 15.2107 0.486018 14.982 1.2484L12.9236 8.3862C12.6663 9.14858 12.3994 10.3875 11.0081 10.3398C11.4941 10.5495 12.8187 11.1308 12.8187 11.1308C13.1142 11.2547 13.4477 11.3309 13.8289 11.3309C15.0011 11.3309 15.9922 10.5113 16.2781 9.42494" fill="white"/>
<path d="M4.79468 7.2331C4.6422 6.99485 4.39443 6.50883 4.70891 6.10858L2.69813 8.63397C2.23117 9.26294 2.45036 9.70131 2.89825 10.3589L7.19618 16.4198C7.63455 17.0964 8.43505 18.078 7.52972 19.1358C7.99668 18.888 9.27367 18.2114 9.27367 18.2114C9.55003 18.0589 9.81687 17.8397 10.0551 17.5443C10.7889 16.6295 10.7603 15.3429 10.0837 14.4471" fill="white"/>
<path d="M25.4552 35.3173C25.9127 35.0982 25.9031 34.5454 25.865 34.2691L25.7316 33.5448C24.5594 32.1916 21.6528 28.8371 21.6147 28.7799C20.3759 28.1319 19.6039 29.1325 19.0417 29.7138L18.4223 30.4095L22.7488 35.2506C23.2824 35.8415 23.6732 36.1464 24.3784 35.8319" fill="white"/>
<path d="M25.8745 34.2691C25.9127 34.5454 25.9222 35.0981 25.4648 35.3173L28.3809 33.9165C29.067 33.5543 29.067 33.0588 28.9431 32.2773L27.7042 24.9585C27.5994 24.158 27.304 22.9286 28.581 22.3664C28.0569 22.3854 26.6083 22.4426 26.6083 22.4426C26.2938 22.4617 25.9603 22.5379 25.6172 22.6999C24.5594 23.2145 24.0258 24.3772 24.2449 25.4826" fill="white"/>
<path d="M10.6174 34.0975C10.4268 34.2976 9.99793 34.6502 9.5405 34.4311L12.4471 35.8319C13.1618 36.1464 13.543 35.8415 14.0767 35.2506L19.0322 29.7138C19.5944 29.1325 20.3663 28.1319 21.6052 28.7799C21.2621 28.3797 20.3187 27.2837 20.3187 27.2837C20.109 27.0455 19.8327 26.8358 19.4896 26.6643C18.4318 26.1497 17.1834 26.4642 16.4591 27.3219" fill="white"/>
<path d="M35.5091 22.4426C35.7474 22.5856 36.1857 22.9191 36.0714 23.4146L36.7861 20.2603C36.9291 19.4979 36.5479 19.193 35.8522 18.7927L29.3529 15.2C28.6668 14.7807 27.5137 14.247 27.8663 12.8938C27.5518 13.3226 26.6941 14.4853 26.6941 14.4853C26.513 14.7426 26.3606 15.057 26.2748 15.4287C26.008 16.5723 26.5893 17.7254 27.5899 18.24" fill="white"/>
<path d="M32.2785 7.53805C32.5454 7.44275 33.0695 7.30933 33.3935 7.70959L31.3732 5.1842C30.8681 4.59335 30.3916 4.70771 29.6483 5.00313L22.7869 7.843C22.0245 8.11937 20.9 8.68162 20.0614 7.56664C20.2043 8.07172 20.576 9.47259 20.576 9.47259C20.6617 9.77755 20.8142 10.092 21.0525 10.3875C21.7863 11.3023 23.0442 11.5691 24.0639 11.1117" fill="white"/>
<path d="M54.8075 16.4637C54.3991 16.1145 53.8093 15.9516 52.9926 15.9516C52.3121 15.9516 51.7223 16.1378 51.2459 16.5102C50.7695 16.8826 50.3838 17.3715 50.0889 17.9301C49.794 18.512 49.5898 19.1405 49.4537 19.8155C49.3176 20.4905 49.2722 21.1189 49.2722 21.7009C49.2722 22.0966 49.3176 22.4923 49.4083 22.8414C49.4991 23.1905 49.6352 23.5164 49.8394 23.7725C50.0435 24.0285 50.2931 24.238 50.6107 24.4009C50.9283 24.5639 51.3139 24.6337 51.7676 24.6337C52.176 24.6337 52.5389 24.5639 52.8565 24.4242C53.1741 24.2845 53.4464 24.0983 53.6959 23.8656C53.9454 23.6328 54.1496 23.3768 54.3084 23.0742C54.4672 22.7716 54.6033 22.4457 54.6941 22.1198H58.3237C57.7793 23.819 56.9399 25.1225 55.8056 26.0303C54.6714 26.938 53.2422 27.4036 51.4954 27.4036C49.6352 27.4036 48.206 26.938 47.1625 26.007C46.119 25.0759 45.6199 23.6095 45.6199 21.6078C45.6199 20.4439 45.7787 19.3732 46.119 18.3491C46.4592 17.3249 46.9356 16.4171 47.5708 15.649C48.206 14.8809 49 14.2524 49.9074 13.8102C50.8148 13.3679 51.8811 13.1351 53.0834 13.1351C53.8774 13.1351 54.6487 13.2283 55.3519 13.4145C56.0779 13.6007 56.6904 13.9033 57.2348 14.299C57.7793 14.6947 58.1876 15.23 58.5052 15.8818C58.8228 16.5335 58.9816 17.3016 59.0043 18.1861H55.3746C55.3973 17.3947 55.2158 16.8128 54.8075 16.4637Z" fill="white"/>
<path d="M69.5077 17.7904C69.4396 17.4413 69.3262 17.1387 69.1674 16.8594C68.9859 16.5801 68.759 16.3473 68.4188 16.1844C68.1012 16.0214 67.6701 15.9283 67.1484 15.9283C66.6266 15.9283 66.1956 15.9981 65.7873 16.1611C65.4016 16.324 65.0613 16.5335 64.7664 16.7895C64.4715 17.0456 64.2446 17.3482 64.0405 17.6973C63.8363 18.0465 63.6775 18.4189 63.5414 18.7913H69.5984C69.5984 18.4654 69.5757 18.1163 69.5077 17.7904ZM63.1557 21.4215V21.9802C63.1557 22.7716 63.3826 23.4 63.859 23.8888C64.3354 24.3776 65.0613 24.6337 66.0595 24.6337C66.4224 24.6337 66.74 24.5871 67.0123 24.4708C67.2845 24.3544 67.534 24.2147 67.7609 24.0285C67.9651 23.8656 68.1692 23.6561 68.328 23.4233C68.4868 23.1905 68.6456 22.9811 68.7817 22.7716H72.4114C72.1165 23.5397 71.7762 24.2147 71.3906 24.7966C71.0049 25.3785 70.5285 25.8673 69.9841 26.2397C69.4396 26.6354 68.8044 26.9148 68.0785 27.1243C67.3526 27.3105 66.5132 27.4036 65.5604 27.4036C64.6757 27.4036 63.8817 27.2872 63.1557 27.0311C62.4298 26.7984 61.8173 26.426 61.2955 25.9139C60.7738 25.4251 60.3881 24.7966 60.1159 24.075C59.8437 23.3302 59.6849 22.4922 59.6849 21.5146C59.6849 20.4207 59.8663 19.3965 60.1839 18.3723C60.5242 17.3714 61.0006 16.4869 61.6358 15.6955C62.2483 14.9274 63.0196 14.299 63.927 13.8334C64.8345 13.3679 65.8326 13.1351 66.9669 13.1351C67.897 13.1351 68.7364 13.2515 69.485 13.5076C70.2336 13.7636 70.8915 14.1128 71.4359 14.6248C71.9804 15.1136 72.3887 15.7421 72.6836 16.4869C72.9785 17.2318 73.1373 18.093 73.1373 19.0706C73.1373 19.7456 73.0693 20.4439 72.9332 21.1888H63.2011C63.1557 21.2586 63.1557 21.3517 63.1557 21.4215Z" fill="white"/>
<path d="M78.9675 13.5076L78.5592 15.393H78.6045C79.7842 13.9033 81.3268 13.1351 83.2324 13.1351C85.7958 13.1351 87.0889 14.3455 87.0889 16.7895C87.0889 16.9292 87.0662 17.1154 87.0435 17.3249C86.9982 17.5344 86.9755 17.7672 86.9301 17.9999C86.8847 18.2327 86.8394 18.4422 86.794 18.6516C86.7486 18.8611 86.7259 19.0241 86.7033 19.1405L85.0699 27.0777H81.4402L83.0509 19.1405C83.0736 18.931 83.1416 18.6516 83.187 18.3025C83.2551 17.9534 83.2778 17.674 83.2778 17.4878C83.2778 17.0921 83.0963 16.743 82.7333 16.4869C82.3703 16.2309 81.962 16.0913 81.5536 16.0913C81.0092 16.0913 80.5328 16.2076 80.1018 16.4171C79.6934 16.6266 79.3305 16.9292 79.0356 17.2783C78.7407 17.6275 78.4911 18.0232 78.2869 18.4887C78.0828 18.9542 77.9467 19.3965 77.8332 19.8853L76.3587 27.101H72.7517L75.4966 13.5541" fill="white"/>
<path d="M97.2974 13.5076L96.7302 15.9981H94.1441L92.783 22.725C92.7376 22.8647 92.7149 22.9811 92.7149 23.0974C92.6922 23.2138 92.6922 23.2837 92.6922 23.3535C92.6922 23.6095 92.7376 23.7957 92.8056 23.9121C92.8737 24.0518 92.9871 24.1449 93.1006 24.2147C93.214 24.2845 93.3501 24.3311 93.4862 24.3311C93.6223 24.3311 93.7811 24.3544 93.9172 24.3544C94.3709 24.3544 94.802 24.3311 95.2103 24.2845L94.5978 27.1475C94.2121 27.1941 93.8492 27.2174 93.4635 27.2406C93.1006 27.2639 92.7149 27.2872 92.3066 27.2872C91.8755 27.2872 91.4672 27.2406 91.0362 27.1708C90.6278 27.101 90.2422 26.9613 89.9019 26.7518C89.5616 26.5423 89.3121 26.2863 89.1079 25.9372C88.9037 25.588 88.813 25.1458 88.8357 24.5638C88.8357 24.3776 88.8584 24.1914 88.8811 23.9819C88.9037 23.7725 88.9491 23.5397 89.0172 23.2836L90.4917 16.0214H88.1098L88.6769 13.5308H90.9908L91.8075 9.41092H95.4372L94.6205 13.5308" fill="white"/>
<path d="M102.061 13.5076L101.517 15.9516L101.562 15.9981C101.971 15.0438 102.583 14.3455 103.422 13.8567C104.239 13.3679 105.147 13.1351 106.122 13.1351C106.508 13.1351 106.871 13.1584 107.256 13.205L106.508 16.8128C106.258 16.7663 105.986 16.7197 105.736 16.6499C105.487 16.6033 105.215 16.5801 104.965 16.5801C104.262 16.5801 103.672 16.6964 103.196 16.9525C102.719 17.2085 102.311 17.5344 101.971 17.9534C101.63 18.3723 101.381 18.8611 101.177 19.3732C100.972 19.9086 100.814 20.4672 100.7 21.0258L99.4752 27.0311H95.8682L98.6131 13.4843" fill="white"/>
<path d="M116.353 17.7904C116.285 17.4413 116.172 17.1387 116.013 16.8594C115.831 16.5801 115.605 16.3473 115.264 16.1844C114.947 16.0214 114.516 15.9283 113.994 15.9283C113.472 15.9283 113.041 15.9981 112.633 16.1611C112.247 16.324 111.907 16.5335 111.612 16.7895C111.317 17.0456 111.067 17.3482 110.886 17.6973C110.682 18.0465 110.523 18.4189 110.387 18.7913H116.444C116.444 18.4654 116.399 18.1163 116.353 17.7904ZM109.979 21.4215V21.9802C109.979 22.7716 110.205 23.4 110.704 23.8888C111.181 24.3776 111.907 24.6337 112.905 24.6337C113.268 24.6337 113.586 24.5871 113.858 24.4708C114.13 24.3544 114.38 24.2147 114.606 24.0285C114.811 23.8656 115.015 23.6561 115.174 23.4233C115.332 23.1905 115.491 22.9811 115.627 22.7716H119.257C118.962 23.5397 118.622 24.2147 118.236 24.7966C117.85 25.3785 117.374 25.8673 116.83 26.2397C116.285 26.6354 115.65 26.9148 114.924 27.1243C114.198 27.3105 113.359 27.4036 112.406 27.4036C111.521 27.4036 110.704 27.2872 110.001 27.0311C109.275 26.7984 108.663 26.426 108.141 25.9139C107.642 25.4251 107.234 24.7966 106.961 24.075C106.689 23.3302 106.53 22.4922 106.53 21.5146C106.53 20.4207 106.689 19.3965 107.029 18.3723C107.37 17.3714 107.846 16.4869 108.481 15.6955C109.094 14.9274 109.865 14.299 110.773 13.8334C111.68 13.3679 112.701 13.1351 113.812 13.1351C114.742 13.1351 115.582 13.2515 116.33 13.5076C117.079 13.7636 117.737 14.1128 118.281 14.6248C118.826 15.1136 119.234 15.7421 119.529 16.4869C119.824 17.2318 119.983 18.093 119.983 19.0706C119.983 19.7456 119.915 20.4439 119.779 21.1888H110.047C109.979 21.2586 109.979 21.3517 109.979 21.4215Z" fill="white"/>
<path d="M127.469 8.34022L123.567 27.0544H119.983L123.839 8.34022" fill="white"/>
<path d="M128.513 11.4127L129.17 8.34022H132.823L132.165 11.4127M131.757 13.5076L128.944 27.0544H125.314L128.104 13.5076H131.757Z" fill="white"/>
<path d="M137.065 13.5076L136.657 15.393H136.702C137.882 13.9033 139.424 13.1351 141.33 13.1351C143.893 13.1351 145.186 14.3455 145.186 16.7895C145.186 16.9292 145.164 17.1154 145.141 17.3249C145.118 17.5344 145.073 17.7672 145.028 17.9999C144.982 18.2327 144.937 18.4422 144.891 18.6516C144.846 18.8611 144.823 19.0241 144.801 19.1405L143.167 27.0777H139.538L141.148 19.1405C141.171 18.931 141.216 18.6516 141.284 18.3025C141.353 17.9534 141.375 17.674 141.375 17.4878C141.375 17.0921 141.194 16.743 140.831 16.4869C140.468 16.2309 140.059 16.0913 139.651 16.0913C139.107 16.0913 138.63 16.2076 138.199 16.4171C137.791 16.6266 137.428 16.9292 137.133 17.2783C136.838 17.6275 136.589 18.0232 136.384 18.4887C136.18 18.9542 136.044 19.3965 135.931 19.8853L134.456 27.101H130.849L133.594 13.5541" fill="white"/>
<path d="M152.355 8.34022L150.268 18.512L150.313 18.5586L155.531 13.5076H160L154.056 18.6284L157.459 27.0544H153.489L151.311 21.0026L149.429 22.6552L148.521 27.0544H144.914L148.725 8.34022" fill="white"/>
</svg>
