<svg width="160" height="30" viewBox="0 0 160 30" fill="none" xmlns="http://www.w3.org/2000/svg">
<path d="M34.2999 14.1303C34.4347 14.3225 34.5055 14.4896 34.5159 14.6539L33.4908 14.0457C25.6541 9.3959 17.9057 4.79837 10.1572 0.194565L10.2178 0.0134492L13.6181 0.0140469C17.0479 0.0149435 20.4786 0.0158402 23.9135 0C24.4325 0 24.7358 0.161091 25.0256 0.590569C28.0991 5.11278 31.1927 9.62812 34.2999 14.1303Z" fill="white"/>
<path d="M34.5163 14.7334C34.5177 14.7068 34.5176 14.6805 34.5159 14.6539L34.5829 14.6937L34.5163 14.7334Z" fill="white"/>
<path d="M34.5163 14.7334C34.507 14.9035 34.4335 15.0744 34.2999 15.2708L32.1998 18.3259C31.5042 19.3393 30.8092 20.3534 30.1143 21.3675L30.0127 21.5154L30.0114 21.5175C28.317 23.9898 26.6224 26.4626 24.9178 28.9313C24.7628 29.1528 24.4123 29.3608 24.1562 29.3608C19.5892 29.3877 15.0223 29.3808 10.4553 29.3742H10.4267C10.3842 29.3742 10.3415 29.3608 10.2562 29.3339C10.2067 29.3183 10.1427 29.2983 10.0561 29.2735L10.0426 29.2669C12.085 28.0535 14.1207 26.8449 16.1527 25.6386L19.8359 23.4524L19.9287 23.3977C24.7887 20.5127 29.6371 17.6346 34.5163 14.7334Z" fill="white"/>
<path d="M0 15.1097H0.0113944C3.23147 19.7237 6.35059 24.19 9.51018 28.7098C13.0824 26.5896 16.5804 24.5098 20.1459 22.3896C19.5602 21.5725 18.9809 20.7617 18.4049 19.9556L18.4001 19.9487C17.8527 19.1824 17.3082 18.4206 16.7642 17.6612C16.4034 17.1579 16.0429 16.6555 15.6818 16.1543L15.0976 15.3446C14.9965 15.2039 14.7404 15.1166 14.5584 15.1166C9.76994 15.1097 4.98815 15.1097 0.0113944 15.1097L0.00672459 15.1031L0 15.1097Z" fill="white"/>
<path d="M0.0539088 14.2107V14.2173L0.0577194 14.2119C0.115663 14.2304 0.162362 14.2475 0.201402 14.2615C0.274102 14.2878 0.320464 14.3046 0.36395 14.3046C5.06847 14.3114 9.77976 14.318 14.4843 14.3046C14.6932 14.3046 14.983 14.2107 15.0976 14.0565C16.7206 11.8269 18.3186 9.58479 19.9639 7.27631L20.1526 7.01151L9.50338 0.684414C6.3234 5.23144 3.20401 9.69836 0.0577194 14.2119L0.0539088 14.2107Z" fill="white"/>
<path d="M159.999 21.2351C159.511 21.2205 159.021 21.2254 158.535 21.1884C155.988 20.9937 154.14 19.0193 154.135 16.4768C154.128 12.4158 154.133 8.35417 154.133 4.29319C154.133 4.01182 154.133 3.73107 154.133 3.42969H156.494V7.19233C156.665 7.19233 156.804 7.19355 156.943 7.19233C157.962 7.18445 158.98 7.17596 159.999 7.16747V9.53239H156.517C156.507 9.5997 156.497 9.6379 156.497 9.67671C156.497 11.9992 156.486 14.3216 156.506 16.6441C156.514 17.6677 157.304 18.6143 158.326 18.7992C158.871 18.8975 159.442 18.852 160 18.8714V21.2363L159.999 21.2351Z" fill="white"/>
<path d="M84.741 8.72589V7.21053H87.0606C87.0606 7.34757 87.0606 7.46642 87.0606 7.58527C87.0606 11.8591 87.0631 16.1323 87.06 20.4062C87.0576 24.1585 84.5168 27.1534 80.7881 27.8083C77.4231 28.399 73.9571 26.39 72.8377 23.1986C72.8047 23.1046 72.7808 23.0076 72.7434 22.8808C72.8524 22.8729 72.9388 22.862 73.0251 22.862C73.6779 22.8608 74.3307 22.8693 74.9835 22.8566C75.1929 22.8523 75.3031 22.9184 75.4091 23.1046C76.1341 24.3804 77.2149 25.2057 78.6736 25.4804C81.316 25.9783 83.869 24.3537 84.5873 21.7578C84.7918 21.0174 84.7881 20.2685 84.7612 19.4644C82.8843 21.0416 80.7691 21.6778 78.3742 21.2521C76.5389 20.9258 75.0643 19.9871 73.9333 18.5245C71.7177 15.6599 71.9669 11.5935 74.4832 9.03636C77.1549 6.32095 81.6712 6.00745 84.7422 8.72528L84.741 8.72589ZM74.6932 14.1355C74.6846 16.8667 76.9375 19.1109 79.7012 19.1249C82.455 19.1388 84.7006 16.9419 84.7097 14.2252C84.7183 11.4734 82.4758 9.21585 79.7324 9.21403C76.9706 9.21221 74.7018 11.4286 74.6938 14.1349L74.6932 14.1355Z" fill="white"/>
<path d="M134.569 8.86657V7.28026H136.899V21.1842H134.565V19.5833C132.604 21.2169 130.426 21.8421 127.971 21.343C126.259 20.995 124.87 20.0975 123.79 18.7374C121.598 15.9759 121.727 12.0149 124.027 9.41535C126.414 6.71814 131.057 5.81462 134.569 8.86657ZM134.562 14.1907C134.554 11.4468 132.309 9.26861 129.5 9.27892C126.745 9.28923 124.549 11.5062 124.552 14.2737C124.556 16.9734 126.775 19.1855 129.483 19.1879C132.272 19.1909 134.569 16.9303 134.562 14.1907Z" fill="white"/>
<path d="M71.245 14.2149C71.2382 18.2147 67.9633 21.4601 63.9284 21.4649C59.8849 21.4698 56.5983 18.2092 56.602 14.1955C56.605 10.157 59.8524 6.92249 63.8873 6.93947C67.9749 6.95645 71.2517 10.1964 71.245 14.2149ZM63.9161 9.21403C61.1543 9.21767 58.88 11.4425 58.8794 14.1397C58.8794 16.8679 61.1292 19.1218 63.8567 19.1249C66.654 19.1285 68.91 16.9218 68.9033 14.1901C68.8965 11.4613 66.6412 9.20979 63.9161 9.21403Z" fill="white"/>
<path d="M120.853 7.28754C120.853 8.03703 120.86 8.77198 120.844 9.50571C120.841 9.60515 120.731 9.71309 120.65 9.7992C117.909 12.7384 115.166 15.6757 112.423 18.6137C112.361 18.6798 112.303 18.7483 112.201 18.8611H120.896V21.1854H109.194C109.194 20.4389 109.185 19.7033 109.203 18.9684C109.205 18.8599 109.319 18.7416 109.405 18.6501C112.132 15.7254 114.862 12.8032 117.591 9.88045C117.664 9.80223 117.732 9.71916 117.836 9.59788H109.213V7.28814H120.852L120.853 7.28754Z" fill="white"/>
<path d="M89.4427 7.27844H91.774V8.35842C91.8775 8.29778 91.9375 8.26989 91.9896 8.23108C95.9957 5.26887 101.661 7.67502 102.258 12.5953C102.291 12.8754 102.293 13.1604 102.293 13.443C102.296 15.9189 102.295 18.3948 102.295 20.8706V21.1896H99.9498V20.8252C99.9498 18.3596 99.9516 15.8934 99.9498 13.4278C99.9479 11.3255 98.5315 9.66397 96.4476 9.31288C94.1941 8.93328 91.913 10.6942 91.8126 12.9542C91.7471 14.4272 91.7881 15.9043 91.7844 17.3797C91.7814 18.5518 91.7765 19.7246 91.79 20.8967C91.793 21.1532 91.7122 21.2236 91.4611 21.2163C90.8904 21.1993 90.3184 21.2114 89.7477 21.2102C89.6485 21.2102 89.5493 21.2017 89.4446 21.1969V7.27844H89.4427Z" fill="white"/>
<path d="M152.22 21.1502H150.584C150.103 21.1502 149.863 20.9141 149.863 20.4419C149.863 18.0776 149.869 15.7127 149.86 13.3484C149.853 11.2582 148.471 9.6379 146.399 9.26679C144.21 8.87446 142.014 10.4426 141.695 12.6322C141.655 12.9112 141.636 13.195 141.636 13.4769C141.631 15.9225 141.633 18.3675 141.633 20.813C141.633 20.9325 141.633 21.0526 141.633 21.1908H139.307V7.28511H141.627V8.37964C141.756 8.29111 141.838 8.23835 141.915 8.18075C145.716 5.39015 151.261 7.56587 152.091 12.1799C152.173 12.6347 152.212 13.1028 152.214 13.5649C152.227 15.9595 152.22 18.3547 152.22 20.7494V21.1502Z" fill="white"/>
<path d="M55.3325 16.2876C54.6522 18.9866 51.774 21.6717 47.9241 21.4528C43.5371 21.2036 41.2217 17.5713 41.0361 14.9426C40.8818 12.759 41.4066 10.8179 42.9394 9.19706C44.2848 7.77386 45.962 7.00678 47.91 6.88671C51.8543 6.64295 54.7006 9.46205 55.3368 12.0544C54.8726 12.0544 54.4134 12.0119 53.9651 12.0641C53.2554 12.1459 52.8279 11.9282 52.4011 11.2976C51.1402 9.43779 48.7153 8.74651 46.6283 9.52147C44.5475 10.294 43.2119 12.3982 43.395 14.6133C43.5744 16.7763 45.1715 18.5797 47.3117 19.0363C49.4556 19.4935 51.695 18.4888 52.7385 16.5823C52.8647 16.3512 52.9982 16.2748 53.256 16.2815C53.9375 16.3003 54.6203 16.2876 55.3325 16.2876Z" fill="white"/>
<path d="M106.791 21.1957H104.498V7.27844H106.791V21.1957Z" fill="white"/>
<path d="M104.099 3.71712C104.099 2.85908 104.77 2.1963 105.631 2.20357C106.474 2.21024 107.143 2.83907 107.149 3.63162C107.156 4.54423 106.512 5.22096 105.631 5.22581C104.762 5.23067 104.099 4.57819 104.099 3.71712Z" fill="white"/>
</svg>
