<svg width="160" height="31" viewBox="0 0 160 31" fill="none" xmlns="http://www.w3.org/2000/svg">
<path d="M67.1921 0.0151039C69.4377 -0.0758829 71.5507 0.341301 73.5612 1.16986C76.4011 2.33914 78.6768 4.23535 80.361 6.81492C81.3163 8.27845 81.9484 9.87169 82.3762 11.5743C82.9299 13.7773 82.9464 15.9939 82.5843 18.1912C82.1178 21.0176 80.9079 23.5255 78.9875 25.6995C77.7504 27.0992 76.3043 28.2055 74.682 29.0709C73.3647 29.7736 71.9428 30.2266 70.4628 30.5257C68.6547 30.8926 66.8436 30.9255 65.0336 30.7145C63.3058 30.5131 61.6487 30.0437 60.0612 29.2751C57.6201 28.0933 55.6406 26.4023 54.1393 24.1673C53.093 22.6079 52.3051 20.9101 51.9847 19.043C51.7814 17.8563 51.6188 16.656 51.552 15.4558C51.5065 14.6456 51.6033 13.8151 51.733 13.0098C52.1318 10.528 53.0262 8.2407 54.5246 6.20124C56.1653 3.96916 58.2609 2.28687 60.7998 1.2202C62.845 0.36066 65.0026 -0.0962097 67.1931 0.0170398L67.1921 0.0151039ZM66.4322 25.9735C69.3235 25.988 71.2749 25.414 72.992 24.1673C75.5348 22.3204 76.8783 19.7699 77.189 16.6705C77.3797 14.7705 77.2026 12.9004 76.4398 11.1281C75.2589 8.38299 73.3366 6.36095 70.4696 5.40656C69.4019 5.05132 68.2384 4.86548 67.1127 4.83547C66.1535 4.8103 65.172 5.06584 64.2234 5.29137C62.6011 5.67758 61.2208 6.55648 60.0806 7.73834C58.4622 9.41676 57.4971 11.4669 57.2126 13.7764C56.9067 16.2592 57.2445 18.679 58.5203 20.8695C60.4465 24.177 63.3735 25.8583 66.4332 25.9744L66.4322 25.9735Z" fill="white"/>
<path d="M118.061 30.2857C116.527 30.2857 115.13 30.2857 113.731 30.2857C113.521 30.2857 113.305 30.2508 113.103 30.2915C112.167 30.4802 111.645 30.0059 111.144 29.2741C109.27 26.5378 107.341 23.8382 105.428 21.1289C104.43 19.7167 104.862 19.9906 103.124 19.9741C101.689 19.9606 100.253 19.9703 98.8178 19.9654C98.1731 19.9635 98.1237 20.0041 98.1237 20.6381C98.1237 23.6388 98.1237 26.6384 98.1257 29.6391C98.1257 30.2915 98.1237 30.2876 97.5004 30.2866C96.1298 30.2847 94.7592 30.2818 93.3886 30.3021C92.9849 30.3079 92.8252 30.1327 92.8252 29.7601C92.8262 29.0186 92.8349 28.2762 92.8349 27.5348C92.8359 18.9055 92.8359 10.2753 92.8368 1.64609C92.8368 1.62964 92.8368 1.61415 92.8368 1.59769C92.8039 0.39841 92.6403 0.479718 93.9742 0.479718C98.2002 0.479718 102.426 0.440032 106.652 0.489397C109.627 0.524243 112.396 1.28118 114.651 3.34967C115.523 4.1492 116.124 5.15683 116.572 6.26609C117.212 7.85062 117.317 9.49226 117.166 11.1581C116.921 13.8645 115.711 16.0501 113.417 17.5339C112.552 18.0934 111.554 18.4525 110.602 18.8716C110.193 19.0527 110.318 19.2801 110.483 19.5163C111.008 20.2684 111.546 21.0118 112.081 21.7581C113.27 23.421 114.458 25.0849 115.649 26.7459C116.335 27.7003 117.03 28.6479 117.71 29.6052C117.835 29.7814 117.912 29.9914 118.062 30.2857H118.061ZM98.1247 10.225C98.1247 11.7243 98.1228 13.2227 98.1266 14.7221C98.1266 15.0231 98.1315 15.2873 98.5825 15.2825C100.887 15.2593 103.192 15.2486 105.497 15.2641C106.672 15.2719 107.811 15.115 108.894 14.6601C110.031 14.1829 110.915 13.3998 111.434 12.2722C111.913 11.2307 111.974 10.1301 111.71 9.01506C111.485 8.06647 111.052 7.24469 110.27 6.62907C109.024 5.64758 107.562 5.32235 106.027 5.30299C103.577 5.27201 101.127 5.30299 98.6774 5.2875C98.268 5.2846 98.1073 5.38236 98.115 5.82568C98.1412 7.29212 98.1247 8.75855 98.1257 10.226L98.1247 10.225Z" fill="white"/>
<path d="M127.353 15.3532C127.353 10.5783 127.359 5.80438 127.342 1.02951C127.34 0.583288 127.505 0.46907 127.904 0.470038C131.71 0.476814 135.517 0.446808 139.323 0.490365C140.968 0.508756 142.57 0.854312 144.151 1.35377C146.179 1.99552 147.993 2.99734 149.579 4.38731C150.881 5.52852 151.927 6.88751 152.726 8.44591C153.408 9.77877 153.938 11.162 154.116 12.6342C154.278 13.9874 154.318 15.3667 154.279 16.7305C154.221 18.7894 153.597 20.7272 152.622 22.5256C151.411 24.7587 149.699 26.5387 147.534 27.8997C145.761 29.0147 143.826 29.6836 141.797 30.0592C140.728 30.2566 139.616 30.2702 138.523 30.2779C134.991 30.305 131.458 30.2866 127.926 30.2992C127.467 30.3011 127.344 30.0911 127.345 29.6768C127.352 24.9029 127.349 20.128 127.349 15.3541H127.354L127.353 15.3532ZM132.646 15.3232H132.651C132.651 16.3869 132.651 17.4507 132.651 18.5154C132.651 20.643 132.651 22.7715 132.649 24.899C132.649 25.203 132.643 25.503 133.078 25.4953C135.428 25.4566 137.786 25.5214 140.127 25.354C142.678 25.172 144.836 24.0376 146.513 22.0707C147.804 20.5578 148.504 18.7836 148.735 16.8244C148.938 15.0899 148.765 13.3911 148.187 11.7321C147.69 10.3063 146.908 9.05862 145.82 8.03453C144.085 6.40064 141.976 5.49367 139.613 5.36107C137.427 5.23814 135.23 5.3117 133.038 5.29331C132.711 5.29041 132.64 5.45205 132.641 5.74824C132.648 8.94053 132.646 12.1318 132.646 15.3241V15.3232Z" fill="white"/>
<path d="M0.00991472 15.3309C0.00991472 10.5415 0.0137865 5.75115 0.00217115 0.961754C0.00120321 0.566833 0.136716 0.470038 0.509374 0.470038C7.52407 0.477782 14.5397 0.475846 21.5544 0.47391C22.2175 0.47391 22.2407 0.495205 22.2407 1.13695C22.2388 2.36237 22.2243 3.58876 22.2523 4.81321C22.261 5.19555 22.1149 5.30396 21.779 5.29331C21.6019 5.2875 21.4247 5.29331 21.2466 5.29331C16.1823 5.29331 11.119 5.29331 6.05473 5.29331C5.51849 5.29331 5.25005 5.55756 5.2494 6.08606C5.2494 8.35976 5.25715 10.6335 5.24166 12.9072C5.23972 13.2537 5.36749 13.3776 5.68401 13.3776C6.13507 13.3776 6.5871 13.3815 7.03816 13.3815C11.2952 13.3815 15.5532 13.3892 19.8102 13.3718C20.2729 13.3698 20.3871 13.5218 20.3784 13.9564C20.3532 15.1818 20.3513 16.4082 20.3784 17.6327C20.389 18.0799 20.2555 18.2105 19.8044 18.2086C15.257 18.1921 10.7086 18.198 6.16121 18.198C6.03247 18.198 5.90276 18.2047 5.77403 18.1989C5.39556 18.1844 5.24166 18.3257 5.24359 18.74C5.26005 22.3524 5.25424 25.9647 5.25715 29.5771C5.25715 30.2556 5.23391 30.2818 4.57668 30.2808C3.22252 30.2789 1.8674 30.2624 0.513246 30.2992C0.0921901 30.3108 0.00217115 30.1269 0.000235264 29.7949C-0.00170063 29.1822 0.00894677 28.5695 0.00894677 27.9568C0.00894677 23.7482 0.00894677 19.5386 0.00894677 15.329H0.00604294L0.00991472 15.3309Z" fill="white"/>
<path d="M42.042 11.5046C42.042 14.5043 42.0565 17.503 42.0371 20.5026C42.0207 23.1054 41.4554 25.5524 39.7586 27.6151C38.7326 28.8637 37.4007 29.6681 35.8645 30.1685C34.1987 30.7106 32.5009 30.8897 30.7664 30.7203C27.4812 30.3999 24.7864 28.9741 22.7324 26.3703C22.4972 26.0722 22.4953 25.8331 22.7934 25.5359C23.6955 24.6387 24.5657 23.7085 25.4456 22.7889C25.8908 22.3233 25.8976 22.3301 26.31 22.816C27.2876 23.9688 28.3794 24.9997 29.8342 25.5011C31.8766 26.2048 34.3807 26.0035 35.7068 23.8701C36.3456 22.8431 36.5866 21.7077 36.5857 20.5075C36.5808 14.0416 36.5847 7.57572 36.5673 1.10888C36.5663 0.621038 36.7057 0.459391 37.1935 0.466166C38.6609 0.489397 40.1283 0.476814 41.5957 0.468102C41.9132 0.466166 42.0565 0.555217 42.0555 0.910453C42.0439 4.44152 42.0487 7.97258 42.0487 11.5036H42.042V11.5046Z" fill="white"/>
<path d="M159.239 2.17072C158.871 2.73213 158.503 3.29257 158.137 3.85397C157.874 4.25858 157.722 4.26825 157.444 3.87237C157.079 3.35161 156.726 2.82214 156.367 2.29655C156.319 2.30139 156.27 2.3072 156.223 2.31204C156.192 2.49885 156.137 2.6847 156.135 2.87151C156.127 3.50067 156.158 4.13081 156.127 4.75804C156.119 4.91775 155.939 5.06875 155.838 5.22458C155.731 5.07359 155.534 4.92355 155.53 4.77062C155.506 3.61005 155.512 2.44852 155.535 1.28795C155.537 1.14373 155.661 0.924972 155.779 0.882383C155.897 0.840761 156.14 0.933684 156.22 1.045C156.66 1.65771 157.102 2.27526 157.472 2.93055C157.718 3.36419 157.891 3.18028 158.061 2.93636C158.429 2.40883 158.765 1.85807 159.124 1.32473C159.22 1.18148 159.335 1.02757 159.479 0.944331C159.737 0.7943 159.982 0.845601 159.987 1.19213C160.004 2.434 160.004 3.67587 159.986 4.91678C159.984 5.02422 159.801 5.12876 159.702 5.23426C159.618 5.11811 159.463 5.00389 159.46 4.88484C159.438 4.1763 159.456 3.46583 159.448 2.75632C159.446 2.56274 159.404 2.37011 159.38 2.17749C159.333 2.17556 159.286 2.17362 159.239 2.17169V2.17072Z" fill="white"/>
<path d="M153.234 3.30902C153.234 3.80751 153.255 4.30794 153.221 4.80353C153.211 4.95162 153.046 5.0881 152.951 5.23039C152.837 5.08617 152.629 4.94388 152.624 4.79579C152.596 3.86365 152.613 2.93055 152.616 1.99746C152.618 1.43508 152.543 1.35861 151.981 1.36636C151.949 1.36636 151.912 1.38087 151.885 1.37023C151.685 1.28892 151.487 1.20277 151.288 1.11856C151.48 1.02951 151.669 0.871735 151.864 0.863024C152.635 0.830114 153.407 0.833018 154.177 0.852377C154.303 0.85528 154.425 1.01209 154.548 1.09727C154.428 1.19019 154.314 1.35571 154.187 1.36636C153.238 1.44379 153.237 1.43411 153.237 2.39141C153.237 2.69728 153.237 3.00218 153.237 3.30805H153.234V3.30902Z" fill="white"/>
</svg>
