<svg width="137" height="40" viewBox="0 0 137 40" fill="none" xmlns="http://www.w3.org/2000/svg">
<path d="M0.00108842 22.6625C0.517001 22.2113 1.03509 21.7635 1.54774 21.309C2.0827 20.8345 2.61113 20.3534 3.17765 19.844C3.38663 20.4824 3.58527 21.0908 3.7986 21.7439C4.18499 21.3956 4.53601 21.0788 4.89355 20.7567C5.17219 21.4816 5.41654 22.1885 5.71259 22.8726C7.59448 27.2203 10.4608 30.7223 14.6317 33.0629C15.534 33.5696 16.5179 33.9304 17.4627 34.3625C17.6477 34.4474 17.817 34.4327 18.0074 34.3647C21.0692 33.2605 23.6765 31.4831 25.8468 29.0679C27.9578 26.7185 29.4577 24.0149 30.4601 21.0288C30.4878 20.9455 30.5172 20.8628 30.5564 20.7474C30.7496 20.9194 30.9243 21.0734 31.0968 21.229C31.2715 21.3858 31.4451 21.5441 31.6677 21.746C31.8789 21.1022 32.0786 20.4922 32.2886 19.8516C32.3763 19.9273 32.4514 19.9882 32.5232 20.0535C33.4081 20.8579 34.2886 21.6671 35.1806 22.4639C35.3493 22.6146 35.3928 22.7289 35.3183 22.9618C34.6864 24.9433 33.7939 26.8061 32.7899 28.6205C32.7376 28.7152 32.6745 28.8039 32.601 28.9198C32.2239 28.5797 31.856 28.2483 31.468 27.8978C31.3825 28.0317 31.3025 28.1574 31.222 28.2826C28.1744 33.0259 24.0226 36.3674 18.6719 38.2182C17.9906 38.4539 17.4224 38.4566 16.74 38.221C13.0927 36.9622 9.915 34.9878 7.25163 32.1949C6.01028 30.8932 4.92349 29.4717 3.97601 27.8929C3.58309 28.2347 3.19725 28.5705 2.78147 28.9318C2.40868 28.2047 2.00869 27.5141 1.6925 26.7876C1.11999 25.4723 0.597001 24.1346 0.0527886 22.8067C0.0397275 22.7751 0.0174148 22.7468 0 22.7169C0 22.699 0 22.6805 0 22.6625H0.00108842ZM4.64213 21.7379C3.99778 22.3235 3.37466 22.9036 2.73303 23.4625C2.56433 23.6094 2.54419 23.7243 2.62746 23.9213C5.39532 30.4736 9.9716 35.1483 16.7498 37.5647C17.4295 37.8068 18.0063 37.8351 18.7062 37.5837C25.4991 35.1402 30.1434 30.5133 32.8312 23.8614C32.8993 23.6927 32.8628 23.6078 32.7387 23.4973C32.1482 22.9749 31.5659 22.4437 30.9804 21.9164C30.9151 21.8576 30.8438 21.8043 30.7648 21.7401C30.7278 21.8402 30.6995 21.9158 30.6718 21.9915C29.6313 24.8676 28.1145 27.4597 26.0275 29.7046C23.7608 32.1421 21.0692 33.9386 17.9057 35.0074C17.7887 35.0471 17.633 35.0542 17.5204 35.0112C16.845 34.7538 16.1598 34.5133 15.5095 34.2009C10.9604 32.0175 7.75665 28.5188 5.60484 24.0094C5.25546 23.2769 4.96974 22.5145 4.64267 21.7368L4.64213 21.7379ZM33.1295 26.6102C33.7607 25.4336 34.2935 24.2113 34.6995 22.9373C34.7202 22.872 34.6543 22.7517 34.5934 22.6924C34.3474 22.4519 34.0884 22.2244 33.8326 21.9942C33.4108 21.6138 32.988 21.2345 32.5444 20.8356C32.4084 21.2258 32.2946 21.5866 32.1542 21.9365C32.0916 22.0932 32.1297 22.1771 32.2462 22.2799C32.6609 22.6451 33.0718 23.0157 33.4712 23.3972C33.5392 23.4625 33.5871 23.5985 33.5735 23.6916C33.4337 24.6657 33.2791 25.6377 33.1289 26.6102H33.1295ZM2.19372 26.6173C2.228 26.6097 2.26229 26.602 2.29603 26.5944C2.28515 26.5063 2.27753 26.4176 2.26338 26.3299C2.12896 25.4837 1.99617 24.6369 1.85576 23.7917C1.82638 23.6138 1.87209 23.4924 2.01304 23.3711C2.41739 23.0233 2.80977 22.6609 3.19779 22.2952C3.25711 22.2391 3.31806 22.1194 3.29792 22.0541C3.18038 21.6699 3.03834 21.2933 2.89303 20.8807C2.80052 20.9575 2.72487 21.0168 2.65358 21.0805C2.12243 21.5583 1.59182 22.0367 1.06121 22.515C0.811239 22.7403 0.743212 23.0168 0.857134 23.3444C0.898494 23.4636 0.933868 23.5855 0.982303 23.7014C1.38448 24.6739 1.78937 25.6448 2.19317 26.6167L2.19372 26.6173ZM2.8016 25.7645L2.76841 25.7743C2.8816 26.478 2.99534 27.1811 3.11344 27.9169C3.32568 27.7204 3.50255 27.5566 3.67887 27.3933C3.37956 26.8382 3.09004 26.3016 2.80106 25.7645H2.8016ZM32.3229 27.9223C32.4405 27.1822 32.5482 26.5025 32.6565 25.8222C32.342 26.3071 32.0666 26.8012 31.8016 27.3003C31.7793 27.3427 31.8054 27.4407 31.8435 27.4799C31.9806 27.6214 32.1319 27.7482 32.3235 27.9223H32.3229Z" fill="white"/>
<path d="M120.387 39.0743C120.678 39.0569 120.936 39.0395 121.195 39.0269C122.2 38.9785 122.943 38.5404 123.324 37.5815C123.558 36.9943 123.778 36.4011 123.991 35.8063C124.023 35.7171 124.011 35.5913 123.974 35.5021C122.527 32.0529 121.076 28.6058 119.619 25.161C119.588 25.087 119.49 24.9906 119.423 24.9901C118.5 24.9787 117.577 24.9825 116.626 24.9825C116.621 25.0989 116.612 25.1953 116.612 25.291C116.612 27.8086 116.611 30.3266 116.612 32.8442C116.612 33.0161 116.619 33.1881 116.627 33.3601C116.674 34.3386 117.184 34.8496 118.166 34.8909C118.473 34.904 118.781 34.8931 119.112 34.8931V35.8498C118.257 35.8743 117.395 35.9146 116.609 35.4765C115.916 35.0901 115.624 34.4436 115.552 33.6833C115.528 33.4227 115.525 33.1587 115.525 32.8964C115.524 30.3876 115.524 27.8793 115.524 25.3705V24.9841H113.385V23.9996H115.512V20.4111H116.605V23.9915H116.957C118 23.9915 119.042 23.9985 120.085 23.986C120.311 23.9833 120.413 24.054 120.498 24.2647C121.832 27.5452 123.175 30.8219 124.516 34.0991C124.549 34.1797 124.588 34.258 124.646 34.3881C124.961 33.5544 125.257 32.774 125.551 31.9919C126.516 29.4216 127.483 26.8518 128.442 24.2793C128.512 24.0916 128.599 24.0078 128.809 24.023C129.094 24.0432 129.382 24.0279 129.706 24.0279C129.47 24.6434 129.249 25.2236 129.025 25.8021C127.596 29.4913 126.173 33.1827 124.733 36.8675C124.49 37.4885 124.185 38.0871 123.888 38.6852C123.483 39.4993 122.787 39.8759 121.902 39.9461C121.813 39.9532 121.726 39.9815 121.638 40H120.387V39.0743Z" fill="white"/>
<path d="M4.69328 0.260552H30.6821C30.687 0.361232 30.6952 0.457013 30.6952 0.552794C30.6957 4.86404 30.7153 9.17529 30.6903 13.486C30.6614 18.5254 29.1638 23.1022 26.1592 27.1506C24.0389 30.0077 21.2803 32.0725 17.9704 33.396C17.7789 33.4727 17.6172 33.47 17.4278 33.3927C13.4312 31.7568 10.3085 29.0951 8.06032 25.4151C6.3885 22.6777 5.35069 19.7058 4.91913 16.5336C4.77328 15.4609 4.70852 14.3703 4.70254 13.2868C4.67859 9.06645 4.69274 4.84608 4.69274 0.625174C4.69274 0.509801 4.69274 0.393884 4.69274 0.260008L4.69328 0.260552ZM27.6068 23.8511C28.1793 22.7811 28.6038 21.6786 29 20.5624C29.0772 20.3442 29.0528 20.2152 28.8737 20.0552C25.6879 17.203 22.5092 14.3426 19.3293 11.4844C18.7916 11.0011 18.2529 10.5184 17.7081 10.0292C17.6385 10.0858 17.5808 10.1287 17.528 10.1761C13.8556 13.4757 10.1838 16.7768 6.50823 20.0737C6.38252 20.1863 6.33735 20.2799 6.40646 20.4437C6.85762 21.5164 7.3006 22.5928 7.74795 23.6671C7.76699 23.7128 7.80509 23.7504 7.84318 23.8037C11.1346 20.8508 14.4102 17.9121 17.701 14.9592C21.0071 17.9268 24.3007 20.8835 27.6062 23.8511H27.6068ZM14.8015 2.96365C14.1141 2.82542 13.4622 2.691 12.8097 2.5642C12.3416 2.47332 11.8769 2.45209 11.4246 2.64801C11.232 2.73127 11.1444 2.84719 11.146 3.07903C11.1574 4.89724 11.152 6.71545 11.1531 8.53366C11.1531 8.61802 11.1612 8.70237 11.1672 8.80903C11.6031 8.5723 12.0461 8.54346 12.4869 8.61693C13.0116 8.70454 13.5269 8.84386 14.0494 8.94454C14.2916 8.99134 14.5413 8.99896 14.802 9.02563V2.96365H14.8015ZM10.8712 8.76767C10.8832 8.70182 10.8946 8.66699 10.8946 8.63271C10.8957 6.74103 10.8989 4.84935 10.8881 2.95767C10.8875 2.86025 10.7836 2.69971 10.6998 2.67849C10.3803 2.59794 10.0402 2.48638 9.72507 2.52556C8.89732 2.62896 8.07828 2.80529 7.25707 2.95222V9.02073C7.67774 8.95053 8.07066 8.89992 8.45651 8.81774C9.25705 8.64795 10.0511 8.36006 10.8706 8.76767H10.8712ZM6.32646 3.04365V9.94644H6.64211C7.84754 9.94644 9.05297 9.94263 10.2584 9.95242C10.3765 9.95351 10.5136 10.0139 10.6072 10.0896C10.857 10.2915 11.1803 10.2931 11.4263 10.0928C11.5193 10.0172 11.6548 9.95351 11.7718 9.95242C12.9865 9.94263 14.2007 9.94644 15.4153 9.94644C15.5117 9.94644 15.608 9.94644 15.707 9.94644V3.0529H15.2232V9.45828H14.9038C13.8431 9.45828 12.783 9.45393 11.7223 9.46318C11.5602 9.46481 11.3996 9.54372 11.2358 9.56113C11.0894 9.57637 10.9376 9.56658 10.7906 9.54807C10.6715 9.53338 10.5561 9.46372 10.4391 9.46263C9.32453 9.45556 8.20944 9.45882 7.09435 9.45882C6.99748 9.45882 6.90115 9.45882 6.78524 9.45882V3.04365H6.32592H6.32646ZM23.6531 8.64958C23.621 8.95543 23.5606 9.25093 23.5676 9.54481C23.5747 9.83705 23.6498 10.1271 23.7042 10.4765C23.344 10.3666 22.9951 10.2604 22.6458 10.1543C22.6349 10.1853 22.624 10.2164 22.6131 10.2474C22.9701 10.4983 23.4033 10.5712 23.8332 10.6735C23.8027 10.8656 23.7929 11.0686 24.0302 11.0768C24.3083 11.086 24.2757 10.8536 24.2588 10.6996C24.6289 10.5832 24.9744 10.4825 25.3129 10.36C25.3788 10.3361 25.4142 10.2272 25.4637 10.1576C25.443 10.1478 25.4223 10.1375 25.4016 10.1277C25.0555 10.2349 24.7089 10.3421 24.3061 10.4667C24.5543 9.81147 24.5875 9.21774 24.3992 8.59026C24.5733 8.59026 24.7252 8.59679 24.8765 8.58808C24.9918 8.58101 25.1132 8.57285 25.2193 8.53257C25.4006 8.46291 25.4659 8.29149 25.3918 8.13421C25.3499 8.04496 25.1801 7.95244 25.0822 7.96605C24.9059 7.99054 24.8476 8.14237 24.9075 8.32142C24.9151 8.34428 24.9037 8.37366 24.9004 8.40577H24.4857C24.4857 8.29094 24.4857 8.19299 24.4857 8.09448C24.4846 6.62838 24.4906 5.16227 24.4797 3.69616C24.4748 3.05399 24.3497 2.43522 24.0046 1.83931C23.7206 2.35141 23.5627 2.86842 23.5557 3.41589C23.5361 4.97234 23.5372 6.52879 23.5301 8.08523C23.5301 8.19135 23.5301 8.29747 23.5301 8.40523H23.1154C23.1198 8.32577 23.1437 8.25448 23.1214 8.20496C23.08 8.11462 23.0196 7.98074 22.9505 7.96931C22.877 7.95734 22.7546 8.04931 22.7062 8.12822C22.593 8.31162 22.7192 8.5489 22.9636 8.59407C23.1916 8.63597 23.4278 8.63325 23.6536 8.65012L23.6531 8.64958ZM17.7353 27.8336C17.5911 28.1384 17.473 28.3871 17.3527 28.6407C17.0551 28.5296 16.7824 28.4284 16.4711 28.312C16.5903 28.6341 16.6921 28.909 16.7971 29.193C16.5168 29.3215 16.2572 29.4401 15.959 29.5767C16.2643 29.7275 16.5266 29.857 16.7993 29.9914C16.6893 30.2858 16.587 30.5596 16.4695 30.873C16.7906 30.7538 17.0649 30.6515 17.3522 30.5449C17.4779 30.8181 17.5955 31.0744 17.7364 31.3802C17.8779 31.0689 17.9949 30.8104 18.1168 30.5427C18.4123 30.6532 18.6855 30.7555 18.999 30.8725C18.8923 30.5623 18.8009 30.2951 18.7078 30.0235C18.9919 29.8826 19.251 29.7541 19.5459 29.6083C19.2292 29.4641 18.9691 29.346 18.7062 29.2262C18.8058 28.9291 18.8956 28.6603 19.0001 28.3479C18.6784 28.466 18.4036 28.5666 18.1157 28.6717C17.9922 28.3985 17.8779 28.146 17.7359 27.8331L17.7353 27.8336ZM16.9751 21.3901C17.2325 21.1893 17.4436 21.0244 17.6646 20.8519C17.9002 21.025 18.1277 21.1915 18.4063 21.3956C18.4063 21.1485 18.4161 20.9684 18.4036 20.7893C18.3884 20.5695 18.4749 20.4622 18.6975 20.4318C18.8771 20.4073 19.0518 20.3458 19.2733 20.2897C19.0235 20.0731 18.8134 19.8914 18.6001 19.7063C18.7187 19.4397 18.8308 19.1888 18.9631 18.8922C18.6899 18.9412 18.4711 18.9951 18.2496 19.0119C18.1702 19.0179 18.051 18.9542 18.008 18.8857C17.8948 18.7061 17.8137 18.5063 17.7016 18.2767C17.5966 18.4895 17.4937 18.6604 17.4268 18.8443C17.3631 19.0195 17.2602 19.0516 17.0953 19.0146C16.8929 18.9689 16.6872 18.9379 16.4368 18.8922C16.5756 19.2046 16.6872 19.4565 16.7982 19.7069C16.5734 19.9044 16.3672 20.0862 16.137 20.2886C16.4472 20.3697 16.7111 20.4388 16.9751 20.508V21.3901ZM13.4045 22.3915C13.2875 22.613 13.1792 22.7904 13.0975 22.9792C13.0246 23.1485 12.9174 23.1751 12.7536 23.1343C12.5697 23.0886 12.3814 23.0625 12.1408 23.0179C12.2796 23.3281 12.3895 23.573 12.5016 23.8244C12.2818 24.0078 12.0706 24.1841 11.8377 24.3789C12.1403 24.4551 12.4004 24.5204 12.6845 24.5917V25.4706C12.9473 25.2753 13.1694 25.1104 13.4039 24.9357C13.6233 25.1066 13.8382 25.2736 14.1033 25.4799V24.5885C14.3971 24.5166 14.6643 24.4519 14.9729 24.3768C14.7296 24.1765 14.5169 24.0013 14.3057 23.8271C14.4233 23.5577 14.5321 23.3096 14.66 23.0173C14.4243 23.0581 14.2442 23.0739 14.0733 23.1229C13.8665 23.1822 13.7343 23.1501 13.6586 22.9281C13.6004 22.7588 13.5063 22.6021 13.405 22.3915H13.4045ZM20.4847 23.3678C21.0953 23.1833 21.4349 23.432 21.6166 23.9463C21.6199 23.9555 21.6471 23.9566 21.67 23.9637C21.7962 23.7602 21.8784 23.4804 22.0618 23.3721C22.2436 23.2649 22.5271 23.3297 22.8564 23.315C22.359 22.8726 22.4128 22.4486 22.7731 22.0258C22.7802 22.0171 22.7693 21.9931 22.7606 21.9371C22.2077 22.0905 21.8256 21.8973 21.6792 21.2437C21.5519 21.4652 21.4572 21.5964 21.3979 21.7417C21.3239 21.9224 21.2058 21.9784 21.0202 21.9621C20.8564 21.9474 20.6899 21.9588 20.4869 21.9588C20.636 22.2173 20.852 22.4269 20.8515 22.6358C20.8515 22.8551 20.6425 23.0739 20.4847 23.3683V23.3678ZM19.9182 26.1123C19.7484 25.5729 19.898 25.1691 20.347 24.8317C19.7522 24.8638 19.4229 24.5798 19.2504 24.0328C19.1138 24.6157 18.7312 24.8268 18.1761 24.8546C18.6735 25.1664 18.7916 25.5729 18.5925 26.1144C19.0403 25.7879 19.4588 25.7514 19.9187 26.1117L19.9182 26.1123ZM19.6003 5.94648C19.5345 6.51355 19.7157 6.81559 20.2186 6.97722C20.2284 6.4809 19.9965 6.0945 19.6003 5.94648ZM26.2909 2.60774C26.2332 3.1563 26.4199 3.51548 26.816 3.64337C26.9243 3.171 26.7562 2.8276 26.2909 2.60774ZM28.4421 7.04307C27.9431 7.18946 27.6911 7.49313 27.7031 7.91761C28.1684 7.85394 28.4574 7.52088 28.4421 7.04307ZM28.2582 4.94241C27.9311 5.29832 27.7488 5.65206 27.9235 6.11192C28.3099 5.83492 28.4378 5.41478 28.2582 4.94241ZM21.8066 2.60556C21.3598 2.85644 21.2096 3.17807 21.3005 3.6597C21.6966 3.47031 21.9181 3.02243 21.8066 2.60556ZM21.4447 9.41692C21.2395 9.01856 20.8575 8.86509 20.3835 8.9908C20.6218 9.40712 20.9745 9.54862 21.4447 9.41692ZM27.7701 5.2069C28.0911 4.81942 28.1069 4.4401 27.8174 4.04609C27.5159 4.43575 27.5018 4.78894 27.7701 5.2069ZM27.7341 8.96958C27.2623 8.84223 26.8607 9.00386 26.6773 9.37991C27.1709 9.50454 27.443 9.40168 27.7341 8.96958ZM25.8599 9.94045C26.3409 10.1451 26.7556 10.07 27.0305 9.74453C26.6386 9.53338 26.2463 9.59596 25.8599 9.94045ZM20.9685 3.24936C20.5669 3.53725 20.4956 3.87303 20.7214 4.38949C21.006 4.05371 21.1644 3.70324 20.9685 3.24936ZM19.8311 4.96853C19.6597 5.53233 19.7669 5.87355 20.1696 6.08961C20.2752 5.60635 20.2044 5.36145 19.8311 4.96853ZM28.2147 8.05476C27.7918 8.00904 27.4071 8.27244 27.2911 8.68822C27.8016 8.71488 28.0334 8.55598 28.2147 8.05476ZM19.8942 8.04387C20.0221 8.52659 20.3094 8.74046 20.7981 8.73067C20.6474 8.28877 20.3241 8.03625 19.8942 8.04387ZM28.4922 6.00471C28.065 6.23273 27.8549 6.63817 27.9355 7.04252C28.3883 6.81395 28.5347 6.54674 28.4922 6.00471ZM27.1447 3.25862C26.9058 3.5748 27.0348 4.12827 27.406 4.37915C27.5692 3.93779 27.5012 3.64446 27.1447 3.25862ZM21.0757 9.781C21.4224 10.1102 21.8338 10.169 22.2409 9.96113C21.929 9.64059 21.4877 9.56712 21.0757 9.781ZM25.9431 8.96359C25.4838 9.17801 25.2623 9.53937 25.3293 9.93827C25.7293 9.8131 25.972 9.43597 25.9431 8.96359ZM20.3775 7.90074C20.3601 7.44088 20.1005 7.13667 19.6542 7.05449C19.6591 7.49694 19.9252 7.80877 20.3775 7.90074ZM22.1641 8.95815C22.1277 9.3995 22.3949 9.82018 22.7818 9.93229C22.8422 9.50562 22.6098 9.13937 22.1641 8.95815ZM20.3231 4.0363C20.0216 4.50541 20.0292 4.80908 20.3399 5.19166C20.5962 4.84064 20.5941 4.47439 20.3231 4.0363ZM21.8289 3.55739C22.2991 3.5046 22.538 3.21508 22.7372 2.83522C22.2142 2.80964 21.9769 3.1046 21.8289 3.55739ZM21.3952 8.97611C21.2591 8.5723 21.6689 8.16142 21.2357 7.84632C20.969 8.26319 21.0115 8.72468 21.3952 8.97611ZM26.2463 3.51494C26.0917 3.1378 25.911 2.79168 25.4093 2.83631C25.4125 3.21127 25.9034 3.54433 26.2463 3.51494ZM21.0469 5.72063C20.5511 5.86321 20.2665 6.2594 20.409 6.59355C20.5353 6.48198 20.6469 6.34539 20.7905 6.26539C21.0196 6.13804 21.0474 5.94648 21.0474 5.72063H21.0469ZM26.883 7.81313C26.612 8.11789 26.6022 8.31489 26.8128 8.89937C27.0985 8.61693 27.1273 8.23652 26.883 7.81313ZM27.1649 6.37477C27.0267 6.86184 27.4702 7.06266 27.5926 7.46048C27.7635 7.03381 27.5954 6.63708 27.1649 6.37477ZM20.9913 7.15572C20.6289 7.48986 20.5734 8.01503 20.8945 8.25067C20.8564 7.87081 21.3119 7.55789 20.9913 7.15572ZM22.2251 3.89698C21.7195 3.74188 21.3337 3.85453 21.184 4.20935C21.5372 4.10976 21.9764 4.34922 22.2251 3.89698ZM27.2465 8.27788C27.5284 7.84741 27.4647 7.42456 27.1192 7.12361C26.902 7.52796 27.1916 7.85285 27.2465 8.27788ZM26.483 8.42917C26.0487 8.6806 26.2452 9.12032 26.0999 9.46807C26.4721 9.33529 26.649 8.8406 26.483 8.42917ZM20.7432 4.90431C20.9103 4.85751 21.0762 4.78731 21.2482 4.7688C21.4898 4.74214 21.6009 4.60609 21.6732 4.39602C21.1971 4.31656 20.753 4.56853 20.7432 4.90431ZM21.633 8.46781C21.4692 8.85692 21.6259 9.34671 22.0096 9.51814C21.8169 9.16495 22.1081 8.69529 21.633 8.46781ZM27.7102 6.57287C27.7831 6.14893 27.4963 5.77288 27.0903 5.71737C26.9956 6.22512 27.5556 6.25178 27.7102 6.57287ZM20.5375 7.45177C20.5565 7.0779 21.1562 6.94293 20.9347 6.46783C20.5168 6.7062 20.3579 7.0779 20.5375 7.45177ZM27.3276 4.91302C27.3374 4.56146 26.7926 4.27466 26.4302 4.42105C26.569 4.88309 27.0484 4.69806 27.3276 4.91302ZM21.2673 5.03111C20.7437 5.08662 20.4384 5.35601 20.4879 5.74349C20.7149 5.4556 21.2221 5.51329 21.2673 5.03111ZM26.9505 4.20119C26.7921 3.84256 26.1461 3.6646 25.9083 3.88936C26.151 4.31711 26.588 4.04065 26.9505 4.20119ZM26.8449 5.00663C26.9151 5.49152 27.4071 5.43546 27.6623 5.75165C27.6003 5.29016 27.2884 5.02241 26.8449 5.00663Z" fill="white"/>
<path d="M57.7398 16.7605H53.0726C53.0073 16.5956 53.0433 16.5303 53.2223 16.5047C53.9902 16.3953 54.1426 16.2239 54.1981 15.4408C54.2155 15.197 54.2253 14.9521 54.2258 14.7083C54.2296 10.7687 54.2313 6.82865 54.2329 2.8891C54.2329 2.87223 54.2269 2.85536 54.2193 2.81563C53.9271 3.50188 53.6446 4.17072 53.3584 4.83792C51.7023 8.6991 50.0452 12.5603 48.3875 16.4209C48.3304 16.5543 48.3108 16.705 48.0882 16.7039C47.8651 16.7028 47.8488 16.5477 47.7916 16.416C45.9538 12.1804 44.1171 7.94428 42.2815 3.70759C42.1922 3.50188 42.1193 3.28909 42.0464 3.09862C42.0464 7.19 42.0393 11.2955 42.0524 15.4005C42.0551 16.2615 42.3772 16.4492 42.9998 16.4944C43.1664 16.5064 43.2605 16.5646 43.1609 16.7752C42.9019 16.7752 42.6319 16.7752 42.3615 16.7752C41.5364 16.7752 40.7114 16.773 39.8864 16.7768C39.7215 16.7779 39.6143 16.7496 39.685 16.5363C39.7933 16.5194 39.9082 16.4998 40.023 16.483C40.5302 16.409 40.7506 16.1847 40.8012 15.6677C40.8284 15.3886 40.8469 15.1077 40.8475 14.8275C40.8502 10.3622 40.8496 5.89696 40.8491 1.43224C40.8491 0.804764 40.6532 0.597964 40.0214 0.528305C39.8766 0.512523 39.6333 0.568032 39.7378 0.240961C40.0497 0.240961 40.3658 0.240961 40.682 0.240961C41.5071 0.240961 42.3321 0.251301 43.1571 0.23443C43.402 0.229532 43.5201 0.302457 43.6175 0.531026C45.3024 4.48854 46.9965 8.44169 48.6896 12.3954C48.7249 12.4781 48.7641 12.5587 48.8218 12.6833C48.9486 12.391 49.0623 12.1347 49.1712 11.8768C50.7712 8.09013 52.3722 4.30405 53.9657 0.514155C54.0522 0.308443 54.154 0.231709 54.382 0.234974C55.4062 0.248035 56.431 0.240961 57.4552 0.240961C57.545 0.240961 57.6342 0.240961 57.7273 0.240961C57.7953 0.399326 57.7899 0.498917 57.6032 0.512523C57.5673 0.515244 57.5314 0.523407 57.4955 0.52776C56.7385 0.617555 56.5964 0.754697 56.5877 1.52258C56.573 2.7993 56.5812 4.07657 56.5812 5.35383C56.5812 8.4787 56.5801 11.603 56.5828 14.7279C56.5828 15.0261 56.6008 15.3254 56.6269 15.6226C56.6759 16.1831 56.8957 16.3981 57.4535 16.4835C57.5912 16.5047 57.8421 16.4465 57.7403 16.7611L57.7398 16.7605Z" fill="white"/>
<path d="M132.049 16.5298C132.143 16.5173 132.224 16.5075 132.304 16.4955C132.908 16.4084 133.157 16.1918 133.163 15.5801C133.182 13.3347 133.17 11.0893 133.17 8.82318H124.743V9.10345C124.743 10.9962 124.742 12.889 124.745 14.7823C124.745 15.0533 124.766 15.3254 124.789 15.5954C124.836 16.12 125.032 16.3344 125.545 16.4356C125.659 16.4585 125.776 16.471 125.911 16.4917V16.7241H121.234C121.167 16.5407 121.22 16.4775 121.408 16.4661C122.069 16.4247 122.307 16.1826 122.352 15.5213C122.374 15.1964 122.388 14.8699 122.389 14.5445C122.391 10.4868 122.391 6.42974 122.389 2.37209C122.389 2.05536 122.373 1.73863 122.35 1.42244C122.307 0.835784 122.075 0.602317 121.493 0.532114C121.342 0.514155 121.132 0.539189 121.235 0.254022H125.899C125.971 0.422183 125.928 0.505992 125.751 0.51089C125.697 0.512523 125.643 0.524495 125.589 0.531026C125.084 0.590345 124.85 0.818914 124.793 1.3283C124.767 1.57101 124.746 1.81591 124.746 2.05972C124.742 3.89807 124.744 5.73696 124.744 7.57531C124.744 7.62864 124.748 7.68252 124.752 7.76034H133.165C133.172 7.7032 133.188 7.63517 133.188 7.5666C133.187 5.61016 133.183 3.65426 133.178 1.69782C133.178 1.56285 133.17 1.42517 133.144 1.29347C133.042 0.767214 132.849 0.595787 132.309 0.534291C132.12 0.512522 132.034 0.418555 132.053 0.252389C132.131 0.24858 132.211 0.241505 132.291 0.241505C133.687 0.240961 135.084 0.238784 136.48 0.246947C136.568 0.246947 136.657 0.3313 136.745 0.376469C136.665 0.427081 136.59 0.510346 136.504 0.523407C135.848 0.622453 135.693 0.768302 135.6 1.42952C135.575 1.60802 135.564 1.78979 135.564 1.97047C135.562 6.33559 135.562 10.7013 135.564 15.0664C135.564 15.2824 135.585 15.5001 135.614 15.7151C135.678 16.1973 135.902 16.4019 136.386 16.4802C136.513 16.5009 136.751 16.4193 136.734 16.6566C136.717 16.8781 136.501 16.7698 136.379 16.7703C135.01 16.7785 133.641 16.7747 132.272 16.7768C132.114 16.7768 131.967 16.7817 132.048 16.5298H132.049Z" fill="white"/>
<path d="M67.9748 16.9875C65.2554 16.9445 63.0921 16.1477 61.3485 14.3867C58.4032 11.4115 58.1202 6.77423 60.6524 3.41426C62.1757 1.39306 64.2138 0.288307 66.7302 0.0488539C68.9892 -0.16611 71.0719 0.322048 72.9293 1.63795C74.9685 3.08338 76.0961 5.07247 76.3257 7.55898C76.5353 9.83052 76.021 11.9143 74.5935 13.7216C73.2401 15.4354 71.4425 16.434 69.3098 16.8362C68.7873 16.9347 68.2507 16.9575 67.9753 16.9875H67.9748ZM73.6994 8.73665C73.6879 7.6885 73.596 6.70892 73.3282 5.75328C72.9701 4.47547 72.3846 3.32555 71.3696 2.43794C70.0929 1.32122 68.5881 0.951157 66.9245 1.13184C65.0774 1.33265 63.6451 2.20339 62.6671 3.78705C61.9917 4.88091 61.6941 6.09396 61.6086 7.36361C61.4943 9.06481 61.6549 10.7334 62.3906 12.2925C63.4274 14.4912 65.1171 15.8185 67.6113 15.8762C70.0602 15.9322 71.8382 14.8084 72.9119 12.6044C73.5149 11.3668 73.6896 10.0368 73.6988 8.73665H73.6994Z" fill="white"/>
<path d="M90.4105 12.0313C90.4192 11.9317 90.4263 11.8882 90.4263 11.8446C90.4252 8.37584 90.4263 4.90703 90.4186 1.43823C90.417 0.773744 90.244 0.607215 89.58 0.519053C89.4456 0.501094 89.186 0.578916 89.291 0.254022H92.725C92.7914 0.412388 92.7647 0.508169 92.5732 0.51742C91.5593 0.566399 91.5947 0.969116 91.5947 1.71686C91.5936 6.6077 91.5947 11.498 91.5898 16.3888C91.5898 16.5162 91.5637 16.7181 91.4864 16.7551C91.3117 16.8389 91.1615 16.7328 91.0314 16.5728C87.4973 12.2212 83.9572 7.87353 80.4193 3.52474C80.2996 3.37725 80.188 3.22324 80.0443 3.03495C80.0324 3.13726 80.0182 3.20147 80.0182 3.26569C80.0182 7.26891 80.0188 11.2721 80.0226 15.2748C80.0226 15.4277 80.0443 15.5812 80.0694 15.7325C80.1477 16.2114 80.3534 16.4079 80.8296 16.4726C80.8656 16.4775 80.9075 16.471 80.9363 16.4879C81.0234 16.5379 81.1061 16.5967 81.1899 16.6522C81.0974 16.693 81.0049 16.7681 80.9124 16.7687C79.8969 16.7774 78.8819 16.7725 77.8664 16.7752C77.7042 16.7752 77.5671 16.7703 77.6411 16.5303C77.7091 16.5211 77.7788 16.5118 77.849 16.502C78.5227 16.4073 78.7344 16.1782 78.7714 15.4936C78.7834 15.2765 78.7829 15.0588 78.7829 14.8416C78.7834 10.4765 78.7834 6.11083 78.7829 1.74571C78.7829 1.58299 78.7829 1.41918 78.7725 1.257C78.742 0.803676 78.5298 0.58708 78.0803 0.537556C77.9371 0.521774 77.794 0.504904 77.6482 0.488033C77.5774 0.299736 77.6411 0.237151 77.8256 0.23824C78.741 0.242593 79.6569 0.235519 80.5722 0.246947C80.6702 0.248035 80.7948 0.321504 80.8596 0.400415C82.6783 2.60992 84.4916 4.82486 86.3055 7.03871C87.6317 8.6572 88.9574 10.2757 90.2842 11.8936C90.312 11.9274 90.343 11.9573 90.4105 12.0302V12.0313Z" fill="white"/>
<path d="M96.0921 16.5989C96.0338 16.6571 95.9767 16.766 95.9179 16.767C94.9225 16.7774 93.9266 16.7747 92.9313 16.7747C92.9117 16.7507 92.8926 16.7273 92.873 16.7034C92.9296 16.6332 92.9781 16.5129 93.0445 16.5015C93.3661 16.4476 93.5636 16.2451 93.6992 15.9807C93.9587 15.4745 94.2211 14.9679 94.4431 14.4444C96.4164 9.79569 98.3805 5.14322 100.351 0.493475C100.389 0.402047 100.451 0.284498 100.531 0.253478C100.707 0.185451 100.794 0.297559 100.865 0.465176C101.582 2.16312 102.308 3.85725 103.031 5.55247C104.43 8.83516 105.829 12.1184 107.229 15.4011C107.31 15.5921 107.403 15.7788 107.495 15.9649C107.639 16.2571 107.85 16.4579 108.19 16.5091C108.264 16.52 108.326 16.6179 108.393 16.6756L108.343 16.7545H103.978C103.972 16.6914 103.965 16.6196 103.958 16.545C104.132 16.5194 104.285 16.5047 104.433 16.4726C104.74 16.4062 104.865 16.2196 104.787 15.9186C104.729 15.6922 104.649 15.4696 104.558 15.2541C104.11 14.188 103.651 13.1263 103.207 12.0591C103.142 11.904 103.072 11.8414 102.896 11.8419C100.956 11.849 99.0161 11.8479 97.076 11.8436C96.9247 11.8436 96.8344 11.8724 96.7707 12.0297C96.3016 13.1943 95.8221 14.3546 95.3459 15.5164C95.3323 15.5496 95.3182 15.5834 95.3068 15.6177C95.113 16.194 95.2806 16.453 95.8874 16.5178C95.9321 16.5227 95.9772 16.526 96.0219 16.5298L96.0904 16.5983L96.0921 16.5989ZM102.66 10.8047C101.753 8.55978 100.857 6.33994 99.9342 4.05317C99.0237 6.34158 98.1394 8.56251 97.2474 10.8047H102.66Z" fill="white"/>
<path d="M109.163 12.0406C109.375 11.9595 109.424 12.0803 109.44 12.23C109.57 13.3684 110.15 14.2626 110.959 15.0316C112.021 16.04 113.93 16.3088 115.221 15.6204C116.168 15.1154 116.641 14.2756 116.796 13.2493C117.007 11.8425 116.491 10.7584 115.25 10.058C114.487 9.62699 113.695 9.24821 112.912 8.85257C111.98 8.38128 111.08 7.867 110.328 7.12361C108.676 5.49206 108.804 2.39223 111.097 0.969116C112.193 0.288307 113.385 0.015657 114.673 0.0934793C115.672 0.153887 116.613 0.423816 117.527 0.80422C117.61 0.838505 117.708 0.958232 117.712 1.04258C117.765 2.15495 117.803 3.26841 117.844 4.38133C117.846 4.42541 117.839 4.47003 117.836 4.52228C117.685 4.58432 117.6 4.55547 117.562 4.38731C117.489 4.07058 117.423 3.75058 117.319 3.44365C116.796 1.90734 115.257 0.919593 113.635 1.06599C112.349 1.1819 111.548 1.82026 111.278 2.98216C111.042 3.99766 111.278 4.89071 112.151 5.50784C112.754 5.93396 113.413 6.28443 114.063 6.63926C114.991 7.14592 115.95 7.60034 116.87 8.12224C119.756 9.76086 119.62 13.6068 117.597 15.4511C116.269 16.662 114.708 17.1583 112.922 16.9695C111.631 16.8329 110.444 16.3937 109.326 15.7548C109.242 15.7069 109.149 15.5856 109.148 15.4969C109.136 14.3741 109.141 13.2509 109.142 12.1276C109.142 12.1015 109.154 12.0754 109.162 12.0406H109.163Z" fill="white"/>
<path d="M40.6477 19.5153H41.8613C41.8613 19.6465 41.8613 19.7618 41.8613 19.8778C41.8657 23.1381 41.8651 26.3985 41.8766 29.6583C41.8798 30.6238 42.0377 31.5669 42.4132 32.4638C43.0956 34.0953 44.3614 34.9296 46.0871 35.1048C47.0123 35.199 47.9353 35.1467 48.8321 34.8801C50.4381 34.4033 51.3709 33.2801 51.7208 31.691C51.8982 30.885 51.9875 30.0447 51.9956 29.2186C52.0267 26.0943 52.0082 22.97 52.0082 19.8457C52.0082 19.7395 52.0082 19.6334 52.0082 19.5137H53.1831C53.188 19.6149 53.1951 19.7031 53.1951 19.7912C53.1951 22.952 53.2005 26.1128 53.1929 29.273C53.1896 30.547 53.0465 31.802 52.5377 32.9873C51.7818 34.7494 50.4022 35.7296 48.5519 36.0692C47.1266 36.3304 45.6997 36.3162 44.3108 35.8504C42.4937 35.2409 41.4379 33.9157 40.9868 32.1089C40.7914 31.3258 40.6652 30.5046 40.6564 29.6992C40.62 26.3669 40.6401 23.0336 40.6396 19.7009C40.6396 19.6476 40.6439 19.5942 40.6477 19.5148V19.5153Z" fill="white"/>
<path d="M91.568 30.0964H82.1706C82.2174 30.5389 82.2353 30.9601 82.3099 31.3715C82.5292 32.5829 83.0168 33.6545 84.0481 34.3979C86.3898 36.0866 89.6943 34.8001 90.3566 31.95C90.3751 31.8711 90.3936 31.7922 90.4154 31.7013H91.4418C91.3547 33.6583 89.8195 35.4662 87.8554 35.9157C86.7866 36.16 85.7161 36.1726 84.6609 35.8466C83.0789 35.3579 82.0443 34.2662 81.517 32.7435C80.7458 30.5182 80.8928 28.3076 82.0187 26.2336C83.0146 24.3991 84.6473 23.6219 86.7207 23.7379C87.5577 23.7847 88.3398 24.0094 89.0728 24.4132C90.3942 25.1408 91.069 26.3321 91.3727 27.7433C91.5234 28.4442 91.5256 29.1773 91.592 29.8962C91.5974 29.956 91.5784 30.0181 91.568 30.0975V30.0964ZM90.4693 29.1794C90.3871 28.0469 90.0856 27.0173 89.37 26.1498C88.2989 24.8513 86.9068 24.4388 85.3031 24.847C84.0486 25.1659 83.2644 26.0676 82.7306 27.205C82.4383 27.8271 82.2642 28.4818 82.2065 29.1794H90.4693Z" fill="white"/>
<path d="M108.456 27.6339H107.43C107.411 27.4037 107.407 27.1702 107.37 26.9422C107.197 25.8717 106.58 25.1778 105.543 24.8731C104.414 24.5411 103.288 24.5825 102.188 25.0037C101.591 25.2323 101.115 25.6148 100.918 26.2554C100.657 27.1071 100.975 27.9147 101.742 28.3854C102.362 28.7664 103.063 28.9139 103.758 29.0777C104.813 29.3258 105.895 29.463 106.904 29.8869C107.836 30.2782 108.536 30.885 108.795 31.9038C109.199 33.4912 108.566 34.8708 107.054 35.5054C105.4 36.1998 103.687 36.2939 101.999 35.6376C100.362 35.0003 99.575 33.7122 99.4493 31.9908C99.4433 31.9119 99.4488 31.8319 99.4488 31.7345H100.456C100.524 32.0741 100.559 32.4099 100.66 32.725C101.098 34.0899 102.085 34.8316 103.465 35.0444C104.546 35.2109 105.618 35.119 106.621 34.633C107.579 34.1688 108.001 33.2001 107.718 32.178C107.547 31.5593 107.117 31.1468 106.547 30.9449C105.776 30.6717 104.972 30.4888 104.182 30.2689C103.322 30.0295 102.43 29.8689 101.608 29.5375C99.7595 28.792 99.5217 27.0086 99.9843 25.7242C100.253 24.9781 100.812 24.491 101.525 24.207C103.097 23.58 104.708 23.5147 106.301 24.09C108.011 24.7076 108.507 26.1574 108.491 27.5479C108.491 27.5724 108.472 27.5963 108.456 27.6344V27.6339Z" fill="white"/>
<path d="M55.7942 35.8025V24.0176H56.8576V26.0932C57.1036 25.7553 57.2974 25.4282 57.5493 25.1534C58.4892 24.1286 59.6919 23.7101 61.0568 23.7215C61.7947 23.7275 62.5164 23.8413 63.1874 24.1781C64.2829 24.7283 64.8363 25.6709 65.0497 26.8268C65.1558 27.402 65.208 27.9947 65.2129 28.5797C65.2309 30.9155 65.2205 33.2518 65.22 35.5875C65.22 35.6664 65.2108 35.7453 65.2048 35.839H64.1392V35.5102C64.1392 33.1652 64.1501 30.8202 64.131 28.4752C64.1267 27.9185 64.0831 27.3482 63.9509 26.8099C63.6679 25.654 62.9115 24.9509 61.7191 24.7675C60.463 24.5743 59.2963 24.7768 58.3156 25.6431C57.5205 26.3452 57.12 27.2671 56.9627 28.294C56.8903 28.7658 56.8663 29.2485 56.8636 29.7269C56.8527 31.6371 56.8593 33.5478 56.8593 35.4585C56.8593 35.5652 56.8593 35.6719 56.8593 35.8025H55.7942Z" fill="white"/>
<path d="M70.1293 23.9925C70.5288 23.9925 70.8891 23.9806 71.2472 24.0029C71.3146 24.0072 71.3973 24.1379 71.4327 24.2266C72.1772 26.0878 72.9162 27.9511 73.6547 29.8151C74.224 31.2507 74.7916 32.6863 75.3608 34.122C75.3973 34.2134 75.4381 34.3032 75.5007 34.449C75.554 34.3179 75.5916 34.2319 75.6242 34.1443C76.84 30.8589 78.058 27.5746 79.2645 24.2859C79.3526 24.0448 79.4696 23.9659 79.7151 23.986C79.9828 24.0078 80.2544 23.9909 80.557 23.9909C80.5216 24.0987 80.5009 24.1727 80.4737 24.244C79.0457 28.0186 77.615 31.7927 76.193 35.5701C76.1189 35.7666 76.0237 35.8313 75.8207 35.8161C75.5067 35.7922 75.1203 35.9021 74.8961 35.7546C74.6838 35.6153 74.6398 35.2191 74.5249 34.9339C73.1018 31.3987 71.6798 27.8635 70.2578 24.3278C70.2208 24.2358 70.187 24.1428 70.1293 23.9925Z" fill="white"/>
<path d="M98.9894 23.9234V24.9139C98.498 24.9738 98.0148 24.9852 97.5565 25.0968C95.9919 25.4782 94.8164 26.7974 94.6053 28.3892C94.5367 28.9079 94.5002 29.4341 94.497 29.9571C94.4845 31.7955 94.4921 33.6344 94.4921 35.4732V35.7911H93.4254V24.0105H94.4768V26.2255C94.9536 25.4363 95.6055 24.8627 96.4159 24.4638C97.2186 24.0687 98.0692 23.8984 98.9894 23.9234Z" fill="white"/>
<path d="M111.003 24.0105H112.054V35.7943H111.003V24.0105Z" fill="white"/>
<path d="M67.8186 24.0105H68.8396V35.7954H67.8186V24.0105Z" fill="white"/>
<path d="M112.047 21.9882H110.999V20.4056H112.047V21.9882Z" fill="white"/>
<path d="M68.845 20.4133V21.9801H67.8148V20.4133H68.845Z" fill="white"/>
<path d="M23.6134 34.646C23.3799 34.7935 23.1687 34.9274 22.932 35.0776C23.0327 34.5976 22.6528 34.344 22.464 34.0006C22.5277 34.3266 22.5788 34.6553 22.6594 34.9769C22.7034 35.1543 22.6615 35.2539 22.4727 35.3105C22.1815 35.0732 21.8806 34.8278 21.5753 34.5791C21.6281 34.9377 21.9666 35.403 22.2893 35.4678C22.076 35.5908 21.9176 35.6822 21.7364 35.7873C21.7494 35.3807 21.2352 34.4501 20.9026 34.2994C21.11 34.178 21.2863 34.0648 21.4735 33.975C21.5094 33.9582 21.596 34.0251 21.6477 34.067C21.8915 34.2656 22.1315 34.4692 22.4264 34.6422C22.3726 34.3647 22.3355 34.0828 22.2604 33.8112C22.2 33.5941 22.2338 33.4575 22.4542 33.3726C22.575 33.3258 22.6838 33.2485 22.8166 33.1745C22.7981 33.5228 23.2798 34.4126 23.6144 34.6455L23.6134 34.646Z" fill="white"/>
<path d="M28.4715 30.153C28.4269 29.7607 27.5181 29.076 27.1556 29.0717C27.4212 28.7408 27.6743 28.399 27.9605 28.0872C28.0291 28.0126 28.2402 27.9805 28.3262 28.0306C28.4492 28.1024 28.5303 28.2613 28.6027 28.3969C28.6348 28.4573 28.6016 28.552 28.5978 28.6369H29.5698C29.524 28.9525 29.3744 29.0858 29.0811 29.0804C28.84 29.076 28.5989 29.0793 28.3507 29.0793C28.4345 29.346 28.6098 29.4477 29.0136 29.4559C28.834 29.6872 28.674 29.8929 28.4721 30.153H28.4715ZM28.2196 29.0646C28.2724 28.866 28.33 28.731 28.3333 28.5944C28.3349 28.5383 28.1869 28.4181 28.1613 28.4317C28.028 28.5008 27.9121 28.6037 27.7608 28.7163C27.9159 28.8339 28.0286 28.9193 28.2196 29.0641V29.0646Z" fill="white"/>
<path d="M12.2089 34.9045C12.0456 34.8001 11.8323 34.664 11.6015 34.5165C11.9819 34.3658 12.5517 33.4869 12.5005 33.0885C12.8859 33.3296 13.2494 33.5331 13.5792 33.7818C13.6624 33.8444 13.6935 34.0768 13.6456 34.1862C13.5917 34.3097 13.4284 34.3935 13.2984 34.4713C13.2483 34.5018 13.1596 34.4686 13.0426 34.4616C13.0872 34.7854 13.1307 35.0977 13.1743 35.4145C12.7857 35.3579 12.6959 35.2659 12.6644 34.9301C12.6431 34.7037 12.6127 34.4779 12.5865 34.252C12.5501 34.246 12.5142 34.2401 12.4777 34.2335C12.3933 34.4436 12.309 34.6537 12.2083 34.9045H12.2089ZM12.6148 34.0392C12.8086 34.0811 12.955 34.1367 13.0997 34.1323C13.1525 34.1307 13.2624 33.9516 13.2418 33.9179C13.165 33.7927 13.0448 33.6948 12.9267 33.5718C12.8608 33.6578 12.832 33.6904 12.8086 33.7269C12.7601 33.8014 12.7144 33.8776 12.6148 34.0392Z" fill="white"/>
<path d="M9.51391 32.4523C9.51772 31.9946 9.91173 31.5843 10.3487 31.5827C10.8549 31.581 11.4203 32.1187 11.4132 32.5949C11.4067 33.0379 10.9866 33.4542 10.5566 33.4439C10.0396 33.4308 9.51011 32.9274 9.51391 32.4523ZM10.9947 32.4534C11.0078 32.1944 10.8184 31.9761 10.5659 31.9593C10.2622 31.9391 9.88997 32.2798 9.86874 32.5976C9.85133 32.8572 10.0641 33.0934 10.3226 33.1016C10.6513 33.1125 10.9768 32.7979 10.9947 32.4534Z" fill="white"/>
<path d="M29.1061 26.6995C29.1061 26.1765 29.5812 25.6165 30.0247 25.6187C30.5004 25.6208 30.896 25.9942 30.8987 26.4442C30.902 26.9841 30.428 27.543 29.9665 27.543C29.5115 27.543 29.1061 27.1457 29.1055 26.7L29.1061 26.6995ZM29.8827 26.0415C29.6236 26.035 29.3918 26.2342 29.3771 26.4758C29.3602 26.7626 29.727 27.1011 30.0742 27.1185C30.3507 27.1327 30.5755 26.9329 30.5815 26.6679C30.588 26.3566 30.2468 26.0508 29.8827 26.0415Z" fill="white"/>
<path d="M6.58007 27.8418C6.30959 28.0437 6.09354 28.189 5.8998 28.3598C5.84103 28.4115 5.84429 28.5329 5.80946 28.6564C5.69899 28.5046 5.58797 28.3533 5.46715 28.1879C5.86824 28.1873 6.70143 27.5544 6.72918 27.2513C7.08129 27.5805 7.07857 27.5794 6.92292 27.9925C6.81898 28.269 6.72428 28.5487 6.61762 28.8502C7.02251 28.6668 7.33162 28.3707 7.36482 28.0616C7.51829 28.2771 7.6304 28.4349 7.72019 28.5601C7.57217 28.6151 7.42414 28.6407 7.30986 28.7174C6.98006 28.9389 6.66388 29.1805 6.34225 29.4145C6.1496 29.2817 6.11585 29.1207 6.20456 28.9024C6.33572 28.5797 6.43966 28.2456 6.58061 27.8423L6.58007 27.8418Z" fill="white"/>
<path d="M23.5921 32.5699C23.8702 32.3331 24.1168 32.1225 24.3649 31.9136C24.6354 31.685 24.9031 31.6676 25.0893 31.8635C25.2928 32.0784 25.2857 32.4033 25.0604 32.6477C24.9772 32.738 24.8694 32.8066 24.7012 32.9432C24.7203 32.7925 24.7018 32.6891 24.7431 32.652C24.9157 32.4975 24.9342 32.3293 24.7655 32.1906C24.551 32.0137 24.4085 32.1916 24.2414 32.3625C24.4966 32.6836 24.7475 32.9993 25.006 33.3247C25.0963 33.2888 25.1703 33.2594 25.2444 33.23C25.2574 33.2518 25.271 33.2735 25.2841 33.2948C25.068 33.4629 24.8514 33.6311 24.6114 33.8177C24.6392 33.4537 23.9355 32.5998 23.5927 32.5699H23.5921Z" fill="white"/>
<path d="M4.17138 25.9806C4.12894 25.9 4.04676 25.7427 3.94173 25.5436C4.46798 25.6878 4.93219 25.5191 5.40348 25.4527C5.57545 25.4287 5.71205 25.4336 5.83939 25.5795C5.94987 25.7063 5.96837 25.8015 5.85518 25.9299C5.59776 26.2216 5.34199 26.515 5.09382 26.8148C4.99587 26.9329 4.92022 27.069 4.80866 27.235C4.68893 27.0222 4.56485 26.8012 4.4054 26.5177C4.73356 26.6576 4.88648 26.4584 4.92131 26.2918C4.95015 26.1574 4.8277 25.9 4.70798 25.8494C4.58118 25.7961 4.37819 25.9223 4.17138 25.9806ZM5.15423 26.1035C5.28212 25.9648 5.38552 25.8521 5.48892 25.7395C5.47749 25.7237 5.46552 25.7079 5.45409 25.6927C5.30171 25.7302 5.14933 25.7672 4.97138 25.8108C5.03831 25.918 5.08566 25.9931 5.15423 26.103V26.1035Z" fill="white"/>
<path d="M15.6853 36.6477C15.4866 36.5557 15.2695 36.455 15.0105 36.3353C15.2777 36.2292 15.3158 36.0006 15.2309 35.8395C15.171 35.7258 14.9141 35.6185 14.7933 35.6572C14.6371 35.7073 14.4695 35.8765 14.5914 36.1764C14.3661 36.0675 14.1985 35.987 14.0646 35.9222C14.2785 35.7388 14.482 35.5761 14.6709 35.3987C14.8358 35.2441 15.0045 35.0874 15.1345 34.9051C15.2809 34.7005 15.4502 34.7353 15.6347 34.7968C15.8415 34.8659 15.7811 35.0417 15.7696 35.187C15.7479 35.4662 15.706 35.7437 15.6875 36.0229C15.6744 36.2199 15.6847 36.4191 15.6847 36.6482L15.6853 36.6477ZM15.3544 35.0656C15.3348 35.0607 15.3152 35.0553 15.2951 35.0504C15.1928 35.1669 15.0905 35.2833 14.9686 35.4221C15.0926 35.4787 15.1819 35.52 15.3071 35.5772C15.3256 35.3758 15.3397 35.2207 15.3544 35.0656Z" fill="white"/>
<path d="M26.4803 32.1601C26.4552 32.0763 26.4258 31.9233 26.3649 31.7846C26.2343 31.4874 26.1102 31.1832 25.9404 30.9084C25.8 30.6815 25.898 30.5111 26.0373 30.3887C26.1048 30.3288 26.299 30.3794 26.4215 30.4219C26.6337 30.4959 26.8307 30.6129 27.0408 30.694C27.2906 30.7903 27.5469 30.8681 27.8098 30.9574C27.6688 31.1076 27.4952 31.2926 27.3657 31.4303C27.1818 31.2877 27.0332 31.1723 26.8726 31.0477C26.7257 31.1968 26.606 31.3176 26.4585 31.4673C26.5809 31.6104 26.6963 31.7443 26.8155 31.8831C26.7214 31.9609 26.582 32.0763 26.4808 32.1601H26.4803ZM26.2234 30.7375C26.2087 30.75 26.194 30.7625 26.1799 30.7751C26.261 30.9176 26.3415 31.0602 26.4367 31.2278C26.5358 31.1228 26.6065 31.0483 26.6914 30.9585C26.514 30.8747 26.3687 30.8066 26.2234 30.7381V30.7375Z" fill="white"/>
<path d="M8.6225 31.4542C8.00481 31.4472 7.58632 31.0787 7.55366 30.6162C7.52482 30.2064 7.80563 29.8368 8.21597 29.7454C8.68073 29.642 9.1912 30.0061 9.44806 30.639C9.33922 30.7065 9.22711 30.7767 9.10031 30.8556C9.07963 30.8001 9.04753 30.7582 9.05297 30.7228C9.09977 30.4246 8.99582 30.2058 8.73243 30.0877C8.48916 29.9789 8.29379 30.0654 8.13053 30.2542C7.94495 30.4687 7.90087 30.7489 8.06359 30.9503C8.1659 31.0771 8.32971 31.1522 8.45814 31.26C8.52236 31.3138 8.56862 31.3884 8.62304 31.4537L8.6225 31.4542Z" fill="white"/>
<path d="M20.0074 34.7451C19.8942 35.0248 20.3301 36.061 20.6741 36.1911C20.4123 36.3141 20.1892 36.4191 19.9339 36.5394C20.0629 36.1976 19.6417 35.2158 19.295 35.0727C19.5579 34.9519 19.7827 34.8485 20.0074 34.7451Z" fill="white"/>
<path d="M18.0793 36.3168C18.0842 36.5236 17.9106 36.7075 17.7097 36.7075C17.5204 36.7075 17.3604 36.5383 17.3566 36.3336C17.3527 36.1355 17.5117 35.9494 17.6929 35.9391C17.8855 35.9282 18.0744 36.1127 18.0793 36.3168Z" fill="white"/>
<path d="M31.6612 24.0486C31.6672 24.2451 31.5164 24.4045 31.308 24.41C31.1028 24.4154 30.9564 24.3316 30.9374 24.109C30.9178 23.8788 31.0832 23.6932 31.296 23.6943C31.4941 23.6954 31.6546 23.8516 31.6606 24.0486H31.6612Z" fill="white"/>
<path d="M4.21111 23.6949C4.40866 23.7057 4.57084 23.875 4.56703 24.0671C4.56322 24.2581 4.39016 24.4154 4.18717 24.4116C3.99125 24.4078 3.8269 24.2331 3.83669 24.0388C3.84703 23.8309 4.00703 23.684 4.21111 23.6949Z" fill="white"/>
<path d="M11.5188 7.88224C11.411 7.57367 11.6037 7.49694 11.7996 7.51218C12.3286 7.55354 12.8559 7.62211 13.3811 7.69775C13.6755 7.7402 13.9623 7.83653 14.2573 7.87245C14.4537 7.89639 14.4815 7.97857 14.4205 8.19407C14.0924 8.13367 13.7555 8.09067 13.4295 8.00687C12.8026 7.84523 12.1773 7.71734 11.5193 7.88279L11.5188 7.88224Z" fill="white"/>
<path d="M14.4358 7.48605C13.4388 7.4398 12.524 6.89286 11.5264 7.19218C11.4236 6.94946 11.5226 6.82647 11.7348 6.83191C12.1653 6.8428 12.5985 6.86239 13.0246 6.92116C13.4529 6.98048 13.8731 7.09858 14.2992 7.17803C14.4962 7.21504 14.4548 7.33259 14.4352 7.48605H14.4358Z" fill="white"/>
<path d="M14.4178 6.06294C13.4415 6.02212 12.5261 5.47465 11.5297 5.77342C11.46 5.46812 11.4981 5.3805 11.8344 5.39628C12.3454 5.42023 12.8543 5.50567 13.362 5.58077C13.6565 5.62431 13.9438 5.72118 14.2382 5.75437C14.4684 5.78049 14.4858 5.87573 14.4178 6.0624V6.06294Z" fill="white"/>
<path d="M14.4205 4.64255C13.4344 4.59901 12.5196 4.05589 11.5231 4.35575C11.4023 4.03357 11.6124 3.96283 11.8143 3.97915C12.3433 4.0216 12.8701 4.09398 13.3952 4.17072C13.6809 4.21208 13.9607 4.29099 14.2448 4.34432C14.457 4.38405 14.4581 4.37752 14.4211 4.642L14.4205 4.64255Z" fill="white"/>
<path d="M11.5193 3.67058C11.4448 3.43276 11.5068 3.33589 11.7196 3.29617C12.272 3.19277 12.7939 3.34406 13.3223 3.45562C13.6396 3.52256 13.9574 3.58732 14.2758 3.64773C14.4586 3.68256 14.4603 3.67929 14.4205 3.95303C13.4502 3.91983 12.5327 3.33698 11.5193 3.67058Z" fill="white"/>
<path d="M11.5188 5.08227C11.4328 4.84445 11.515 4.75574 11.7348 4.71329C12.2703 4.60935 12.7743 4.76282 13.2853 4.86567C13.6124 4.93152 13.9373 5.00826 14.266 5.06213C14.4554 5.09315 14.4842 5.18567 14.4173 5.39138C14.1256 5.33859 13.8203 5.31193 13.5335 5.22649C12.8695 5.02785 12.2067 4.88091 11.5193 5.08281L11.5188 5.08227Z" fill="white"/>
<path d="M14.4347 6.51083V6.73776C13.4567 6.73014 12.5512 6.16416 11.558 6.42103C11.4791 6.19682 11.5542 6.07655 11.7849 6.09287C12.2328 6.12444 12.6829 6.14784 13.1253 6.2175C13.559 6.28607 13.9846 6.40797 14.4341 6.51137L14.4347 6.51083Z" fill="white"/>
<path d="M7.59774 6.0292C7.55638 5.87301 7.54006 5.76471 7.72672 5.72934C8.35474 5.61016 8.97895 5.46812 9.60915 5.36363C9.83446 5.32608 10.0739 5.36798 10.3068 5.37941C10.5272 5.39029 10.5795 5.51492 10.5147 5.72662C9.51664 5.4937 8.59039 5.96825 7.59829 6.0292H7.59774Z" fill="white"/>
<path d="M10.5049 4.3416C10.0108 4.14731 9.53079 4.26541 9.05242 4.35085C8.57406 4.43629 8.09896 4.53969 7.61244 4.63711C7.56183 4.47058 7.51666 4.34813 7.72618 4.30786C8.33678 4.18976 8.94412 4.05099 9.55745 3.9514C9.80126 3.91221 10.0587 3.9514 10.3096 3.96174C10.5359 3.97099 10.5757 4.10323 10.5049 4.3416Z" fill="white"/>
<path d="M10.5049 3.63848C9.50738 3.34134 8.58277 3.86977 7.59666 3.91494C7.56945 3.77779 7.5123 3.66351 7.71529 3.62487C8.35257 3.5046 8.98603 3.36202 9.62493 3.25263C9.83282 3.21726 10.0543 3.25535 10.2687 3.26624C10.4968 3.27712 10.5991 3.38161 10.5049 3.63848Z" fill="white"/>
<path d="M10.5125 7.14919C9.50357 6.92334 8.57134 7.37776 7.58577 7.44306V7.21232C7.59502 7.20415 7.60645 7.18511 7.62115 7.18184C8.28236 7.04688 8.94249 6.90157 9.60752 6.78674C9.82357 6.74919 10.0543 6.78946 10.278 6.79872C10.4946 6.80797 10.592 6.90919 10.5131 7.14919H10.5125Z" fill="white"/>
<path d="M7.53625 5.25315C7.59067 5.18567 7.6353 5.07193 7.70114 5.05778C8.35202 4.91683 9.00453 4.78187 9.6614 4.66921C9.86058 4.63493 10.0734 4.66921 10.2791 4.685C10.4826 4.70023 10.5958 4.79493 10.5376 4.96744C10.0543 4.99465 9.59228 4.99683 9.13732 5.05397C8.74603 5.10295 8.36291 5.21887 7.97488 5.29669C7.85407 5.32118 7.72836 5.319 7.60482 5.32934L7.53679 5.25261L7.53625 5.25315Z" fill="white"/>
<path d="M7.54115 8.09775C7.59176 8.027 7.63094 7.90727 7.69461 7.89258C8.28345 7.75762 8.87392 7.62374 9.46983 7.52578C9.74194 7.48116 10.0298 7.49748 10.3068 7.52415C10.5436 7.54701 10.5474 7.58238 10.5087 7.88115C9.50956 7.60959 8.58222 8.107 7.61081 8.16741C7.58795 8.14401 7.56455 8.12061 7.54169 8.0972L7.54115 8.09775Z" fill="white"/>
<path d="M10.5027 6.4662C9.50303 6.17342 8.57787 6.7062 7.59285 6.74593C7.58414 6.69314 7.5738 6.65994 7.5738 6.6262C7.5738 6.58321 7.58196 6.54021 7.58523 6.50593C8.19257 6.37423 8.77868 6.22784 9.37296 6.12661C9.67119 6.076 9.98357 6.09886 10.2889 6.10811C10.5027 6.11464 10.6002 6.22675 10.5027 6.46675V6.4662Z" fill="white"/>
<path d="M24.0623 8.17992V2.51305C24.0819 2.50815 24.101 2.50379 24.1206 2.4989C24.1831 2.82597 24.2958 3.15249 24.3002 3.48065C24.3192 5.03601 24.3089 6.59191 24.3089 8.17992H24.0623Z" fill="white"/>
</svg>
