<svg width="136" height="40" viewBox="0 0 136 40" fill="none" xmlns="http://www.w3.org/2000/svg">
<path d="M43.6366 15.2508C40.6259 6.14617 32.0447 -0.00821955 22.3708 8.23973e-06C12.6969 0.00823603 4.1204 6.14617 1.10496 15.2508C-0.359022 19.6945 -0.368491 24.4879 1.07792 28.9373C2.52433 33.3867 5.35158 37.2612 9.15044 40C12.9945 37.2126 17.6237 35.7114 22.3749 35.7114C27.1261 35.7114 31.7553 37.2126 35.5994 40C39.3966 37.26 42.2221 33.385 43.667 28.9357C45.1119 24.4865 45.1012 19.6936 43.6366 15.2508ZM30.4492 30.1396C28.299 32.2646 25.3941 33.4545 22.3684 33.4495C16.0679 33.4495 10.9625 28.3835 10.9637 22.1433C10.9649 15.9032 16.0738 10.8466 22.3755 10.8454C28.6772 10.8442 33.7873 15.8996 33.7967 22.1375C33.7966 23.6258 33.5009 25.0993 32.9267 26.4729C32.3526 27.8464 31.5113 29.0927 30.4516 30.1396H30.4492Z" fill="white"/>
<path d="M53.1906 19.0779C53.2472 18.7036 53.2869 18.3254 53.363 17.9543C54.063 14.5445 56.6484 12.1188 60.1101 11.6162C63.6219 11.1065 67.0544 12.9465 68.5364 16.1339C70.6983 20.7831 67.8357 26.3393 62.8081 27.2501C58.5644 28.0197 54.6121 25.5933 53.4996 21.5239C53.3773 21.0756 53.337 20.6051 53.2563 20.1451C53.24 20.0502 53.2127 19.9567 53.1906 19.8625C53.1906 19.6007 53.1906 19.339 53.1906 19.0779ZM65.4403 19.4476C65.4344 17.1514 63.5146 15.2649 61.194 15.2747C58.9397 15.2839 57.0166 17.2234 57.029 19.4738C57.042 21.7568 58.9593 23.6675 61.2363 23.6656C63.5413 23.6643 65.4462 21.7529 65.4403 19.4476Z" fill="white"/>
<path d="M104.952 11.8472H108.769C108.769 11.9859 108.769 12.1129 108.769 12.2398C108.769 14.5831 108.76 16.9263 108.772 19.2703C108.784 21.709 107.903 23.7454 106.106 25.3813C106.074 25.4107 106.041 25.4402 106.013 25.4723C106 25.4873 105.994 25.5095 105.977 25.5455C107.95 27.2933 108.918 29.4926 108.75 32.1454C108.622 34.1745 107.789 35.9034 106.327 37.3089C103.245 40.2732 98.3406 40.2705 95.2139 37.3652C92.0502 34.4252 91.6481 28.7427 95.5333 25.5135C93.8087 24 92.8445 22.0964 92.7352 19.7937C92.65 17.9949 93.134 16.3427 94.186 14.8795C95.4136 13.171 97.0694 12.105 99.1232 11.7013C101.152 11.3028 103.082 11.6215 104.952 12.6848V11.8472ZM100.726 27.4131C98.5058 27.3948 96.5704 29.2976 96.545 31.5218C96.5183 33.8441 98.4154 35.7921 100.722 35.8111C102.979 35.8294 104.931 33.918 104.95 31.6729C104.969 29.3225 103.095 27.4327 100.726 27.4131ZM100.726 23.6675C103.021 23.6708 104.941 21.7777 104.95 19.5039C104.96 17.1861 103.058 15.2852 100.722 15.2774C98.4766 15.2695 96.5457 17.2018 96.545 19.4581C96.545 21.7431 98.4525 23.6643 100.726 23.6675Z" fill="white"/>
<path d="M121.543 11.8439H125.394V12.9492C125.562 12.8353 125.669 12.7718 125.766 12.6959C127.987 10.954 131.587 11.3277 133.366 12.7843C134.535 13.7416 135.162 15.0012 135.407 16.4631C135.509 17.0716 135.549 17.6972 135.553 18.3155C135.568 21.0835 135.559 23.8521 135.56 26.6206C135.56 26.7273 135.56 26.834 135.56 26.9648H131.682C131.682 26.832 131.682 26.6966 131.682 26.5611C131.678 23.8691 131.679 21.177 131.663 18.485C131.661 18.1186 131.603 17.7449 131.512 17.389C131.184 16.092 130.287 15.3631 128.911 15.2911C128.472 15.2682 128.018 15.2904 127.589 15.3807C126.356 15.6405 125.608 16.5403 125.475 17.8706C125.433 18.292 125.41 18.718 125.41 19.1413C125.404 21.6155 125.407 24.0896 125.407 26.5637C125.407 26.692 125.407 26.8196 125.407 26.9681H121.543L121.543 11.8439Z" fill="white"/>
<path d="M76.368 11.8374V12.8844C76.4435 12.8706 76.4806 12.8746 76.5027 12.8582C77.7394 11.9421 79.1694 11.6548 80.6592 11.573C81.0912 11.5495 81.5258 11.5456 81.9584 11.556C82.0358 11.558 82.1764 11.6738 82.177 11.7386C82.1907 12.902 82.1868 14.0661 82.1868 15.2505C81.6546 15.2806 81.1465 15.2819 80.6462 15.3435C80.0041 15.4233 79.3535 15.4972 78.7329 15.6693C77.1669 16.1038 76.4149 17.0723 76.3954 18.7088C76.3641 21.3236 76.3791 23.9391 76.3745 26.5539C76.3745 26.6828 76.3745 26.8117 76.3745 26.9629H72.5264V11.8374H76.368Z" fill="white"/>
<path d="M88.9755 26.9681H85.143V11.8466H88.9755V26.9681Z" fill="white"/>
<path d="M113.159 11.8459H116.989V26.9655H113.159V11.8459Z" fill="white"/>
</svg>
