<svg width="119" height="40" viewBox="0 0 119 40" fill="none" xmlns="http://www.w3.org/2000/svg">
<path d="M98.1761 36.9636C98.3822 36.9824 98.5244 37.0071 98.6666 37.0071C101.883 37.0042 105.101 37.0361 108.317 36.9853C111.986 36.9273 115.174 34.216 115.83 30.6165C116.303 28.0199 115.258 25.9501 113.436 24.1895C112.085 22.8833 110.377 22.1982 108.697 21.4521C106.583 20.5145 104.426 19.6379 102.406 18.5217C100.015 17.2024 98.2689 15.2357 97.7769 12.4388C96.7145 6.38778 99.8205 1.06249 106.458 0.150996C110.515 -0.406352 114.316 0.627064 117.918 2.46312C118.884 2.95515 119.164 3.81295 118.708 4.61994C118.265 5.40226 117.461 5.56627 116.506 5.06843C113.616 3.56185 110.545 2.75776 107.29 3.04224C101.822 3.51976 99.7625 7.8305 100.803 12.2704C101.196 13.9454 102.372 15.1384 103.829 15.9048C105.896 16.9905 108.044 17.9266 110.192 18.8497C112.87 20.0007 115.351 21.3868 117.074 23.8426C120.798 29.1491 118.566 36.4483 112.425 39.0376C110.912 39.6748 109.332 39.984 107.699 39.9898C104.24 40.0043 100.781 39.9941 97.3226 39.9941C95.742 39.9941 95.2964 39.5616 95.2442 37.9926C95.1019 33.7457 93.7332 29.8472 91.7535 26.1548C90.8101 24.3942 89.6286 22.7599 88.6155 21.0341C88.3659 20.6089 88.2512 20.0501 88.2381 19.5493C88.196 17.7641 88.2759 15.9759 88.2105 14.1921C88.1539 12.642 87.6459 12.3662 86.3745 13.2588C85.5632 13.8292 84.8679 14.6072 84.2438 15.3881C83.775 15.9759 83.2888 16.2328 82.5413 16.2662C80.4919 16.3562 78.4468 16.5187 76.4017 16.6813C75.9765 16.7147 75.5614 16.8714 74.9909 17.0064C75.3524 17.6451 75.6368 18.2169 75.9837 18.7481C77.3727 20.8701 78.8227 22.9544 80.1711 25.1025C81.3859 27.0372 82.3091 29.0983 82.4832 31.4336C82.6022 33.0258 82.3657 34.5614 81.9288 36.0796C81.8504 36.354 81.7619 36.6254 81.6428 37.0114C81.9651 37.0114 82.2176 37.0114 82.4702 37.0114C85.1059 37.0114 87.7432 37.01 90.379 37.0114C91.4168 37.0114 92.0902 37.5761 92.1163 38.4498C92.1439 39.3526 91.453 39.9883 90.3877 39.9898C86.7359 39.9985 83.0827 40.0043 79.4309 39.9869C77.9664 39.9796 77.3263 38.8185 78.0477 37.547C80.0027 34.1057 80.1043 30.6571 77.9896 27.2564C76.6761 25.1446 75.2246 23.1198 73.9198 21.0037C73.2173 19.8643 72.5642 18.6596 72.12 17.4027C71.6948 16.1965 72.2115 15.2691 73.3305 14.6058C74.6832 13.806 76.2087 13.6536 77.7196 13.507C78.9446 13.388 80.1827 13.4054 81.4106 13.2995C81.7459 13.2704 82.1537 13.0948 82.37 12.8466C83.5355 11.5084 84.8302 10.3778 86.6096 9.96265C89.0466 9.39369 90.5619 10.2384 90.9392 12.6957C91.2455 14.6856 91.186 16.7336 91.2353 18.7568C91.2484 19.3098 91.3442 19.7583 91.6664 20.2257C94.6636 24.5872 96.9177 29.2753 97.8684 34.5266C97.9409 34.9301 98.0077 35.3365 98.0599 35.7429C98.1107 36.1435 98.1383 36.5484 98.1761 36.9606V36.9636Z" fill="white"/>
<path d="M15.2981 33.7661C15.063 36.0332 16.2459 37.3511 18.378 37.1551C19.275 37.0724 20.1633 36.7763 21.0283 36.4933C21.9848 36.1812 22.7686 36.412 23.0923 37.2103C23.4029 37.9766 23.0371 38.727 22.1517 39.1175C20.7366 39.7416 19.2445 40.0798 17.7104 39.9651C14.3126 39.7111 12.3982 37.7314 12.2356 34.3103C12.1645 32.8168 12.1848 31.3102 12.2908 29.8182C12.5143 26.6802 15.1414 24.5756 18.2808 24.7164C21.6815 24.8688 23.9007 27.3885 23.8877 30.8095C23.8789 33.11 23.2548 33.8865 20.9253 33.7791C19.3084 33.7036 17.6857 33.7646 16.0659 33.7646H15.2981V33.7661ZM20.8629 30.9604C20.7932 29.7224 20.6902 28.5467 19.5406 27.8834C18.5348 27.3028 17.4332 27.3014 16.4505 27.9255C15.3721 28.6106 15.272 29.7601 15.2241 30.9604H20.8629Z" fill="white"/>
<path d="M26.1954 32.811C26.1954 30.9735 26.2027 29.136 26.1925 27.2985C26.1882 26.4828 26.5351 25.8485 27.2695 25.5669C29.2405 24.8137 31.3001 24.49 33.3829 24.8775C36.0506 25.3725 37.7778 27.5641 37.8127 30.3799C37.8446 32.991 37.8257 35.6021 37.817 38.2132C37.8141 39.2742 37.1972 39.9811 36.309 39.9854C35.4076 39.9898 34.8053 39.3033 34.8024 38.2292C34.7951 35.6181 34.8024 33.007 34.7995 30.3958C34.798 28.493 33.7806 27.4698 31.8865 27.5075C31.2145 27.5206 30.5439 27.6454 29.8719 27.7063C29.3552 27.7528 29.1549 27.9676 29.1607 28.5366C29.1926 31.824 29.181 35.113 29.1709 38.4005C29.168 39.2031 28.7819 39.6966 28.0692 39.9099C27.4001 40.1088 26.8544 39.8664 26.4857 39.3366C26.297 39.0638 26.2187 38.6661 26.2128 38.3221C26.1867 36.4846 26.2012 34.6471 26.2012 32.8096C26.1998 32.8096 26.1969 32.8096 26.1954 32.8096V32.811Z" fill="white"/>
<path d="M63.6263 24.6075C64.6684 24.8775 65.7338 25.0807 66.7468 25.4349C67.654 25.7527 67.982 26.5815 67.6598 27.342C67.326 28.1258 66.593 28.3261 65.6496 28.0866C64.6118 27.8225 63.5392 27.612 62.4739 27.5569C61.5565 27.509 60.9774 28.0881 60.8831 28.8298C60.7873 29.5961 61.2009 30.1578 62.111 30.4626C63.0254 30.7689 63.947 31.0519 64.8585 31.3639C67.0168 32.1013 67.982 33.4525 67.9283 35.6326C67.8804 37.534 66.5756 39.1886 64.6031 39.7155C62.5696 40.2583 60.5754 39.9825 58.6609 39.1668C57.7828 38.7923 57.4911 37.9766 57.8612 37.203C58.2284 36.4367 59.0267 36.1667 59.8932 36.5717C61.0195 37.0971 62.1937 37.2727 63.4187 37.1522C64.3012 37.0666 64.8034 36.6515 64.9181 35.9432C65.0342 35.232 64.7105 34.6326 63.9079 34.2958C62.8861 33.8677 61.8338 33.515 60.7974 33.1202C58.5666 32.2725 57.5666 30.6353 57.8989 28.3943C58.1791 26.5176 59.9237 24.9791 61.9963 24.7977C62.5232 24.7512 63.0515 24.744 63.5798 24.7193C63.5944 24.6816 63.6089 24.6438 63.6234 24.6061L63.6263 24.6075Z" fill="white"/>
<path d="M45.8231 24.6032C46.8652 24.8732 47.9291 25.0764 48.9407 25.4334C49.8784 25.7629 50.2078 26.6163 49.8537 27.4117C49.5271 28.1476 48.7463 28.3101 47.7999 28.0576C46.7868 27.7876 45.7316 27.6047 44.6866 27.5496C43.7954 27.5017 43.1771 28.1026 43.0842 28.8239C42.987 29.5772 43.4021 30.1506 44.3136 30.4641C45.2483 30.7848 46.2004 31.0577 47.1308 31.3901C49.2151 32.1347 50.2528 33.5701 50.1788 35.5557C50.1062 37.5136 48.8043 39.1741 46.8246 39.714C44.7897 40.2684 42.7968 39.9782 40.881 39.1755C39.997 38.8054 39.6995 37.9926 40.0595 37.2205C40.4223 36.4425 41.2162 36.1682 42.0842 36.5702C43.2352 37.1029 44.4341 37.2843 45.6837 37.1522C46.379 37.0782 46.9479 36.7894 47.125 36.0433C47.2948 35.3263 46.9915 34.7037 46.1975 34.3553C45.1612 33.901 44.0872 33.5324 43.0276 33.1332C40.8708 32.3219 39.8055 30.6977 40.0827 28.6338C40.3643 26.5394 42.0087 25.0009 44.1931 24.8035C44.72 24.7556 45.2498 24.7469 45.7781 24.7208C45.7926 24.683 45.8086 24.6438 45.8231 24.6061V24.6032Z" fill="white"/>
<path d="M5.91899 24.6032C6.96111 24.8717 8.02646 25.0778 9.03956 25.4291C9.9467 25.7426 10.2892 26.5684 9.98734 27.3377C9.68689 28.0997 8.90312 28.3421 7.97276 28.0794C7.099 27.8326 6.19476 27.6875 5.29923 27.5206C5.09168 27.4814 4.86525 27.5177 4.65044 27.5467C3.83329 27.6541 3.28175 28.1374 3.17869 28.821C3.07709 29.5018 3.47914 30.1215 4.27452 30.4147C5.04378 30.6977 5.829 30.9329 6.60842 31.1869C6.81452 31.2536 7.02643 31.3088 7.23108 31.3799C9.29936 32.1042 10.3575 33.5846 10.2675 35.6253C10.1818 37.5644 8.80297 39.2437 6.85371 39.7358C4.88557 40.2322 2.96679 39.9695 1.10606 39.2408C0.137955 38.862 -0.216194 38.0797 0.129246 37.3003C0.525486 36.4062 1.29329 36.158 2.30929 36.6225C3.37028 37.1072 4.48062 37.2582 5.63015 37.1697C6.56487 37.0971 7.12803 36.666 7.23108 35.9795C7.34719 35.1972 7.01046 34.6253 6.11348 34.2537C5.15554 33.8575 4.17437 33.5208 3.20047 33.1637C0.950754 32.3379 -0.0768565 30.7602 0.209075 28.5685C0.47904 26.4973 2.13076 24.9922 4.36016 24.7977C4.86235 24.7541 5.36745 24.7454 5.87254 24.7222C5.88706 24.683 5.90157 24.6453 5.91609 24.6061L5.91899 24.6032Z" fill="white"/>
<path d="M55.4591 32.4278C55.4591 34.3844 55.4635 36.3394 55.4576 38.296C55.4547 39.3192 54.851 39.9999 53.9815 39.9869C53.1121 39.9724 52.4938 39.2931 52.4924 38.2873C52.4837 34.3278 52.4837 30.3668 52.4924 26.4073C52.4953 25.3783 53.0875 24.7425 53.9903 24.7396C54.8959 24.7367 55.4547 25.3652 55.4576 26.416C55.4635 28.4204 55.4591 30.4249 55.4591 32.4278Z" fill="white"/>
<path d="M54.012 22.0632C53.0251 22.0719 52.3313 21.3825 52.3327 20.397C52.3327 19.4361 53.07 18.7017 54.0207 18.7148C54.9148 18.7264 55.6725 19.4753 55.6942 20.3694C55.7174 21.2997 54.9671 22.0545 54.012 22.0632Z" fill="white"/>
<path d="M82.3773 18.8149C83.2772 18.828 83.9825 19.5464 83.9724 20.4361C83.9622 21.2939 83.1828 22.0429 82.3192 22.0269C81.4585 22.0109 80.7023 21.2272 80.7255 20.3752C80.7502 19.4724 81.4614 18.8004 82.3787 18.8135L82.3773 18.8149Z" fill="white"/>
</svg>
