<svg width="123" height="40" viewBox="0 0 123 40" fill="none" xmlns="http://www.w3.org/2000/svg">
<path d="M18.4499 0.648896L17.922 0.342479L17.3336 0L0 10.0258V30.0335L15.7783 39.1078L16.2933 39.4013L17.3336 40L34.662 30.0335V10.0258L18.4499 0.648896ZM18.164 3.85348L27.4855 20.0322L18.164 36.1555V3.85348ZM1.545 10.9206L15.3341 2.93807L1.545 26.6886V10.9206ZM1.81666 29.2996L16.6229 3.80713V37.81L1.81666 29.2996ZM19.4708 36.9847L28.3765 21.5836L32.8248 29.3086L19.4708 36.9847ZM19.4644 3.02047L33.1119 10.9167V26.7092L19.4644 3.02047Z" fill="white"/>
<path d="M46.8585 24.208C46.0051 24.208 45.3438 23.9787 44.8745 23.52C44.4051 23.0613 44.1705 22.4053 44.1705 21.552V13.776H45.7065V21.488C45.7065 21.9467 45.8185 22.2987 46.0425 22.544C46.2771 22.7893 46.6078 22.912 47.0345 22.912C47.5145 22.912 47.9145 22.7787 48.2345 22.512L48.7145 23.616C48.4798 23.8187 48.1971 23.968 47.8665 24.064C47.5465 24.16 47.2105 24.208 46.8585 24.208ZM42.7305 16.896V15.632H48.1385V16.896H42.7305Z" fill="white"/>
<path d="M50.5715 24.112V15.632H52.1075V24.112H50.5715ZM51.3395 14C51.0408 14 50.7901 13.904 50.5875 13.712C50.3955 13.52 50.2995 13.2853 50.2995 13.008C50.2995 12.72 50.3955 12.48 50.5875 12.288C50.7901 12.096 51.0408 12 51.3395 12C51.6381 12 51.8835 12.096 52.0755 12.288C52.2781 12.4693 52.3795 12.6987 52.3795 12.976C52.3795 13.264 52.2835 13.5093 52.0915 13.712C51.8995 13.904 51.6488 14 51.3395 14Z" fill="white"/>
<path d="M58.7522 27.312C57.9736 27.312 57.2162 27.2 56.4802 26.976C55.7549 26.7627 55.1629 26.4533 54.7042 26.048L55.4402 24.864C55.8349 25.2053 56.3202 25.472 56.8962 25.664C57.4722 25.8667 58.0749 25.968 58.7042 25.968C59.7069 25.968 60.4429 25.7333 60.9122 25.264C61.3816 24.7947 61.6162 24.08 61.6162 23.12V21.328L61.7762 19.648L61.6962 17.952V15.632H63.1522V22.96C63.1522 24.4533 62.7789 25.552 62.0322 26.256C61.2856 26.96 60.1922 27.312 58.7522 27.312ZM58.5602 23.76C57.7389 23.76 57.0029 23.5893 56.3522 23.248C55.7122 22.896 55.2002 22.4107 54.8162 21.792C54.4429 21.1733 54.2562 20.4587 54.2562 19.648C54.2562 18.8267 54.4429 18.112 54.8162 17.504C55.2002 16.8853 55.7122 16.4053 56.3522 16.064C57.0029 15.7227 57.7389 15.552 58.5602 15.552C59.2856 15.552 59.9469 15.7013 60.5442 16C61.1416 16.288 61.6162 16.736 61.9682 17.344C62.3309 17.952 62.5122 18.72 62.5122 19.648C62.5122 20.5653 62.3309 21.328 61.9682 21.936C61.6162 22.544 61.1416 23.0027 60.5442 23.312C59.9469 23.6107 59.2856 23.76 58.5602 23.76ZM58.7362 22.416C59.3016 22.416 59.8029 22.2987 60.2402 22.064C60.6776 21.8293 61.0189 21.504 61.2642 21.088C61.5202 20.672 61.6482 20.192 61.6482 19.648C61.6482 19.104 61.5202 18.624 61.2642 18.208C61.0189 17.792 60.6776 17.472 60.2402 17.248C59.8029 17.0133 59.3016 16.896 58.7362 16.896C58.1709 16.896 57.6642 17.0133 57.2162 17.248C56.7789 17.472 56.4322 17.792 56.1762 18.208C55.9309 18.624 55.8082 19.104 55.8082 19.648C55.8082 20.192 55.9309 20.672 56.1762 21.088C56.4322 21.504 56.7789 21.8293 57.2162 22.064C57.6642 22.2987 58.1709 22.416 58.7362 22.416Z" fill="white"/>
<path d="M69.8631 24.208C68.9564 24.208 68.1564 24.0213 67.4631 23.648C66.7804 23.2747 66.2471 22.7627 65.8631 22.112C65.4898 21.4613 65.3031 20.7147 65.3031 19.872C65.3031 19.0293 65.4844 18.2827 65.8471 17.632C66.2204 16.9813 66.7271 16.4747 67.3671 16.112C68.0178 15.7387 68.7484 15.552 69.5591 15.552C70.3804 15.552 71.1058 15.7333 71.7351 16.096C72.3644 16.4587 72.8551 16.9707 73.2071 17.632C73.5698 18.2827 73.7511 19.0453 73.7511 19.92C73.7511 19.984 73.7458 20.0587 73.7351 20.144C73.7351 20.2293 73.7298 20.3093 73.7191 20.384H66.5031V19.28H72.9191L72.2951 19.664C72.3058 19.12 72.1938 18.6347 71.9591 18.208C71.7244 17.7813 71.3991 17.4507 70.9831 17.216C70.5778 16.9707 70.1031 16.848 69.5591 16.848C69.0258 16.848 68.5511 16.9707 68.1351 17.216C67.7191 17.4507 67.3938 17.7867 67.1591 18.224C66.9244 18.6507 66.8071 19.1413 66.8071 19.696V19.952C66.8071 20.5173 66.9351 21.024 67.1911 21.472C67.4578 21.9093 67.8258 22.2507 68.2951 22.496C68.7644 22.7413 69.3031 22.864 69.9111 22.864C70.4124 22.864 70.8658 22.7787 71.2711 22.608C71.6871 22.4373 72.0498 22.1813 72.3591 21.84L73.2071 22.832C72.8231 23.28 72.3431 23.6213 71.7671 23.856C71.2018 24.0907 70.5671 24.208 69.8631 24.208Z" fill="white"/>
<path d="M75.884 24.112V15.632H77.356V17.936L77.212 17.36C77.4466 16.7733 77.8413 16.3253 78.396 16.016C78.9506 15.7067 79.6333 15.552 80.444 15.552V17.04C80.38 17.0293 80.316 17.024 80.252 17.024C80.1986 17.024 80.1453 17.024 80.092 17.024C79.2706 17.024 78.62 17.2693 78.14 17.76C77.66 18.2507 77.42 18.96 77.42 19.888V24.112H75.884Z" fill="white"/>
<path d="M84.8628 24.208C84.1588 24.208 83.4868 24.112 82.8468 23.92C82.2175 23.728 81.7215 23.4933 81.3588 23.216L81.9988 22C82.3615 22.2453 82.8095 22.4533 83.3428 22.624C83.8762 22.7947 84.4202 22.88 84.9748 22.88C85.6895 22.88 86.2015 22.7787 86.5108 22.576C86.8308 22.3733 86.9908 22.0907 86.9908 21.728C86.9908 21.4613 86.8948 21.2533 86.7028 21.104C86.5108 20.9547 86.2548 20.8427 85.9348 20.768C85.6255 20.6933 85.2788 20.6293 84.8948 20.576C84.5108 20.512 84.1268 20.4373 83.7428 20.352C83.3588 20.256 83.0068 20.128 82.6868 19.968C82.3668 19.7973 82.1108 19.568 81.9188 19.28C81.7268 18.9813 81.6308 18.5867 81.6308 18.096C81.6308 17.584 81.7748 17.136 82.0628 16.752C82.3508 16.368 82.7562 16.0747 83.2788 15.872C83.8122 15.6587 84.4415 15.552 85.1668 15.552C85.7215 15.552 86.2815 15.6213 86.8468 15.76C87.4228 15.888 87.8922 16.0747 88.2548 16.32L87.5988 17.536C87.2148 17.28 86.8148 17.104 86.3988 17.008C85.9828 16.912 85.5668 16.864 85.1508 16.864C84.4788 16.864 83.9775 16.976 83.6468 17.2C83.3162 17.4133 83.1508 17.6907 83.1508 18.032C83.1508 18.32 83.2468 18.544 83.4388 18.704C83.6415 18.8533 83.8975 18.9707 84.2068 19.056C84.5268 19.1413 84.8788 19.216 85.2628 19.28C85.6468 19.3333 86.0308 19.408 86.4148 19.504C86.7988 19.5893 87.1455 19.712 87.4548 19.872C87.7748 20.032 88.0308 20.256 88.2228 20.544C88.4255 20.832 88.5268 21.216 88.5268 21.696C88.5268 22.208 88.3775 22.6507 88.0788 23.024C87.7802 23.3973 87.3588 23.6907 86.8148 23.904C86.2708 24.1067 85.6202 24.208 84.8628 24.208Z" fill="white"/>
<path d="M94.9425 24.208C94.2385 24.208 93.5931 24.048 93.0065 23.728C92.4305 23.3973 91.9665 22.912 91.6145 22.272C91.2731 21.632 91.1025 20.832 91.1025 19.872C91.1025 18.912 91.2678 18.112 91.5985 17.472C91.9398 16.832 92.3985 16.352 92.9745 16.032C93.5611 15.712 94.2171 15.552 94.9425 15.552C95.7745 15.552 96.5105 15.7333 97.1505 16.096C97.7905 16.4587 98.2971 16.9653 98.6705 17.616C99.0438 18.256 99.2305 19.008 99.2305 19.872C99.2305 20.736 99.0438 21.4933 98.6705 22.144C98.2971 22.7947 97.7905 23.3013 97.1505 23.664C96.5105 24.0267 95.7745 24.208 94.9425 24.208ZM90.4465 27.216V15.632H91.9185V17.92L91.8225 19.888L91.9825 21.856V27.216H90.4465ZM94.8145 22.864C95.3585 22.864 95.8438 22.7413 96.2705 22.496C96.7078 22.2507 97.0491 21.904 97.2945 21.456C97.5505 20.9973 97.6785 20.4693 97.6785 19.872C97.6785 19.264 97.5505 18.7413 97.2945 18.304C97.0491 17.856 96.7078 17.5093 96.2705 17.264C95.8438 17.0187 95.3585 16.896 94.8145 16.896C94.2811 16.896 93.7958 17.0187 93.3585 17.264C92.9318 17.5093 92.5905 17.856 92.3345 18.304C92.0891 18.7413 91.9665 19.264 91.9665 19.872C91.9665 20.4693 92.0891 20.9973 92.3345 21.456C92.5905 21.904 92.9318 22.2507 93.3585 22.496C93.7958 22.7413 94.2811 22.864 94.8145 22.864Z" fill="white"/>
<path d="M101.353 24.112V15.632H102.889V24.112H101.353ZM102.121 14C101.822 14 101.571 13.904 101.369 13.712C101.177 13.52 101.081 13.2853 101.081 13.008C101.081 12.72 101.177 12.48 101.369 12.288C101.571 12.096 101.822 12 102.121 12C102.419 12 102.665 12.096 102.857 12.288C103.059 12.4693 103.161 12.6987 103.161 12.976C103.161 13.264 103.065 13.5093 102.873 13.712C102.681 13.904 102.43 14 102.121 14Z" fill="white"/>
<path d="M107.069 22.064L107.101 20.096L111.981 15.632H113.837L110.093 19.312L109.261 20.016L107.069 22.064ZM105.821 24.112V12.24H107.357V24.112H105.821ZM112.301 24.112L108.973 19.984L109.965 18.752L114.189 24.112H112.301Z" fill="white"/>
<path d="M119.113 24.208C118.206 24.208 117.406 24.0213 116.713 23.648C116.03 23.2747 115.497 22.7627 115.113 22.112C114.74 21.4613 114.553 20.7147 114.553 19.872C114.553 19.0293 114.734 18.2827 115.097 17.632C115.47 16.9813 115.977 16.4747 116.617 16.112C117.268 15.7387 117.998 15.552 118.809 15.552C119.63 15.552 120.356 15.7333 120.985 16.096C121.614 16.4587 122.105 16.9707 122.457 17.632C122.82 18.2827 123.001 19.0453 123.001 19.92C123.001 19.984 122.996 20.0587 122.985 20.144C122.985 20.2293 122.98 20.3093 122.969 20.384H115.753V19.28H122.169L121.545 19.664C121.556 19.12 121.444 18.6347 121.209 18.208C120.974 17.7813 120.649 17.4507 120.233 17.216C119.828 16.9707 119.353 16.848 118.809 16.848C118.276 16.848 117.801 16.9707 117.385 17.216C116.969 17.4507 116.644 17.7867 116.409 18.224C116.174 18.6507 116.057 19.1413 116.057 19.696V19.952C116.057 20.5173 116.185 21.024 116.441 21.472C116.708 21.9093 117.076 22.2507 117.545 22.496C118.014 22.7413 118.553 22.864 119.161 22.864C119.662 22.864 120.116 22.7787 120.521 22.608C120.937 22.4373 121.3 22.1813 121.609 21.84L122.457 22.832C122.073 23.28 121.593 23.6213 121.017 23.856C120.452 24.0907 119.817 24.208 119.113 24.208Z" fill="white"/>
</svg>
